<svg width="38" height="42" viewBox="0 0 38 42" fill="none" xmlns="http://www.w3.org/2000/svg">
<path fill-rule="evenodd" clip-rule="evenodd" d="M7.3865 4.19817C1.76007 17.4227 12.1088 27.4252 23.429 22.5778C9.31006 34.4943 -4.69348 16.3936 7.3865 4.19817Z" fill="#4C2F92"/>
<path fill-rule="evenodd" clip-rule="evenodd" d="M7.27106 26.9251C20.5821 32.3303 30.4211 21.818 25.3814 10.5748C37.5287 24.4918 19.6588 38.8031 7.27106 26.9251Z" fill="#4C2F92"/>
<path fill-rule="evenodd" clip-rule="evenodd" d="M29.6902 26.9636C35.2301 13.7006 24.814 3.76538 13.5323 8.68971C27.5647 -3.31333 41.6933 14.6912 29.6902 26.9636Z" fill="#4C2F92"/>
<path fill-rule="evenodd" clip-rule="evenodd" d="M30.7578 5.42926C18.0142 -1.21665 7.2326 8.32422 11.1855 19.9906C0.40395 4.97722 19.5434 -7.57403 30.7578 5.42926Z" fill="#4C2F92"/>
<path d="M19.8572 21.3391C23.0209 20.5921 24.98 17.4218 24.233 14.2581C23.4859 11.0944 20.3157 9.13535 17.152 9.88239C13.9883 10.6294 12.0292 13.7997 12.7762 16.9634C13.5233 20.1271 16.6935 22.0861 19.8572 21.3391Z" fill="#D0108C"/>
<path fill-rule="evenodd" clip-rule="evenodd" d="M33.9797 35.5619V35.735C33.9797 36.0524 34.0663 36.2736 34.2298 36.389C34.326 36.4563 34.451 36.4948 34.5857 36.4948C34.6915 36.4948 34.7876 36.3794 34.8742 36.139C34.8934 36.0813 34.9031 36.0235 34.9223 35.9562C34.9415 35.8889 34.9704 35.8504 34.9992 35.8504C35.0377 35.8504 35.0569 35.8889 35.0569 35.9658C35.0569 35.9947 35.0473 36.0428 35.0377 36.1005C35.0281 36.1582 35.0185 36.2159 35.0088 36.2544C34.9127 36.7064 34.778 37.0623 34.6241 37.3123C34.4703 37.5624 34.3164 37.6874 34.1529 37.6874C33.9028 37.6874 33.7201 37.572 33.6239 37.3412C33.5277 37.1104 33.4796 36.8218 33.4796 36.466L33.9797 35.5619Z" fill="#4C2F92"/>
<path fill-rule="evenodd" clip-rule="evenodd" d="M34.7396 39.5533C34.7588 39.6302 34.7492 39.7168 34.7203 39.8033C34.6915 39.8899 34.653 39.9957 34.5953 40.1015C34.5376 40.2169 34.4606 40.3131 34.3548 40.4093C34.2971 40.467 34.2394 40.5054 34.201 40.5054C34.1817 40.5054 34.124 40.467 34.0471 40.3996C33.9701 40.3323 33.8932 40.2746 33.8259 40.2169C33.7585 40.1688 33.7008 40.1207 33.6624 40.0726C33.6143 40.0245 33.595 39.9861 33.595 39.9572C33.6431 39.861 33.672 39.7841 33.7008 39.7264C33.7778 39.5533 33.8355 39.4379 33.8739 39.3609C33.9413 39.2455 34.0086 39.1301 34.0855 39.0051C34.1048 38.9858 34.124 38.9474 34.1529 38.8993C34.1721 38.9185 34.201 38.9377 34.2202 38.957C34.2394 38.9762 34.2779 38.9954 34.3164 39.0147C34.4799 39.1493 34.5857 39.2455 34.6434 39.3128C34.6915 39.3802 34.7203 39.4667 34.7396 39.5533Z" fill="#4C2F92"/>
<path fill-rule="evenodd" clip-rule="evenodd" d="M33.9894 35.5619C33.9317 35.7639 33.8643 35.9562 33.8066 36.1486C33.7201 36.3602 33.6239 36.4563 33.5085 36.4563C33.5085 36.3602 33.547 35.9658 33.6335 35.2541C33.7201 34.5424 33.7874 33.9942 33.8451 33.6191C33.8547 33.5902 33.9124 33.4267 34.0278 33.1478C34.1433 32.8593 34.2394 32.6477 34.3068 32.5034C34.326 32.4938 34.3356 32.4842 34.3549 32.4842C34.3645 32.5034 34.3549 32.5707 34.3452 32.6669L34.2971 32.9651L34.1048 34.3693C34.0663 34.6578 34.0375 34.8983 34.0278 35.1099C33.999 35.3214 33.9894 35.4657 33.9894 35.5619Z" fill="#4C2F92"/>
<path fill-rule="evenodd" clip-rule="evenodd" d="M31.758 35.5619V35.735C31.758 36.0524 31.8446 36.2736 32.0081 36.389C32.1043 36.4563 32.2293 36.4948 32.364 36.4948C32.4697 36.4948 32.5659 36.3794 32.6525 36.139C32.6717 36.0813 32.6813 36.0235 32.7006 35.9562C32.7198 35.8889 32.7487 35.8504 32.7775 35.8504C32.816 35.8504 32.8352 35.8889 32.8352 35.9658C32.8352 35.9947 32.8256 36.0428 32.816 36.1005C32.8064 36.1582 32.7968 36.2159 32.7871 36.2544C32.691 36.7064 32.5563 37.0623 32.4024 37.3123C32.2485 37.5624 32.0947 37.6874 31.9312 37.6874C31.6811 37.6874 31.4983 37.572 31.4022 37.3412C31.306 37.1104 31.2579 36.8218 31.2579 36.466L31.758 35.5619Z" fill="#4C2F92"/>
<path fill-rule="evenodd" clip-rule="evenodd" d="M33.3738 33.2344C33.3931 33.3113 33.3834 33.3979 33.3546 33.4844C33.3257 33.571 33.2873 33.6768 33.2296 33.7826C33.1719 33.898 33.0949 33.9942 32.9891 34.0904C32.9314 34.1481 32.8737 34.1865 32.8352 34.1865C32.816 34.1865 32.7583 34.1481 32.6813 34.0807C32.6044 34.0134 32.5275 33.9557 32.4601 33.898C32.3928 33.8499 32.3351 33.8018 32.2966 33.7537C32.2485 33.7057 32.2293 33.6672 32.2293 33.6383C32.2774 33.5421 32.3063 33.4652 32.3351 33.4075C32.412 33.2344 32.4698 33.119 32.5082 33.042C32.5756 32.9266 32.6429 32.8112 32.7198 32.6862C32.7391 32.6669 32.7583 32.6285 32.7871 32.5804C32.8064 32.5996 32.8352 32.6188 32.8545 32.6381C32.8737 32.6573 32.9122 32.6765 32.9506 32.6958C33.1141 32.8304 33.2199 32.9266 33.2777 32.9939C33.3161 33.0613 33.3546 33.1382 33.3738 33.2344Z" fill="#4C2F92"/>
<path fill-rule="evenodd" clip-rule="evenodd" d="M31.7292 35.5619C31.7099 35.6581 31.6811 35.7542 31.6619 35.8504C31.6426 35.9466 31.6042 36.0524 31.5561 36.1678C31.508 36.2832 31.4503 36.3602 31.3926 36.4179C31.3349 36.4756 31.2868 36.4852 31.2579 36.466C31.2579 36.2928 31.2675 36.0909 31.2964 35.86C31.3252 35.6292 31.3445 35.4849 31.3445 35.4176L31.3541 35.2926C31.3541 35.2734 31.3541 35.2541 31.3445 35.2445C31.3349 35.2349 31.3252 35.2445 31.2964 35.2637C31.2675 35.3022 31.2194 35.3695 31.1425 35.4753C30.9982 35.6773 30.8924 35.8216 30.8155 35.9177C30.5847 36.2063 30.2961 36.4852 29.9499 36.7353C29.6036 36.9853 29.2382 37.1873 28.8438 37.3316C28.4495 37.4758 28.0071 37.6009 27.507 37.7067C27.0068 37.8125 26.4971 37.8605 25.9585 37.8605H25.7854C25.4584 37.8605 25.1891 37.8413 24.9775 37.8028C24.6505 37.7451 24.4196 37.6393 24.3042 37.4951C24.1888 37.3508 24.1215 37.1392 24.1215 36.8411C24.1215 36.591 24.1407 36.3409 24.1696 36.0812C24.2081 35.8216 24.2561 35.6869 24.3138 35.6869C24.3331 35.6869 24.3523 35.7639 24.3619 35.9081C24.3716 36.062 24.4293 36.187 24.5254 36.3025C24.737 36.5333 25.2372 36.6487 26.0354 36.6487C26.4779 36.6487 26.8241 36.6391 27.0838 36.6102C28.3437 36.5044 29.3728 36.1967 30.1807 35.6965C30.5558 35.4753 30.854 35.206 31.0656 34.8983C31.2291 34.6578 31.3541 34.3789 31.4503 34.0423L31.6138 33.3883C31.633 33.3209 31.7099 33.119 31.8638 32.8016C31.96 32.59 32.0273 32.465 32.0562 32.4072C32.085 32.3495 32.1235 32.3014 32.1716 32.2534C32.1716 32.3111 32.1716 32.3688 32.1716 32.4265C32.1331 32.5996 32.1043 32.7246 32.0947 32.8208L31.8542 34.0327C31.8061 34.3597 31.7773 34.6674 31.7484 34.9367C31.7388 35.2156 31.7292 35.4272 31.7292 35.5619Z" fill="#4C2F92"/>
<path fill-rule="evenodd" clip-rule="evenodd" d="M32.6333 31.4166C32.8064 31.2339 33.1622 30.9165 33.7201 30.4741C34.2106 30.0797 34.7011 29.6854 35.2012 29.2815C35.5571 28.9929 35.8937 28.6948 36.2207 28.3966C36.4515 28.185 36.7593 27.8869 37.1344 27.5214C37.7115 26.9636 38 26.6846 38 26.6654C38 26.7039 37.9904 26.7423 37.9808 26.7712C37.9615 26.877 37.8846 27.0405 37.7595 27.2521C37.6345 27.4637 37.5287 27.6272 37.4518 27.733C37.3267 27.8965 37.1921 28.0504 37.0574 28.2139C36.9132 28.3678 36.7978 28.4928 36.7208 28.5794C36.6054 28.6948 36.4131 28.8775 36.1341 29.1179C35.9225 29.3007 35.6148 29.57 35.2012 29.9258C34.9127 30.1759 34.6434 30.3875 34.4125 30.5606C34.1048 30.8011 33.797 31.0319 33.4892 31.2627L32.691 31.8879C32.5755 31.9841 32.4698 32.0706 32.364 32.1476C32.2582 32.2245 32.2004 32.2534 32.1812 32.2341C32.2389 32.061 32.3159 31.9071 32.3928 31.7725C32.4505 31.6378 32.5371 31.5128 32.6333 31.4166Z" fill="#4C2F92"/>
<path fill-rule="evenodd" clip-rule="evenodd" d="M22.65 33.3498C22.6692 33.3017 22.7077 33.244 22.7558 33.1766C22.7654 33.1574 22.7846 33.1382 22.8135 33.1093C22.8327 33.1478 22.8519 33.1766 22.8519 33.2055L22.7942 33.5998L22.7269 34.2442L22.6019 35.2733C22.573 35.5042 22.5346 35.6965 22.4961 35.8408C22.4576 35.9947 22.3999 36.1485 22.3326 36.3217L22.0633 36.8795C21.9479 37.0815 21.8613 37.2161 21.8132 37.2738C21.7651 37.3412 21.717 37.37 21.6786 37.37L21.6401 37.2931C21.6978 37.0815 21.7555 36.8795 21.8132 36.6871C21.8709 36.4948 21.9094 36.3409 21.9286 36.2351C22.0056 35.8792 22.0633 35.5715 22.0921 35.2926C22.121 35.0233 22.1499 34.7732 22.1691 34.5616L22.2941 34.2057L22.65 33.3498Z" fill="#4C2F92"/>
<path fill-rule="evenodd" clip-rule="evenodd" d="M21.3901 34.1865C21.2073 34.8598 20.9957 35.2445 20.7553 35.3599L20.3129 35.5811C20.2744 35.6003 20.2263 35.6292 20.159 35.6773C20.0917 35.7254 20.0436 35.7734 20.0147 35.8119C19.9474 35.9081 19.8704 36.0427 19.7935 36.2159C19.6589 36.5525 19.5627 36.7929 19.4953 36.9468C19.3703 37.2065 19.1876 37.3892 18.9375 37.5047C18.8413 37.5431 18.6874 37.5816 18.4759 37.6297C18.2643 37.6682 18.1008 37.697 18.0046 37.697C17.9084 37.7066 17.8507 37.6778 17.8218 37.6297C17.8122 37.6008 17.8507 37.5527 17.9373 37.4854C18.0238 37.4181 18.1296 37.3411 18.245 37.2642C18.2643 37.245 18.3989 37.1584 18.649 36.9949C18.8125 36.8891 18.899 36.8218 18.9279 36.8122C19.1395 36.639 19.2934 36.5044 19.3799 36.4082C19.4088 36.3697 19.505 36.1774 19.6492 35.8408C19.8031 35.5041 19.9185 35.2829 19.9955 35.1675C20.0724 35.0617 20.1974 34.9559 20.3706 34.8405C20.3994 34.8213 20.5148 34.7636 20.7072 34.6674C20.8418 34.6001 20.938 34.5424 20.9957 34.4943C21.0534 34.4462 21.1208 34.35 21.2073 34.1961C21.2939 34.0422 21.3516 33.9749 21.3804 33.9845C21.4189 33.9845 21.4189 34.0615 21.3901 34.1865Z" fill="#4C2F92"/>
<path fill-rule="evenodd" clip-rule="evenodd" d="M19.8512 39.8707C19.8704 39.9476 19.8608 40.0342 19.8319 40.1207C19.8031 40.2073 19.7646 40.3131 19.7069 40.4189C19.6492 40.5343 19.5723 40.6305 19.4665 40.7266C19.4088 40.7843 19.3511 40.8228 19.3126 40.8228C19.2934 40.8228 19.2356 40.7843 19.1587 40.717C19.0818 40.6497 19.0048 40.592 18.9375 40.5343C18.8702 40.4862 18.8125 40.4381 18.774 40.39C18.7259 40.3419 18.7067 40.3035 18.7067 40.2746C18.7548 40.1784 18.7836 40.1015 18.8125 40.0438C18.8894 39.8707 18.9471 39.7552 18.9856 39.6783C19.0529 39.5629 19.1202 39.4475 19.1972 39.3224C19.2164 39.3032 19.2356 39.2647 19.2645 39.2166C19.2837 39.2359 19.3126 39.2551 19.3318 39.2743C19.3511 39.2936 19.3895 39.3128 19.428 39.3321C19.5915 39.4667 19.6973 39.5629 19.755 39.6302C19.7935 39.6975 19.8319 39.7841 19.8512 39.8707ZM21.0342 39.8033C21.0534 39.8803 21.0438 39.9668 21.0149 40.0534C20.9861 40.14 20.9476 40.2457 20.8899 40.3515C20.8322 40.467 20.7553 40.5631 20.6495 40.6593C20.5918 40.717 20.534 40.7555 20.4956 40.7555C20.4763 40.7555 20.4186 40.717 20.3417 40.6497C20.2648 40.5824 20.1878 40.5247 20.1205 40.467C20.0532 40.4189 19.9955 40.3708 19.957 40.3227C19.9089 40.2746 19.8897 40.2361 19.8897 40.2073C19.9377 40.1111 19.9666 40.0342 19.9955 39.9764C20.0724 39.8033 20.1301 39.6879 20.1686 39.611C20.2359 39.4956 20.3032 39.3801 20.3802 39.2551C20.3994 39.2359 20.4186 39.1974 20.4475 39.1493C20.4667 39.1686 20.4956 39.1878 20.5148 39.207C20.534 39.2263 20.5725 39.2455 20.611 39.2647C20.7745 39.3994 20.8803 39.4956 20.938 39.5629C20.9861 39.6302 21.0246 39.7071 21.0342 39.8033Z" fill="#4C2F92"/>
<path fill-rule="evenodd" clip-rule="evenodd" d="M17.8219 33.3498C17.8411 33.3017 17.8796 33.244 17.9276 33.1766C17.9373 33.1574 17.9565 33.1382 17.9854 33.1093C18.0046 33.1478 18.0238 33.1766 18.0238 33.2055L17.9661 33.5998L17.8988 34.2442L17.7738 35.2733C17.7449 35.5042 17.7064 35.6965 17.668 35.8408C17.6295 35.9947 17.5718 36.1485 17.5045 36.3217L17.2352 36.8795C17.1198 37.0815 17.0332 37.2161 16.9851 37.2738C16.937 37.3412 16.8889 37.37 16.8505 37.37L16.812 37.2931C16.8697 37.0815 16.9274 36.8795 16.9851 36.6871C17.0428 36.4948 17.0813 36.3409 17.1005 36.2351C17.1775 35.8792 17.2352 35.5715 17.264 35.2926C17.2929 35.0233 17.3217 34.7732 17.341 34.5616L17.466 34.2057L17.8219 33.3498Z" fill="#4C2F92"/>
<path fill-rule="evenodd" clip-rule="evenodd" d="M16.081 36.9949C16.0425 37.1584 16.0137 37.2834 15.9944 37.37C15.9752 37.4566 15.9464 37.5527 15.9079 37.6681C15.8213 37.9374 15.7059 38.2067 15.552 38.4857C15.3981 38.7646 15.225 39.0243 15.023 39.2743C14.7153 39.6398 14.3883 39.9187 14.042 40.1111C13.6958 40.3034 13.3111 40.39 12.8879 40.39C12.407 40.39 12.0319 40.2361 11.7722 39.938C11.5125 39.6398 11.3875 39.2455 11.3875 38.7742C11.3875 38.5338 11.4164 38.2741 11.4837 38.0048C11.5414 37.7259 11.6087 37.495 11.6857 37.3219C11.7626 37.1392 11.8492 36.9468 11.9453 36.7545C12.08 36.4948 12.2146 36.2255 12.3685 35.9562C12.4262 35.8504 12.4647 35.7927 12.4743 35.7734C12.4839 35.7638 12.5032 35.7638 12.5417 35.7638C12.5609 35.7734 12.5609 35.8119 12.5513 35.8889C12.5416 35.9658 12.5224 36.0331 12.5128 36.0812L12.1281 36.9083C12.0319 37.1584 11.9646 37.3315 11.9357 37.4277C11.878 37.6008 11.8588 37.7739 11.8588 37.9471C11.8588 38.3991 12.0127 38.7261 12.3204 38.9281C12.5513 39.082 12.8398 39.1589 13.1957 39.1589C13.4457 39.1589 13.6766 39.1397 13.8689 39.0916C14.0613 39.0531 14.2632 38.9666 14.4844 38.8511C14.696 38.7357 14.8884 38.5818 15.0615 38.3991C15.1769 38.2741 15.3116 38.101 15.4655 37.8701C15.5616 37.7162 15.629 37.572 15.6771 37.4373C15.7251 37.3027 15.7444 37.1392 15.7444 36.9372L15.7636 36.1101C15.7636 35.9754 15.7829 35.8408 15.8117 35.7254C15.8406 35.6099 15.8887 35.4657 15.9656 35.2829L16.1964 34.8309C16.2445 34.7443 16.2734 34.6962 16.283 34.677C16.2926 34.6578 16.3118 34.6289 16.3503 34.5904C16.3888 34.6289 16.408 34.677 16.3984 34.7443L16.3407 35.1483L16.283 35.7254C16.283 35.9466 16.2734 36.1485 16.2445 36.312C16.1868 36.4852 16.1387 36.7064 16.081 36.9949ZM14.5999 36.389C14.6095 36.4178 14.6095 36.4659 14.6095 36.514C14.6095 36.6487 14.5614 36.7833 14.4748 36.918C14.2921 37.1776 14.1574 37.3219 14.0709 37.3315C14.0516 37.3315 14.0228 37.3123 13.9651 37.2738C13.792 37.1392 13.6958 37.0718 13.6862 37.0622C13.6092 37.0141 13.5419 36.9757 13.4746 36.9276C13.4073 36.8891 13.3688 36.841 13.3688 36.7833L13.6381 36.187C13.7246 36.0427 13.792 35.9177 13.8593 35.8311C13.8785 35.8119 13.8978 35.7734 13.9266 35.7254C13.9747 35.7446 14.0132 35.7734 14.0613 35.7927C14.0997 35.8119 14.1382 35.8311 14.1671 35.86C14.3306 35.985 14.4364 36.0812 14.5037 36.1582C14.5614 36.2255 14.5999 36.312 14.5999 36.389Z" fill="#4C2F92"/>
<path fill-rule="evenodd" clip-rule="evenodd" d="M9.46394 34.5712C9.46394 34.6674 9.4447 34.8213 9.40623 35.0329C9.36776 35.2445 9.32929 35.4368 9.29082 35.6004L9.15617 36.1678C9.07923 36.3794 9.02152 36.5429 8.97343 36.6391C8.90611 36.7833 8.83878 36.9084 8.78107 36.9949C8.72337 37.0911 8.66566 37.1584 8.59834 37.2065C8.54063 37.2546 8.43483 37.3219 8.29056 37.3989L7.877 37.572C7.83853 37.5912 7.75197 37.6105 7.6077 37.6393C7.46343 37.6682 7.37687 37.6874 7.3384 37.6874C7.29993 37.6874 7.28069 37.6778 7.27108 37.649C7.26146 37.6201 7.27108 37.5912 7.29031 37.5528C7.32878 37.4854 7.42496 37.3893 7.58846 37.2642C7.74235 37.1392 7.90585 37.0238 8.05974 36.9084C8.23286 36.7449 8.36751 36.6198 8.45407 36.5237C8.5791 36.389 8.69451 36.2351 8.80031 36.0524C8.81954 36.0139 8.85802 35.937 8.89649 35.8119C8.93496 35.6965 9.00228 35.4946 9.09846 35.2253L9.23311 34.8117C9.25235 34.754 9.27158 34.677 9.30044 34.5905C9.32929 34.5039 9.36776 34.4558 9.41585 34.4558C9.4447 34.5039 9.46394 34.5424 9.46394 34.5712Z" fill="#4C2F92"/>
<path fill-rule="evenodd" clip-rule="evenodd" d="M9.94481 32.0033C9.96405 32.0802 9.95443 32.1668 9.92558 32.2533C9.89672 32.3399 9.85825 32.4457 9.80055 32.5515C9.74284 32.6669 9.6659 32.7631 9.5601 32.8593C9.50239 32.917 9.44469 32.9554 9.40622 32.9554C9.38698 32.9554 9.32927 32.917 9.25233 32.8497C9.17539 32.7823 9.09845 32.7246 9.03112 32.6669C8.9638 32.6188 8.90609 32.5707 8.86762 32.5226C8.81953 32.4746 8.80029 32.4361 8.80029 32.4072C8.84838 32.3111 8.87724 32.2341 8.90609 32.1764C8.98303 32.0033 9.04074 31.8879 9.07921 31.8109C9.14654 31.6955 9.21386 31.5801 9.2908 31.4551C9.31004 31.4358 9.32927 31.3974 9.35813 31.3493C9.37736 31.3685 9.40622 31.3877 9.42545 31.407C9.44469 31.4262 9.48316 31.4454 9.52163 31.4647C9.68513 31.5993 9.79093 31.6955 9.84864 31.7628C9.89673 31.8302 9.9352 31.9071 9.94481 32.0033Z" fill="#4C2F92"/>
<path fill-rule="evenodd" clip-rule="evenodd" d="M5.5014 34.9079C5.55911 34.8694 5.61682 34.8213 5.66491 34.7732C5.713 34.7155 5.7707 34.6578 5.81879 34.5809L6.08809 34.1192C6.25159 33.8211 6.35739 33.6672 6.4151 33.6672C6.43433 33.6672 6.45357 33.6768 6.4728 33.696C6.49204 33.7153 6.50166 33.7249 6.51127 33.7345C6.49204 33.8018 6.4728 33.8692 6.45357 33.9269C6.43433 33.9846 6.43433 34.0327 6.43433 34.0711C6.43433 34.3116 6.53051 34.427 6.71325 34.427C6.73249 34.427 6.77096 34.3597 6.83828 34.225C6.90561 34.0904 6.95369 34.023 6.97293 34.023C7.03064 34.0615 7.07873 34.1 7.10758 34.1288C7.20376 34.2346 7.26146 34.3501 7.26146 34.4751C7.26146 34.6674 7.20376 34.8694 7.08834 35.081C6.97293 35.2926 6.8479 35.4561 6.70363 35.5619C6.60745 35.6196 6.54975 35.6485 6.51127 35.6581C6.4728 35.6677 6.42472 35.6773 6.35739 35.6773C6.27083 35.6773 6.19389 35.6581 6.12656 35.6292C6.05924 35.5907 6.00153 35.5523 5.94382 35.4946C5.89573 35.4369 5.85726 35.3888 5.83803 35.3407C5.81879 35.2926 5.79956 35.2445 5.78994 35.206C5.76108 35.206 5.713 35.2445 5.65529 35.3311C5.59758 35.408 5.54949 35.4753 5.5014 35.5234V34.9079Z" fill="#4C2F92"/>
<path fill-rule="evenodd" clip-rule="evenodd" d="M3.21235 36.591C3.21235 36.7641 3.13541 36.9469 2.99114 37.1392C2.83726 37.3316 2.69299 37.4374 2.55834 37.4374C2.51025 37.3893 2.4814 37.3508 2.45254 37.322C2.35637 37.2258 2.27942 37.1488 2.22172 37.0911C2.16401 37.0334 2.09668 36.9853 2.03898 36.9276C1.98127 36.8699 1.95242 36.8314 1.95242 36.8122C1.95242 36.793 1.97165 36.7449 2.01974 36.6583C2.03898 36.6199 2.11592 36.4948 2.24095 36.2928C2.33713 36.1197 2.43331 35.9851 2.52949 35.8793C2.5391 35.86 2.54872 35.8408 2.57758 35.812C2.71223 35.9081 2.81802 35.9947 2.88535 36.0524C3.09694 36.2448 3.21235 36.4275 3.21235 36.591ZM5.47254 35.5042C5.40522 35.5715 5.33789 35.6292 5.27057 35.6677C5.20324 35.7062 5.1263 35.735 5.0205 35.7446C4.92432 35.7542 4.857 35.7831 4.83776 35.8312C4.81853 35.8793 4.78967 35.9851 4.77044 36.1582C4.7512 36.3313 4.72235 36.4756 4.70311 36.6102C4.68388 36.7449 4.65502 36.8603 4.63579 36.9469C4.61655 37.043 4.5877 37.1488 4.55885 37.2739C4.50114 37.4855 4.38573 37.7644 4.23184 38.1299C3.95292 38.7646 3.59706 39.2744 3.15464 39.6783C2.63528 40.1496 2.07745 40.3804 1.46191 40.3804C0.942547 40.3804 0.557834 40.2169 0.307771 39.8995C0.0961786 39.6302 0 39.2551 0 38.7646C0 38.5338 0.0384717 38.2453 0.115414 37.9086C0.173121 37.6586 0.230828 37.4566 0.288535 37.2931L0.615541 36.5525C0.692483 36.4083 0.769426 36.2544 0.846368 36.1101C0.923311 35.9562 0.990635 35.8889 1.05796 35.8889C1.0772 35.9466 1.09643 35.9947 1.09643 36.0235C1.0772 36.0909 1.03872 36.1967 0.981018 36.3313C0.88484 36.5525 0.807897 36.7064 0.769426 36.793C0.663629 37.043 0.586688 37.245 0.538598 37.3893C0.471274 37.6297 0.432802 37.8509 0.432802 38.0625C0.432802 38.3895 0.548216 38.6588 0.788662 38.8608C1.01949 39.0628 1.3465 39.1686 1.75044 39.1686C2.2121 39.1686 2.62566 39.0724 2.98152 38.8704C3.33738 38.6684 3.64515 38.3799 3.8856 37.9952C4.07796 37.697 4.2126 37.3989 4.29916 37.1104C4.37611 36.8218 4.4242 36.5044 4.4242 36.1486L4.43382 35.4561C4.43382 35.3214 4.4819 35.1964 4.57808 35.0906C4.67426 34.9848 4.78967 34.9464 4.91471 34.9656H5.10706C5.28018 34.9656 5.40521 34.9464 5.49178 34.8983C5.51101 34.9367 5.53986 34.9848 5.5591 35.0329C5.57834 35.081 5.58795 35.1387 5.58795 35.1868C5.58795 35.2445 5.56872 35.3311 5.53025 35.4272C5.50139 35.4465 5.49178 35.4753 5.47254 35.5042Z" fill="#4C2F92"/>
<path fill-rule="evenodd" clip-rule="evenodd" d="M5.28978 40.2265C5.30902 40.3035 5.2994 40.39 5.27055 40.4766C5.24169 40.5631 5.20322 40.6689 5.14552 40.7747C5.08781 40.8902 5.01087 40.9863 4.90507 41.0825C4.84736 41.1402 4.78966 41.1787 4.75119 41.1787C4.73195 41.1787 4.67424 41.1402 4.5973 41.0729C4.52036 41.0056 4.44342 40.9479 4.37609 40.8902C4.30877 40.8421 4.25106 40.794 4.21259 40.7459C4.1645 40.6978 4.14526 40.6593 4.14526 40.6305C4.19335 40.5343 4.22221 40.4574 4.25106 40.3996C4.328 40.2265 4.38571 40.1111 4.42418 40.0342C4.4915 39.9188 4.55883 39.8033 4.63577 39.6783C4.65501 39.6591 4.67424 39.6206 4.7031 39.5725C4.72233 39.5917 4.75119 39.611 4.77042 39.6302C4.78966 39.6495 4.82813 39.6687 4.8666 39.6879C5.0301 39.8226 5.1359 39.9188 5.19361 39.9861C5.24169 40.0534 5.27055 40.14 5.28978 40.2265ZM6.47278 40.1592C6.49201 40.2361 6.48239 40.3227 6.45354 40.4093C6.42469 40.4958 6.38622 40.6016 6.32851 40.7074C6.2708 40.8228 6.19386 40.919 6.08806 41.0152C6.03036 41.0729 5.97265 41.1114 5.93418 41.1114C5.91494 41.1114 5.85724 41.0729 5.78029 41.0056C5.70335 40.9382 5.62641 40.8805 5.55908 40.8228C5.49176 40.7747 5.43405 40.7267 5.39558 40.6786C5.34749 40.6305 5.32826 40.592 5.32826 40.5631C5.37634 40.467 5.4052 40.39 5.43405 40.3323C5.51099 40.1592 5.5687 40.0438 5.60717 39.9668C5.6745 39.8514 5.74182 39.736 5.81876 39.611C5.838 39.5917 5.85723 39.5533 5.88609 39.5052C5.90532 39.5244 5.93418 39.5437 5.95341 39.5629C5.97265 39.5821 6.01112 39.6014 6.04959 39.6206C6.21309 39.7553 6.31889 39.8514 6.3766 39.9188C6.42469 39.9861 6.46316 40.0726 6.47278 40.1592Z" fill="#4C2F92"/>
</svg>
