<svg width="16" height="16" viewBox="0 0 16 16" fill="none" xmlns="http://www.w3.org/2000/svg">
<path d="M14.6667 8.91332V12.0667C14.6669 12.1545 14.6498 12.2416 14.6162 12.3228C14.5827 12.4041 14.5335 12.4779 14.4713 12.54C14.3448 12.6625 14.1761 12.7317 14 12.7333H2C1.82391 12.7317 1.65517 12.6625 1.52866 12.54C1.46652 12.4779 1.41727 12.4041 1.38375 12.3228C1.35022 12.2416 1.33309 12.1545 1.33333 12.0667V6.73332C1.33309 6.64544 1.35022 6.55838 1.38375 6.47715C1.41727 6.39592 1.46652 6.32211 1.52866 6.25998C1.65517 6.13749 1.82391 6.06827 2 6.06665H9.53332" stroke="#64748B" stroke-linecap="round" stroke-linejoin="round"/>
<path d="M8.192 6.06665L6.47467 9.07332" stroke="#64748B" stroke-linecap="round" stroke-linejoin="round"/>
<path d="M12.4667 11.1001L11.526 12.7334" stroke="#64748B" stroke-linecap="round" stroke-linejoin="round"/>
<path d="M12 4.7334H14.6667" stroke="#64748B" stroke-linecap="round" stroke-linejoin="round"/>
<path d="M3.53332 10.2333C3.53332 9.56665 3.59999 8.23332 2.93332 7.56665" stroke="#64748B" stroke-linejoin="round"/>
</svg>
