<svg width="20" height="20" viewBox="0 0 20 20" fill="none" xmlns="http://www.w3.org/2000/svg">
<path fill-rule="evenodd" clip-rule="evenodd" d="M14.4283 2.41666H14.4176H14.3932H14.3688H14.3443H14.3197H14.295H14.2702H14.2453H14.2204H14.1954H14.1703H14.1451H14.1198H14.0945H14.069H14.0435H14.018H13.9923H13.9666H13.9408H13.9149H13.8889H13.8629H13.8368H13.8106H13.7844H13.7581H13.7317H13.7052H13.6787H13.6521H13.6255H13.5988H13.572H13.5451H13.5182H13.4913H13.4642H13.4371H13.41H13.3828H13.3555H13.3282H13.3008H13.2734H13.2459H13.2183H13.1907H13.1631H13.1353H13.1076H13.0798H13.0519H13.024H12.996H12.968H12.94H12.9119H12.8837H12.8555H12.8273H12.799H12.7707H12.7423H12.7139H12.6854H12.6569H12.6284H12.5998H12.5712H12.5426H12.5139H12.4852H12.4565H12.4277H12.3989H12.37H12.3411H12.3122H12.2833H12.2543H12.2253H12.1963H12.1672H12.1381H12.109H12.0799H12.0507H12.0216H11.9924H11.9631H11.9339H11.9046H11.8753H11.846H11.8167H11.7874H11.758H11.7286H11.6992H11.6698H11.6404H11.611H11.5815H11.5521H11.5226H11.4931H11.4636H11.4341H11.4046H11.3751H11.3456H11.3161H11.2866H11.257H11.2275H11.198H11.1684H11.1389H11.1093H11.0798H11.0503H11.0207H10.9912H10.9617H10.9321H10.9026H10.8731H10.8436H10.8141H10.7846H10.7551H10.7256H10.6961H10.6667H10.6372H10.6078H10.5784H10.549H10.5196H10.4902H10.4608H10.4315H10.4022H10.3729H10.3436H10.3143H10.285H10.2558H10.2266H10.1974H10.1683H10.1391H10.11H10.0809H10.0519H10.0228H9.99382H9.96484H9.93589H9.90697H9.87809H9.84923H9.82041H9.79162H9.76286H9.73414H9.70545H9.6768H9.64819H9.61961H9.59108H9.56258H9.53412H9.5057H9.47732H9.44899H9.4207H9.39245H9.36424H9.33608H9.30797H9.2799H9.25188H9.22391H9.19599H9.16811H9.14029H9.11252H9.0848H9.05713H9.02952H9.00195H8.97445H8.947H8.9196H8.89226H8.86498H8.83776H8.8106H8.78349H8.75645H8.72947H8.70255H8.6757H8.6489H8.62218H8.59551H8.56892H8.54239H8.51592H8.48953H8.4632H8.43695H8.41076H8.38465H8.3586H8.33263H8.30674H8.28091H8.25516H8.22949H8.2039H8.17838H8.15293H8.12757H8.10229H8.07708H8.05196H8.02692H8.00196H7.97708H7.95229H7.92758H7.90296H7.87842H7.85397H7.82961H7.80534H7.78115H7.75705H7.73305H7.70913H7.68531H7.66158H7.63795H7.6144H7.59096H7.56761H7.54435H7.52119H7.49813H7.47517H7.45231H7.42955H7.40689H7.38433H7.36187H7.33952H7.31727H7.29512H7.27308H7.25115H7.22932H7.2076H7.18599H7.16449H7.1431H7.12182H7.10065H7.07959H7.05864H7.03781H7.01709H6.99649H6.976H6.95563H6.93538H6.91525H6.89523H6.87533H6.85556H6.8359H6.81637H6.79696H6.77767H6.7585H6.73947H6.72055H6.70176H6.6831H6.66457H6.64617H6.62789H6.60975H6.59173H6.57385H6.5561H6.53848H6.52099H6.50364H6.48643H6.46935H6.45241H6.4356H6.41894H6.40241H6.38602H6.36977H6.35366H6.3377H6.32188H6.3062H6.29066H6.27527H6.26003H6.24493H6.22998H6.21518H6.20052H6.18602H6.17166H6.15746H6.1434H6.1295H6.11576H6.10216H6.08872H6.07544H6.06231H6.04934H6.03652H6.02387H6.01137H5.99904H5.98686H5.97484H5.96299H5.9513H5.93977H5.92841H5.91721H5.90618H5.89532H5.88462H5.87409H5.86372H5.85353H5.84351H5.83366C5.54823 2.41666 5.38402 2.48587 5.28614 2.55112C5.18357 2.6195 5.10583 2.71605 5.04615 2.83541C4.985 2.95771 4.95068 3.08908 4.93283 3.19621C4.9242 3.248 4.92017 3.28952 4.91834 3.31515C4.91746 3.3275 4.91711 3.33579 4.91699 3.33932V13.4167H11.667C12.0812 13.4167 12.417 13.7525 12.417 14.1667V16.6607C12.4171 16.6642 12.4175 16.6725 12.4183 16.6848C12.4202 16.7105 12.4242 16.752 12.4328 16.8038C12.4507 16.9109 12.485 17.0423 12.5461 17.1646C12.6058 17.2839 12.6836 17.3805 12.7861 17.4489C12.884 17.5141 13.0482 17.5833 13.3337 17.5833C13.6191 17.5833 13.7833 17.5141 13.8812 17.4489C13.9837 17.3805 14.0615 17.2839 14.1212 17.1646C14.1823 17.0423 14.2166 16.9109 14.2345 16.8038C14.2431 16.752 14.2471 16.7105 14.249 16.6848C14.2499 16.6725 14.2502 16.6642 14.2503 16.6607V5.83333V3.33333H15.0003C14.2503 3.33333 14.2503 3.33296 14.2503 3.33258L14.2503 3.33178L14.2503 3.33007L14.2504 3.32617L14.2505 3.31645L14.2511 3.28963C14.2519 3.26858 14.2531 3.24116 14.2555 3.20828C14.2602 3.14277 14.2692 3.05408 14.2866 2.94962C14.3109 2.8038 14.3531 2.6177 14.4283 2.41666ZM3.41699 13.4167V3.33333H4.16699C3.41699 3.33333 3.41699 3.33296 3.41699 3.33258L3.41699 3.33178L3.417 3.33007L3.41702 3.32617L3.41714 3.31645L3.41782 3.28963C3.41852 3.26857 3.4198 3.24116 3.42215 3.20828C3.42683 3.14277 3.43583 3.05408 3.45324 2.94961C3.48747 2.74425 3.55732 2.45896 3.7045 2.16459C3.85316 1.86728 4.08792 1.54716 4.45409 1.30304C4.82496 1.0558 5.28575 0.916664 5.83366 0.916664H5.84351H5.85353H5.86372H5.87409H5.88462H5.89532H5.90618H5.91721H5.92841H5.93977H5.9513H5.96299H5.97484H5.98686H5.99904H6.01137H6.02387H6.03652H6.04934H6.06231H6.07544H6.08872H6.10216H6.11576H6.1295H6.1434H6.15746H6.17166H6.18602H6.20052H6.21518H6.22998H6.24493H6.26003H6.27527H6.29066H6.3062H6.32188H6.3377H6.35366H6.36977H6.38602H6.40241H6.41894H6.4356H6.45241H6.46935H6.48643H6.50364H6.52099H6.53848H6.5561H6.57385H6.59173H6.60975H6.62789H6.64617H6.66457H6.6831H6.70176H6.72055H6.73947H6.7585H6.77767H6.79696H6.81637H6.8359H6.85556H6.87533H6.89523H6.91525H6.93538H6.95563H6.976H6.99649H7.01709H7.03781H7.05864H7.07959H7.10065H7.12182H7.1431H7.16449H7.18599H7.2076H7.22932H7.25115H7.27308H7.29512H7.31727H7.33952H7.36187H7.38433H7.40689H7.42955H7.45231H7.47517H7.49813H7.52119H7.54435H7.56761H7.59096H7.6144H7.63795H7.66158H7.68531H7.70913H7.73305H7.75705H7.78115H7.80534H7.82961H7.85397H7.87842H7.90296H7.92758H7.95229H7.97708H8.00196H8.02692H8.05196H8.07708H8.10229H8.12757H8.15293H8.17838H8.2039H8.22949H8.25516H8.28091H8.30674H8.33263H8.3586H8.38465H8.41076H8.43695H8.4632H8.48953H8.51592H8.54239H8.56892H8.59551H8.62218H8.6489H8.6757H8.70255H8.72947H8.75645H8.78349H8.8106H8.83776H8.86498H8.89226H8.9196H8.947H8.97445H9.00195H9.02952H9.05713H9.0848H9.11252H9.14029H9.16811H9.19599H9.22391H9.25188H9.2799H9.30797H9.33608H9.36424H9.39245H9.4207H9.44899H9.47732H9.5057H9.53412H9.56258H9.59108H9.61961H9.64819H9.6768H9.70545H9.73414H9.76286H9.79162H9.82041H9.84923H9.87809H9.90697H9.93589H9.96484H9.99382H10.0228H10.0519H10.0809H10.11H10.1391H10.1683H10.1974H10.2266H10.2558H10.285H10.3143H10.3436H10.3729H10.4022H10.4315H10.4608H10.4902H10.5196H10.549H10.5784H10.6078H10.6372H10.6667H10.6961H10.7256H10.7551H10.7846H10.8141H10.8436H10.8731H10.9026H10.9321H10.9617H10.9912H11.0207H11.0503H11.0798H11.1093H11.1389H11.1684H11.198H11.2275H11.257H11.2866H11.3161H11.3456H11.3751H11.4046H11.4341H11.4636H11.4931H11.5226H11.5521H11.5815H11.611H11.6404H11.6698H11.6992H11.7286H11.758H11.7874H11.8167H11.846H11.8753H11.9046H11.9339H11.9631H11.9924H12.0216H12.0507H12.0799H12.109H12.1381H12.1672H12.1963H12.2253H12.2543H12.2833H12.3122H12.3411H12.37H12.3989H12.4277H12.4565H12.4852H12.5139H12.5426H12.5712H12.5998H12.6284H12.6569H12.6854H12.7139H12.7423H12.7707H12.799H12.8273H12.8555H12.8837H12.9119H12.94H12.968H12.996H13.024H13.0519H13.0798H13.1076H13.1353H13.1631H13.1907H13.2183H13.2459H13.2734H13.3008H13.3282H13.3555H13.3828H13.41H13.4371H13.4642H13.4913H13.5182H13.5451H13.572H13.5988H13.6255H13.6521H13.6787H13.7052H13.7317H13.7581H13.7844H13.8106H13.8368H13.8629H13.8889H13.9149H13.9408H13.9666H13.9923H14.018H14.0435H14.069H14.0945H14.1198H14.1451H14.1703H14.1954H14.2204H14.2453H14.2702H14.295H14.3197H14.3443H14.3688H14.3932H14.4176H14.4418H14.466H14.4901H14.5141H14.538H14.5618H14.5855H14.6091H14.6326H14.656H14.6794H14.7026H14.7257H14.7488H14.7717H14.7946H14.8173H14.8399H14.8625H14.8849H14.9073H14.9295H14.9516H14.9736H14.9955H15.0173H15.039H15.0606H15.0821H15.1035H15.1247H15.1459H15.1669H15.1878H15.2087H15.2294H15.2499H15.2704H15.2907H15.311H15.3311H15.3511H15.3709H15.3907H15.4103H15.4298H15.4492H15.4685H15.4876H15.5066H15.5255H15.5443H15.5629H15.5814H15.5998H15.6181H15.6362H15.6542H15.672H15.6898H15.7073H15.7248H15.7421H15.7593H15.7764H15.7933H15.8101H15.8267H15.8432H15.8596H15.8758H15.8919H15.9078H15.9236H15.9392H15.9547H15.9701H15.9853H16.0004H16.0153H16.0301H16.0447H16.0592H16.0735H16.0877H16.1017H16.1156H16.1293H16.1429H16.1563H16.1695H16.1826H16.1956H16.2083H16.221H16.2334H16.2457H16.2579H16.2699H16.2817H16.2933H16.3048H16.3162H16.3273H16.3383H16.3492H16.3598H16.3703H16.3806H16.3908H16.4008H16.4106H16.4203H16.4297H16.439H16.4482H16.4571H16.4659H16.4745H16.4829H16.4911H16.4992H16.5071H16.5148H16.5223H16.5297H16.5368H16.5438H16.5506H16.5572H16.5636H16.5699H16.5759H16.5818H16.5875H16.593H16.5983H16.6034H16.6083H16.613H16.6175H16.6219H16.626H16.63H16.6337H16.6373H16.6406H16.6438H16.6468H16.6495H16.6521H16.6545H16.6566H16.6586H16.6603H16.6619H16.6632H16.6644H16.6653H16.6661H16.6666H16.6669C16.6669 0.916664 16.667 0.916664 16.667 0.916664C17.2149 0.916664 17.6757 1.0558 18.0466 1.30304C18.4127 1.54716 18.6475 1.86728 18.7961 2.16459C18.9433 2.45896 19.0132 2.74425 19.0474 2.94962C19.0648 3.05408 19.0738 3.14277 19.0785 3.20828C19.0808 3.24116 19.0821 3.26858 19.0828 3.28963L19.0835 3.31645L19.0836 3.32617L19.0837 3.33007L19.0837 3.33178L19.0837 3.33258C19.0837 3.33296 19.0837 3.33333 18.3337 3.33333H19.0837V5.83333C19.0837 6.24754 18.7479 6.58333 18.3337 6.58333H15.7503V16.6667H15.0003C15.7503 16.6667 15.7503 16.667 15.7503 16.6674L15.7503 16.6682L15.7503 16.6699L15.7503 16.6738L15.7502 16.6835L15.7495 16.7104C15.7488 16.7314 15.7475 16.7588 15.7452 16.7917C15.7405 16.8572 15.7315 16.9459 15.7141 17.0504C15.6799 17.2557 15.61 17.541 15.4628 17.8354C15.3142 18.1327 15.0794 18.4528 14.7132 18.697C14.3424 18.9442 13.8816 19.0833 13.3337 19.0833H13.3238H13.3139H13.3038H13.2937H13.2834H13.273H13.2625H13.2519H13.2412H13.2304H13.2194H13.2084H13.1972H13.1859H13.1746H13.1631H13.1515H13.1398H13.128H13.1161H13.104H13.0919H13.0797H13.0674H13.0549H13.0424H13.0297H13.017H13.0042H12.9912H12.9782H12.965H12.9518H12.9384H12.925H12.9114H12.8978H12.884H12.8702H12.8562H12.8422H12.8281H12.8139H12.7995H12.7851H12.7706H12.756H12.7413H12.7265H12.7116H12.6967H12.6816H12.6664H12.6512H12.6359H12.6204H12.6049H12.5893H12.5736H12.5578H12.542H12.526H12.5099H12.4938H12.4776H12.4613H12.4449H12.4284H12.4119H12.3952H12.3785H12.3617H12.3448H12.3279H12.3108H12.2937H12.2765H12.2592H12.2418H12.2243H12.2068H12.1892H12.1715H12.1538H12.1359H12.118H12.1H12.0819H12.0638H12.0456H12.0273H12.0089H11.9905H11.972H11.9534H11.9347H11.916H11.8972H11.8783H11.8594H11.8404H11.8213H11.8022H11.7829H11.7637H11.7443H11.7249H11.7054H11.6859H11.6662H11.6466H11.6268H11.607H11.5871H11.5672H11.5472H11.5271H11.507H11.4868H11.4666H11.4462H11.4259H11.4054H11.385H11.3644H11.3438H11.3231H11.3024H11.2816H11.2608H11.2399H11.2189H11.1979H11.1769H11.1558H11.1346H11.1134H11.0921H11.0708H11.0494H11.028H11.0065H10.9849H10.9634H10.9417H10.92H10.8983H10.8765H10.8547H10.8328H10.8109H10.7889H10.7669H10.7448H10.7227H10.7006H10.6784H10.6561H10.6338H10.6115H10.5891H10.5667H10.5442H10.5217H10.4992H10.4766H10.454H10.4313H10.4086H10.3859H10.3631H10.3403H10.3174H10.2945H10.2716H10.2486H10.2256H10.2026H10.1795H10.1564H10.1333H10.1101H10.0869H10.0637H10.0404H10.0171H9.99375H9.97039H9.94699H9.92357H9.90011H9.87663H9.85312H9.82957H9.80601H9.78241H9.75879H9.73514H9.71146H9.68776H9.66404H9.64029H9.61651H9.59271H9.56889H9.54505H9.52118H9.49729H9.47338H9.44945H9.4255H9.40153H9.37754H9.35353H9.3295H9.30545H9.28139H9.25731H9.23321H9.20909H9.18496H9.16081H9.13665H9.11247H9.08828H9.06407H9.03985H9.01562H8.99137H8.96712H8.94285H8.91857H8.89428H8.86997H8.84566H8.82134H8.79702H8.77268H8.74833H8.72398H8.69962H8.67525H8.65088H8.6265H8.60211H8.57773H8.55333H8.52893H8.50453H8.48013H8.45572H8.43131H8.4069H8.38249H8.35807H8.33366H8.30925H8.28483H8.26042H8.23601H8.2116H8.18719H8.16279H8.13838H8.11399H8.08959H8.0652H8.04082H8.01644H7.99207H7.9677H7.94334H7.91899H7.89464H7.8703H7.84597H7.82165H7.79734H7.77304H7.74875H7.72447H7.7002H7.67595H7.6517H7.62747H7.60325H7.57904H7.55485H7.53067H7.50651H7.48236H7.45823H7.43411H7.41001H7.38593H7.36187H7.33782H7.31379H7.28978H7.26579H7.24182H7.21786H7.19393H7.17002H7.14614H7.12227H7.09843H7.0746H7.05081H7.02703H7.00328H6.97956H6.95586H6.93218H6.90853H6.88491H6.86131H6.83774H6.8142H6.79069H6.76721H6.74375H6.72033H6.69693H6.67356H6.65023H6.62693H6.60366H6.58042H6.55721H6.53404H6.5109H6.48779H6.46472H6.44168H6.41868H6.39572H6.37279H6.34989H6.32704H6.30422H6.28144H6.2587H6.236H6.21333H6.19071H6.16812H6.14558H6.12308H6.10062H6.0782H6.05583H6.03349H6.01121H5.98896H5.96676H5.9446H5.92249H5.90042H5.87841H5.85643H5.83451H5.81263H5.7908H5.76901H5.74728H5.72559H5.70396H5.68237H5.66084H5.63936H5.61792H5.59654H5.57521H5.55394H5.53272H5.51155H5.49043H5.46937H5.44837H5.42742H5.40653H5.38569H5.36491H5.34419H5.32352H5.30291H5.28236H5.26187H5.24144H5.22107H5.20076H5.18051H5.16033H5.1402H5.12013H5.10013H5.08019H5.06032H5.04051H5.02076H5.00108H4.98146H4.96191H4.94242H4.92301H4.90366H4.88437H4.86516H4.84601H4.82693H4.80792H4.78898H4.77011H4.75131H4.73258H4.71393H4.69534H4.67683H4.65839H4.64003H4.62174H4.60352H4.58538H4.56731H4.54932H4.5314H4.51356H4.4958H4.47811H4.4605H4.44297H4.42552H4.40815H4.39086H4.37365H4.35651H4.33946H4.32249H4.30561H4.2888H4.27208H4.25544H4.23888H4.22241H4.20602H4.18972H4.1735H4.15737H4.14133H4.12537H4.1095H4.09371H4.07802H4.06241H4.04689H4.03146H4.01613H4.00088H3.98572H3.97065H3.95568H3.9408H3.926H3.91131H3.8967H3.88219H3.86778H3.85346H3.83923H3.8251H3.81107H3.79713H3.78329H3.76955H3.7559H3.74236H3.72891H3.71556H3.70231H3.68916H3.67611H3.66317H3.65032H3.63758H3.62494H3.6124H3.59996H3.58763H3.5754H3.56328H3.55126H3.53935H3.52754H3.51585H3.50425H3.49277H3.48139H3.47012H3.45896H3.44791H3.43696H3.42613H3.41541H3.4048H3.3943H3.38391H3.37363H3.36347H3.35342H3.34348H3.33366C2.78575 19.0833 2.32496 18.9442 1.95409 18.697C1.58792 18.4528 1.35316 18.1327 1.20451 17.8354C1.05732 17.541 0.987467 17.2557 0.953238 17.0504C0.935828 16.9459 0.926833 16.8572 0.922153 16.7917C0.919805 16.7588 0.918517 16.7314 0.917815 16.7104L0.917141 16.6835L0.917022 16.6738L0.916999 16.6699L0.916994 16.6682L0.916993 16.6674C0.916992 16.667 0.916992 16.6667 1.66699 16.6667H0.916992V14.1667C0.916992 13.7525 1.25278 13.4167 1.66699 13.4167H3.41699ZM17.5837 5.08333H15.7503V3.33932C15.7504 3.33578 15.7508 3.3275 15.7517 3.31515C15.7535 3.28952 15.7575 3.248 15.7662 3.19621C15.784 3.08908 15.8183 2.95771 15.8795 2.83541C15.9392 2.71605 16.0169 2.6195 16.1195 2.55112C16.2174 2.48587 16.3816 2.41666 16.667 2.41666C16.9524 2.41666 17.1166 2.48587 17.2145 2.55112C17.3171 2.6195 17.3948 2.71605 17.4545 2.83541C17.5157 2.95771 17.55 3.08908 17.5678 3.19621C17.5765 3.248 17.5805 3.28952 17.5823 3.31515C17.5832 3.32753 17.5835 3.33582 17.5837 3.33934V5.08333ZM10.9532 17.0504C10.9775 17.1962 11.0198 17.3823 11.0949 17.5833H11.0921H11.0708H11.0494H11.028H11.0065H10.9849H10.9634H10.9417H10.92H10.8983H10.8765H10.8547H10.8328H10.8109H10.7889H10.7669H10.7448H10.7227H10.7006H10.6784H10.6561H10.6338H10.6115H10.5891H10.5667H10.5442H10.5217H10.4992H10.4766H10.454H10.4313H10.4086H10.3859H10.3631H10.3403H10.3174H10.2945H10.2716H10.2486H10.2256H10.2026H10.1795H10.1564H10.1333H10.1101H10.0869H10.0637H10.0404H10.0171H9.99375H9.97039H9.94699H9.92357H9.90011H9.87663H9.85312H9.82957H9.80601H9.78241H9.75879H9.73514H9.71146H9.68776H9.66404H9.64029H9.61651H9.59271H9.56889H9.54505H9.52118H9.49729H9.47338H9.44945H9.4255H9.40153H9.37754H9.35353H9.3295H9.30545H9.28139H9.25731H9.23321H9.20909H9.18496H9.16081H9.13665H9.11247H9.08828H9.06407H9.03985H9.01562H8.99137H8.96712H8.94285H8.91857H8.89428H8.86997H8.84566H8.82134H8.79702H8.77268H8.74833H8.72398H8.69962H8.67525H8.65088H8.6265H8.60211H8.57773H8.55333H8.52893H8.50453H8.48013H8.45572H8.43131H8.4069H8.38249H8.35807H8.33366H8.30925H8.28483H8.26042H8.23601H8.2116H8.18719H8.16279H8.13838H8.11399H8.08959H8.0652H8.04082H8.01644H7.99207H7.9677H7.94334H7.91899H7.89464H7.8703H7.84597H7.82165H7.79734H7.77304H7.74875H7.72447H7.7002H7.67595H7.6517H7.62747H7.60325H7.57904H7.55485H7.53067H7.50651H7.48236H7.45823H7.43411H7.41001H7.38593H7.36187H7.33782H7.31379H7.28978H7.26579H7.24182H7.21786H7.19393H7.17002H7.14614H7.12227H7.09843H7.0746H7.05081H7.02703H7.00328H6.97956H6.95586H6.93218H6.90853H6.88491H6.86131H6.83774H6.8142H6.79069H6.76721H6.74375H6.72033H6.69693H6.67356H6.65023H6.62693H6.60366H6.58042H6.55721H6.53404H6.5109H6.48779H6.46472H6.44168H6.41868H6.39572H6.37279H6.34989H6.32704H6.30422H6.28144H6.2587H6.236H6.21333H6.19071H6.16812H6.14558H6.12308H6.10062H6.0782H6.05583H6.03349H6.01121H5.98896H5.96676H5.9446H5.92249H5.90042H5.87841H5.85643H5.83451H5.81263H5.7908H5.76901H5.74728H5.72559H5.70396H5.68237H5.66084H5.63936H5.61792H5.59654H5.57521H5.55394H5.53272H5.51155H5.49043H5.46937H5.44837H5.42742H5.40653H5.38569H5.36491H5.34419H5.32352H5.30291H5.28236H5.26187H5.24144H5.22107H5.20076H5.18051H5.16033H5.1402H5.12013H5.10013H5.08019H5.06032H5.04051H5.02076H5.00108H4.98146H4.96191H4.94242H4.92301H4.90366H4.88437H4.86516H4.84601H4.82693H4.80792H4.78898H4.77011H4.75131H4.73258H4.71393H4.69534H4.67683H4.65839H4.64003H4.62174H4.60352H4.58538H4.56731H4.54932H4.5314H4.51356H4.4958H4.47811H4.4605H4.44297H4.42552H4.40815H4.39086H4.37365H4.35651H4.33946H4.32249H4.30561H4.2888H4.27208H4.25544H4.23888H4.22241H4.20602H4.18972H4.1735H4.15737H4.14133H4.12537H4.1095H4.09371H4.07802H4.06241H4.04689H4.03146H4.01613H4.00088H3.98572H3.97065H3.95568H3.9408H3.926H3.91131H3.8967H3.88219H3.86778H3.85346H3.83923H3.8251H3.81107H3.79713H3.78329H3.76955H3.7559H3.74236H3.72891H3.71556H3.70231H3.68916H3.67611H3.66317H3.65032H3.63758H3.62494H3.6124H3.59996H3.58763H3.5754H3.56328H3.55126H3.53935H3.52754H3.51585H3.50425H3.49277H3.48139H3.47012H3.45896H3.44791H3.43696H3.42613H3.41541H3.4048H3.3943H3.38391H3.37363H3.36347H3.35342H3.34348H3.33366C3.04823 17.5833 2.88402 17.5141 2.78614 17.4489C2.68357 17.3805 2.60583 17.2839 2.54615 17.1646C2.485 17.0423 2.45068 16.9109 2.43283 16.8038C2.4242 16.752 2.42017 16.7105 2.41834 16.6848C2.41746 16.6725 2.41711 16.6642 2.41699 16.6607V14.9167H10.917V16.6667H11.667C10.917 16.6667 10.917 16.667 10.917 16.6674L10.917 16.6682L10.917 16.6699L10.917 16.6738L10.9171 16.6835L10.9178 16.7104C10.9185 16.7314 10.9198 16.7588 10.9222 16.7917C10.9268 16.8572 10.9358 16.9459 10.9532 17.0504Z" fill="#475569"/>
<path d="M7.5 6.66666H11.6667" stroke="#475569" stroke-width="1.5" stroke-linecap="round" stroke-linejoin="round"/>
<path d="M7.5 10H11.6667" stroke="#475569" stroke-width="1.5" stroke-linecap="round" stroke-linejoin="round"/>
</svg>
