<svg width="29" height="22" viewBox="0 0 29 22" fill="none" xmlns="http://www.w3.org/2000/svg">
<path d="M9.16659 16.5833C9.16659 18.0889 7.38312 19.9429 6.14982 21.0451C5.48865 21.6359 4.51119 21.6359 3.85001 21.0451C2.61672 19.9429 0.833252 18.0889 0.833252 16.5833C0.833252 14.2822 2.69873 12.4167 4.99992 12.4167C7.30111 12.4167 9.16659 14.2822 9.16659 16.5833Z" stroke="#A0A3BD"/>
<ellipse cx="5" cy="16.5833" rx="1.25" ry="1.25" stroke="#A0A3BD"/>
<path d="M28.3334 4.66666C28.3334 5.78381 27.1059 7.14085 26.1407 8.03525C25.4903 8.63794 24.5099 8.63794 23.8595 8.03525C22.8942 7.14085 21.6667 5.78381 21.6667 4.66666C21.6667 2.82571 23.1591 1.33333 25.0001 1.33333C26.841 1.33333 28.3334 2.82571 28.3334 4.66666Z" stroke="#A0A3BD"/>
<ellipse cx="25" cy="4.66667" rx="1" ry="1" stroke="#A0A3BD"/>
<path d="M23.5 10.5H14.5C13.1193 10.5 12 11.6193 12 13V13C12 14.3807 13.1193 15.5 14.5 15.5H21.5C22.6046 15.5 23.5 16.3954 23.5 17.5V17.5C23.5 18.6046 22.6046 19.5 21.5 19.5H12" stroke="#A0A3BD" stroke-linecap="round"/>
</svg>
