<svg width="22" height="18" viewBox="0 0 22 18" fill="none" xmlns="http://www.w3.org/2000/svg">
<path d="M15.1802 8V14" stroke="#5CBA94" stroke-width="1.5" stroke-linecap="round" stroke-linejoin="round"/>
<path d="M15.1802 5V6" stroke="#5CBA94" stroke-width="1.5" stroke-linecap="round" stroke-linejoin="round"/>
<path d="M12 10.82L15.1801 14L18.36 10.82" stroke="#5CBA94" stroke-width="1.5" stroke-linecap="round" stroke-linejoin="round"/>
<path d="M19 3H11.58C11.3746 3.00887 11.1717 2.95289 11 2.84C10.8239 2.7262 10.6904 2.55748 10.62 2.36C10.485 1.96325 10.2292 1.61874 9.88843 1.37482C9.54766 1.1309 9.13904 0.99982 8.71997 1H3C2.47046 1.00289 1.96344 1.21453 1.58899 1.58897C1.21454 1.96342 1.00289 2.47046 1 3V15C1.00289 15.5295 1.21454 16.0366 1.58899 16.411C1.96344 16.7855 2.47046 16.9971 3 17H19C19.5295 16.9971 20.0366 16.7855 20.411 16.411C20.7855 16.0366 20.9971 15.5295 21 15V5C20.9971 4.47046 20.7855 3.96342 20.411 3.58897C20.0366 3.21453 19.5295 3.00289 19 3V3Z" stroke="#5CBA94" stroke-width="1.5" stroke-miterlimit="10"/>
<path d="M1 13.98V8C1.00289 7.47046 1.21454 6.96342 1.58899 6.58897C1.96344 6.21453 2.47046 6.00289 3 6H9.56006" stroke="#5CBA94" stroke-width="1.5" stroke-miterlimit="10" stroke-linecap="round"/>
</svg>
