<svg width="375" height="375" viewBox="0 0 375 375" fill="none" xmlns="http://www.w3.org/2000/svg">
<path d="M25.8675 36.54L44.535 42.1725L28.2 62.5575L25.8675 36.54Z" fill="#C7C7C7"/>
<path d="M63.42 47.1226L82.545 50.9476L68.235 72.7951L63.42 47.1226Z" fill="#DBDBDB"/>
<path d="M101.828 53.8276L121.26 55.4926L109.47 78.8026L101.828 53.8276Z" fill="#A6A6A6"/>
<path d="M140.64 56.0175L160.125 55.335L151.23 79.89L140.64 56.0175Z" fill="#A6A6A6"/>
<path d="M179.318 52.8451L198.465 49.1626L193.47 74.7901L179.318 52.8451Z" fill="#EBEBEB"/>
<path d="M216.66 43.8227L234.705 36.4502L234.855 62.5652L216.66 43.8227Z" fill="#C7C7C7"/>
<path d="M251.82 26.9174L267.63 15.5024L273.915 40.8524L251.82 26.9174Z" fill="#DBDBDB"/>
<path d="M63.42 47.1301L61.8675 49.2526L60.8325 50.6701L59.5275 52.4551L58.4925 53.8726L57.195 55.6501L56.1525 57.0676L54.855 58.8451L53.82 60.2626L52.515 62.0476L51.48 63.4651L50.1825 65.2501L49.14 66.6676L48.0075 68.2126L47.7525 66.3151L47.5125 64.5676L47.22 62.3851L46.995 60.6451L46.695 58.4551L46.4625 56.7151L46.1625 54.5326L45.9375 52.7926L45.6375 50.6026L45.405 48.8626L45.1125 46.6801L44.8725 44.9326L44.5275 42.3301L63.42 47.1301Z" fill="#A6A6A6"/>
<path d="M61.8675 49.2526L60.8325 50.6701L45.1125 46.6801L44.8725 44.9326L61.8675 49.2526Z" fill="white"/>
<path d="M59.5275 52.4553L58.4925 53.8728L45.6375 50.6028L45.405 48.8628L59.5275 52.4553Z" fill="white"/>
<path d="M57.195 55.65L56.1525 57.0675L46.1625 54.5325L45.9375 52.7925L57.195 55.65Z" fill="white"/>
<path d="M54.855 58.8448L53.82 60.2623L46.695 58.4548L46.4625 56.7148L54.855 58.8448Z" fill="white"/>
<path d="M52.515 62.0475L51.48 63.465L47.22 62.385L46.995 60.645L52.515 62.0475Z" fill="white"/>
<path d="M50.1825 65.2499L49.14 66.6674L47.7525 66.3149L47.5125 64.5674L50.1825 65.2499Z" fill="white"/>
<path d="M101.828 53.8351L100.5 56.1076L99.615 57.6301L98.505 59.5351L97.62 61.0501L96.51 62.9551L95.625 64.4701L94.515 66.3751L93.63 67.8901L92.52 69.8026L91.635 71.3176L90.525 73.2226L89.64 74.7452L88.6725 76.3951L88.2225 74.5351L87.81 72.8251L87.2925 70.6876L86.88 68.9776L86.3625 66.8326L85.9425 65.1226L85.4325 62.9776L85.02 61.2751L84.495 59.1301L84.09 57.4201L83.5725 55.2826L83.1525 53.5651L82.5375 51.0151L101.828 53.8351Z" fill="#EBEBEB"/>
<path d="M100.5 56.1074L99.615 57.6299L83.5725 55.2824L83.1525 53.5649L100.5 56.1074Z" fill="white"/>
<path d="M98.505 59.5349L97.62 61.0499L84.495 59.1299L84.09 57.4199L98.505 59.5349Z" fill="white"/>
<path d="M96.51 62.9549L95.625 64.4699L85.4325 62.9774L85.02 61.2749L96.51 62.9549Z" fill="white"/>
<path d="M94.515 66.3751L93.63 67.8901L86.3625 66.8326L85.9425 65.1226L94.515 66.3751Z" fill="white"/>
<path d="M92.52 69.8025L91.635 71.3175L87.2925 70.6875L86.88 68.9775L92.52 69.8025Z" fill="white"/>
<path d="M90.525 73.2227L89.64 74.7452L88.2225 74.5352L87.81 72.8252L90.525 73.2227Z" fill="white"/>
<path d="M140.618 55.965L139.568 58.3725L138.863 59.985L137.978 62.01L137.28 63.615L136.395 65.64L135.69 67.245L134.813 69.27L134.108 70.875L133.223 72.9L132.518 74.5125L131.64 76.53L130.935 78.1425L130.163 79.8975L129.503 78.0975L128.895 76.455L128.13 74.385L127.523 72.735L126.758 70.665L126.15 69.015L125.393 66.945L124.785 65.295L124.02 63.2325L123.413 61.5825L122.655 59.5125L122.04 57.8625L121.133 55.395L140.618 55.965Z" fill="#C7C7C7"/>
<path d="M139.568 58.3728L138.863 59.9853L122.655 59.5128L122.04 57.8628L139.568 58.3728Z" fill="white"/>
<path d="M137.978 62.01L137.28 63.615L124.02 63.2325L123.413 61.5825L137.978 62.01Z" fill="white"/>
<path d="M136.395 65.6399L135.69 67.2449L125.393 66.9449L124.785 65.2949L136.395 65.6399Z" fill="white"/>
<path d="M134.813 69.2701L134.108 70.8751L126.758 70.6651L126.15 69.0151L134.813 69.2701Z" fill="white"/>
<path d="M133.223 72.8999L132.518 74.5124L128.13 74.3849L127.523 72.7349L133.223 72.8999Z" fill="white"/>
<path d="M131.64 76.5301L130.935 78.1426L129.503 78.0976L128.895 76.4551L131.64 76.5301Z" fill="white"/>
<path d="M179.513 52.9648L178.808 55.4923L178.335 57.1948L177.743 59.3173L177.27 61.0048L176.678 63.1348L176.205 64.8223L175.62 66.9448L175.148 68.6398L174.555 70.7698L174.083 72.4573L173.498 74.5873L173.025 76.2748L172.508 78.1273L171.6 76.4398L170.768 74.8873L169.718 72.9448L168.893 71.3998L167.843 69.4573L167.01 67.9123L165.968 65.9698L165.135 64.4173L164.085 62.4823L163.26 60.9298L162.218 58.9948L161.378 57.4423L160.133 55.1248L179.513 52.9648Z" fill="#DBDBDB"/>
<path d="M178.808 55.4927L178.335 57.1952L162.218 58.9952L161.378 57.4427L178.808 55.4927Z" fill="white"/>
<path d="M177.743 59.3174L177.27 61.0049L164.085 62.4824L163.26 60.9299L177.743 59.3174Z" fill="white"/>
<path d="M176.678 63.1353L176.205 64.8228L165.968 65.9703L165.135 64.4178L176.678 63.1353Z" fill="white"/>
<path d="M175.62 66.9448L175.148 68.6398L167.843 69.4573L167.01 67.9123L175.62 66.9448Z" fill="white"/>
<path d="M174.555 70.77L174.083 72.4575L169.718 72.945L168.893 71.4L174.555 70.77Z" fill="white"/>
<path d="M173.498 74.5874L173.025 76.2749L171.6 76.4399L170.768 74.8874L173.498 74.5874Z" fill="white"/>
<path d="M216.997 43.7324L216.75 46.3499L216.585 48.0974L216.383 50.2949L216.218 52.0424L216.008 54.2399L215.85 55.9874L215.64 58.1849L215.475 59.9324L215.273 62.1299L215.108 63.8774L214.905 66.0749L214.74 67.8224L214.56 69.7349L213.368 68.2349L212.273 66.8549L210.9 65.1299L209.813 63.7574L208.433 62.0249L207.338 60.6524L205.973 58.9274L204.878 57.5549L203.505 55.8299L202.41 54.4499L201.045 52.7249L199.943 51.3524L198.308 49.2899L216.997 43.7324Z" fill="#DBDBDB"/>
<path d="M216.75 46.3501L216.585 48.0976L201.045 52.7251L199.943 51.3526L216.75 46.3501Z" fill="white"/>
<path d="M216.383 50.2949L216.218 52.0424L203.505 55.8299L202.41 54.4499L216.383 50.2949Z" fill="white"/>
<path d="M216.008 54.2402L215.85 55.9877L205.973 58.9277L204.878 57.5552L216.008 54.2402Z" fill="white"/>
<path d="M215.64 58.1851L215.475 59.9326L208.433 62.0251L207.338 60.6526L215.64 58.1851Z" fill="white"/>
<path d="M215.273 62.1299L215.108 63.8774L210.9 65.1299L209.812 63.7574L215.273 62.1299Z" fill="white"/>
<path d="M214.905 66.0752L214.74 67.8227L213.368 68.2352L212.273 66.8552L214.905 66.0752Z" fill="white"/>
<path d="M251.85 27.0527L252.12 29.6627L252.308 31.4177L252.54 33.6077L252.72 35.3552L252.952 37.5452L253.133 39.2927L253.365 41.4902L253.553 43.2377L253.785 45.4352L253.973 47.1827L254.197 49.3727L254.385 51.1202L254.58 53.0252L253.117 51.7877L251.775 50.6552L250.088 49.2377L248.753 48.1052L247.058 46.6802L245.715 45.5477L244.028 44.1227L242.693 42.9902L241.005 41.5727L239.663 40.4327L237.983 39.0152L236.625 37.8827L234.623 36.1877L251.85 27.0527Z" fill="#A6A6A6"/>
<path d="M252.12 29.6626L252.308 31.4176L237.983 39.0151L236.625 37.8826L252.12 29.6626Z" fill="white"/>
<path d="M252.54 33.6074L252.72 35.3549L241.005 41.5724L239.663 40.4324L252.54 33.6074Z" fill="white"/>
<path d="M252.953 37.5449L253.133 39.2924L244.028 44.1224L242.693 42.9899L252.953 37.5449Z" fill="white"/>
<path d="M253.365 41.4902L253.553 43.2377L247.058 46.6802L245.715 45.5477L253.365 41.4902Z" fill="white"/>
<path d="M253.785 45.4351L253.973 47.1826L250.088 49.2376L248.753 48.1051L253.785 45.4351Z" fill="white"/>
<path d="M254.198 49.3726L254.385 51.1201L253.118 51.7876L251.775 50.6551L254.198 49.3726Z" fill="white"/>
<path d="M22.0125 35.0851C32.34 38.7001 42.87 41.6701 53.5125 44.2351C64.155 46.8001 74.85 48.9826 85.6425 50.6701C107.213 54.0676 129.09 55.7176 150.893 54.8026C172.695 53.8876 194.393 50.4751 215.115 43.5076C235.904 36.6214 255.214 25.8902 272.04 11.8726C263.823 19.1276 254.898 25.5397 245.4 31.0126C240.645 33.7276 235.77 36.2626 230.76 38.5126C225.75 40.7626 220.68 42.8326 215.49 44.6176C210.3 46.4026 205.065 48.0451 199.74 49.3651C194.415 50.6851 189.06 51.8926 183.653 52.8151C172.84 54.6875 161.917 55.855 150.953 56.3101C139.995 56.7078 129.024 56.5125 118.088 55.7251C107.153 54.9751 96.255 53.6776 85.455 51.8176C63.855 48.1051 42.5025 42.7876 22.0125 35.0851Z" fill="#EBEBEB"/>
<path d="M349.193 102.225L330.765 108.585L347.888 128.31L349.193 102.225Z" fill="#DBDBDB"/>
<path d="M312.082 114.277L293.13 118.845L308.287 140.115L312.082 114.277Z" fill="#C7C7C7"/>
<path d="M273.968 122.49L254.625 124.92L267.315 147.743L273.968 122.49Z" fill="#EBEBEB"/>
<path d="M235.275 126.203L215.775 126.285L225.63 150.473L235.275 126.203Z" fill="#A6A6A6"/>
<path d="M196.5 124.552L177.225 121.627L183.233 147.045L196.5 124.552Z" fill="#DBDBDB"/>
<path d="M158.835 117.015L140.513 110.355L141.398 136.455L158.835 117.015Z" fill="#DBDBDB"/>
<path d="M123.413 101.873L107.108 91.1851L101.978 116.79L123.413 101.873Z" fill="#C7C7C7"/>
<path d="M312.082 114.278L313.718 116.34L314.812 117.72L316.185 119.445L317.272 120.818L318.645 122.55L319.74 123.923L321.105 125.648L322.2 127.028L323.572 128.76L324.66 130.133L326.032 131.865L327.128 133.238L328.32 134.738L328.5 132.833L328.665 131.085L328.875 128.888L329.032 127.14L329.242 124.943L329.415 123.188L329.617 120.998L329.782 119.25L329.992 117.053L330.157 115.305L330.36 113.108L330.532 111.353L330.78 108.743L312.082 114.278Z" fill="#A6A6A6"/>
<path d="M313.718 116.34L314.813 117.72L330.36 113.108L330.532 111.353L313.718 116.34Z" fill="white"/>
<path d="M316.185 119.445L317.273 120.818L329.993 117.053L330.158 115.305L316.185 119.445Z" fill="white"/>
<path d="M318.645 122.55L319.74 123.923L329.618 120.998L329.783 119.25L318.645 122.55Z" fill="white"/>
<path d="M321.105 125.647L322.2 127.027L329.243 124.942L329.415 123.188L321.105 125.647Z" fill="white"/>
<path d="M323.572 128.76L324.66 130.133L328.875 128.888L329.033 127.14L323.572 128.76Z" fill="white"/>
<path d="M326.033 131.865L327.128 133.237L328.5 132.832L328.665 131.085L326.033 131.865Z" fill="white"/>
<path d="M273.975 122.497L275.385 124.71L276.33 126.195L277.515 128.055L278.46 129.54L279.645 131.392L280.59 132.877L281.768 134.737L282.713 136.215L283.898 138.082L284.843 139.56L286.028 141.42L286.973 142.905L288.008 144.517L288.383 142.642L288.728 140.917L289.163 138.757L289.5 137.032L289.943 134.865L290.288 133.147L290.723 130.987L291.06 129.262L291.495 127.102L291.84 125.377L292.275 123.217L292.62 121.492L293.138 118.92L273.975 122.497Z" fill="#A6A6A6"/>
<path d="M275.385 124.71L276.33 126.195L292.275 123.218L292.62 121.493L275.385 124.71Z" fill="white"/>
<path d="M277.515 128.055L278.46 129.54L291.495 127.102L291.84 125.377L277.515 128.055Z" fill="white"/>
<path d="M279.645 131.393L280.59 132.878L290.723 130.988L291.06 129.263L279.645 131.393Z" fill="white"/>
<path d="M281.768 134.737L282.713 136.215L289.942 134.865L290.287 133.147L281.768 134.737Z" fill="white"/>
<path d="M283.897 138.083L284.843 139.56L289.162 138.758L289.5 137.033L283.897 138.083Z" fill="white"/>
<path d="M286.027 141.42L286.973 142.905L288.383 142.642L288.728 140.917L286.027 141.42Z" fill="white"/>
<path d="M235.298 126.15L236.445 128.512L237.21 130.102L238.17 132.082L238.935 133.665L239.895 135.652L240.66 137.227L241.628 139.215L242.393 140.79L243.353 142.785L244.118 144.36L245.077 146.347L245.85 147.93L246.683 149.655L247.275 147.825L247.823 146.16L248.497 144.06L249.037 142.395L249.72 140.287L250.268 138.615L250.95 136.522L251.483 134.85L252.173 132.757L252.705 131.085L253.388 128.985L253.935 127.312L254.745 124.815L235.298 126.15Z" fill="#DBDBDB"/>
<path d="M236.445 128.513L237.21 130.103L253.388 128.985L253.935 127.312L236.445 128.513Z" fill="white"/>
<path d="M238.17 132.082L238.935 133.665L252.173 132.757L252.705 131.085L238.17 132.082Z" fill="white"/>
<path d="M239.895 135.653L240.66 137.228L250.95 136.523L251.483 134.85L239.895 135.653Z" fill="white"/>
<path d="M241.628 139.215L242.393 140.79L249.72 140.288L250.268 138.615L241.628 139.215Z" fill="white"/>
<path d="M243.353 142.785L244.118 144.36L248.498 144.06L249.038 142.395L243.353 142.785Z" fill="white"/>
<path d="M245.077 146.348L245.85 147.93L247.275 147.825L247.823 146.16L245.077 146.348Z" fill="white"/>
<path d="M196.313 124.688L197.123 127.185L197.663 128.865L198.33 130.965L198.87 132.63L199.545 134.73L200.085 136.402L200.753 138.502L201.293 140.175L201.968 142.282L202.508 143.955L203.175 146.047L203.715 147.72L204.3 149.55L205.148 147.825L205.92 146.25L206.888 144.262L207.653 142.687L208.628 140.7L209.393 139.125L210.36 137.145L211.125 135.562L212.1 133.582L212.865 132.007L213.833 130.027L214.613 128.445L215.76 126.082L196.313 124.688Z" fill="#C7C7C7"/>
<path d="M197.123 127.185L197.663 128.865L213.833 130.028L214.613 128.445L197.123 127.185Z" fill="white"/>
<path d="M198.33 130.965L198.87 132.63L212.1 133.582L212.865 132.007L198.33 130.965Z" fill="white"/>
<path d="M199.545 134.73L200.085 136.402L210.36 137.145L211.125 135.562L199.545 134.73Z" fill="white"/>
<path d="M200.753 138.502L201.293 140.175L208.628 140.7L209.393 139.125L200.753 138.502Z" fill="white"/>
<path d="M201.968 142.283L202.508 143.955L206.888 144.263L207.652 142.688L201.968 142.283Z" fill="white"/>
<path d="M203.175 146.047L203.715 147.72L205.148 147.825L205.92 146.25L203.175 146.047Z" fill="white"/>
<path d="M158.498 116.933L158.85 119.535L159.075 121.283L159.368 123.473L159.6 125.213L159.893 127.395L160.125 129.135L160.418 131.318L160.65 133.065L160.943 135.255L161.175 136.995L161.46 139.178L161.7 140.918L161.955 142.823L163.088 141.278L164.123 139.86L165.428 138.083L166.463 136.665L167.768 134.88L168.81 133.463L170.115 131.685L171.15 130.268L172.455 128.49L173.49 127.073L174.795 125.295L175.838 123.878L177.39 121.755L158.498 116.933Z" fill="#EBEBEB"/>
<path d="M158.85 119.535L159.075 121.283L174.795 125.295L175.838 123.878L158.85 119.535Z" fill="white"/>
<path d="M159.368 123.473L159.6 125.213L172.455 128.49L173.49 127.073L159.368 123.473Z" fill="white"/>
<path d="M159.893 127.395L160.125 129.135L170.115 131.685L171.15 130.268L159.893 127.395Z" fill="white"/>
<path d="M160.418 131.317L160.65 133.065L167.768 134.88L168.81 133.462L160.418 131.317Z" fill="white"/>
<path d="M160.943 135.255L161.175 136.995L165.428 138.082L166.463 136.665L160.943 135.255Z" fill="white"/>
<path d="M161.46 139.178L161.7 140.918L163.088 141.278L164.123 139.86L161.46 139.178Z" fill="white"/>
<path d="M123.375 101.828L123.203 104.445L123.09 106.208L122.94 108.405L122.828 110.16L122.678 112.358L122.565 114.113L122.423 116.31L122.31 118.065L122.16 120.263L122.048 122.018L121.898 124.223L121.785 125.97L121.665 127.883L123.083 126.593L124.38 125.408L126.008 123.923L127.298 122.738L128.933 121.245L130.23 120.06L131.858 118.575L133.148 117.39L134.783 115.905L136.073 114.72L137.7 113.235L139.005 112.043L140.94 110.273L123.375 101.828Z" fill="#A6A6A6"/>
<path d="M123.203 104.445L123.09 106.207L137.7 113.235L139.005 112.042L123.203 104.445Z" fill="white"/>
<path d="M122.94 108.405L122.828 110.16L134.783 115.905L136.073 114.72L122.94 108.405Z" fill="white"/>
<path d="M122.678 112.357L122.565 114.112L131.858 118.575L133.148 117.39L122.678 112.357Z" fill="white"/>
<path d="M122.423 116.31L122.31 118.065L128.933 121.245L130.23 120.06L122.423 116.31Z" fill="white"/>
<path d="M122.16 120.263L122.048 122.018L126.007 123.923L127.298 122.738L122.16 120.263Z" fill="white"/>
<path d="M121.897 124.223L121.785 125.97L123.083 126.593L124.38 125.408L121.897 124.223Z" fill="white"/>
<path d="M352.987 100.613C332.82 109.118 311.692 115.275 290.272 119.82C279.555 122.07 268.717 123.803 257.827 125.01C246.927 126.227 235.968 126.853 225 126.885C214.029 126.867 203.07 126.13 192.195 124.68C186.758 123.975 181.35 123 175.98 121.868C170.61 120.735 165.3 119.348 160.058 117.743C154.815 116.138 149.64 114.3 144.555 112.245C139.47 110.19 134.498 107.873 129.638 105.345C119.93 100.253 110.759 94.1972 102.263 87.27C119.628 100.612 139.345 110.575 160.388 116.64C181.328 122.783 203.205 125.408 225.008 125.393C246.81 125.378 268.628 122.933 290.048 118.695C300.758 116.565 311.372 114 321.892 111C332.4 108 342.81 104.633 352.987 100.613Z" fill="#EBEBEB"/>
<path d="M138.795 53.1826C138.844 53.5531 138.781 53.9297 138.616 54.2648C138.451 54.6 138.19 54.8786 137.866 55.0654C137.542 55.2523 137.171 55.339 136.798 55.3146C136.425 55.2902 136.068 55.1559 135.771 54.9285C135.475 54.7011 135.252 54.3909 135.132 54.0371C135.011 53.6833 134.999 53.3018 135.095 52.9407C135.192 52.5797 135.393 52.2554 135.674 52.0087C135.954 51.7621 136.302 51.6042 136.673 51.5551C137.169 51.4911 137.672 51.6264 138.069 51.9313C138.467 52.2362 138.728 52.686 138.795 53.1826Z" fill="#EBEBEB"/>
<path d="M164.25 134.25C164.3 134.62 164.239 134.998 164.075 135.334C163.911 135.669 163.65 135.949 163.327 136.137C163.004 136.325 162.632 136.413 162.259 136.39C161.886 136.366 161.528 136.233 161.23 136.006C160.933 135.779 160.71 135.469 160.589 135.115C160.468 134.761 160.454 134.379 160.55 134.018C160.647 133.656 160.848 133.332 161.128 133.085C161.409 132.837 161.757 132.679 162.128 132.63C162.624 132.564 163.126 132.697 163.524 133.001C163.922 133.305 164.183 133.754 164.25 134.25Z" fill="#EBEBEB"/>
<path d="M140.07 119.76C140.119 120.131 140.056 120.507 139.891 120.842C139.726 121.178 139.465 121.456 139.141 121.643C138.817 121.83 138.446 121.917 138.073 121.892C137.7 121.868 137.343 121.734 137.046 121.506C136.75 121.279 136.527 120.969 136.407 120.615C136.286 120.261 136.274 119.879 136.37 119.518C136.467 119.157 136.668 118.833 136.949 118.586C137.229 118.34 137.577 118.182 137.948 118.133C138.445 118.069 138.947 118.204 139.344 118.509C139.742 118.814 140.003 119.264 140.07 119.76Z" fill="#EBEBEB"/>
<path d="M85.5375 79.935C85.5625 80.1201 85.532 80.3085 85.4499 80.4763C85.3679 80.6441 85.2379 80.7839 85.0765 80.8779C84.915 80.9719 84.7294 81.0159 84.5429 81.0044C84.3565 80.9929 84.1776 80.9265 84.0289 80.8134C83.8802 80.7003 83.7684 80.5457 83.7075 80.3691C83.6467 80.1924 83.6395 80.0018 83.687 79.8211C83.7345 79.6404 83.8344 79.4778 83.9742 79.354C84.114 79.2301 84.2874 79.1504 84.4725 79.125C84.5956 79.1081 84.7209 79.1156 84.8411 79.1472C84.9613 79.1788 85.0741 79.2338 85.1731 79.309C85.272 79.3843 85.3551 79.4783 85.4176 79.5857C85.4802 79.6931 85.5209 79.8118 85.5375 79.935Z" fill="#EBEBEB"/>
<path d="M272.25 119.122C272.275 119.308 272.244 119.496 272.162 119.664C272.08 119.832 271.95 119.971 271.789 120.065C271.628 120.159 271.442 120.203 271.255 120.192C271.069 120.18 270.89 120.114 270.741 120.001C270.593 119.888 270.481 119.733 270.42 119.557C270.359 119.38 270.352 119.189 270.4 119.009C270.447 118.828 270.547 118.665 270.687 118.541C270.827 118.418 271 118.338 271.185 118.312C271.308 118.296 271.433 118.303 271.554 118.335C271.674 118.366 271.787 118.421 271.886 118.497C271.985 118.572 272.068 118.666 272.13 118.773C272.193 118.881 272.233 118.999 272.25 119.122Z" fill="#EBEBEB"/>
<path d="M141.51 137.25C141.533 137.435 141.502 137.623 141.419 137.79C141.335 137.957 141.205 138.096 141.043 138.189C140.881 138.281 140.696 138.324 140.509 138.312C140.323 138.299 140.145 138.232 139.997 138.119C139.849 138.005 139.738 137.85 139.678 137.674C139.618 137.497 139.611 137.307 139.659 137.126C139.707 136.946 139.807 136.784 139.947 136.661C140.087 136.537 140.26 136.458 140.445 136.433C140.694 136.403 140.945 136.471 141.144 136.624C141.343 136.777 141.475 137.002 141.51 137.25Z" fill="#EBEBEB"/>
<path d="M315.42 75.4798C315.445 75.6653 315.415 75.8541 315.333 76.0222C315.25 76.1903 315.12 76.3303 314.958 76.4243C314.796 76.5183 314.61 76.5621 314.423 76.5501C314.237 76.5382 314.058 76.4711 313.909 76.3573C313.76 76.2435 313.649 76.0881 313.589 75.9109C313.529 75.7336 313.522 75.5425 313.571 75.3618C313.62 75.181 313.721 75.0188 313.862 74.8956C314.003 74.7724 314.177 74.6938 314.363 74.6698C314.485 74.653 314.61 74.6606 314.73 74.6923C314.85 74.724 314.962 74.7791 315.06 74.8544C315.158 74.9297 315.241 75.0237 315.303 75.1311C315.364 75.2385 315.404 75.357 315.42 75.4798Z" fill="#EBEBEB"/>
<path d="M215.572 165.255C215.596 165.44 215.564 165.628 215.481 165.796C215.398 165.963 215.267 166.102 215.105 166.195C214.942 166.288 214.756 166.33 214.57 166.317C214.383 166.304 214.205 166.237 214.057 166.122C213.909 166.008 213.799 165.852 213.739 165.675C213.68 165.498 213.674 165.307 213.723 165.127C213.772 164.946 213.874 164.785 214.015 164.662C214.155 164.539 214.33 164.461 214.515 164.437C214.638 164.42 214.764 164.428 214.884 164.461C215.004 164.493 215.117 164.548 215.215 164.624C215.313 164.701 215.396 164.796 215.457 164.904C215.518 165.012 215.558 165.131 215.572 165.255Z" fill="#EBEBEB"/>
<path d="M313.5 117.15C313.525 117.336 313.495 117.524 313.413 117.693C313.33 117.861 313.2 118.001 313.038 118.095C312.876 118.189 312.69 118.232 312.503 118.221C312.317 118.209 312.138 118.142 311.989 118.028C311.84 117.914 311.729 117.759 311.669 117.581C311.609 117.404 311.602 117.213 311.651 117.032C311.7 116.851 311.801 116.689 311.942 116.566C312.083 116.443 312.257 116.364 312.443 116.34C312.565 116.323 312.69 116.331 312.81 116.363C312.93 116.394 313.042 116.449 313.14 116.525C313.238 116.6 313.321 116.694 313.383 116.802C313.444 116.909 313.484 117.027 313.5 117.15Z" fill="#EBEBEB"/>
<path d="M257.385 68.1528C257.41 68.3382 257.38 68.527 257.298 68.6951C257.215 68.8633 257.085 69.0032 256.923 69.0972C256.761 69.1912 256.575 69.235 256.388 69.223C256.202 69.2111 256.023 69.144 255.874 69.0302C255.725 68.9164 255.614 68.761 255.554 68.5838C255.494 68.4065 255.487 68.2154 255.536 68.0347C255.585 67.8539 255.686 67.6917 255.827 67.5685C255.968 67.4453 256.142 67.3667 256.328 67.3428C256.575 67.3108 256.825 67.378 257.023 67.5297C257.221 67.6815 257.351 67.9055 257.385 68.1528Z" fill="#EBEBEB"/>
<path d="M57.6675 146.88C57.6927 147.066 57.6623 147.254 57.5801 147.423C57.4978 147.591 57.3675 147.731 57.2057 147.825C57.0438 147.919 56.8577 147.962 56.6709 147.951C56.4841 147.939 56.3051 147.871 56.1565 147.758C56.0079 147.644 55.8965 147.488 55.8363 147.311C55.7761 147.134 55.7699 146.943 55.8185 146.762C55.8671 146.581 55.9683 146.419 56.1092 146.296C56.2501 146.173 56.4244 146.094 56.61 146.07C56.7327 146.053 56.8576 146.061 56.9773 146.093C57.0971 146.124 57.2093 146.179 57.3077 146.255C57.406 146.33 57.4884 146.424 57.5502 146.531C57.612 146.639 57.6518 146.757 57.6675 146.88Z" fill="#EBEBEB"/>
<path d="M196.778 64.2827C196.804 64.4695 196.773 64.6598 196.69 64.8291C196.607 64.9984 196.475 65.1391 196.312 65.2329C196.148 65.3268 195.96 65.3695 195.772 65.3557C195.584 65.3419 195.405 65.2721 195.257 65.1554C195.108 65.0386 194.999 64.8803 194.941 64.7006C194.884 64.521 194.882 64.3283 194.935 64.1473C194.988 63.9664 195.094 63.8054 195.239 63.6852C195.384 63.565 195.562 63.491 195.75 63.4727C195.993 63.4491 196.235 63.5202 196.427 63.6711C196.618 63.8221 196.744 64.0412 196.778 64.2827Z" fill="#EBEBEB"/>
<path d="M93.75 156.578C93.7752 156.763 93.7448 156.952 93.6625 157.12C93.5803 157.288 93.45 157.428 93.2882 157.522C93.1263 157.616 92.9402 157.66 92.7534 157.648C92.5666 157.636 92.3876 157.569 92.239 157.455C92.0904 157.341 91.979 157.186 91.9188 157.009C91.8586 156.831 91.8524 156.64 91.901 156.459C91.9496 156.279 92.0508 156.116 92.1917 155.993C92.3326 155.87 92.5069 155.791 92.6925 155.768C92.8152 155.751 92.9401 155.758 93.0598 155.79C93.1795 155.822 93.2918 155.877 93.3901 155.952C93.4885 156.027 93.5709 156.121 93.6327 156.229C93.6944 156.336 93.7343 156.455 93.75 156.578Z" fill="#EBEBEB"/>
<path d="M108.84 129.263C108.889 129.633 108.827 130.01 108.661 130.346C108.496 130.681 108.234 130.96 107.91 131.147C107.586 131.334 107.214 131.42 106.841 131.395C106.468 131.371 106.11 131.236 105.814 131.007C105.517 130.779 105.295 130.468 105.175 130.114C105.056 129.76 105.044 129.378 105.142 129.016C105.239 128.655 105.442 128.331 105.724 128.085C106.006 127.84 106.354 127.683 106.725 127.635C106.971 127.602 107.221 127.619 107.46 127.683C107.7 127.747 107.924 127.858 108.121 128.009C108.317 128.16 108.482 128.349 108.605 128.564C108.729 128.779 108.809 129.017 108.84 129.263Z" fill="#EBEBEB"/>
<path d="M184.665 99.6825C184.714 100.053 184.651 100.43 184.486 100.765C184.321 101.1 184.06 101.379 183.736 101.565C183.412 101.752 183.041 101.839 182.668 101.815C182.295 101.79 181.938 101.656 181.641 101.428C181.344 101.201 181.122 100.891 181.002 100.537C180.881 100.183 180.869 99.8017 180.965 99.4406C181.062 99.0796 181.263 98.7553 181.544 98.5087C181.824 98.262 182.172 98.1041 182.543 98.055C182.789 98.0223 183.039 98.0385 183.279 98.1026C183.519 98.1668 183.744 98.2776 183.941 98.4287C184.138 98.5799 184.304 98.7684 184.428 98.9836C184.552 99.1987 184.633 99.4362 184.665 99.6825Z" fill="#EBEBEB"/>
<path d="M260.25 92.6551C260.299 93.0257 260.236 93.4023 260.071 93.7374C259.906 94.0726 259.645 94.3512 259.321 94.538C258.997 94.7249 258.626 94.8116 258.253 94.7872C257.88 94.7628 257.523 94.6284 257.226 94.4011C256.929 94.1737 256.707 93.8635 256.587 93.5097C256.466 93.1559 256.454 92.7743 256.55 92.4133C256.647 92.0523 256.848 91.7279 257.129 91.4813C257.409 91.2347 257.757 91.0768 258.128 91.0277C258.374 90.995 258.624 91.0112 258.864 91.0753C259.104 91.1394 259.329 91.2502 259.526 91.4014C259.723 91.5526 259.889 91.7411 260.013 91.9562C260.137 92.1713 260.218 92.4089 260.25 92.6551Z" fill="#EBEBEB"/>
<path d="M212.145 88.8901L209.505 87.8926C209.505 87.8926 210.323 89.7751 208.478 92.0476C206.633 94.3201 203.978 93.6376 203.13 96.3751L205.95 97.6351C206.128 96.8823 206.462 96.1754 206.931 95.5604C207.4 94.9453 207.994 94.4358 208.673 94.0651C210.345 93.2551 212.16 92.1526 212.145 88.8901Z" fill="#EBEBEB"/>
<path d="M152.168 144.068L149.528 143.078C149.528 143.078 150.353 144.96 148.508 147.225C146.663 149.49 144.008 148.815 143.16 151.553L145.973 152.813C146.153 152.062 146.488 151.357 146.957 150.743C147.426 150.13 148.018 149.621 148.695 149.25C150.375 148.433 152.19 147.338 152.168 144.068Z" fill="#EBEBEB"/>
<path d="M214.5 145.178L211.86 144.188C211.86 144.188 212.685 146.07 210.84 148.335C208.995 150.6 206.34 149.925 205.492 152.663L208.313 153.923C208.491 153.171 208.826 152.465 209.295 151.852C209.764 151.238 210.357 150.73 211.035 150.36C212.67 149.542 214.5 148.44 214.5 145.178Z" fill="#EBEBEB"/>
<path d="M271.95 143.13L269.31 142.132C269.31 142.132 270.135 144.015 268.29 146.287C266.445 148.56 263.79 147.87 262.943 150.607L265.763 151.867C265.941 151.116 266.276 150.41 266.745 149.796C267.214 149.183 267.807 148.674 268.485 148.305C270.158 147.487 271.973 146.392 271.95 143.13Z" fill="#EBEBEB"/>
<path d="M120.39 104.438L120.773 101.648C120.773 101.648 119.123 102.863 116.498 101.565C113.873 100.267 113.955 97.515 111.098 97.3125L110.49 100.313C111.263 100.32 112.026 100.491 112.729 100.812C113.432 101.134 114.059 101.6 114.57 102.18C115.74 103.658 117.21 105.18 120.39 104.438Z" fill="#EBEBEB"/>
<path d="M237.368 99.4502L237.758 96.6602C237.758 96.6602 236.1 97.8752 233.483 96.5777C230.865 95.2802 230.933 92.5277 228.075 92.3252L227.475 95.3252C228.248 95.3335 229.01 95.504 229.713 95.8257C230.416 96.1474 231.044 96.6131 231.555 97.1927C232.718 98.6702 234.188 100.193 237.368 99.4502Z" fill="#EBEBEB"/>
<path d="M118.14 168.847L118.523 166.05C118.523 166.05 116.865 167.272 114.248 165.967C111.63 164.662 111.698 161.917 108.848 161.715L108.24 164.715C109.013 164.725 109.775 164.896 110.477 165.218C111.18 165.539 111.807 166.004 112.32 166.582C113.483 168.06 114.96 169.582 118.14 168.847Z" fill="#EBEBEB"/>
<path d="M291.277 90.4352L291.66 87.6377C291.66 87.6377 290.002 88.8602 287.385 87.5552C284.767 86.2502 284.835 83.5052 281.985 83.3027L281.378 86.3027C282.15 86.3129 282.912 86.4842 283.615 86.8058C284.317 87.1274 284.945 87.5921 285.457 88.1702C286.62 89.6477 288.097 91.1702 291.277 90.4352Z" fill="#EBEBEB"/>
<path d="M261.923 172.98L262.455 175.748C262.455 175.748 263.633 174.068 266.528 174.45C269.423 174.833 270.24 177.45 273.008 176.745L272.61 173.685C271.871 173.932 271.087 174.02 270.312 173.942C269.536 173.864 268.786 173.624 268.11 173.235C266.58 172.23 264.698 171.255 261.923 172.98Z" fill="#EBEBEB"/>
<path d="M135.975 164.333L140.475 163.058C140.475 163.058 142.62 168.683 138.158 170.273C138.165 170.25 139.68 167.25 135.975 164.333Z" fill="#EBEBEB"/>
<path d="M136.71 176.25L132.848 173.738C132.848 173.738 133.418 170.063 138.165 170.31C138.165 170.25 134.558 172.905 136.71 176.25Z" fill="#EBEBEB"/>
<path d="M78.8625 171.248L75.8625 169.635C75.8625 169.635 73.4625 173.265 76.35 175.095C76.3725 175.095 75.75 172.74 78.8625 171.248Z" fill="#EBEBEB"/>
<path d="M76.455 179.513L79.5825 178.35C79.5825 178.35 79.7625 175.673 76.3725 175.095C76.3725 175.095 78.5025 177.525 76.455 179.513Z" fill="#EBEBEB"/>
<path d="M232.613 158.617L229.613 157.005C229.613 157.005 227.205 160.635 230.1 162.465C230.13 162.465 229.5 160.11 232.613 158.617Z" fill="#EBEBEB"/>
<path d="M230.205 166.882L233.333 165.72C233.333 165.72 233.513 163.042 230.13 162.465C230.13 162.465 232.253 164.895 230.205 166.882Z" fill="#EBEBEB"/>
<path d="M244.657 178.703C244.607 178.332 244.668 177.955 244.833 177.619C244.997 177.283 245.257 177.003 245.58 176.815C245.904 176.627 246.275 176.539 246.649 176.563C247.022 176.586 247.38 176.72 247.677 176.947C247.974 177.174 248.198 177.484 248.319 177.837C248.44 178.191 248.453 178.573 248.357 178.935C248.261 179.296 248.06 179.621 247.779 179.868C247.498 180.115 247.151 180.273 246.78 180.323C246.284 180.389 245.782 180.255 245.384 179.951C244.986 179.648 244.725 179.199 244.657 178.703Z" fill="#EBEBEB"/>
<path d="M315.443 157.89C315.394 157.519 315.456 157.143 315.621 156.808C315.787 156.473 316.048 156.194 316.371 156.007C316.695 155.82 317.067 155.734 317.44 155.758C317.813 155.782 318.17 155.917 318.466 156.144C318.763 156.371 318.986 156.682 319.106 157.035C319.226 157.389 319.239 157.771 319.142 158.132C319.046 158.493 318.845 158.817 318.564 159.064C318.283 159.31 317.935 159.468 317.565 159.517C317.068 159.581 316.566 159.446 316.168 159.141C315.771 158.836 315.51 158.387 315.443 157.89Z" fill="#EBEBEB"/>
<path d="M210.878 113.198C210.829 112.827 210.891 112.45 211.056 112.115C211.222 111.78 211.483 111.502 211.806 111.315C212.13 111.128 212.502 111.041 212.875 111.066C213.248 111.09 213.605 111.224 213.901 111.452C214.198 111.679 214.421 111.989 214.541 112.343C214.661 112.697 214.674 113.078 214.577 113.439C214.481 113.8 214.28 114.125 213.999 114.371C213.718 114.618 213.37 114.776 213 114.825C212.754 114.859 212.503 114.843 212.263 114.78C212.022 114.716 211.797 114.605 211.599 114.454C211.402 114.303 211.237 114.114 211.113 113.898C210.989 113.682 210.909 113.444 210.878 113.198Z" fill="#EBEBEB"/>
<path d="M293.633 127.403L293.25 130.193C293.25 130.193 294.9 128.978 297.525 130.275C300.15 131.573 300.068 134.325 302.925 134.535L303.533 131.535C302.76 131.527 301.997 131.357 301.294 131.035C300.591 130.714 299.964 130.248 299.452 129.668C298.282 128.19 296.813 126.66 293.633 127.403Z" fill="#EBEBEB"/>
<path d="M229.2 126.54L224.7 127.815C224.7 127.815 222.555 122.19 227.018 120.6C227.01 120.6 225.495 123.6 229.2 126.54Z" fill="#EBEBEB"/>
<path d="M228.458 114.66L232.327 117.173C232.327 117.173 231.758 120.848 227.01 120.6C227.01 120.6 230.617 117.968 228.458 114.66Z" fill="#EBEBEB"/>
<path d="M79.7775 138.225L75.2775 139.508C75.2775 139.508 73.1325 133.875 77.595 132.285C77.5875 132.285 76.0725 135.285 79.7775 138.225Z" fill="#EBEBEB"/>
<path d="M79.035 126.345L82.905 128.865C82.905 128.865 82.335 132.533 77.5875 132.285C77.5875 132.285 81.195 129.653 79.035 126.345Z" fill="#EBEBEB"/>
<path d="M298.23 182.835L301.23 184.448C301.23 184.448 303.637 180.825 300.742 178.995C300.75 178.995 301.305 181.35 298.23 182.835Z" fill="#EBEBEB"/>
<path d="M300.63 174.578L297.51 175.74C297.51 175.74 297.323 178.418 300.712 178.995C300.75 178.995 298.59 176.565 300.63 174.578Z" fill="#EBEBEB"/>
<path d="M274.313 64.1852L277.313 65.7977C277.313 65.7977 279.72 62.1752 276.825 60.3452C276.795 60.3452 277.388 62.7002 274.313 64.1852Z" fill="#EBEBEB"/>
<path d="M276.75 55.9199L273.63 57.0824C273.63 57.0824 273.443 59.7674 276.833 60.3449C276.795 60.3449 274.673 57.9149 276.75 55.9199Z" fill="#EBEBEB"/>
<path d="M157.59 162.458L158.085 165.81C158.085 165.81 162.428 165.555 162.15 162.143C162.15 162.143 160.628 164.033 157.59 162.458Z" fill="#EBEBEB"/>
<path d="M165.638 159.42L162.833 157.62C162.833 157.62 160.583 159.12 162.15 162.12C162.15 162.143 162.818 159 165.638 159.42Z" fill="#EBEBEB"/>
<path d="M187.5 349.185C258.794 349.185 316.59 341.382 316.59 331.755C316.59 322.129 258.794 314.325 187.5 314.325C116.206 314.325 58.41 322.129 58.41 331.755C58.41 341.382 116.206 349.185 187.5 349.185Z" fill="#EBEBEB"/>
<path d="M25.92 288.877L66.315 288.697L106.71 288.63L187.5 288.502L268.29 288.63L308.685 288.697L349.08 288.877L308.685 289.065L268.29 289.125L187.5 289.252L106.71 289.125L66.315 289.065L25.92 288.877Z" fill="#263238"/>
<path d="M64.2375 233.025C64.2375 233.025 49.02 229.575 40.68 221.887C32.34 214.2 27.6825 200.438 27.6825 200.438C33.4647 201.552 39.1651 203.056 44.745 204.937C46.11 206.392 48.705 209.393 49.9125 212.235C50.0439 210.487 50.0439 208.733 49.9125 206.985C51.8604 207.833 53.6845 208.94 55.335 210.277C62.2875 216.345 64.2375 233.025 64.2375 233.025Z" fill="#5CBA94"/>
<path d="M37.185 207.127C35.1075 205.695 32.9925 204.307 30.93 202.86C30.9057 202.842 30.8891 202.815 30.8836 202.786C30.878 202.756 30.8839 202.725 30.9 202.7C30.9161 202.674 30.9413 202.655 30.9705 202.648C30.9997 202.64 31.0308 202.643 31.0575 202.657C34.98 204.997 38.8425 207.502 42.585 210.157C43.89 211.072 45.165 212.017 46.4325 212.992C46.3425 212.842 46.26 212.685 46.17 212.542C45.7125 211.792 45.2325 211.042 44.7525 210.292C43.7988 208.766 42.7174 207.324 41.52 205.98C41.475 205.927 41.52 205.852 41.595 205.905C42.78 207.27 43.9575 208.627 45.045 210.075C45.555 210.765 46.035 211.477 46.4925 212.205C46.725 212.587 46.9575 212.955 47.175 213.36C47.2425 213.487 47.325 213.615 47.4 213.75C49.3725 215.295 51.285 216.907 53.115 218.61C54.24 219.66 55.365 220.755 56.385 221.872C55.7925 220.035 55.2825 218.175 54.6 216.36C54.6 216.3 54.675 216.27 54.6975 216.36C55.365 218.265 56.085 220.177 56.595 222.127C57.765 223.387 58.8825 224.692 59.9325 226.05C59.9325 225.967 59.9325 225.885 59.8725 225.802C59.7 225.052 59.52 224.37 59.3325 223.657C58.9575 222.285 58.5825 220.912 58.095 219.57C57.2291 216.737 55.8402 214.091 54 211.77C54 211.717 54 211.65 54.075 211.702C57.075 215.22 58.7925 219.435 59.91 223.867C60.0675 224.52 60.225 225.165 60.3675 225.817C60.45 226.162 60.54 226.515 60.6 226.875C61.0575 227.497 61.5075 228.12 61.9425 228.765C64.5365 232.732 66.6965 236.966 68.385 241.395C70.2843 246.37 71.9117 251.445 73.26 256.597C73.26 256.695 73.1325 256.732 73.1025 256.635C70.1025 247.732 67.1025 238.702 61.995 230.737C60.915 229.057 59.755 227.437 58.515 225.877C55.9946 225.706 53.5081 225.201 51.12 224.377C48.5066 223.502 46.0143 222.3 43.7025 220.8C42.3844 219.911 41.1151 218.952 39.9 217.927C39.8927 217.924 39.8861 217.92 39.8808 217.914C39.8755 217.908 39.8716 217.901 39.8694 217.893C39.8673 217.885 39.8669 217.877 39.8683 217.87C39.8697 217.862 39.8728 217.854 39.8775 217.848C39.8822 217.842 39.8882 217.836 39.8953 217.833C39.9023 217.829 39.9101 217.827 39.918 217.826C39.926 217.826 39.9339 217.828 39.9411 217.831C39.9484 217.834 39.9549 217.839 39.96 217.845C42.0864 219.557 44.4322 220.977 46.935 222.067C49.3949 223.199 51.9698 224.062 54.615 224.64C55.74 224.887 56.865 225.067 58.02 225.225C56.6058 223.492 55.1039 221.832 53.52 220.252C53.01 219.742 52.4775 219.247 51.9525 218.752C50.1772 217.512 48.2948 216.433 46.3275 215.527C43.83 214.327 41.3775 213.045 38.91 211.777C37.515 211.072 36.135 210.345 34.7325 209.662C34.6725 209.662 34.7325 209.542 34.785 209.572C37.2825 210.78 39.825 211.905 42.3525 213.067C44.7225 214.155 47.13 215.242 49.41 216.525L49.695 216.697C47.64 214.905 45.5025 213.195 43.32 211.545C41.31 210.06 39.2625 208.567 37.185 207.127Z" fill="#263238"/>
<path d="M38.0475 214.973C39.285 215.52 40.545 216 41.7975 216.57C43.05 217.14 44.2575 217.853 45.45 218.558C45.5025 218.558 45.45 218.663 45.405 218.64C44.19 218.055 42.96 217.515 41.76 216.908C40.56 216.3 39.3075 215.625 38.01 215.07C37.9575 215.048 37.9875 214.95 38.0475 214.973Z" fill="#263238"/>
<path d="M113.677 156.33C110.866 159.96 109.275 164.386 109.132 168.975C109.08 170.34 109.297 172.238 109.455 174.473C103.777 177.473 99.525 182.963 99.525 182.963C102.742 181.028 107.167 180.248 109.56 180.563C109.482 182.09 109.287 183.61 108.975 185.108C107.925 185.048 105.885 185.19 102.525 186.383C104.525 186.362 106.507 186.758 108.345 187.545C105.63 196.17 97.5675 205.035 75.3 208.8C72.9368 198.216 74.3316 187.14 79.245 177.473C85.9125 164.348 113.677 156.33 113.677 156.33Z" fill="#5CBA94"/>
<path d="M67.59 245.73C67.98 242.05 68.4625 238.375 69.0375 234.705C70.1691 227.369 71.671 220.094 73.5375 212.91C74.4083 209.538 75.4828 206.222 76.755 202.98C76.6938 202.387 76.6663 201.791 76.6725 201.195C76.6725 200.482 76.6725 199.77 76.6725 199.057C76.6725 197.632 76.755 196.207 76.8825 194.782C77.108 191.967 77.5645 189.175 78.2475 186.435C78.6525 184.852 79.125 183.285 79.5975 181.717C79.5975 181.65 79.71 181.717 79.695 181.717C78.9343 184.462 78.3679 187.256 78 190.08C77.5967 192.849 77.3463 195.638 77.25 198.435C77.22 199.2 77.205 199.965 77.205 200.73C77.205 201.06 77.205 201.39 77.205 201.72C78.2966 199.056 79.549 196.462 80.955 193.95C83.2149 189.97 85.7617 186.16 88.575 182.55C88.5823 182.129 88.6428 181.711 88.755 181.305C88.86 180.802 88.9725 180.307 89.085 179.805C89.31 178.785 89.565 177.78 89.835 176.805C90.39 174.787 91.1175 172.83 91.7475 170.805C91.7443 170.797 91.7431 170.788 91.7441 170.78C91.745 170.771 91.748 170.763 91.7528 170.756C91.7576 170.749 91.7641 170.743 91.7717 170.739C91.7792 170.735 91.7877 170.733 91.7962 170.733C91.8048 170.733 91.8133 170.735 91.8209 170.739C91.8284 170.743 91.8349 170.749 91.8397 170.756C91.8445 170.763 91.8475 170.771 91.8485 170.78C91.8494 170.788 91.8482 170.797 91.845 170.805C91.26 172.777 90.87 174.817 90.42 176.805C90.195 177.795 89.9775 178.792 89.76 179.805C89.6475 180.307 89.5425 180.802 89.4375 181.305C89.4375 181.342 89.4375 181.38 89.4375 181.417C90.3375 180.285 91.2525 179.167 92.19 178.065C96.4425 173.077 101.108 168.472 105.795 163.912C106.373 163.35 106.965 162.802 107.55 162.247C107.602 162.202 107.67 162.247 107.625 162.322C103.125 167.002 98.7225 171.735 94.545 176.685C93.545 177.86 92.5675 179.052 91.6125 180.262C92.115 179.917 92.625 179.58 93.1125 179.25C94.41 178.402 95.7225 177.577 97.0725 176.82C98.4225 176.062 99.7875 175.32 101.175 174.637C102.562 173.955 104.13 173.355 105.503 172.552C105.562 172.552 105.615 172.62 105.555 172.642C104.149 173.296 102.791 174.048 101.49 174.892C100.133 175.695 98.7825 176.505 97.455 177.352C96.1275 178.2 94.83 179.002 93.525 179.842C92.445 180.547 91.38 181.342 90.255 181.965C87.673 185.282 85.2912 188.751 83.1225 192.352C81.7733 194.618 80.5417 196.951 79.4325 199.342L80.235 198.997L82.275 198.09C83.58 197.512 84.9 196.942 86.2125 196.372C88.71 195.285 91.245 194.287 93.7125 193.095C95.094 192.436 96.4295 191.684 97.71 190.845C97.7625 190.807 97.8075 190.897 97.755 190.935C93.1875 194.085 88.0725 196.305 83.0175 198.54L80.8275 199.507C80.2275 199.77 79.6275 200.07 79.005 200.302C77.5123 203.649 76.2591 207.098 75.255 210.622C73.2586 217.711 71.6413 224.901 70.41 232.162C69.1275 239.437 68.2725 246.757 67.5975 254.107C67.515 255.03 67.4325 255.945 67.3275 256.86C67.3164 256.929 67.2813 256.991 67.2284 257.036C67.1754 257.081 67.1082 257.106 67.0388 257.106C66.9693 257.106 66.9021 257.081 66.8491 257.036C66.7962 256.991 66.7611 256.929 66.75 256.86C66.8175 253.185 67.2 249.442 67.59 245.73Z" fill="#263238"/>
<path d="M81.1425 184.238C81.5475 181.988 82.1475 179.738 82.7625 177.548C82.7625 177.48 82.875 177.548 82.86 177.548C82.2975 179.723 81.8925 181.943 81.4875 184.148C81.0825 186.353 80.7 188.648 80.385 190.898H80.3175C80.4671 188.664 80.7425 186.44 81.1425 184.238Z" fill="#263238"/>
<path d="M90.75 190.38C92.3004 189.362 93.9193 188.452 95.595 187.657C96.405 187.237 97.2225 186.84 98.0475 186.442C98.8725 186.045 99.78 185.692 100.62 185.265C100.631 185.263 100.643 185.265 100.653 185.27C100.663 185.275 100.671 185.283 100.676 185.293C100.681 185.303 100.683 185.315 100.681 185.326C100.679 185.337 100.673 185.347 100.665 185.355C99.855 185.76 99.0825 186.255 98.28 186.69L95.805 188.047C94.1775 188.917 92.58 189.892 90.87 190.597C90.8423 190.605 90.8127 190.604 90.7861 190.592C90.7595 190.581 90.7375 190.562 90.7236 190.536C90.7097 190.511 90.7047 190.482 90.7095 190.454C90.7143 190.425 90.7286 190.399 90.75 190.38Z" fill="#263238"/>
<path opacity="0.1" d="M63.9675 206.663C63.9675 206.663 49.8825 203.303 43.4175 193.853C37.2375 184.853 35.2425 169.455 35.085 168.098C35.34 169.343 38.2425 182.783 47.835 189.045C55.17 193.838 62.25 197.783 63.9675 206.663Z" fill="#263238"/>
<path d="M51 182.332C53.503 184.635 55.3024 187.599 56.19 190.882C56.19 190.882 56.19 190.927 56.145 190.882C55.1028 187.672 53.3019 184.759 50.895 182.392C50.85 182.362 50.9175 182.287 51 182.332Z" fill="#263238"/>
<path d="M63.9675 206.663C63.9675 206.663 49.8825 203.303 43.4175 193.853C37.2375 184.853 35.2425 169.455 35.085 168.098C35.0818 168.068 35.0818 168.038 35.085 168.008C35.085 168.008 41.835 177.608 48.9375 180.053C56.04 182.498 66 190.973 63.9675 206.663Z" fill="#5CBA94"/>
<path d="M37.5675 173.303C38.8312 175.887 40.2852 178.374 41.9175 180.743C43.563 182.99 45.5143 184.997 47.715 186.705C49.6275 188.205 51.645 189.6 53.5875 191.093L53.5425 191.018C53.175 190.485 52.7925 189.96 52.3875 189.443C51.5775 188.415 50.7 187.44 49.815 186.443C48.06 184.545 46.275 182.693 44.7075 180.63C43.8409 179.494 43.0873 178.275 42.4575 176.993C42.4575 176.933 42.525 176.895 42.555 176.993C44.8425 181.755 49.4025 184.8 52.6575 188.82C53.1224 189.388 53.5556 189.982 53.955 190.598C54.2696 191.035 54.5362 191.505 54.75 192C56.5331 193.426 58.1439 195.054 59.55 196.853C59.4276 195.93 59.2396 195.018 58.9875 194.123C58.6545 192.869 58.1497 191.668 57.4875 190.553C57.45 190.5 57.54 190.44 57.57 190.5C58.2693 191.619 58.8332 192.818 59.25 194.07C59.5482 195.06 59.7221 196.083 59.7675 197.115C60.459 198.061 61.0926 199.048 61.665 200.07C61.605 199.77 61.5525 199.47 61.4925 199.17C61.215 197.768 60.9 196.365 60.54 194.985C59.8739 192.165 58.7271 189.481 57.15 187.05C57.15 186.998 57.2025 186.938 57.24 186.99C58.8537 189.386 60.1165 192 60.99 194.753C61.44 196.14 61.8 197.543 62.115 198.96C62.2725 199.65 62.4075 200.348 62.5425 201.045C62.61 201.405 62.685 201.795 62.745 202.148C64.1489 205.215 65.2394 208.416 66 211.703C67.3816 217.564 68.3837 223.509 69 229.5C69.7273 235.775 70.0504 242.091 69.9675 248.408C69.9675 249.158 69.9075 249.99 69.8625 250.778C69.8625 250.98 69.5475 251.01 69.54 250.778C69.405 247.658 69.3225 244.53 69.135 241.41C68.9475 238.29 68.6775 235.163 68.385 232.05C67.7429 225.933 66.7614 219.856 65.445 213.848C64.305 208.695 62.8275 203.513 60.0075 199.005C58.6088 196.761 56.8993 194.725 54.93 192.96C52.9575 191.19 50.7975 189.638 48.7125 187.995C46.6074 186.394 44.6947 184.554 43.0125 182.513C41.2861 180.238 39.7794 177.804 38.5125 175.245C38.1825 174.608 37.8375 173.97 37.5 173.333C37.4475 173.303 37.5375 173.25 37.5675 173.303Z" fill="#263238"/>
<path d="M39.9975 175.365C40.919 177.263 41.9663 179.097 43.1325 180.855C43.1325 180.893 43.1325 180.938 43.0725 180.893C41.8626 179.155 40.8014 177.319 39.9 175.403C39.87 175.343 39.9675 175.305 39.9975 175.365Z" fill="#263238"/>
<path d="M115.643 200.438C115.643 200.438 115.868 220.448 103.898 226.223C91.9275 231.998 85.515 227.19 77.385 229.125C77.7 228.645 83.505 220.305 92.7375 218.01C102.24 215.632 112.763 208.778 115.643 200.438Z" fill="#5CBA94"/>
<path opacity="0.1" d="M115.643 200.438C115.643 200.438 115.868 220.448 103.898 226.223C91.9275 231.998 85.515 227.19 77.385 229.125C81.6808 227.08 86.2722 225.726 90.99 225.112C98.55 224.197 112.965 219.278 115.643 200.438Z" fill="black"/>
<path d="M76.5975 229.5C78.0234 228.204 79.6271 227.118 81.36 226.275C81.615 226.155 81.8775 226.05 82.11 225.937C82.2375 225.78 82.3725 225.63 82.515 225.48C82.8697 225.104 83.2453 224.748 83.64 224.415C84.389 223.764 85.1947 223.182 86.0475 222.675C88.0275 221.512 90.2025 220.695 92.2275 219.615C92.2875 219.577 92.3325 219.675 92.28 219.705C91.275 220.222 90.3075 220.8 89.3325 221.362C88.3575 221.925 87.4125 222.45 86.49 223.042C85.6561 223.574 84.8638 224.168 84.12 224.82C83.91 225 83.7075 225.202 83.505 225.405C84.8282 224.962 86.1785 224.603 87.5475 224.332C89.7375 223.89 91.9575 223.582 94.14 223.11C95.2137 222.879 96.2751 222.593 97.32 222.255C98.31 221.452 99.3 220.657 100.245 219.787C101.383 218.747 102.418 217.599 103.335 216.36C103.372 216.307 103.462 216.36 103.425 216.412C101.977 218.378 100.334 220.193 98.52 221.827C99.02 221.632 99.52 221.422 100.02 221.197C104.141 219.351 107.679 216.413 110.25 212.7C110.253 212.693 110.257 212.687 110.263 212.682C110.268 212.677 110.275 212.673 110.282 212.671C110.289 212.668 110.296 212.667 110.304 212.668C110.311 212.669 110.318 212.671 110.325 212.675C110.331 212.679 110.337 212.684 110.341 212.69C110.345 212.696 110.348 212.703 110.35 212.71C110.351 212.718 110.351 212.725 110.349 212.732C110.348 212.74 110.344 212.746 110.34 212.752C108.165 215.932 105.356 218.629 102.09 220.672C100.441 221.695 98.6794 222.523 96.84 223.14C94.7188 223.785 92.5563 224.286 90.3675 224.64C88.2189 224.985 86.0983 225.487 84.0225 226.14C82.1269 226.802 80.3476 227.759 78.75 228.975C75.7018 231.34 73.2469 234.383 71.58 237.862C69.33 242.407 68.235 247.485 67.6275 252.495C67.6275 252.712 67.275 252.712 67.29 252.495C67.8675 244.08 70.1175 235.327 76.5975 229.5Z" fill="#263238"/>
<path d="M90.4875 222.96C91.1094 222.019 91.9545 221.246 92.9475 220.71C94.0829 220.119 95.0799 219.293 95.8725 218.288C95.8725 218.235 96 218.288 95.9625 218.348C95.243 219.264 94.367 220.046 93.375 220.658C92.2879 221.235 91.3307 222.029 90.5625 222.99C90.525 223.05 90.4575 223.005 90.4875 222.96Z" fill="#263238"/>
<path d="M84.135 244.252L83.595 255.255L81.9225 288.877H56.82L55.155 255.255L54.6075 244.252H84.135Z" fill="#37474F"/>
<path d="M84.135 244.252L83.595 255.255H55.155L54.6075 244.252H84.135Z" fill="#263238"/>
<path d="M85.89 239.663H52.845V250.163H85.89V239.663Z" fill="#37474F"/>
<path d="M71.085 127.38L161.228 112.057L148.395 82.0425L57.3375 101.46L71.085 127.38Z" fill="#5CBA94"/>
<path opacity="0.2" d="M71.085 127.38L161.228 112.057L148.395 82.0425L57.3375 101.46L71.085 127.38Z" fill="black"/>
<path d="M259.62 57.6L251.01 28.125L148.395 82.0425L161.228 112.058L259.62 57.6Z" fill="#5CBA94"/>
<path opacity="0.1" d="M259.62 57.6L251.01 28.125L148.395 82.0425L161.228 112.058L259.62 57.6Z" fill="black"/>
<path d="M100.942 122.302L127.703 117.757L114.067 89.3623L87.15 95.0848L100.942 122.302Z" fill="#37474F"/>
<path d="M196.59 92.4827L225.082 76.7102L215.7 46.6802L185.482 62.5577L196.59 92.4827Z" fill="#455A64"/>
<path d="M246 76.3726C246.207 76.331 246.419 76.3159 246.63 76.3276H246.697C247.013 76.3566 247.319 76.4475 247.599 76.5949C247.879 76.7424 248.127 76.9436 248.33 77.187C248.532 77.4304 248.684 77.7112 248.778 78.0135C248.872 78.3158 248.905 78.6337 248.876 78.9488C248.847 79.264 248.756 79.5704 248.609 79.8504C248.461 80.1305 248.26 80.3788 248.017 80.5811C247.773 80.7834 247.493 80.9358 247.19 81.0296C246.888 81.1233 246.57 81.1566 246.255 81.1276H246.202C246.054 81.1164 245.908 81.0862 245.767 81.0376C245.685 81.018 245.605 80.9904 245.527 80.9551C245.055 80.7533 244.659 80.4055 244.398 79.9625C244.137 79.5196 244.025 79.0048 244.078 78.4934C244.13 77.9821 244.346 77.5011 244.691 77.1208C245.037 76.7405 245.496 76.4809 246 76.3801V76.3726Z" fill="white"/>
<path d="M246 76.3726C246.207 76.3288 246.419 76.3112 246.63 76.3201H246.705C247.347 76.3767 247.945 76.6677 248.385 77.1376C248.613 77.3816 248.789 77.6683 248.905 77.9812C249.021 78.294 249.074 78.6268 249.06 78.9601C249.047 79.3101 248.961 79.6536 248.809 79.9692C248.657 80.2848 248.442 80.5657 248.177 80.7944C247.912 81.0231 247.602 81.1947 247.267 81.2984C246.933 81.4022 246.581 81.436 246.233 81.3976L245.978 81.3376L245.708 81.2776C245.144 81.096 244.665 80.718 244.358 80.2126C244.052 79.7308 243.917 79.1602 243.975 78.5926C244.038 78.0575 244.268 77.5556 244.631 77.1574C244.994 76.7592 245.473 76.4848 246 76.3726ZM246 76.3726C245.476 76.4836 245.007 76.7725 244.673 77.1901C244.353 77.5892 244.179 78.0852 244.179 78.5964C244.179 79.1076 244.353 79.6036 244.673 80.0026C244.972 80.3685 245.378 80.6309 245.835 80.7526L246.053 80.7901L246.278 80.8351C246.839 80.876 247.396 80.7047 247.838 80.3551C248.296 79.9926 248.596 79.4658 248.673 78.8862C248.75 78.3066 248.598 77.7198 248.25 77.2501C248.064 76.999 247.828 76.7893 247.557 76.6344C247.286 76.4794 246.986 76.3826 246.675 76.3501H246.608C246.405 76.3333 246.201 76.3409 246 76.3726Z" fill="#EBEBEB"/>
<path d="M57.3375 101.46L148.395 82.0425L251.01 28.125L152.13 57.2625L57.3375 101.46Z" fill="#5CBA94"/>
<path d="M87.15 95.0851L183.893 47.9101L205.643 41.4976L114.067 89.3626L87.15 95.0851Z" fill="#455A64"/>
<path d="M185.483 62.5577L215.7 46.6802L120.3 72.1052L95.76 83.5502L185.483 62.5577Z" fill="#455A64"/>
<path d="M124.695 74.1074C124.695 74.1074 107.535 84.6074 105.435 99.1349C103.335 113.662 108.435 125.115 107.437 130.05C106.44 134.985 95.7675 145.05 95.7675 145.05L124.05 154.86C124.05 154.86 131.932 150.72 130.297 136.605C128.662 122.49 120.262 109.312 121.83 97.9349C123.397 86.5574 131.857 76.1849 131.857 76.1849L124.695 74.1074Z" fill="#455A64"/>
<path d="M122.25 106.658C116.277 104.24 110.778 100.787 106.005 96.4577C109.635 83.3102 124.71 74.1152 124.71 74.1152L131.865 76.1927C131.865 76.1927 123.405 86.5427 121.838 97.9427C121.499 100.851 121.639 103.795 122.25 106.658Z" fill="#37474F"/>
<path d="M152.542 59.5799C152.542 59.5799 167.19 47.0399 181.83 48.4874C196.47 49.9349 205.965 55.9874 210.99 56.2499C216.015 56.5124 228.338 48.5099 228.338 48.5099L231.075 78.3299C231.075 78.3299 225.158 84.9899 211.853 80.0099C198.548 75.0299 187.762 63.7499 176.34 62.5049C164.917 61.2599 152.842 66.8999 152.842 66.8999L152.542 59.5799Z" fill="#455A64"/>
<path d="M198.982 73.3499C191.115 68.4899 183.87 63.2999 176.347 62.5049C164.925 61.2974 152.842 66.8999 152.842 66.8999L152.542 59.5799C152.542 59.5799 167.19 47.0399 181.83 48.4874C184.75 48.7786 187.646 49.2672 190.5 49.9499C193.77 55.8899 197.587 64.3499 198.982 73.3499Z" fill="#37474F"/>
<path d="M198.982 73.3501C200.385 74.1676 201.81 74.9476 203.235 75.7126C204.66 76.4776 206.1 77.2126 207.57 77.9626C209.04 78.7126 210.495 79.3426 212.002 79.9351C213.506 80.5405 215.05 81.0417 216.622 81.4351C215.015 81.1747 213.435 80.7629 211.905 80.2051C210.374 79.6462 208.872 79.0104 207.405 78.3001C205.905 77.5876 204.502 76.8001 203.1 76.0051C201.697 75.2101 200.31 74.2501 198.982 73.3501Z" fill="#263238"/>
<path d="M196.98 51.75C198.761 52.2174 200.514 52.7858 202.23 53.4525C203.963 54.075 205.688 54.7275 207.48 55.2675C208.346 55.5562 209.231 55.7867 210.128 55.9575C211.025 56.0936 211.939 56.0682 212.827 55.8825C213.729 55.7146 214.616 55.4789 215.482 55.1775C216.358 54.8901 217.217 54.5546 218.055 54.1725C216.429 55.0696 214.688 55.7407 212.88 56.1675C211.962 56.3899 211.01 56.4332 210.075 56.295C209.158 56.132 208.254 55.9065 207.367 55.62C205.605 55.05 203.872 54.405 202.118 53.7225L199.575 52.725C198.727 52.3555 197.861 52.0301 196.98 51.75Z" fill="#263238"/>
<path d="M182.647 48.4575C183.765 52.8225 165.57 64.9575 150.877 64.89C150.877 64.89 157.342 52.0725 166.972 48.03C176.602 43.9875 182.167 46.56 182.647 48.4575Z" fill="#263238"/>
<path d="M150.877 64.8898L150.352 63.4648L149.737 61.7998L149.505 61.1848C151.83 43.8598 163.417 32.5348 164.505 32.1523C165.592 31.7698 172.882 34.3123 176.977 38.0848C181.072 41.8573 183.345 49.7623 182.67 48.4498C181.995 47.1373 176.745 44.9698 169.312 48.0448C161.88 51.1198 151.852 62.2948 150.877 64.8898Z" fill="#455A64"/>
<path d="M150.352 63.4648L149.737 61.7998C150.43 58.5175 151.797 55.4146 153.75 52.6873C153.802 52.6198 153.9 52.6873 153.87 52.7623C153.12 54.5623 152.415 56.3773 151.8 58.2148C154.067 54.6747 156.702 51.3839 159.66 48.3973C159.78 48.2623 159.998 48.3973 159.87 48.5698C155.805 53.0248 153.232 58.2898 150.352 63.4648Z" fill="#263238"/>
<path d="M185.88 83.1301C182.647 87.3526 162.375 80.0776 151.762 66.3826C151.762 66.3826 164.092 62.1076 174.862 68.0851C185.632 74.0626 187.282 81.3001 185.88 83.1301Z" fill="#263238"/>
<path d="M151.762 66.3827L149.932 61.5002C167.677 51.0002 186.63 53.4977 187.77 54.2027C188.91 54.9077 191.88 63.5402 191.37 70.0877C190.86 76.6352 185.19 84.5102 185.91 82.9352C186.63 81.3602 184.815 74.8952 176.542 70.2452C168.27 65.5952 154.875 65.3927 151.762 66.3827Z" fill="#455A64"/>
<path d="M151.095 64.5976L150.66 63.4426C156.66 61.2601 163.462 60.8926 169.687 61.5526C169.875 61.5526 169.867 61.8901 169.687 61.8826C166.173 61.7798 162.657 62.0134 159.187 62.5801C156.447 63.0668 153.743 63.7409 151.095 64.5976Z" fill="#263238"/>
<path d="M190.163 75.1726C190.41 74.0701 190.68 72.9976 190.913 71.9176C191.152 70.8365 191.328 69.7421 191.438 68.6401C191.526 69.198 191.551 69.7641 191.513 70.3276C191.466 70.8908 191.378 71.4498 191.25 72.0001C191.026 73.1003 190.661 74.1667 190.163 75.1726Z" fill="#263238"/>
<path d="M108.578 76.2075C110.61 80.235 132.323 77.4525 143.325 67.7175C143.325 67.7175 130.035 62.31 120.12 65.5875C110.205 68.865 107.7 74.4675 108.578 76.2075Z" fill="#263238"/>
<path d="M106.058 64.6501C106.665 59.1151 110.505 52.3951 111.562 51.9826C112.62 51.5701 128.812 52.4926 141.93 64.0276L142.237 64.8376L142.987 66.8026L143.332 67.7176C140.902 66.4051 126.015 64.5526 118.387 67.1176C110.76 69.6826 108.24 74.7826 108.585 76.2076C108.93 77.6326 105.443 70.1851 106.058 64.6501Z" fill="#455A64"/>
<path d="M124.38 58.9277C128.553 59.3716 132.637 60.4306 136.5 62.0702C138.463 62.8795 140.376 63.8036 142.23 64.8377L142.98 66.8027C140.871 65.4284 138.659 64.2174 136.365 63.1802C132.477 61.5333 128.431 60.2893 124.29 59.4677C124.228 59.4464 124.175 59.4038 124.142 59.3474C124.108 59.2909 124.095 59.2244 124.106 59.1596C124.117 59.0948 124.151 59.036 124.201 58.9935C124.251 58.951 124.314 58.9277 124.38 58.9277Z" fill="#263238"/>
<path d="M128.865 104.467C134.115 105.517 144.615 86.7224 143.648 69.4199C143.648 69.4199 131.543 74.3024 127.35 85.9199C123.157 97.5374 126.608 104.01 128.865 104.467Z" fill="#263238"/>
<path d="M108.495 83.9026C108.885 82.6201 121.545 68.3026 141.81 64.5376L143.647 69.4201C140.647 70.7176 130.687 79.6801 127.507 88.6126C124.327 97.5451 127.207 103.613 128.782 104.363C130.357 105.113 120.907 102.863 116.22 98.2726C111.532 93.6826 108.105 85.1776 108.495 83.9026Z" fill="#455A64"/>
<path d="M126.375 81.3976C127.68 77.6476 130.192 74.8876 133.26 72.3976C135.472 70.602 137.847 69.0176 140.355 67.6651C138.68 68.1998 137.035 68.8257 135.428 69.5401C132.606 70.9557 129.947 72.6759 127.5 74.6701C127.32 74.7976 127.14 74.5501 127.26 74.3926C130.545 70.0276 136.942 67.4101 142.38 66.1426L142.965 67.7101C140.199 69.0779 137.536 70.6471 135 72.4051C131.842 74.7226 128.175 77.7751 126.638 81.5026C126.593 81.6601 126.315 81.5626 126.375 81.3976Z" fill="#263238"/>
<path d="M139.665 66.1649C139.32 65.1599 138.27 61.3949 139.433 60.3074C140.595 59.2199 143.31 59.1824 143.933 58.9424C144.563 58.7024 146.64 56.9474 148.222 57.0074C149.805 57.0674 151.492 60.5924 151.897 61.5749C152.302 62.5574 153.66 66.4649 152.55 67.3874C151.44 68.3099 148.132 68.6024 147.615 68.7974C147.098 68.9924 144.428 70.9424 142.973 70.9799C141.518 71.0174 140.01 67.1699 139.665 66.1649Z" fill="#455A64"/>
<path d="M93.1575 183.195L176.812 203.287L281.842 192.592L186.412 175.845L93.1575 183.195Z" fill="#5CBA94"/>
<path opacity="0.3" d="M93.1575 183.195L176.812 203.287L281.842 192.592L186.412 175.845L93.1575 183.195Z" fill="black"/>
<path d="M135.878 330.75C137.438 331.252 181.973 330.75 183.66 329.692C184.298 329.28 184.613 322.792 184.763 314.94C184.763 313.245 184.815 311.49 184.83 309.69C184.935 298.14 184.778 285.885 184.778 285.885L154.987 286.117L155.858 309.915L156.045 315.165C156.045 315.165 139.08 322.972 137.355 324.367C135.63 325.762 134.318 330.232 135.878 330.75Z" fill="#FFC4C0"/>
<path d="M135.878 330.75C137.438 331.252 181.965 330.75 183.653 329.692C184.298 329.272 184.613 322.792 184.755 314.94C184.8 313.245 184.823 311.49 184.83 309.69C184.838 307.89 184.83 306.007 184.83 304.192H155.648L155.858 309.907L156.053 315.157C156.053 315.157 139.08 322.965 137.355 324.36C135.63 325.755 134.318 330.232 135.878 330.75Z" fill="#EBEBEB"/>
<path d="M135.75 330.802C137.317 331.312 182.1 330.84 183.795 329.745C184.545 329.235 184.882 319.71 184.98 309.652L155.842 309.877L156.037 315.127C156.037 315.127 138.96 322.98 137.25 324.382C135.54 325.785 134.175 330.3 135.75 330.802Z" fill="#5CBA94"/>
<path d="M136.365 329.01C143.865 328.74 174.165 328.388 181.605 328.695C181.665 328.695 181.665 328.74 181.605 328.748C174.173 329.168 143.872 329.28 136.365 329.13C136.207 329.13 136.207 329.01 136.365 329.01Z" fill="#263238"/>
<path d="M154.95 313.5C157.898 312.922 161.52 313.335 163.792 315.412C163.882 315.495 163.792 315.622 163.672 315.592C160.84 314.71 157.921 314.134 154.965 313.875C154.915 313.877 154.867 313.859 154.83 313.825C154.794 313.791 154.772 313.744 154.77 313.695C154.768 313.645 154.786 313.597 154.82 313.56C154.853 313.523 154.9 313.502 154.95 313.5Z" fill="#263238"/>
<path d="M152.835 314.782C155.782 314.197 159.398 314.61 161.678 316.695C161.768 316.77 161.678 316.897 161.558 316.867C158.724 315.988 155.805 315.413 152.85 315.15C152.807 315.143 152.768 315.122 152.739 315.089C152.71 315.057 152.693 315.016 152.692 314.972C152.69 314.929 152.703 314.886 152.729 314.852C152.755 314.817 152.793 314.793 152.835 314.782Z" fill="#263238"/>
<path d="M150.75 316.087C153.697 315.502 157.32 315.922 159.592 318C159.682 318.082 159.593 318.202 159.473 318.172C156.633 317.304 153.709 316.743 150.75 316.5C150.695 316.5 150.643 316.478 150.604 316.44C150.565 316.401 150.544 316.348 150.544 316.294C150.544 316.239 150.565 316.187 150.604 316.148C150.643 316.109 150.695 316.087 150.75 316.087Z" fill="#263238"/>
<path d="M148.598 317.392C151.545 316.815 155.16 317.227 157.44 319.305C157.53 319.387 157.44 319.515 157.32 319.485C154.487 318.602 151.568 318.026 148.613 317.767C148.563 317.769 148.514 317.751 148.478 317.718C148.441 317.684 148.419 317.637 148.418 317.587C148.416 317.538 148.433 317.489 148.467 317.453C148.501 317.416 148.548 317.394 148.598 317.392Z" fill="#263238"/>
<path d="M150.788 310.89C152.895 312.495 155.625 313.14 158.07 314.002C158.126 314.018 158.184 314.02 158.241 314.008C158.297 313.997 158.35 313.972 158.396 313.936C158.441 313.901 158.477 313.855 158.501 313.802C158.526 313.75 158.537 313.692 158.535 313.635C158.547 313.632 158.558 313.627 158.568 313.62C158.578 313.613 158.587 313.604 158.593 313.593C158.599 313.583 158.604 313.571 158.605 313.559C158.607 313.546 158.606 313.534 158.603 313.522C157.681 310.906 156.087 308.578 153.983 306.772C152.738 305.752 150.57 305.055 149.423 306.667C148.275 308.28 149.558 309.952 150.788 310.89ZM150.038 308.52C149.483 305.287 152.978 306.952 153.863 307.77C154.43 308.293 154.962 308.854 155.453 309.45C156.445 310.69 157.373 311.979 158.235 313.312C157.058 312.81 155.85 312.405 154.658 311.947C153.21 311.37 150.323 310.305 150 308.52H150.038Z" fill="#263238"/>
<path d="M168.413 308.917C167.663 307.087 165.413 307.252 163.958 307.957C161.492 309.208 159.4 311.086 157.89 313.402C157.884 313.413 157.88 313.425 157.879 313.437C157.878 313.449 157.88 313.461 157.884 313.473C157.888 313.484 157.895 313.495 157.904 313.503C157.913 313.512 157.923 313.518 157.935 313.522C157.883 313.74 158.025 314.025 158.288 313.995C160.875 313.717 163.68 313.74 166.103 312.675C167.513 312.052 169.11 310.657 168.413 308.917ZM162.128 312.75C160.86 312.915 159.585 313.02 158.325 313.23C159.477 312.137 160.684 311.103 161.94 310.132C162.555 309.667 163.201 309.246 163.875 308.872C164.918 308.31 168.713 307.515 167.415 310.53C166.695 312.217 163.635 312.57 162.128 312.75Z" fill="#263238"/>
<path d="M193.74 158.4C193.74 158.4 185.048 231.555 184.868 232.545C184.868 232.672 187.335 299.94 187.335 299.94H154.845C154.845 299.94 153.967 242.325 155.175 230.76C156.675 216.007 166.388 158.4 166.388 158.4H193.74Z" fill="#263238"/>
<path d="M185.467 293.25C180.472 293.145 181.913 293.1 176.918 293.055C174.472 293.055 158.422 292.89 156.142 293.272C156.133 293.276 156.124 293.283 156.119 293.292C156.113 293.3 156.109 293.311 156.109 293.321C156.109 293.332 156.113 293.342 156.119 293.351C156.124 293.359 156.133 293.366 156.142 293.37C158.392 293.752 174.472 293.61 176.918 293.587C181.913 293.535 180.472 293.497 185.467 293.392C185.483 293.387 185.496 293.378 185.505 293.365C185.514 293.352 185.519 293.337 185.519 293.321C185.519 293.305 185.514 293.29 185.505 293.277C185.496 293.264 185.483 293.255 185.467 293.25Z" fill="#37474F"/>
<path d="M180.577 226.553C181.027 222.42 181.627 218.303 182.167 214.178C183.257 205.878 184.36 197.575 185.475 189.27C186.743 179.858 188.093 170.46 189.428 161.055C189.428 160.943 189.622 160.943 189.607 161.055C188.607 169.445 187.59 177.835 186.555 186.225C185.528 194.535 184.433 202.838 183.345 211.14C182.258 219.443 180.855 227.64 180.892 235.95C180.892 240.135 181.095 244.32 181.207 248.498C181.32 252.675 181.44 256.875 181.553 261.06C181.808 270.54 182.167 280.035 182.07 289.515C182.07 289.643 181.89 289.628 181.882 289.515C181.312 281.063 181.132 272.588 180.855 264.12C180.577 255.653 180.277 247.373 180.105 238.995C179.989 234.842 180.147 230.685 180.577 226.553Z" fill="#37474F"/>
<path d="M214.05 329.25C215.625 328.793 252.233 303.428 253.05 301.575C253.35 300.878 249.968 295.335 245.685 288.743C244.763 287.325 243.803 285.863 242.813 284.378C236.423 274.763 229.425 264.705 229.425 264.705L204.885 281.603L218.955 300.81L222 305.025C222 305.025 212.332 321 211.687 323.123C211.042 325.245 212.475 329.7 214.05 329.25Z" fill="#FFC4C0"/>
<path d="M214.05 329.25C215.625 328.792 252.233 303.427 253.05 301.582C253.343 300.877 249.968 295.327 245.685 288.75C244.77 287.325 243.803 285.855 242.813 284.385C241.823 282.915 240.773 281.325 239.76 279.817L215.573 296.197L218.948 300.81L222.038 305.025C222.038 305.025 212.34 321 211.695 323.122C211.05 325.245 212.475 329.7 214.05 329.25Z" fill="#EBEBEB"/>
<path d="M213.975 329.37C215.558 328.912 252.368 303.405 253.163 301.545C253.522 300.69 248.43 292.635 242.873 284.25L218.873 300.75L221.978 304.995C221.978 304.995 212.25 321.09 211.605 323.25C210.96 325.41 212.393 329.835 213.975 329.37Z" fill="#5CBA94"/>
<path d="M213.48 327.532C219.548 323.107 244.433 305.827 250.763 301.905C250.815 301.905 250.838 301.905 250.763 301.95C244.845 306.45 219.825 323.55 213.525 327.637C213.42 327.75 213.353 327.63 213.48 327.532Z" fill="#263238"/>
<path d="M220.155 304.252C222.27 302.115 225.503 300.427 228.555 300.87C228.675 300.87 228.645 301.057 228.555 301.087C225.714 301.947 222.973 303.108 220.38 304.552C220.34 304.582 220.29 304.595 220.241 304.588C220.192 304.581 220.147 304.555 220.118 304.515C220.088 304.475 220.075 304.425 220.082 304.376C220.089 304.327 220.115 304.282 220.155 304.252Z" fill="#263238"/>
<path d="M219.135 306.517C221.25 304.387 224.483 302.7 227.535 303.142C227.655 303.142 227.625 303.33 227.535 303.36C224.696 304.215 221.957 305.374 219.368 306.817C219.328 306.848 219.277 306.862 219.227 306.855C219.177 306.849 219.132 306.823 219.101 306.783C219.07 306.744 219.057 306.693 219.063 306.643C219.069 306.593 219.095 306.548 219.135 306.517Z" fill="#263238"/>
<path d="M218.115 308.79C220.23 306.652 223.462 304.972 226.515 305.415C226.635 305.415 226.605 305.602 226.515 305.632C223.676 306.487 220.937 307.647 218.348 309.09C218.308 309.121 218.257 309.135 218.207 309.128C218.157 309.122 218.112 309.096 218.081 309.056C218.05 309.016 218.037 308.966 218.043 308.916C218.049 308.866 218.075 308.821 218.115 308.79Z" fill="#263238"/>
<path d="M217.095 311.062C219.21 308.925 222.435 307.237 225.495 307.687C225.608 307.687 225.585 307.867 225.495 307.897C222.657 308.758 219.919 309.92 217.327 311.362C217.288 311.393 217.237 311.407 217.187 311.401C217.137 311.394 217.092 311.368 217.061 311.329C217.03 311.289 217.017 311.238 217.023 311.189C217.029 311.139 217.055 311.093 217.095 311.062Z" fill="#263238"/>
<path d="M215.25 304.447C217.898 304.59 220.5 303.585 223.028 302.947C223.082 302.928 223.132 302.897 223.172 302.855C223.213 302.813 223.243 302.762 223.259 302.706C223.276 302.651 223.28 302.592 223.269 302.535C223.259 302.477 223.235 302.424 223.2 302.377C223.211 302.371 223.22 302.361 223.226 302.35C223.232 302.339 223.236 302.326 223.236 302.314C223.236 302.301 223.232 302.288 223.226 302.277C223.22 302.266 223.211 302.257 223.2 302.25C220.976 300.603 218.359 299.569 215.61 299.25C214.005 299.1 211.823 299.745 211.778 301.717C211.733 303.69 213.75 304.357 215.25 304.447ZM213.278 302.947C211.028 300.585 214.838 300 216.015 300.157C216.776 300.27 217.527 300.435 218.265 300.652C219.792 301.123 221.294 301.671 222.765 302.295C221.513 302.535 220.283 302.88 219.015 303.172C217.538 303.48 214.553 304.222 213.293 302.917L213.278 302.947Z" fill="#263238"/>
<path d="M228.75 292.928C227.115 291.825 225.33 293.235 224.52 294.63C223.18 297.049 222.502 299.778 222.555 302.542C222.554 302.555 222.557 302.567 222.562 302.578C222.567 302.588 222.575 302.598 222.584 302.605C222.594 302.613 222.605 302.618 222.617 302.62C222.629 302.622 222.641 302.621 222.653 302.617C222.67 302.672 222.701 302.723 222.741 302.764C222.782 302.805 222.831 302.836 222.886 302.854C222.941 302.872 222.999 302.877 223.056 302.869C223.114 302.86 223.168 302.838 223.215 302.805C225.203 301.125 227.535 299.573 228.945 297.338C229.763 296.025 230.302 294 228.75 292.928ZM225.705 299.64C224.745 300.495 223.755 301.29 222.833 302.175C223.172 300.625 223.59 299.093 224.085 297.585C224.333 296.855 224.631 296.143 224.978 295.455C225.533 294.405 228.225 291.623 228.84 294.848C229.177 296.625 226.845 298.627 225.705 299.64Z" fill="#263238"/>
<path d="M166.388 158.4C166.388 158.4 171.443 173.992 177.165 181.86C177.165 181.86 178.665 239.505 180.99 246.128C184.853 257.093 209.865 294.878 209.865 294.878L237.375 275.88C237.375 275.88 213.608 240.772 212.108 236.782C211.11 234.142 208.2 188.445 208.62 187.282C213.66 173.452 206.055 158.355 206.055 158.355L166.388 158.4Z" fill="#263238"/>
<path d="M231.503 270.112C227.34 272.865 228.503 272.017 224.355 274.815C222.338 276.18 209.04 285.18 207.375 286.815C207.375 286.852 207.375 286.92 207.435 286.897C209.527 285.915 222.66 276.682 224.685 275.28C228.765 272.407 227.558 273.187 231.608 270.262C231.617 270.255 231.626 270.247 231.632 270.236C231.639 270.226 231.643 270.215 231.645 270.203C231.647 270.191 231.647 270.179 231.644 270.167C231.642 270.156 231.637 270.145 231.63 270.135C231.623 270.125 231.614 270.117 231.604 270.11C231.594 270.104 231.583 270.099 231.571 270.097C231.559 270.095 231.547 270.095 231.535 270.098C231.523 270.1 231.512 270.105 231.503 270.112Z" fill="#37474F"/>
<path d="M205.14 185.662C205.545 183.862 206.002 182.07 206.272 180.247C206.541 178.403 206.619 176.535 206.505 174.675C206.212 170.907 205.531 167.18 204.473 163.552C204.225 162.645 203.963 161.737 203.723 160.83C203.67 160.672 203.925 160.605 203.978 160.77C205.175 164.311 206.11 167.936 206.775 171.615C207.321 175.178 207.227 178.81 206.497 182.34C205.747 185.985 204.683 189.532 204.825 193.297C204.9 195.24 207.218 231.457 207.218 233.34C207.135 235.188 207.389 237.035 207.968 238.792C208.67 240.45 209.529 242.037 210.532 243.532C211.532 245.152 212.532 246.765 213.532 248.37C217.492 254.707 221.565 261 225.795 267.165L227.407 269.505C227.46 269.58 227.332 269.655 227.272 269.572C222.832 263.452 218.557 257.217 214.447 250.867C212.445 247.747 210.39 244.627 208.567 241.395C207.674 239.898 207.079 238.243 206.812 236.52C206.587 234.772 204.127 192.825 204.277 190.942C204.437 189.164 204.725 187.399 205.14 185.662Z" fill="#37474F"/>
<path d="M192.585 163.695C193.275 166.5 193.17 170.01 195.173 172.32C196.205 173.399 197.566 174.106 199.043 174.33C200.704 174.653 202.402 174.749 204.09 174.615C204.165 174.615 204.165 174.712 204.09 174.735C201.09 175.695 196.89 175.537 194.61 173.055C193.628 171.875 193.022 170.427 192.87 168.9C192.61 167.179 192.47 165.442 192.45 163.702C192.449 163.684 192.455 163.667 192.467 163.653C192.479 163.64 192.496 163.632 192.514 163.631C192.532 163.63 192.549 163.636 192.563 163.648C192.576 163.66 192.584 163.677 192.585 163.695Z" fill="#37474F"/>
<path d="M177 181.957C177 181.9 177.023 181.844 177.064 181.803C177.104 181.763 177.16 181.74 177.217 181.74C177.275 181.74 177.33 181.763 177.371 181.803C177.412 181.844 177.435 181.9 177.435 181.957C177.555 183.232 177.54 184.515 177.577 185.79C177.615 187.065 177.637 188.212 177.667 189.427C177.735 191.917 177.787 194.407 177.847 196.927C177.957 201.927 178.112 206.905 178.312 211.86C178.512 216.815 178.742 221.787 179.002 226.777C179.122 229.267 179.272 231.75 179.415 234.232C179.507 236.629 179.758 239.016 180.165 241.38C181.139 246.253 182.965 250.917 185.557 255.157C185.617 255.255 185.467 255.33 185.4 255.24C182.731 251.685 180.817 247.622 179.775 243.3C178.65 238.65 178.53 233.827 178.275 229.05C177.705 219 177.337 208.957 177.09 198.9C177.015 196.072 176.955 193.252 176.947 190.425C176.947 189.045 176.947 187.665 176.947 186.292C176.947 184.92 176.85 183.397 177 181.957Z" fill="#37474F"/>
<path d="M171.893 179.527C175.191 180.663 178.387 182.075 181.447 183.75C181.462 183.754 181.475 183.762 181.486 183.772C181.497 183.782 181.506 183.794 181.512 183.808C181.518 183.822 181.521 183.837 181.521 183.852C181.52 183.867 181.517 183.882 181.51 183.895C181.504 183.909 181.494 183.921 181.483 183.93C181.471 183.94 181.458 183.947 181.443 183.951C181.429 183.955 181.414 183.956 181.399 183.954C181.384 183.951 181.37 183.946 181.357 183.937C178.14 182.617 174.855 181.357 171.72 179.872C171.689 179.867 171.659 179.855 171.633 179.837C171.607 179.818 171.586 179.793 171.571 179.765C171.556 179.737 171.549 179.705 171.549 179.674C171.548 179.642 171.556 179.61 171.57 179.582C171.584 179.553 171.605 179.528 171.631 179.509C171.656 179.49 171.686 179.478 171.717 179.473C171.749 179.467 171.781 179.469 171.812 179.479C171.842 179.488 171.87 179.505 171.893 179.527Z" fill="#37474F"/>
<path d="M170.925 158.497C170.925 158.385 171.127 158.362 171.127 158.497C171.125 161.922 171.306 165.344 171.667 168.75C171.817 170.332 173.167 179.077 176.025 178.44C176.505 178.335 176.775 177.877 176.828 177.187C176.815 176.282 176.686 175.382 176.445 174.51C176.13 172.68 175.867 170.842 175.695 168.99C175.36 165.551 175.4 162.085 175.815 158.655C175.821 158.634 175.833 158.617 175.85 158.604C175.867 158.591 175.888 158.584 175.909 158.584C175.93 158.584 175.951 158.591 175.967 158.604C175.984 158.617 175.997 158.634 176.002 158.655C175.917 163.421 176.21 168.186 176.88 172.905C177.24 175.155 178.44 178.605 175.942 178.95C173.445 179.295 171.765 173.572 171.442 172.005C170.657 167.547 170.483 163.002 170.925 158.497Z" fill="#37474F"/>
<path d="M175.95 178.657C176.203 179.248 176.418 179.854 176.595 180.472C176.782 180.95 176.874 181.459 176.865 181.972C176.865 182.07 176.722 182.077 176.662 182.017C176.365 181.57 176.14 181.079 175.995 180.562C175.777 180.007 175.545 179.452 175.342 178.882C175.207 178.5 175.785 178.297 175.95 178.657Z" fill="#37474F"/>
<path d="M191.512 84.4948C192.375 84.7423 196.26 84.8698 198.262 88.7323C200.175 92.3848 199.515 102.502 199.695 104.76C199.875 107.017 202.695 107.76 202.98 110.407C203.235 112.657 201.525 113.227 201.128 114.802C200.813 116.017 201.773 118.065 200.378 119.722C199.103 121.222 197.377 120.607 196.177 120.967C194.977 121.327 193.927 123.742 191.827 124.117C189.727 124.492 188.197 122.385 187.125 122.235C186.052 122.085 184.282 125.175 180.832 124.365C177.382 123.555 176.812 120.435 175.462 119.632C174.112 118.83 170.332 119.287 168.945 117.24C167.557 115.192 167.647 112.74 167.032 111.735C166.417 110.73 164.842 110.64 164.227 108.45C163.612 106.26 165.727 105.247 166.252 103.507C166.627 102.292 165.697 100.987 166.755 99.2098C168.217 96.7723 171.315 97.8073 172.935 95.3173C174.21 93.3673 177.555 84.5473 183.435 83.1298C187.455 82.1548 191.512 84.4948 191.512 84.4948Z" fill="#263238"/>
<path d="M199.695 104.25C199.831 104.743 200.089 105.195 200.445 105.562L201.435 106.717C202.119 107.436 202.689 108.255 203.122 109.147C203.32 109.573 203.418 110.039 203.407 110.508C203.397 110.978 203.279 111.438 203.062 111.855C202.816 112.267 202.507 112.639 202.147 112.957C201.733 113.301 201.374 113.705 201.082 114.157C200.863 114.685 200.827 115.271 200.977 115.822C201.06 116.332 201.172 116.82 201.24 117.322C201.34 117.787 201.347 118.267 201.261 118.734C201.175 119.201 200.997 119.647 200.737 120.045C200.472 120.428 200.083 120.709 199.635 120.84C199.166 120.964 198.676 120.995 198.195 120.93C197.7 120.892 197.205 120.802 196.695 120.735C196.195 120.623 195.673 120.662 195.195 120.847C195.689 120.718 196.209 120.731 196.695 120.885C197.183 120.997 197.678 121.132 198.195 121.215C198.715 121.316 199.25 121.316 199.77 121.215C200.308 121.084 200.787 120.775 201.127 120.337C201.444 119.901 201.667 119.404 201.783 118.878C201.899 118.351 201.906 117.807 201.802 117.277C201.742 116.76 201.637 116.257 201.562 115.777C201.441 115.347 201.465 114.888 201.63 114.472C202.05 113.722 203.062 113.137 203.557 112.155C203.809 111.669 203.94 111.131 203.94 110.584C203.94 110.037 203.809 109.498 203.557 109.013C203.063 108.104 202.425 107.28 201.667 106.575L200.587 105.51C200.197 105.164 199.892 104.733 199.695 104.25Z" fill="#263238"/>
<path d="M177.548 87.5024C176.456 88.9395 175.454 90.4424 174.547 92.0024C174.045 92.7524 173.572 93.5024 173.047 94.2524C172.79 94.6009 172.496 94.9203 172.17 95.2049C172.101 95.274 172.019 95.3299 171.93 95.3699C171.849 95.423 171.761 95.4635 171.667 95.4899C171.465 95.5649 171.255 95.6174 171.038 95.6774C170.147 95.8811 169.269 96.1314 168.405 96.4274C167.499 96.7375 166.713 97.3221 166.155 98.0999C165.879 98.5038 165.709 98.9706 165.66 99.4574C165.641 99.9315 165.712 100.405 165.87 100.852C166.222 101.686 166.378 102.589 166.327 103.492C166.495 102.589 166.43 101.657 166.14 100.785C166.025 100.365 165.987 99.9282 166.027 99.4949C166.093 99.0804 166.26 98.6886 166.515 98.3549C167.063 97.6874 167.788 97.1882 168.607 96.9149C169.432 96.6149 170.31 96.4424 171.203 96.2099C171.428 96.1513 171.651 96.0812 171.87 95.9999C172.116 95.9162 172.344 95.7835 172.538 95.6099C172.89 95.2927 173.207 94.9381 173.482 94.5524C174.027 93.8099 174.528 93.036 174.983 92.2349L176.295 89.8499C176.668 89.0446 177.086 88.2608 177.548 87.5024Z" fill="#263238"/>
<path d="M166.283 111C166.514 111.6 166.618 112.241 166.59 112.882C166.59 113.535 166.673 114.18 166.74 114.832C166.802 115.497 166.936 116.154 167.138 116.79C167.335 117.459 167.693 118.069 168.18 118.567C169.283 119.399 170.662 119.777 172.035 119.625C172.688 119.625 173.333 119.543 173.978 119.535C174.619 119.482 175.265 119.582 175.86 119.827C175.3 119.478 174.659 119.279 174 119.25C173.348 119.205 172.695 119.212 172.05 119.175C170.79 119.122 169.463 118.943 168.585 118.14C168.166 117.72 167.852 117.205 167.67 116.64C167.463 116.041 167.304 115.427 167.198 114.803C167.07 114.173 166.988 113.527 166.89 112.882C166.83 112.56 166.77 112.245 166.695 111.922C166.647 111.582 166.504 111.263 166.283 111Z" fill="#263238"/>
<path d="M187.012 119.842C181.867 123.165 158.228 131.385 150 126.69C141.623 121.905 134.303 98.1375 132.75 96.0225C128.393 90.24 148.755 83.415 150.383 87.3525C153.098 93.93 158.692 111.42 161.632 111.945C167.842 113.047 173.632 112.53 183.42 112.92C190.252 113.19 192.69 116.182 187.012 119.842Z" fill="#FFC4C0"/>
<path d="M152.25 91.7251C152.25 91.7251 159.428 110.475 161.25 111.053C164.25 112.08 180.802 112.358 186.75 112.763C192.697 113.168 198.127 118.718 183.803 123.263C169.478 127.808 157.477 129.908 149.948 127.763C145.253 126.45 133.275 105.195 133.275 105.195L152.25 91.7251Z" fill="#C7C7C7"/>
<path opacity="0.1" d="M192.81 117.27C192.465 119.115 189.975 121.275 183.75 123.27C169.425 127.77 157.425 129.915 149.895 127.808C148.957 127.545 147.727 126.488 146.362 124.95C157.312 123.143 183.75 118.868 192.81 117.27Z" fill="black"/>
<path d="M143.91 110.13L143.978 112.425L142.32 110.58L140.243 111.172L141.353 109.5L139.853 107.858L141.975 108.525L143.753 105.84L143.85 109.103L145.598 109.643L143.91 110.13ZM153.51 119.558L152.25 120.503L150.382 119.625L150.922 121.515L149.422 122.67L151.29 122.453L151.905 124.043L152.52 122.318L154.612 122.07L153 120.99L153.51 119.558ZM153.78 97.74L152.22 97.68L151.342 95.8125L150.592 97.6125L148.695 97.5375L150.27 98.565L149.73 100.178L151.305 99.24L153.075 100.395L152.513 98.52L153.78 97.74ZM156.42 114.24L156.675 113.145L158.122 112.77L156.945 111.967L157.252 110.625L156.308 111.608L154.808 111.007L155.558 112.342L154.68 113.355L156.09 113.212L156.42 114.24ZM162.382 126.315L162.637 125.213L164.085 124.845L162.907 124.035L163.215 122.7L162.277 123.683L160.74 123.075L161.49 124.418L160.612 125.43L162 125.25L162.382 126.315Z" fill="white"/>
<path d="M136.583 108.75C143.415 102.952 151.425 97.9425 152.767 96.9675C152.827 96.9225 152.895 97.035 152.828 97.08C151.47 97.965 142.897 104.73 136.65 108.877C136.575 108.907 136.5 108.795 136.583 108.75Z" fill="#263238"/>
<path d="M133.89 98.1975C135.75 99.75 150 92.325 150.465 89.865C150.537 89.0261 150.499 88.1815 150.352 87.3525C151.182 83.9761 152.501 80.7394 154.267 77.745C156.517 74.25 160.192 69.315 158.362 68.0475C155.692 66.1875 150.255 71.8725 147.33 75.3225C146.475 73.02 145.522 71.115 144.562 70.2075C141.375 67.2075 126.135 79.7475 126.757 84.165C127.365 88.425 132 96.645 133.89 98.1975Z" fill="#FFC4C0"/>
<path d="M148.56 75.8249C147.667 77.9174 145.71 75.6674 145.71 75.6674C145.71 75.6674 147.75 79.5899 145.987 81.3899C144.225 83.1899 142.02 80.3249 141.855 80.1224C141.96 80.3324 143.737 83.9849 141.787 85.6199C139.837 87.2549 137.962 84.1199 137.842 83.8949C137.887 84.1274 138.337 87.1499 136.575 88.0499C133.575 89.6024 132.165 81.8924 129.825 80.4149C129.825 80.4149 126.87 84.0749 126.757 84.1649C126.645 84.2549 125.303 76.8599 127.47 73.8374C127.778 73.3916 128.23 73.0644 128.749 72.9103C129.269 72.7562 129.826 72.7843 130.327 72.9899C130.327 72.9899 129.578 70.6874 131.077 69.3524C131.827 68.6699 133.62 69.2999 133.62 69.2999C133.479 68.7655 133.489 68.2025 133.647 67.6731C133.806 67.1438 134.108 66.6685 134.52 66.2999C135.637 65.4149 137.242 66.1799 137.242 66.1799C137.242 66.1799 137.587 64.1624 139.027 63.6299C141.952 62.5649 150.472 71.3324 148.56 75.8249Z" fill="#FFC4C0"/>
<path d="M133.628 69.2248C133.628 69.2248 133.628 69.1348 133.688 69.1648C137.689 71.7085 140.648 75.6009 142.028 80.1373C142.073 80.3023 141.953 80.4898 141.885 80.3098C140.805 77.2498 136.613 71.8123 133.628 69.2248Z" fill="#263238"/>
<path d="M137.82 84.2549C136.432 79.8299 133.755 76.2974 130.493 73.0649C130.448 73.0649 130.493 72.9674 130.56 72.9974C132.585 74.1449 134.452 76.4174 135.757 78.3149C137.01 80.0464 137.786 82.0767 138.007 84.2024C138 84.2849 137.85 84.3449 137.82 84.2549Z" fill="#263238"/>
<path d="M145.785 75.6826C145.845 75.8326 145.56 75.7576 145.613 75.9151C145.853 76.5601 146.948 80.5801 145.688 81.3751C144.683 82.0126 143.13 81.1051 142.688 80.5201L141.533 79.0201L142.103 80.8051C142.373 81.5916 142.507 82.4185 142.5 83.2501C142.521 83.6346 142.461 84.0193 142.322 84.3787C142.184 84.7381 141.971 85.0641 141.698 85.3351C141.44 85.584 141.106 85.7369 140.749 85.7683C140.393 85.7997 140.037 85.7077 139.74 85.5076C139.096 85.0443 138.58 84.4249 138.24 83.7076L137.145 81.7501L137.483 83.9251C137.576 84.5332 137.591 85.1507 137.528 85.7626C137.495 86.3426 137.289 86.8993 136.935 87.3601C136.769 87.5631 136.55 87.7157 136.302 87.8006C136.054 87.8854 135.788 87.8991 135.533 87.8401C134.983 87.6191 134.507 87.2473 134.16 86.7676C133.395 85.7391 132.711 84.6534 132.113 83.5201C131.79 82.9576 131.468 82.3951 131.115 81.8401C130.796 81.2692 130.359 80.7731 129.833 80.3851C130.306 80.8253 130.69 81.3524 130.965 81.9376C131.265 82.5001 131.543 83.0851 131.82 83.6701C132.349 84.8712 132.992 86.0189 133.74 87.0976C134.131 87.6917 134.69 88.1563 135.345 88.4326C135.717 88.5449 136.114 88.5465 136.486 88.4373C136.859 88.3281 137.192 88.1128 137.445 87.8176C137.899 87.254 138.174 86.5667 138.233 85.8451C138.322 85.1681 138.322 84.4821 138.233 83.8051L137.535 84.0226C137.935 84.8842 138.553 85.6262 139.328 86.1751C139.769 86.4681 140.301 86.5956 140.828 86.5351C141.339 86.4673 141.818 86.2449 142.2 85.8976C142.546 85.5541 142.816 85.1414 142.992 84.6865C143.168 84.2316 143.245 83.7447 143.22 83.2576C143.21 82.3428 143.05 81.4359 142.748 80.5726L142.163 80.8876C142.778 81.6376 144.413 82.8151 146.085 82.0276C148.095 80.6926 146.19 76.4401 145.785 75.6826Z" fill="#263238"/>
<path d="M145.71 75.6674C146.081 75.9531 146.493 76.1807 146.932 76.3424C147.107 76.414 147.297 76.4372 147.483 76.4095C147.669 76.3818 147.844 76.3041 147.99 76.1849C148.273 75.8793 148.463 75.4995 148.538 75.0899C148.633 74.6399 148.715 74.1674 148.785 73.6724C148.973 74.1491 149.054 74.6609 149.025 75.1724C149.026 75.7339 148.805 76.273 148.41 76.6724C148.171 76.8687 147.878 76.9865 147.57 77.0099C147.277 77.0224 146.985 76.9522 146.73 76.8074C146.276 76.5467 145.919 76.147 145.71 75.6674Z" fill="#263238"/>
<path d="M170.49 142.965L165.592 159.465L207.645 160.965C207.645 160.965 205.973 129.285 197.625 117.397C193.448 111.45 187.673 111.082 183.525 114.3C182.475 115.117 171.338 126.015 169.433 131.422C167.768 136.207 170.49 142.965 170.49 142.965Z" fill="#C7C7C7"/>
<path d="M188.655 144.675L188.723 146.97L187.065 145.125L184.987 145.71L186.098 144.045L184.598 142.402L186.72 143.062L188.497 140.385L188.595 143.64L190.342 144.187L188.655 144.675ZM183 124.552L181.215 124.942L179.505 122.167L179.303 125.377L177.128 125.857L179.22 126.547L179.085 128.55L180.585 127.005L182.94 127.755L181.74 125.797L183 124.552ZM198.247 154.095L197.01 155.04L195.142 154.162L195.682 156.06L194.182 157.207L196.043 156.997L196.657 158.587L197.272 156.855L199.365 156.615L197.737 155.527L198.247 154.095ZM174.75 146.812L173.535 147.75L171.668 146.872L172.208 148.762L170.708 149.917L172.568 149.7L173.183 151.29L173.797 149.565L175.89 149.317L174.263 148.237L174.75 146.812ZM198.503 132.277L196.942 132.217L196.065 130.35L195.277 132.157L193.388 132.082L194.955 133.102L194.415 134.722L195.99 133.777L197.76 134.932L197.197 133.057L198.503 132.277ZM201.142 148.777L201.397 147.675L202.845 147.307L201.668 146.497L201.975 145.162L201.037 146.145L199.5 145.537L200.25 146.88L199.372 147.892L200.782 147.742L201.142 148.777ZM172.86 138.15L173.115 137.047L174.563 136.672L173.385 135.87L173.693 134.535L172.755 135.51L171.217 134.91L171.967 136.245L171.075 137.25L172.478 137.107L172.86 138.15ZM181.86 156.967L181.148 156.09L181.732 154.717L180.375 155.16L179.505 154.095L179.708 155.437L178.297 156.285L179.797 156.525L180.067 157.837L180.817 156.63L181.86 156.967Z" fill="white"/>
<path d="M186.848 143.205C185.483 142.969 184.105 142.811 182.723 142.732C182.033 142.695 181.342 142.695 180.652 142.732C180.322 142.732 179.985 142.732 179.655 142.777C179.325 142.822 178.905 142.867 178.567 142.89V142.95C178.912 142.95 179.257 142.995 179.602 143.01L180.63 143.047L182.7 143.137C184.088 143.182 185.46 143.235 186.84 143.332C186.848 143.333 186.857 143.332 186.865 143.329C186.873 143.326 186.88 143.322 186.886 143.316C186.892 143.311 186.898 143.304 186.901 143.296C186.905 143.289 186.907 143.281 186.908 143.272C186.908 143.264 186.907 143.255 186.904 143.248C186.901 143.24 186.897 143.232 186.891 143.226C186.886 143.22 186.879 143.215 186.872 143.211C186.864 143.207 186.856 143.205 186.848 143.205Z" fill="#263238"/>
<path d="M193.747 124.35C203.955 135.938 217.62 148.47 225.652 147.195C232.905 146.04 244.755 137.963 255.098 129.465C257.348 127.643 243.645 110.55 241.343 112.59C236.843 116.618 227.4 127.013 224.04 128.04C222.6 128.483 207.165 119.753 196.987 115.29C184.635 109.808 189.682 119.73 193.747 124.35Z" fill="#FFC4C0"/>
<path d="M254.595 129.818C256.583 128.483 265.095 121.568 267.06 119.115C269.025 116.663 274.087 109.185 272.362 107.505C270.637 105.825 268.965 107.895 268.965 107.895C268.965 107.895 270.615 104.4 268.718 102.87C266.82 101.34 264.345 104.64 264.345 104.64C264.345 104.64 265.77 100.89 263.775 99.5325C261.78 98.175 259.838 101.88 259.838 101.88C259.838 101.88 261.3 98.5425 259.17 98.085C256.605 97.5375 254.603 103.995 252.248 106.545C251.715 107.123 240.593 117.51 240.593 117.51L254.595 129.818Z" fill="#FFC4C0"/>
<path d="M260.01 101.557C258.51 106.297 257.048 108.12 253.32 111.307C253.245 111.367 253.32 111.487 253.403 111.427C257.34 108.667 259.515 106.65 260.242 101.677C260.25 101.377 260.078 101.332 260.01 101.557Z" fill="#263238"/>
<path d="M264.458 104.25C262.478 109.042 260.903 111 257.235 114.63C257.183 114.675 257.235 114.772 257.325 114.72C261.21 111.487 263.325 109.432 264.683 104.392C264.75 104.167 264.548 104.04 264.458 104.25Z" fill="#263238"/>
<path d="M268.777 108.075C266.527 112.575 264.892 114.825 260.887 117.862C260.868 117.876 260.854 117.897 260.85 117.921C260.846 117.945 260.851 117.97 260.865 117.99C260.879 118.01 260.9 118.023 260.924 118.027C260.948 118.032 260.973 118.026 260.992 118.012C265.372 115.312 267.435 112.522 268.905 108.157C269.002 107.857 268.92 107.79 268.777 108.075Z" fill="#263238"/>
<path d="M236.655 117.803C236.655 117.803 238.155 111.803 239.438 109.26C240.72 106.718 248.813 99.1501 250.553 100.815C252.802 102.953 248.985 108.27 246.803 110.625C246.803 110.625 252.007 115.575 250.095 119.985C248.182 124.395 236.655 117.803 236.655 117.803Z" fill="#FFC4C0"/>
<path d="M250.98 101.602C251.618 105.037 248.52 107.947 246.547 110.392C246.516 110.427 246.494 110.469 246.483 110.514C246.472 110.559 246.472 110.606 246.483 110.651C246.494 110.696 246.516 110.738 246.547 110.772C246.578 110.807 246.616 110.834 246.66 110.85C248.7 113.1 250.935 116.805 250.245 119.91C250.241 119.928 250.244 119.947 250.253 119.964C250.263 119.98 250.278 119.992 250.296 119.998C250.314 120.003 250.333 120.002 250.35 119.994C250.367 119.986 250.38 119.972 250.388 119.955C251.58 116.722 249.682 112.875 247.282 110.587C249.352 108.112 252.33 105.06 251.032 101.587C251.002 101.58 250.973 101.58 250.98 101.602Z" fill="#263238"/>
<path d="M235.11 116.7C235.11 116.7 225.3 127.252 223.402 127.035C220.252 126.667 201.532 116.587 196.005 114.397C190.477 112.207 184.387 113.025 192.742 123.99C202.162 136.357 212.85 147.495 224.46 148.102C230.715 148.432 250.905 135.832 250.905 135.832L235.11 116.7Z" fill="#C7C7C7"/>
<path d="M228.555 134.565L228.622 136.86L226.965 135L224.895 135.585L225.997 133.92L224.497 132.278L226.628 132.938L228.405 130.26L228.495 133.523L230.242 134.063L228.555 134.565ZM239.25 136.703L238.012 137.648L236.145 136.77L236.685 138.668L235.185 139.815L237.045 139.598L237.66 141.195L238.275 139.463L240.367 139.223L238.74 138.135L239.25 136.703ZM219.675 138.953L218.43 139.898L216.562 139.028L217.11 140.918L215.61 142.065L217.477 141.855L218.093 143.445L218.7 141.713L220.8 141.473L219.173 140.385L219.675 138.953ZM238.425 122.183L236.872 122.115L235.995 120.248L235.2 122.055L233.31 121.98L234.878 123L234.338 124.62L235.912 123.683L237.682 124.83L237.12 122.963L238.425 122.183ZM243.39 135.938L243.645 134.843L245.092 134.468L243.915 133.665L244.23 132.323L243.285 133.305L241.785 132.705L242.535 134.04L241.657 135.053L243.067 134.91L243.39 135.938ZM215.64 129.855L215.895 128.753L217.343 128.385L216.165 127.575L216.473 126.24L215.535 127.223L213.997 126.615L214.747 127.958L213.84 129L215.242 128.85L215.64 129.855Z" fill="white"/>
<path d="M245.085 137.25C239.963 129.893 233.498 123 232.455 121.718C232.403 121.658 232.313 121.718 232.365 121.808C233.453 123.008 240.007 131.745 244.987 137.348C245.04 137.393 245.13 137.295 245.085 137.25Z" fill="#263238"/>
<path d="M204.615 137.625C204.323 137.272 194.902 126.69 193.732 125.362C193.732 125.362 193.687 125.362 193.732 125.362C194.797 126.787 197.048 129.615 197.07 129.645L196.372 129.127C195.892 128.767 195.413 128.377 194.94 128.04C194.94 128.04 194.872 128.04 194.895 128.092C195.548 128.916 196.359 129.602 197.28 130.11C199.517 132.77 201.891 135.314 204.39 137.73C204.75 138 204.885 138 204.615 137.625Z" fill="#263238"/>
<path d="M181.5 112.5C181.5 112.5 177.795 120.75 184.717 122.168C191.64 123.585 196.042 114.398 196.042 114.398C196.042 114.398 193.605 112.425 188.835 112.298C186.388 112.187 183.937 112.255 181.5 112.5Z" fill="#FFC4C0"/>
<path d="M191.753 114.36C191.535 115.065 187.8 119.505 184.53 119.13C183.465 119.01 183.87 113.13 183.87 113.13L183.803 112.687L182.85 106.552L190.253 102.457L191.318 101.925C191.318 101.925 191.468 103.62 191.633 105.735C191.633 105.832 191.633 105.93 191.633 106.035C191.633 106.14 191.633 106.267 191.633 106.38C191.633 106.695 191.693 107.017 191.708 107.34C191.723 107.662 191.745 107.82 191.753 108.09L191.798 108.84C191.908 110.679 191.893 112.523 191.753 114.36Z" fill="#FFC4C0"/>
<path d="M191.632 105.75C190.909 107.407 189.834 108.887 188.482 110.088C187.13 111.288 185.534 112.18 183.803 112.702L182.85 106.567L190.252 102.472L191.317 101.94C191.317 101.94 191.467 103.657 191.632 105.75Z" fill="#263238"/>
<path d="M176.333 94.5001C173.46 105 179.438 107.918 181.703 108.533C183.765 109.095 190.845 110.738 194.79 100.575C198.735 90.4126 194.745 85.7476 190.103 84.2176C185.46 82.6876 179.198 84.0001 176.333 94.5001Z" fill="#FFC4C0"/>
<path d="M179.692 93.1347C179.947 93.1347 180.187 93.1347 180.442 93.1347C180.698 93.1766 180.96 93.1373 181.192 93.0222C181.26 92.9682 181.308 92.8932 181.328 92.809C181.349 92.7248 181.341 92.6362 181.305 92.5572C181.213 92.4136 181.085 92.2969 180.934 92.2191C180.782 92.1413 180.613 92.1053 180.442 92.1147C180.093 92.0776 179.742 92.1741 179.46 92.3847C179.389 92.4349 179.335 92.5064 179.307 92.589C179.279 92.6716 179.277 92.761 179.303 92.8444C179.329 92.9277 179.381 93.0008 179.451 93.0529C179.521 93.1051 179.605 93.1337 179.692 93.1347Z" fill="#263238"/>
<path d="M186.998 94.9949C186.764 94.897 186.537 94.7869 186.315 94.6649C186.062 94.5827 185.843 94.4192 185.693 94.1999C185.658 94.122 185.65 94.0347 185.67 93.9518C185.69 93.8689 185.738 93.7952 185.805 93.7424C185.952 93.6538 186.121 93.6069 186.293 93.6069C186.464 93.6069 186.633 93.6538 186.78 93.7424C187.107 93.8745 187.375 94.1229 187.53 94.4399C187.561 94.5153 187.57 94.5981 187.555 94.6782C187.54 94.7584 187.501 94.8324 187.445 94.8913C187.389 94.9501 187.316 94.9913 187.237 95.0097C187.157 95.0281 187.074 95.0229 186.998 94.9949Z" fill="#263238"/>
<path d="M184.673 97.1699C184.673 97.1699 184.718 97.2224 184.71 97.2524C184.493 97.9574 184.358 98.8124 184.943 99.2249C184.943 99.2249 184.943 99.2774 184.943 99.2249C184.162 98.9324 184.35 97.8074 184.673 97.1699Z" fill="#263238"/>
<path d="M185.513 96.6001C186.69 96.8326 186.15 99.1651 185.063 98.9551C183.975 98.7451 184.5 96.4126 185.513 96.6001Z" fill="#263238"/>
<path d="M185.947 96.8324C186.12 97.0124 186.262 97.2899 186.503 97.3724C186.743 97.4549 187.05 97.2674 187.29 97.0799C187.29 97.0799 187.335 97.0799 187.328 97.1174C187.23 97.5674 186.953 97.9799 186.458 97.9349C185.962 97.8899 185.782 97.4249 185.775 96.9524C185.775 96.8624 185.872 96.7499 185.947 96.8324Z" fill="#263238"/>
<path d="M180.495 96C180.495 96 180.427 96 180.42 96.0525C180.285 96.8025 180 97.59 179.295 97.6875C180.112 97.7625 180.48 96.6825 180.495 96Z" fill="#263238"/>
<path d="M180 95.0701C178.853 94.7176 178.238 97.0351 179.303 97.3201C180.368 97.6051 180.975 95.3626 180 95.0701Z" fill="#263238"/>
<path d="M179.49 95.0925C179.28 95.1675 179.04 95.34 178.815 95.295C178.59 95.25 178.433 94.95 178.335 94.665C178.335 94.665 178.335 94.665 178.298 94.665C178.203 94.8588 178.18 95.08 178.234 95.2889C178.288 95.4978 178.414 95.6808 178.59 95.805C178.958 95.985 179.34 95.6775 179.565 95.265C179.61 95.205 179.58 95.0625 179.49 95.0925Z" fill="#263238"/>
<path d="M180.315 101.25C180.492 101.738 180.795 102.17 181.193 102.503C181.407 102.675 181.668 102.78 181.943 102.803C182.558 102.803 182.738 102.308 182.775 101.828C182.79 101.577 182.775 101.325 182.73 101.078C181.963 101.387 181.118 101.447 180.315 101.25Z" fill="#263238"/>
<path d="M181.192 102.48C181.407 102.652 181.668 102.757 181.942 102.78C182.558 102.78 182.738 102.285 182.775 101.805C182.474 101.726 182.155 101.749 181.868 101.871C181.582 101.993 181.344 102.208 181.192 102.48Z" fill="#FF9CBD"/>
<path d="M180.435 99.75C180.231 100.256 180.053 100.771 179.903 101.295C179.903 101.34 180.008 101.393 180.18 101.445C180.597 101.631 181.056 101.699 181.509 101.64C181.961 101.582 182.389 101.4 182.745 101.115C182.798 101.115 182.745 101.01 182.693 101.033C181.935 101.313 181.107 101.344 180.33 101.123C180.33 100.973 181.08 99.36 181.02 99.3375C180.614 99.2843 180.203 99.2843 179.798 99.3375C180.593 97.1475 181.74 95.1 182.498 92.9025C182.499 92.8872 182.496 92.8718 182.488 92.8585C182.48 92.8452 182.469 92.8345 182.455 92.8279C182.441 92.8214 182.425 92.8193 182.41 92.8219C182.395 92.8245 182.381 92.8317 182.37 92.8425C181.081 94.998 180.011 97.2768 179.175 99.645C179.078 99.9 180.21 99.75 180.435 99.75Z" fill="#263238"/>
<path d="M193.732 100.725C192 100.417 192.517 96.765 192.517 96.765C192.517 96.765 189.067 95.895 189.195 90.6525C188.909 92.167 189.076 93.7323 189.675 95.1525C189.675 95.1525 183.757 92.9625 182.497 87.2175C182.497 87.2175 182.858 90.0675 183.578 91.2375C182.157 90.3699 181.071 89.0487 180.495 87.4875C180.495 87.4875 178.68 90.15 177.66 90.7575C177.66 90.7575 179.31 76.44 191.73 84.39C191.73 84.39 197.325 85.7775 198.3 91.2225C199.275 96.6675 193.732 100.725 193.732 100.725Z" fill="#263238"/>
<path d="M193.748 104.467C193.577 104.501 193.403 104.514 193.23 104.505C193.057 104.505 192.885 104.48 192.72 104.43C192.504 104.37 192.304 104.262 192.135 104.115C192.004 104.002 191.888 103.874 191.79 103.732C191.65 103.525 191.549 103.293 191.49 103.05L192.608 100.297C192.608 100.297 195.563 97.3724 196.92 98.4824C198.278 99.5924 195.653 104.13 193.748 104.467Z" fill="#FFC4C0"/>
<path d="M196.14 99.7501V99.7951C195.514 99.9783 194.933 100.29 194.434 100.712C193.935 101.133 193.53 101.653 193.245 102.24C193.341 102.128 193.46 102.038 193.594 101.976C193.728 101.914 193.874 101.882 194.021 101.882C194.169 101.882 194.315 101.914 194.449 101.976C194.583 102.038 194.702 102.128 194.798 102.24C194.798 102.24 194.798 102.315 194.745 102.3C194.538 102.19 194.301 102.147 194.069 102.178C193.836 102.209 193.619 102.312 193.448 102.473C193.165 102.738 192.913 103.035 192.698 103.358C192.615 103.455 192.428 103.358 192.495 103.238C192.75 101.618 194.393 99.6151 196.14 99.7501Z" fill="#263238"/>
<path d="M193.68 103.988C193.631 104.112 193.535 104.212 193.413 104.265C193.29 104.319 193.152 104.321 193.028 104.273C192.903 104.224 192.803 104.128 192.75 104.005C192.696 103.883 192.694 103.744 192.743 103.62C192.767 103.558 192.803 103.502 192.849 103.455C192.894 103.407 192.949 103.369 193.01 103.342C193.07 103.316 193.136 103.302 193.202 103.3C193.268 103.299 193.333 103.311 193.395 103.335C193.457 103.359 193.513 103.395 193.56 103.441C193.608 103.487 193.646 103.542 193.673 103.602C193.699 103.663 193.713 103.728 193.715 103.794C193.716 103.86 193.704 103.926 193.68 103.988Z" fill="white"/>
<path d="M194.843 103.425C194.807 103.513 194.739 103.584 194.652 103.622C194.565 103.66 194.466 103.662 194.378 103.628C194.33 103.613 194.285 103.589 194.247 103.557C194.209 103.525 194.178 103.485 194.156 103.44C194.134 103.396 194.122 103.347 194.12 103.297C194.118 103.247 194.126 103.197 194.145 103.151C194.163 103.104 194.191 103.062 194.226 103.027C194.261 102.992 194.304 102.964 194.35 102.946C194.397 102.928 194.447 102.92 194.497 102.923C194.547 102.925 194.595 102.938 194.64 102.96C194.727 102.997 194.797 103.065 194.834 103.152C194.872 103.239 194.875 103.336 194.843 103.425Z" fill="white"/>
<path d="M193.62 84.7499C192.548 83.1524 193.47 78.5549 196.02 76.9724C199.53 74.7899 204.855 79.4399 202.59 83.5049C200.325 87.5699 194.445 85.9499 193.62 84.7499Z" fill="#263238"/>
<path d="M201.87 78.2774C200.932 77.2983 199.768 76.5643 198.48 76.1399C197.869 75.9559 197.216 75.9559 196.605 76.1399C196.016 76.3449 195.496 76.7113 195.105 77.1974C194.686 77.7071 194.336 78.2693 194.063 78.8699C193.772 79.4687 193.549 80.0975 193.395 80.7449C193.08 82.0649 193.166 83.4491 193.643 84.7199C192.909 83.4975 192.643 82.0509 192.893 80.6474C193.008 79.942 193.212 79.254 193.5 78.5999C193.784 77.9377 194.16 77.319 194.618 76.7624C195.101 76.18 195.745 75.7523 196.47 75.5324C197.197 75.3455 197.965 75.3874 198.668 75.6524C199.978 76.1805 201.095 77.0964 201.87 78.2774Z" fill="#263238"/>
<path d="M105.84 320.235L93.1575 183.195L176.812 203.287V345.082L105.84 320.235Z" fill="#5CBA94"/>
<path opacity="0.1" d="M105.84 320.235L93.1575 183.195L176.812 203.287V345.082L105.84 320.235Z" fill="black"/>
<path d="M128.827 328.283L149.062 335.363L142.035 194.933L118.935 189.39L128.827 328.283Z" fill="#37474F"/>
<path d="M176.812 203.287V345.082L267.69 328.8L281.842 192.592L176.812 203.287Z" fill="#5CBA94"/>
<path d="M212.79 338.632L235.785 334.515L246.848 196.17L218.528 199.042L212.79 338.632Z" fill="#455A64"/>
</svg>
