<svg width="9" height="9" viewBox="0 0 9 9" fill="none" xmlns="http://www.w3.org/2000/svg">
<path d="M4.22315 0.663188C4.32581 0.41728 4.67419 0.41728 4.77685 0.663188L5.68529 2.83937C5.72631 2.93764 5.81636 3.0068 5.9219 3.02109L8.31503 3.34499C8.5751 3.38019 8.6678 3.70878 8.46447 3.87471L6.61618 5.38297C6.52758 5.45527 6.48779 5.57164 6.51357 5.68304L7.10453 8.23674C7.16656 8.50481 6.86512 8.70801 6.63991 8.54994L4.67234 7.16899C4.56891 7.09639 4.43109 7.09639 4.32766 7.16899L2.36008 8.54995C2.13486 8.70802 1.83343 8.50483 1.89546 8.23676L2.48637 5.68303C2.51215 5.57163 2.47236 5.45527 2.38377 5.38297L0.53552 3.87471C0.33219 3.70878 0.424889 3.38019 0.684959 3.34499L3.0781 3.02109C3.18364 3.0068 3.27369 2.93764 3.31471 2.83937L4.22315 0.663188Z" fill="#A0A3BD" stroke="#A0A3BD" stroke-width="0.5" stroke-miterlimit="3.3292" stroke-linecap="round" stroke-linejoin="round"/>
</svg>
