<svg width="85" height="23" viewBox="0 0 85 23" fill="none" xmlns="http://www.w3.org/2000/svg">
<path d="M85 6.20847C85 4.55161 83.6569 3.20847 82 3.20847H7.34354C6.46705 3.26215 4.75109 3.29143 2.9922 2.78308C2.34223 2.59519 1.32509 2.29099 0.636638 1.62891C0.13177 1.14414 0.0236888 0.67645 0 0.404785V19.5726C0.0236888 19.8443 0.13177 20.312 0.636638 20.7968C1.32509 21.4588 2.34223 21.763 2.9922 21.9509C4.54363 22.3998 6.05968 22.4299 6.99732 22.3936C7.00048 22.3935 7.00301 22.396 7.00301 22.3992C7.00301 22.4023 7.00551 22.4048 7.0086 22.4048H82C83.6569 22.4048 85 21.0616 85 19.4048V13V6.20847Z" fill="url(#paint0_linear_171_1903)"/>
<defs>
<linearGradient id="paint0_linear_171_1903" x1="59.6557" y1="3.36093" x2="-5.69773" y2="104.892" gradientUnits="userSpaceOnUse">
<stop stop-color="#4CAF50"/>
<stop offset="1" stop-color="#388E3C"/>
</linearGradient>
</defs>
</svg>
