<svg width="24" height="24" viewBox="0 0 24 24" fill="none" xmlns="http://www.w3.org/2000/svg">
<path d="M19 8.96801H21C21.1309 8.96651 21.2608 8.99102 21.3822 9.04012C21.5035 9.08921 21.614 9.16191 21.707 9.254C21.8001 9.34504 21.8739 9.45387 21.924 9.57401C21.9739 9.69451 21.9997 9.82359 22 9.954V13.9C21.9981 14.1628 21.8928 14.4142 21.707 14.6C21.5163 14.7818 21.2635 14.884 21 14.886H19C18.2065 14.8851 17.445 14.5731 16.879 14.017C16.6009 13.744 16.3799 13.4183 16.2289 13.0589C16.078 12.6996 16.0002 12.3138 16 11.924V11.924C15.9996 11.5342 16.0771 11.1482 16.2281 10.7887C16.379 10.4293 16.6004 10.1037 16.879 9.831C17.1579 9.55368 17.4889 9.33416 17.8529 9.18503C18.2168 9.03591 18.6067 8.96013 19 8.96201V8.96801Z" stroke="#64748B" stroke-width="1.5" stroke-miterlimit="10"/>
<path d="M21 14.871V16.845C21.0002 17.1044 20.9485 17.3612 20.8479 17.6003C20.7472 17.8394 20.5997 18.0559 20.414 18.237C20.0385 18.611 19.53 18.8207 19 18.82H4C3.47004 18.8207 2.96148 18.611 2.586 18.237C2.40031 18.0559 2.25278 17.8394 2.15213 17.6003C2.05148 17.3612 1.99976 17.1044 2 16.845V6.974C1.99976 6.7146 2.05148 6.45779 2.15213 6.21871C2.25278 5.97963 2.40031 5.76313 2.586 5.582C2.96164 5.20837 3.47018 4.99905 4 5H19C19.5298 4.99905 20.0384 5.20837 20.414 5.582C20.5997 5.76313 20.7472 5.97963 20.8479 6.21871C20.9485 6.45779 21.0002 6.7146 21 6.974V8.948" stroke="#64748B" stroke-width="1.5" stroke-miterlimit="10"/>
<path d="M5 15.858H9" stroke="#64748B" stroke-width="1.5" stroke-miterlimit="10" stroke-linecap="round"/>
<path d="M18.617 11.929H19.617" stroke="#64748B" stroke-width="1.5" stroke-miterlimit="10" stroke-linecap="round"/>
</svg>
