<svg width="24" height="24" viewBox="0 0 24 24" fill="none" xmlns="http://www.w3.org/2000/svg">
<path d="M17.26 21.99C17.8843 21.9993 18.5037 21.8802 19.08 21.64C19.6554 21.3987 20.1777 21.0463 20.6169 20.6031C21.0562 20.16 21.4038 19.6346 21.64 19.057C21.8755 18.4804 21.9944 17.8628 21.99 17.24C22 17.0601 22 16.8799 21.99 16.7V3C21.9919 2.86866 21.9682 2.73821 21.92 2.616C21.8678 2.49448 21.7931 2.38389 21.7 2.29001C21.5098 2.10502 21.2553 2.00104 20.99 2H9.37C9.1047 2.00104 8.8502 2.10502 8.66003 2.29001C8.56688 2.38389 8.49215 2.49448 8.43994 2.616C8.39179 2.73821 8.36806 2.86866 8.37 3V13.41M17.26 21.99C14.2 22.07 12.43 20.52 12.53 16.94V14.41C12.53 14.1448 12.4246 13.8904 12.2371 13.7029C12.0495 13.5153 11.7952 13.41 11.53 13.41H3C2.73468 13.4109 2.48014 13.5149 2.29004 13.7C2.10697 13.8914 2.00329 14.1452 2 14.41V16.93C2.01 20.85 4.83995 22.01 8.31995 21.99H17.26Z" stroke="#64748B" stroke-width="1.5" stroke-linecap="round" stroke-linejoin="round"/>
<path d="M4.5 16.189H9.5" stroke="#64748B" stroke-width="1.5" stroke-linecap="round" stroke-linejoin="round"/>
<path d="M12 5.08997H19" stroke="#64748B" stroke-width="1.5" stroke-linecap="round" stroke-linejoin="round"/>
<path d="M12 8.08997H19" stroke="#64748B" stroke-width="1.5" stroke-linecap="round" stroke-linejoin="round"/>
<path d="M14 11.09H19" stroke="#64748B" stroke-width="1.5" stroke-linecap="round" stroke-linejoin="round"/>
</svg>
