<svg width="250" height="160" viewBox="0 0 250 160" fill="none" xmlns="http://www.w3.org/2000/svg">
<mask id="mask0_185_1889" style="mask-type:alpha" maskUnits="userSpaceOnUse" x="0" y="0" width="250" height="160">
<path d="M0 40C0 17.9086 17.9086 0 40 0H250V160H0V40Z" fill="#5F2EEA"/>
</mask>
<g mask="url(#mask0_185_1889)">
<path d="M248.32 200H-48.32C-49.24 200 -50 199.24 -50 198.32V1.68C-50 0.76 -49.24 0 -48.32 0H248.32C249.24 0 250 0.76 250 1.68V198.32C250 199.24 249.24 200 248.32 200Z" fill="#E5E7E6"/>
<path d="M237.76 150.92H255.16C256.08 150.92 256.84 151.68 256.84 152.6V170C256.84 170.92 256.08 171.68 255.16 171.68H237.76C236.84 171.68 236.08 170.92 236.08 170V152.6C236.08 151.68 236.84 150.92 237.76 150.92Z" fill="#DEE0DF"/>
<path d="M197.68 43.88H215.08C216 43.88 216.76 44.64 216.76 45.56V62.96C216.76 63.88 216 64.64 215.08 64.64H197.68C196.76 64.64 196 63.88 196 62.96V45.56C196 44.64 196.72 43.88 197.68 43.88Z" fill="#EDEFEE"/>
<path d="M202.68 93.12H227.48C228.4 93.12 229.16 93.88 229.16 94.8V119.6C229.16 120.52 228.4 121.28 227.48 121.28H202.68C201.76 121.28 201 120.52 201 119.6V94.8C201 93.88 201.76 93.12 202.68 93.12Z" fill="#DEE0DF"/>
<path d="M238.84 102.24H263.64C264.56 102.24 265.32 103 265.32 103.92V128.72C265.32 129.64 264.56 130.4 263.64 130.4H238.84C237.92 130.4 237.16 129.64 237.16 128.72V103.92C237.16 103 237.92 102.24 238.84 102.24Z" fill="#DEE0DF"/>
<path d="M231.44 2.35999H256.24C257.16 2.35999 257.92 3.11999 257.92 4.03999V28.84C257.92 29.76 257.16 30.52 256.24 30.52H231.44C230.52 30.52 229.76 29.76 229.76 28.84V4.03999C229.76 3.11999 230.52 2.35999 231.44 2.35999Z" fill="#DEE0DF"/>
<path d="M105.4 147.2H130.2C131.12 147.2 131.88 147.96 131.88 148.88V173.68C131.88 174.6 131.12 175.36 130.2 175.36H105.4C104.48 175.36 103.72 174.6 103.72 173.68V148.88C103.72 147.96 104.48 147.2 105.4 147.2Z" fill="#DEE0DF"/>
<path d="M196.96 156.2H174.64C173.72 156.2 172.96 155.44 172.96 154.52V132.2C172.96 131.28 173.72 130.52 174.64 130.52H196.96C197.88 130.52 198.64 131.28 198.64 132.2V154.52C198.64 155.44 197.92 156.2 196.96 156.2ZM196.32 131.16H175.28C174.36 131.16 173.6 131.92 173.6 132.84V153.88C173.6 154.8 174.36 155.56 175.28 155.56H196.32C197.24 155.56 198 154.8 198 153.88V132.84C198 131.92 197.24 131.16 196.32 131.16Z" fill="#DEE0DF"/>
<path d="M235.8 98.88H213.48C212.56 98.88 211.8 98.12 211.8 97.2V74.88C211.8 73.96 212.56 73.2 213.48 73.2H235.8C236.72 73.2 237.48 73.96 237.48 74.88V97.2C237.48 98.12 236.72 98.88 235.8 98.88ZM235.12 73.84H214.08C213.16 73.84 212.4 74.6 212.4 75.52V96.56C212.4 97.48 213.16 98.24 214.08 98.24H235.12C236.04 98.24 236.8 97.48 236.8 96.56V75.52C236.84 74.6 236.08 73.84 235.12 73.84Z" fill="#DEE0DF"/>
<path d="M223.04 12.08H200.72C199.8 12.08 199.04 11.32 199.04 10.4V-11.92C199.04 -12.84 199.8 -13.6 200.72 -13.6H223.04C223.96 -13.6 224.72 -12.84 224.72 -11.92V10.4C224.72 11.32 223.96 12.08 223.04 12.08ZM222.4 -12.96H201.36C200.44 -12.96 199.68 -12.2 199.68 -11.28V9.76003C199.68 10.68 200.44 11.44 201.36 11.44H222.4C223.32 11.44 224.08 10.68 224.08 9.76003V-11.28C224.08 -12.2 223.32 -12.96 222.4 -12.96Z" fill="#DEE0DF"/>
<path d="M84.56 132H-16.72C-17.64 132 -18.4 131.24 -18.4 130.32V29.04C-18.4 28.12 -17.64 27.36 -16.72 27.36H84.56C85.48 27.36 86.24 28.12 86.24 29.04V130.32C86.24 131.28 85.48 132 84.56 132ZM83.92 28H-16.08C-17 28 -17.76 28.76 -17.76 29.68V129.68C-17.76 130.6 -17 131.36 -16.08 131.36H83.92C84.84 131.36 85.6 130.6 85.6 129.68V29.68C85.6 28.76 84.84 28 83.92 28Z" fill="#EDEFEE"/>
<path d="M191.44 35.04H90.16C89.24 35.04 88.48 34.28 88.48 33.36V-57.56C88.48 -64.24 93.88 -69.64 100.56 -69.64H181.08C187.76 -69.64 193.16 -64.24 193.16 -57.56V33.36C193.12 34.32 192.36 35.04 191.44 35.04ZM100.52 -68.96C94.2 -68.96 89.12 -63.84 89.12 -57.56V32.72C89.12 33.64 89.88 34.4 90.8 34.4H190.8C191.72 34.4 192.48 33.64 192.48 32.72V-57.56C192.48 -63.88 187.36 -68.96 181.08 -68.96H100.52Z" fill="#EDEFEE"/>
<path d="M202.8 123.68H206C206.92 123.68 207.68 124.44 207.68 125.36V128.56C207.68 129.48 206.92 130.24 206 130.24H202.8C201.88 130.24 201.12 129.48 201.12 128.56V125.36C201.12 124.44 201.88 123.68 202.8 123.68Z" fill="#EDEFEE"/>
<path d="M178.04 101.36H181.24C182.16 101.36 182.92 102.12 182.92 103.04V106.24C182.92 107.16 182.16 107.92 181.24 107.92H178.04C177.12 107.92 176.36 107.16 176.36 106.24V103.04C176.32 102.12 177.08 101.36 178.04 101.36Z" fill="#EDEFEE"/>
<path d="M173.76 106.4C174.68 106.4 175.44 107.16 175.44 108.08C175.44 109 174.68 109.76 173.76 109.76C172.84 109.76 172.08 109 172.08 108.08C172.08 107.16 172.84 106.4 173.76 106.4Z" fill="#DEE0DF"/>
<path d="M206.36 84.36C207.28 84.36 208.04 85.12 208.04 86.04C208.04 86.96 207.28 87.72 206.36 87.72C205.44 87.72 204.68 86.96 204.68 86.04C204.68 85.12 205.44 84.36 206.36 84.36Z" fill="#DEE0DF"/>
<path d="M140.68 140.68H136.84C135.92 140.68 135.16 139.92 135.16 139V135.16C135.16 134.24 135.92 133.48 136.84 133.48H140.68C141.6 133.48 142.36 134.24 142.36 135.16V139C142.36 139.96 141.6 140.68 140.68 140.68ZM140.04 134.12H137.48C136.56 134.12 135.8 134.88 135.8 135.8V138.36C135.8 139.28 136.56 140.04 137.48 140.04H140.04C140.96 140.04 141.72 139.28 141.72 138.36V135.8C141.72 134.88 140.96 134.12 140.04 134.12Z" fill="#DEE0DF"/>
<path d="M133.88 105.4H137.08C138 105.4 138.76 106.16 138.76 107.08V110.28C138.76 111.2 138 111.96 137.08 111.96H133.88C132.96 111.96 132.2 111.2 132.2 110.28V107.08C132.16 106.16 132.92 105.4 133.88 105.4Z" fill="#DEE0DF"/>
<path d="M216.76 16.72H219.96C220.88 16.72 221.64 17.48 221.64 18.4V21.6C221.64 22.52 220.88 23.28 219.96 23.28H216.76C215.84 23.28 215.08 22.52 215.08 21.6V18.4C215.08 17.48 215.84 16.72 216.76 16.72Z" fill="#DEE0DF"/>
<path d="M140.44 123.64H150.52C151.44 123.64 152.2 124.4 152.2 125.32V135.4C152.2 136.32 151.44 137.08 150.52 137.08H140.44C139.52 137.08 138.76 136.32 138.76 135.4V125.32C138.76 124.4 139.52 123.64 140.44 123.64Z" fill="#DEE0DF"/>
<path d="M-0.880053 108.2H-25.68C-26.6 108.2 -27.36 107.44 -27.36 106.52V81.72C-27.36 80.8 -26.6 80.04 -25.68 80.04H-0.880053C0.0399475 80.04 0.799946 80.8 0.799946 81.72V106.52C0.799946 107.44 0.0399475 108.2 -0.880053 108.2Z" fill="#DEE0DF"/>
<path d="M27.84 33.76H-8.68004C-9.60004 33.76 -10.36 33 -10.36 32.08V-4.44C-10.36 -5.36 -9.60004 -6.12 -8.68004 -6.12H27.84C28.76 -6.12 29.52 -5.36 29.52 -4.44V32.08C29.52 33.04 28.76 33.76 27.84 33.76ZM27.16 -5.47999H-8.08004C-9.00004 -5.47999 -9.76005 -4.72 -9.76005 -3.79999V31.44C-9.76005 32.36 -9.00004 33.12 -8.08004 33.12H27.16C28.08 33.12 28.84 32.36 28.84 31.44V-3.79999C28.88 -4.72 28.12 -5.47999 27.16 -5.47999Z" fill="#DEE0DF"/>
<path d="M27.16 70.84H4.83998C3.91998 70.84 3.15997 70.08 3.15997 69.16V46.84C3.15997 45.92 3.91998 45.16 4.83998 45.16H27.16C28.08 45.16 28.84 45.92 28.84 46.84V69.16C28.84 70.08 28.08 70.84 27.16 70.84ZM26.52 45.8H5.47998C4.55997 45.8 3.79998 46.56 3.79998 47.48V68.52C3.79998 69.44 4.55997 70.2 5.47998 70.2H26.52C27.44 70.2 28.2 69.44 28.2 68.52V47.48C28.2 46.52 27.44 45.8 26.52 45.8Z" fill="#DEE0DF"/>
<path d="M67.64 5.52001H63.8C62.88 5.52001 62.12 4.76001 62.12 3.84001V7.15256e-06C62.12 -0.919993 62.88 -1.67999 63.8 -1.67999H67.64C68.56 -1.67999 69.32 -0.919993 69.32 7.15256e-06V3.84001C69.32 4.76001 68.56 5.52001 67.64 5.52001ZM66.96 -1.07999H64.4C63.48 -1.07999 62.72 -0.319993 62.72 0.600007V3.16001C62.72 4.08001 63.48 4.84001 64.4 4.84001H66.96C67.88 4.84001 68.64 4.08001 68.64 3.16001V0.600007C68.68 -0.319993 67.92 -1.07999 66.96 -1.07999Z" fill="#DEE0DF"/>
<path d="M77.6 9.35999H74.4C73.48 9.35999 72.72 8.59999 72.72 7.67999V4.47999C72.72 3.55999 73.48 2.79999 74.4 2.79999H77.6C78.52 2.79999 79.28 3.55999 79.28 4.47999V7.67999C79.28 8.59999 78.56 9.35999 77.6 9.35999Z" fill="#DEE0DF"/>
<path d="M-0.999985 77.68H-4.19999C-5.11999 77.68 -5.87999 76.92 -5.87999 76V72.8C-5.87999 71.88 -5.11999 71.12 -4.19999 71.12H-0.999985C-0.0799842 71.12 0.680016 71.88 0.680016 72.8V76C0.680016 76.92 -0.0799842 77.68 -0.999985 77.68Z" fill="#DEE0DF"/>
<path d="M23.8 99.96H20.6C19.68 99.96 18.92 99.2 18.92 98.28V95.08C18.92 94.16 19.68 93.4 20.6 93.4H23.8C24.72 93.4 25.48 94.16 25.48 95.08V98.28C25.48 99.2 24.72 99.96 23.8 99.96Z" fill="#EDEFEE"/>
<path d="M9.15998 30.32H5.95998C5.03998 30.32 4.27998 29.56 4.27998 28.64V25.44C4.27998 24.52 5.03998 23.76 5.95998 23.76H9.15998C10.08 23.76 10.84 24.52 10.84 25.44V28.64C10.84 29.6 10.08 30.32 9.15998 30.32Z" fill="#DEE0DF"/>
<path d="M28.04 94.96C27.12 94.96 26.36 94.2 26.36 93.28C26.36 92.36 27.12 91.6 28.04 91.6C28.96 91.6 29.72 92.36 29.72 93.28C29.72 94.2 28.96 94.96 28.04 94.96Z" fill="#DEE0DF"/>
<path d="M15.32 25.52C14.4 25.52 13.64 24.76 13.64 23.84C13.64 22.92 14.4 22.16 15.32 22.16C16.24 22.16 17 22.92 17 23.84C17.04 24.76 16.28 25.52 15.32 25.52Z" fill="#DEE0DF"/>
<path d="M33.36 4.71998C32.44 4.71998 31.68 3.95998 31.68 3.03998C31.68 2.11999 32.44 1.35999 33.36 1.35999C34.28 1.35999 35.04 2.11999 35.04 3.03998C35.04 3.95998 34.28 4.71998 33.36 4.71998Z" fill="#DEE0DF"/>
<path d="M64 15.32H53.92C53 15.32 52.24 14.56 52.24 13.64V3.56C52.24 2.64 53 1.88 53.92 1.88H64C64.9199 1.88 65.68 2.64 65.68 3.56V13.64C65.68 14.56 64.9599 15.32 64 15.32Z" fill="#DEE0DF"/>
<path d="M65 67.8801H61.16C60.24 67.8801 59.48 67.1201 59.48 66.2001V62.3601C59.48 61.4401 60.24 60.6801 61.16 60.6801H65C65.92 60.6801 66.68 61.4401 66.68 62.3601V66.2001C66.68 67.1201 65.92 67.8801 65 67.8801ZM64.36 61.2801H61.8C60.88 61.2801 60.12 62.0401 60.12 62.9601V65.5201C60.12 66.4401 60.88 67.2001 61.8 67.2001H64.36C65.28 67.2001 66.04 66.4401 66.04 65.5201V62.9601C66.04 62.0401 65.28 61.2801 64.36 61.2801Z" fill="#DEE0DF"/>
<path d="M67.96 95.92H64.76C63.84 95.92 63.08 95.16 63.08 94.24V91.04C63.08 90.12 63.84 89.36 64.76 89.36H67.96C68.88 89.36 69.64 90.12 69.64 91.04V94.24C69.64 95.16 68.88 95.92 67.96 95.92Z" fill="#EDEFEE"/>
<path d="M61.4 77.68H51.32C50.4 77.68 49.64 76.92 49.64 76V65.92C49.64 65 50.4 64.2401 51.32 64.2401H61.4C62.32 64.2401 63.08 65 63.08 65.92V76C63.08 76.92 62.32 77.68 61.4 77.68Z" fill="#DEE0DF"/>
<path d="M10.36 92.64H5.35998C4.43998 92.64 3.67998 91.88 3.67998 90.96V85.96C3.67998 85.04 4.43998 84.28 5.35998 84.28H10.36C11.28 84.28 12.04 85.04 12.04 85.96V90.96C12.04 91.88 11.28 92.64 10.36 92.64Z" fill="#EDEFEE"/>
<path d="M10.36 84.28H5.35998C4.43998 84.28 3.67998 85.04 3.67998 85.96V90.96C3.67998 91.88 4.43998 92.64 5.35998 92.64H10.36C11.28 92.64 12.04 91.88 12.04 90.96V85.96C12.04 85.04 11.28 84.28 10.36 84.28ZM11.84 86.12V90.8C11.84 91.72 11.08 92.48 10.16 92.48H5.47998C4.55998 92.48 3.79998 91.72 3.79998 90.8V86.12C3.79998 85.2 4.55998 84.44 5.47998 84.44H10.16C11.12 84.44 11.84 85.2 11.84 86.12Z" fill="#FBFBFB"/>
<path d="M45 50.04H19.84C18.92 50.04 18.16 49.28 18.16 48.36V23.2C18.16 22.28 18.92 21.52 19.84 21.52H45C45.92 21.52 46.68 22.28 46.68 23.2V48.36C46.68 49.28 45.92 50.04 45 50.04Z" fill="#E5E7E6"/>
<path d="M45 21.52H19.84C18.92 21.52 18.16 22.28 18.16 23.2V48.36C18.16 49.28 18.92 50.04 19.84 50.04H45C45.92 50.04 46.68 49.28 46.68 48.36V23.2C46.68 22.28 45.92 21.52 45 21.52ZM46.52 23.4V48.2C46.52 49.12 45.76 49.88 44.84 49.88H20.04C19.12 49.88 18.36 49.12 18.36 48.2V23.4C18.36 22.48 19.12 21.72 20.04 21.72H44.84C45.76 21.68 46.52 22.44 46.52 23.4Z" fill="#FBFBFB"/>
<path d="M12.68 61.44H-6.64001C-7.56001 61.44 -8.32001 60.68 -8.32001 59.76V40.44C-8.32001 39.52 -7.56001 38.76 -6.64001 38.76H12.68C13.6 38.76 14.36 39.52 14.36 40.44V59.76C14.4 60.68 13.64 61.44 12.68 61.44Z" fill="#E5E7E6"/>
<path d="M12.68 38.76H-6.64001C-7.56001 38.76 -8.32001 39.52 -8.32001 40.44V59.76C-8.32001 60.68 -7.56001 61.44 -6.64001 61.44H12.68C13.6 61.44 14.36 60.68 14.36 59.76V40.44C14.4 39.52 13.64 38.76 12.68 38.76ZM14.2 40.6V59.56C14.2 60.48 13.44 61.24 12.52 61.24H-6.44001C-7.36001 61.24 -8.12001 60.48 -8.12001 59.56V40.6C-8.12001 39.68 -7.36001 38.92 -6.44001 38.92H12.52C13.44 38.92 14.2 39.68 14.2 40.6Z" fill="#FBFBFB"/>
<path d="M-41.32 3.12H4.40001C5.32 3.12 6.08 3.88 6.08 4.8V50.52C6.08 51.44 5.32 52.2 4.40001 52.2H-41.32C-42.24 52.2 -43 51.44 -43 50.52V4.8C-43 3.88 -42.24 3.12 -41.32 3.12Z" fill="#E5E7E6"/>
<path d="M4.40001 3.12H-41.32C-42.24 3.12 -43 3.88 -43 4.8V50.52C-43 51.44 -42.24 52.2 -41.32 52.2H4.40001C5.32 52.2 6.08 51.44 6.08 50.52V4.8C6.08 3.88 5.32 3.12 4.40001 3.12ZM5.92001 5V50.4C5.92001 51.32 5.16001 52.08 4.24001 52.08H-41.16C-42.08 52.08 -42.84 51.32 -42.84 50.4V5C-42.84 4.08 -42.08 3.32 -41.16 3.32H4.24001C5.16001 3.32 5.92001 4.04 5.92001 5Z" fill="#FBFBFB"/>
<path d="M106.32 2.44H107.6C108.52 2.44 109.28 3.2 109.28 4.12V5.4C109.28 6.32 108.52 7.08 107.6 7.08H106.32C105.4 7.08 104.64 6.32 104.64 5.4V4.12C104.64 3.2 105.36 2.44 106.32 2.44Z" fill="#EDEFEE"/>
<path d="M106.32 7.08H107.6C108.52 7.08 109.28 6.32 109.28 5.4V4.12C109.28 3.2 108.52 2.44 107.6 2.44H106.32C105.4 2.44 104.64 3.2 104.64 4.12V5.4C104.64 6.32 105.36 7.08 106.32 7.08ZM104.8 5.24V4.28C104.8 3.36 105.56 2.6 106.48 2.6H107.44C108.36 2.6 109.12 3.36 109.12 4.28V5.24C109.12 6.16 108.36 6.92 107.44 6.92H106.48C105.56 6.92 104.8 6.16 104.8 5.24Z" fill="#FBFBFB"/>
<path d="M67.48 34.56H68.76C69.68 34.56 70.44 35.32 70.44 36.24V37.52C70.44 38.44 69.68 39.2 68.76 39.2H67.48C66.56 39.2 65.8 38.44 65.8 37.52V36.24C65.76 35.32 66.52 34.56 67.48 34.56Z" fill="#EDEFEE"/>
<path d="M67.48 39.2H68.76C69.68 39.2 70.44 38.44 70.44 37.52V36.24C70.44 35.32 69.68 34.56 68.76 34.56H67.48C66.56 34.56 65.8 35.32 65.8 36.24V37.52C65.76 38.44 66.52 39.2 67.48 39.2ZM65.96 37.36V36.4C65.96 35.48 66.72 34.72 67.64 34.72H68.6C69.52 34.72 70.28 35.48 70.28 36.4V37.36C70.28 38.28 69.52 39.04 68.6 39.04H67.64C66.72 39.04 65.96 38.28 65.96 37.36Z" fill="#FBFBFB"/>
<path d="M82.84 12.76V-3.71996C82.84 -4.63996 83.6 -5.39996 84.52 -5.39996H100.96C101.88 -5.39996 102.64 -4.63996 102.64 -3.71996V12.72C102.64 13.64 101.88 14.4 100.96 14.4H84.52C83.56 14.44 82.84 13.68 82.84 12.76Z" fill="#E5E7E6"/>
<path d="M84.52 14.44H100.96C101.88 14.44 102.64 13.68 102.64 12.76V-3.71996C102.64 -4.63996 101.88 -5.39996 100.96 -5.39996H84.52C83.6 -5.39996 82.84 -4.63996 82.84 -3.71996V12.72C82.84 13.68 83.56 14.44 84.52 14.44ZM83 12.56V-3.51996C83 -4.43996 83.76 -5.19996 84.68 -5.19996H100.8C101.72 -5.19996 102.48 -4.43996 102.48 -3.51996V12.6C102.48 13.52 101.72 14.28 100.8 14.28H84.68C83.76 14.24 83 13.52 83 12.56Z" fill="#FBFBFB"/>
<path d="M34.16 -9.64001H44.44C45.36 -9.64001 46.12 -8.88001 46.12 -7.96001V2.31999C46.12 3.23999 45.36 3.99998 44.44 3.99998H34.16C33.24 3.99998 32.48 3.23999 32.48 2.31999V-7.96001C32.48 -8.88001 33.2 -9.64001 34.16 -9.64001Z" fill="#EDEFEE"/>
<path d="M34.16 3.99998H44.44C45.36 3.99998 46.12 3.23999 46.12 2.31999V-7.96001C46.12 -8.88001 45.36 -9.64001 44.44 -9.64001H34.16C33.24 -9.64001 32.48 -8.88001 32.48 -7.96001V2.31999C32.48 3.23999 33.2 3.99998 34.16 3.99998ZM32.64 2.15999V-7.80001C32.64 -8.72001 33.4 -9.48001 34.32 -9.48001H44.28C45.2 -9.48001 45.96 -8.72001 45.96 -7.80001V2.15999C45.96 3.07999 45.2 3.83999 44.28 3.83999H34.32C33.4 3.83999 32.64 3.07999 32.64 2.15999Z" fill="#FBFBFB"/>
<path d="M38.12 63.88V82.28C38.12 83.2 37.36 83.96 36.44 83.96H18.04C17.12 83.96 16.36 83.2 16.36 82.28V63.88C16.36 62.96 17.12 62.2 18.04 62.2H36.44C37.36 62.2 38.12 62.96 38.12 63.88Z" fill="#EDEFEE"/>
<path d="M36.44 62.2H18.04C17.12 62.2 16.36 62.96 16.36 63.88V82.28C16.36 83.2 17.12 83.96 18.04 83.96H36.44C37.36 83.96 38.12 83.2 38.12 82.28V63.88C38.12 62.96 37.36 62.2 36.44 62.2ZM37.96 64.08V82.12C37.96 83.04 37.2 83.8 36.28 83.8H18.24C17.32 83.8 16.56 83.04 16.56 82.12V64.08C16.56 63.16 17.32 62.4 18.24 62.4H36.28C37.2 62.4 37.96 63.12 37.96 64.08Z" fill="#FBFBFB"/>
<path d="M17.48 -8.11999V10.28C17.48 11.2 16.72 11.96 15.8 11.96H-2.6C-3.52 11.96 -4.28 11.2 -4.28 10.28V-8.11999C-4.28 -9.03999 -3.52 -9.79999 -2.6 -9.79999H15.8C16.72 -9.79999 17.48 -9.07999 17.48 -8.11999Z" fill="#EDEFEE"/>
<path d="M15.8 -9.79999H-2.6C-3.52 -9.79999 -4.28 -9.03999 -4.28 -8.11999V10.28C-4.28 11.2 -3.52 11.96 -2.6 11.96H15.8C16.72 11.96 17.48 11.2 17.48 10.28V-8.11999C17.48 -9.07999 16.72 -9.79999 15.8 -9.79999ZM17.32 -7.95999V10.08C17.32 11 16.56 11.76 15.64 11.76H-2.4C-3.32 11.76 -4.08 11 -4.08 10.08V-7.95999C-4.08 -8.87999 -3.32 -9.63999 -2.4 -9.63999H15.64C16.56 -9.63999 17.32 -8.87999 17.32 -7.95999Z" fill="#FBFBFB"/>
<path d="M78.7599 19.32H73.5199C72.5999 19.32 71.84 18.56 71.84 17.64V12.36C71.84 11.44 72.5999 10.68 73.5199 10.68H78.7599C79.6799 10.68 80.4399 11.44 80.4399 12.36V17.6C80.4399 18.56 79.6799 19.32 78.7599 19.32Z" fill="#E5E7E6"/>
<path d="M78.7599 10.68H73.5199C72.5999 10.68 71.84 11.44 71.84 12.36V17.6C71.84 18.52 72.5999 19.28 73.5199 19.28H78.7599C79.6799 19.28 80.4399 18.52 80.4399 17.6V12.36C80.4399 11.44 79.6799 10.68 78.7599 10.68ZM80.28 12.56V17.48C80.28 18.4 79.5199 19.16 78.5999 19.16H73.68C72.76 19.16 71.9999 18.4 71.9999 17.48V12.56C71.9999 11.64 72.76 10.88 73.68 10.88H78.5999C79.5199 10.88 80.28 11.6 80.28 12.56Z" fill="#FBFBFB"/>
<path d="M59.8 56H51.28C50.36 56 49.6 55.24 49.6 54.32V45.8C49.6 44.88 50.36 44.12 51.28 44.12H59.8C60.72 44.12 61.48 44.88 61.48 45.8V54.32C61.52 55.24 60.76 56 59.8 56Z" fill="#EDEFEE"/>
<path d="M59.8 44.12H51.28C50.36 44.12 49.6 44.88 49.6 45.8V54.32C49.6 55.24 50.36 56 51.28 56H59.8C60.72 56 61.48 55.24 61.48 54.32V45.8C61.52 44.88 60.76 44.12 59.8 44.12ZM61.3199 45.96V54.12C61.3199 55.04 60.56 55.8 59.64 55.8H51.48C50.56 55.8 49.8 55.04 49.8 54.12V45.96C49.8 45.04 50.56 44.28 51.48 44.28H59.64C60.56 44.28 61.3199 45.04 61.3199 45.96Z" fill="#FBFBFB"/>
<path d="M62.68 33.2H39.64C38.72 33.2 37.96 32.44 37.96 31.52V8.47999C37.96 7.55999 38.72 6.79999 39.64 6.79999H62.68C63.6 6.79999 64.36 7.55999 64.36 8.47999V31.52C64.36 32.44 63.6 33.2 62.68 33.2Z" fill="#EDEFEE"/>
<path d="M62.68 6.79999H39.64C38.72 6.79999 37.96 7.55999 37.96 8.47999V31.52C37.96 32.44 38.72 33.2 39.64 33.2H62.68C63.6 33.2 64.36 32.44 64.36 31.52V8.47999C64.36 7.55999 63.6 6.79999 62.68 6.79999ZM64.2 8.63999V31.36C64.2 32.28 63.44 33.04 62.52 33.04H39.8C38.88 33.04 38.12 32.28 38.12 31.36V8.63999C38.12 7.71999 38.88 6.95999 39.8 6.95999H62.52C63.44 6.95999 64.2 7.71999 64.2 8.63999Z" fill="#FBFBFB"/>
<path d="M26.92 13.76V10.12C26.92 9.2 27.68 8.44 28.6 8.44H32.24C33.16 8.44 33.92 9.2 33.92 10.12V13.76C33.92 14.68 33.16 15.44 32.24 15.44H28.6C27.68 15.44 26.92 14.68 26.92 13.76Z" fill="#E5E7E6"/>
<path d="M32.24 8.44H28.6C27.68 8.44 26.92 9.2 26.92 10.12V13.76C26.92 14.68 27.68 15.44 28.6 15.44H32.24C33.16 15.44 33.92 14.68 33.92 13.76V10.12C33.92 9.2 33.16 8.44 32.24 8.44ZM33.76 10.28V13.6C33.76 14.52 33 15.28 32.08 15.28H28.76C27.84 15.28 27.08 14.52 27.08 13.6V10.28C27.08 9.36 27.84 8.6 28.76 8.6H32.08C33 8.6 33.76 9.36 33.76 10.28Z" fill="#FBFBFB"/>
<path d="M187.48 152.96H233.2C234.12 152.96 234.88 153.72 234.88 154.64V200.4C234.88 201.32 234.12 202.08 233.2 202.08H187.48C186.56 202.08 185.8 201.32 185.8 200.4V154.64C185.8 153.72 186.56 152.96 187.48 152.96Z" fill="#E5E7E6"/>
<path d="M233.24 152.96H187.48C186.56 152.96 185.8 153.72 185.8 154.64V200.4C185.8 201.32 186.56 202.08 187.48 202.08H233.2C234.12 202.08 234.88 201.32 234.88 200.4V154.64C234.92 153.72 234.16 152.96 233.24 152.96ZM234.76 154.8V200.2C234.76 201.12 234 201.88 233.08 201.88H187.68C186.76 201.88 186 201.12 186 200.2V154.8C186 153.88 186.76 153.12 187.68 153.12H233.08C234 153.12 234.76 153.88 234.76 154.8Z" fill="#FBFBFB"/>
<path d="M147.28 153.72H146C145.08 153.72 144.32 152.96 144.32 152.04V150.76C144.32 149.84 145.08 149.08 146 149.08H147.28C148.2 149.08 148.96 149.84 148.96 150.76V152.04C148.96 152.96 148.2 153.72 147.28 153.72Z" fill="#E5E7E6"/>
<path d="M147.28 149.08H146C145.08 149.08 144.32 149.84 144.32 150.76V152.04C144.32 152.96 145.08 153.72 146 153.72H147.28C148.2 153.72 148.96 152.96 148.96 152.04V150.76C148.96 149.84 148.2 149.08 147.28 149.08ZM148.76 150.92V151.88C148.76 152.8 148 153.56 147.08 153.56H146.12C145.2 153.56 144.44 152.8 144.44 151.88V150.92C144.44 150 145.2 149.24 146.12 149.24H147.08C148.04 149.24 148.76 150 148.76 150.92Z" fill="#FBFBFB"/>
<path d="M191.48 108.72H196.48C197.4 108.72 198.16 109.48 198.16 110.4V115.4C198.16 116.32 197.4 117.08 196.48 117.08H191.48C190.56 117.08 189.8 116.32 189.8 115.4V110.4C189.8 109.44 190.56 108.72 191.48 108.72Z" fill="#EDEFEE"/>
<path d="M191.48 117.08H196.48C197.4 117.08 198.16 116.32 198.16 115.4V110.4C198.16 109.48 197.4 108.72 196.48 108.72H191.48C190.56 108.72 189.8 109.48 189.8 110.4V115.4C189.8 116.32 190.56 117.08 191.48 117.08ZM189.96 115.2V110.52C189.96 109.6 190.72 108.84 191.64 108.84H196.32C197.24 108.84 198 109.6 198 110.52V115.2C198 116.12 197.24 116.88 196.32 116.88H191.64C190.72 116.88 189.96 116.16 189.96 115.2Z" fill="#FBFBFB"/>
<path d="M151.96 159.12H177.12C178.04 159.12 178.8 159.88 178.8 160.8V185.96C178.8 186.88 178.04 187.64 177.12 187.64H151.96C151.04 187.64 150.28 186.88 150.28 185.96V160.8C150.28 159.88 151.04 159.12 151.96 159.12Z" fill="#E5E7E6"/>
<path d="M151.96 187.64H177.12C178.04 187.64 178.8 186.88 178.8 185.96V160.8C178.8 159.88 178.04 159.12 177.12 159.12H151.96C151.04 159.12 150.28 159.88 150.28 160.8V185.96C150.28 186.88 151.04 187.64 151.96 187.64ZM150.44 185.76V160.96C150.44 160.04 151.2 159.28 152.12 159.28H176.92C177.84 159.28 178.6 160.04 178.6 160.96V185.76C178.6 186.68 177.84 187.44 176.92 187.44H152.12C151.2 187.44 150.44 186.72 150.44 185.76Z" fill="#FBFBFB"/>
<path d="M222.24 115.76H259.28C260.2 115.76 260.96 116.52 260.96 117.44V154.48C260.96 155.4 260.2 156.16 259.28 156.16H222.24C221.32 156.16 220.56 155.4 220.56 154.48V117.44C220.56 116.52 221.32 115.76 222.24 115.76Z" fill="#EDEFEE"/>
<path d="M222.24 156.2H259.28C260.2 156.2 260.96 155.44 260.96 154.52V117.48C260.96 116.56 260.2 115.8 259.28 115.8H222.24C221.32 115.8 220.56 116.56 220.56 117.48V154.52C220.56 155.44 221.32 156.2 222.24 156.2ZM220.76 154.36V117.64C220.76 116.72 221.52 115.96 222.44 115.96H259.16C260.08 115.96 260.84 116.72 260.84 117.64V154.36C260.84 155.28 260.08 156.04 259.16 156.04H222.44C221.48 156.04 220.76 155.28 220.76 154.36Z" fill="#FBFBFB"/>
<path d="M193.32 140.08H212.64C213.56 140.08 214.32 140.84 214.32 141.76V161.08C214.32 162 213.56 162.76 212.64 162.76H193.32C192.4 162.76 191.64 162 191.64 161.08V141.76C191.64 140.84 192.36 140.08 193.32 140.08Z" fill="#EDEFEE"/>
<path d="M193.32 162.72H212.64C213.56 162.72 214.32 161.96 214.32 161.04V141.72C214.32 140.8 213.56 140.04 212.64 140.04H193.32C192.4 140.04 191.64 140.8 191.64 141.72V161.04C191.64 162 192.36 162.72 193.32 162.72ZM191.8 160.88V141.92C191.8 141 192.56 140.24 193.48 140.24H212.44C213.36 140.24 214.12 141 214.12 141.92V160.88C214.12 161.8 213.36 162.56 212.44 162.56H193.48C192.56 162.56 191.8 161.8 191.8 160.88Z" fill="#FBFBFB"/>
<path d="M275.28 70H229.56C228.64 70 227.88 69.24 227.88 68.32V22.6C227.88 21.68 228.64 20.92 229.56 20.92H275.28C276.2 20.92 276.96 21.68 276.96 22.6V68.32C276.96 69.24 276.24 70 275.28 70Z" fill="#E5E7E6"/>
<path d="M229.56 70H275.28C276.2 70 276.96 69.24 276.96 68.32V22.6C276.96 21.68 276.2 20.92 275.28 20.92H229.56C228.64 20.92 227.88 21.68 227.88 22.6V68.32C227.88 69.24 228.64 70 229.56 70ZM228.04 68.16V22.76C228.04 21.84 228.8 21.08 229.72 21.08H275.12C276.04 21.08 276.8 21.84 276.8 22.76V68.16C276.8 69.08 276.04 69.84 275.12 69.84H229.72C228.8 69.84 228.04 69.08 228.04 68.16Z" fill="#FBFBFB"/>
<path d="M258.36 83.9199V96.0399C258.36 96.9599 257.6 97.7199 256.68 97.7199H244.56C243.64 97.7199 242.88 96.9599 242.88 96.0399V83.9199C242.88 82.9999 243.64 82.2399 244.56 82.2399H256.68C257.6 82.2399 258.36 82.9999 258.36 83.9199Z" fill="#EDEFEE"/>
<path d="M244.56 97.7199H256.68C257.6 97.7199 258.36 96.9599 258.36 96.0399V83.9199C258.36 82.9999 257.6 82.2399 256.68 82.2399H244.56C243.64 82.2399 242.88 82.9999 242.88 83.9199V96.0399C242.88 96.9599 243.64 97.7199 244.56 97.7199ZM243.04 95.8399V84.0799C243.04 83.1599 243.8 82.3999 244.72 82.3999H256.48C257.4 82.3999 258.16 83.1599 258.16 84.0799V95.8399C258.16 96.7599 257.4 97.5199 256.48 97.5199H244.72C243.8 97.5599 243.04 96.7999 243.04 95.8399Z" fill="#FBFBFB"/>
<path d="M236.04 61.48H248.88C249.8 61.48 250.56 62.24 250.56 63.16V76C250.56 76.92 249.8 77.68 248.88 77.68H236.04C235.12 77.68 234.36 76.92 234.36 76V63.16C234.36 62.24 235.12 61.48 236.04 61.48Z" fill="#EDEFEE"/>
<path d="M236.04 77.68H248.88C249.8 77.68 250.56 76.92 250.56 76V63.16C250.56 62.24 249.8 61.48 248.88 61.48H236.04C235.12 61.48 234.36 62.24 234.36 63.16V76C234.36 76.92 235.12 77.68 236.04 77.68ZM234.52 75.84V63.32C234.52 62.4 235.28 61.64 236.2 61.64H248.72C249.64 61.64 250.4 62.4 250.4 63.32V75.84C250.4 76.76 249.64 77.52 248.72 77.52H236.2C235.28 77.52 234.52 76.76 234.52 75.84Z" fill="#FBFBFB"/>
<path d="M239.84 38.8V55.24C239.84 56.16 239.08 56.92 238.16 56.92H221.72C220.8 56.92 220.04 56.16 220.04 55.24V38.8C220.04 37.88 220.8 37.12 221.72 37.12H238.16C239.08 37.12 239.84 37.84 239.84 38.8Z" fill="#E5E7E6"/>
<path d="M238.16 37.12H221.72C220.8 37.12 220.04 37.88 220.04 38.8V55.24C220.04 56.16 220.8 56.92 221.72 56.92H238.16C239.08 56.92 239.84 56.16 239.84 55.24V38.8C239.84 37.84 239.08 37.12 238.16 37.12ZM239.68 38.96V55.08C239.68 56 238.92 56.76 238 56.76H221.88C220.96 56.76 220.2 56 220.2 55.08V38.96C220.2 38.04 220.96 37.28 221.88 37.28H238C238.92 37.28 239.68 38.04 239.68 38.96Z" fill="#FBFBFB"/>
<path d="M205.28 83.4H204C203.08 83.4 202.32 82.64 202.32 81.72V80.44C202.32 79.52 203.08 78.76 204 78.76H205.28C206.2 78.76 206.96 79.52 206.96 80.44V81.72C206.96 82.64 206.2 83.4 205.28 83.4Z" fill="#EDEFEE"/>
<path d="M205.28 78.76H204C203.08 78.76 202.32 79.52 202.32 80.44V81.72C202.32 82.64 203.08 83.4 204 83.4H205.28C206.2 83.4 206.96 82.64 206.96 81.72V80.44C206.96 79.48 206.2 78.76 205.28 78.76ZM206.8 80.6V81.56C206.8 82.48 206.04 83.24 205.12 83.24H204.16C203.24 83.24 202.48 82.48 202.48 81.56V80.6C202.48 79.68 203.24 78.92 204.16 78.92H205.12C206.04 78.92 206.8 79.68 206.8 80.6Z" fill="#FBFBFB"/>
<path d="M160.4 143V124.6C160.4 123.68 161.16 122.92 162.08 122.92H180.48C181.4 122.92 182.16 123.68 182.16 124.6V143C182.16 143.92 181.4 144.68 180.48 144.68H162.08C161.16 144.68 160.4 143.92 160.4 143Z" fill="#EDEFEE"/>
<path d="M162.08 144.68H180.48C181.4 144.68 182.16 143.92 182.16 143V124.6C182.16 123.68 181.4 122.92 180.48 122.92H162.08C161.16 122.92 160.4 123.68 160.4 124.6V143C160.4 143.92 161.16 144.68 162.08 144.68ZM160.6 142.84V124.8C160.6 123.88 161.36 123.12 162.28 123.12H180.32C181.24 123.12 182 123.88 182 124.8V142.84C182 143.76 181.24 144.52 180.32 144.52H162.28C161.32 144.52 160.6 143.76 160.6 142.84Z" fill="#FBFBFB"/>
<path d="M246.08 104H244.6C243.68 104 242.92 103.24 242.92 102.32V100.8C242.92 99.88 243.68 99.12 244.6 99.12H246.08C247 99.12 247.76 99.88 247.76 100.8V102.28C247.76 103.24 247 104 246.08 104Z" fill="#E5E7E6"/>
<path d="M244.56 104H246.04C246.96 104 247.72 103.24 247.72 102.32V100.8C247.72 99.88 246.96 99.12 246.04 99.12H244.56C243.64 99.12 242.88 99.88 242.88 100.8V102.28C242.88 103.24 243.64 104 244.56 104ZM243.04 102.12V100.96C243.04 100.04 243.8 99.28 244.72 99.28H245.88C246.8 99.28 247.56 100.04 247.56 100.96V102.12C247.56 103.04 246.8 103.8 245.88 103.8H244.72C243.8 103.8 243.04 103.04 243.04 102.12Z" fill="#FBFBFB"/>
<path d="M210.04 84.76H233.08C234 84.76 234.76 85.52 234.76 86.44V109.48C234.76 110.4 234 111.16 233.08 111.16H210.04C209.12 111.16 208.36 110.4 208.36 109.48V86.44C208.36 85.52 209.12 84.76 210.04 84.76Z" fill="#EDEFEE"/>
<path d="M210.04 111.16H233.08C234 111.16 234.76 110.4 234.76 109.48V86.44C234.76 85.52 234 84.76 233.08 84.76H210.04C209.12 84.76 208.36 85.52 208.36 86.44V109.48C208.36 110.4 209.12 111.16 210.04 111.16ZM208.52 109.32V86.6C208.52 85.68 209.28 84.92 210.2 84.92H232.92C233.84 84.92 234.6 85.68 234.6 86.6V109.32C234.6 110.24 233.84 111 232.92 111H210.2C209.28 111 208.52 110.24 208.52 109.32Z" fill="#FBFBFB"/>
</g>
</svg>
