<svg width="24" height="24" viewBox="0 0 24 24" fill="none" xmlns="http://www.w3.org/2000/svg">
<path d="M3.30005 21C3.12764 20.9977 2.95751 20.9603 2.80005 20.89C2.63953 20.8262 2.4933 20.731 2.36999 20.61C2.25265 20.4838 2.15791 20.3383 2.08996 20.18C2.03018 20.0166 1.99975 19.844 2 19.67V19.67C1.99065 19.139 2.08935 18.6117 2.29004 18.12C2.58527 17.3726 3.09715 16.7304 3.76001 16.2761C4.42286 15.8217 5.20639 15.5758 6.01001 15.57H10.25C11.3223 15.5917 12.3441 16.0291 13.1 16.79C13.474 17.1703 13.7666 17.6228 13.96 18.12C14.1591 18.6124 14.261 19.1388 14.26 19.67C14.2599 20.0207 14.1236 20.3577 13.88 20.61C13.7616 20.7323 13.6184 20.8277 13.46 20.89C13.3025 20.9603 13.1324 20.9977 12.96 21H3.30005Z" stroke="#64748B" stroke-width="1.5" stroke-linecap="round" stroke-linejoin="round"/>
<path d="M8.13 6.34998C7.25246 6.35103 6.41117 6.7001 5.79065 7.32062C5.17013 7.94113 4.821 8.78243 4.81995 9.65997V9.79997C4.82245 10.2343 4.90728 10.6642 5.06995 11.067C5.32131 11.6715 5.74618 12.188 6.29077 12.5513C6.83536 12.9147 7.47533 13.1086 8.13 13.1086C8.78468 13.1086 9.42465 12.9147 9.96924 12.5513C10.5138 12.188 10.9386 11.6715 11.1899 11.067C11.3574 10.6657 11.4424 10.2348 11.4399 9.79997V9.65997C11.4391 8.78235 11.0902 7.9409 10.4696 7.32033C9.84903 6.69975 9.00763 6.35077 8.13 6.34998Z" stroke="#64748B" stroke-width="1.5" stroke-linecap="square" stroke-linejoin="round"/>
<path d="M12.47 4.99001C13.1539 4.89887 13.8464 5.07827 14.4 5.49001C14.6765 5.69249 14.91 5.94795 15.0868 6.24152C15.2636 6.53509 15.3803 6.86091 15.4301 7.2V7.2C15.5094 7.66104 15.4609 8.135 15.2899 8.57044C15.1189 9.00587 14.8318 9.38615 14.46 9.67" stroke="#64748B" stroke-width="1.5" stroke-linecap="round" stroke-linejoin="round"/>
<path d="M16.24 3.05C16.8924 2.92696 17.5671 3.06129 18.1227 3.42483C18.6782 3.78837 19.0715 4.35288 19.22 5C19.3236 5.43535 19.3064 5.89075 19.17 6.317C19.0379 6.74392 18.7883 7.1251 18.45 7.417" stroke="#64748B" stroke-width="1.5" stroke-linecap="round" stroke-linejoin="round"/>
<path d="M13.9399 12.97H15.03C15.4806 12.9692 15.9264 13.0611 16.34 13.24C16.7539 13.4169 17.128 13.6754 17.4399 14C17.7604 14.3169 18.0094 14.6988 18.17 15.12C18.3425 15.5348 18.4276 15.9808 18.42 16.43C18.4219 16.5763 18.3945 16.7216 18.3396 16.8572C18.2847 16.9929 18.2032 17.1162 18.1 17.22C17.9985 17.3241 17.8772 17.4069 17.7433 17.4636C17.6094 17.5203 17.4654 17.5496 17.3199 17.55H16.72" stroke="#64748B" stroke-width="1.5" stroke-linecap="round" stroke-linejoin="round"/>
<path d="M17.99 9.85999H18.96C19.7738 9.86922 20.5508 10.2007 21.1206 10.7818C21.6904 11.3629 22.0067 12.1462 22 12.96C22.0019 13.0897 21.9782 13.2185 21.9301 13.339C21.878 13.4591 21.8032 13.5681 21.71 13.66C21.6208 13.7517 21.5158 13.8266 21.4 13.881C21.2798 13.932 21.1506 13.9589 21.02 13.96H20.48" stroke="#64748B" stroke-width="1.5" stroke-linecap="round" stroke-linejoin="round"/>
</svg>
