<svg width="24" height="24" viewBox="0 0 24 24" fill="none" xmlns="http://www.w3.org/2000/svg">
<path d="M20.01 4H4.01001C3.47889 4.00078 2.96963 4.21144 2.59314 4.58606C2.21665 4.96068 2.00343 5.46889 2 6V14.722C2.00185 15.2994 2.23214 15.8526 2.64062 16.2607C3.04911 16.6689 3.60263 16.8987 4.18005 16.9C4.47602 16.8993 4.76634 16.9807 5.0188 17.1352C5.27125 17.2897 5.47588 17.5112 5.60999 17.775L6.54004 19.621C6.63556 19.7368 6.75492 19.8306 6.89001 19.896C7.02056 19.9609 7.16426 19.9951 7.31006 19.996C7.45832 19.9986 7.6052 19.9678 7.73999 19.906C7.87484 19.8442 7.99434 19.7534 8.08997 19.64L9.10999 17.899C9.28468 17.5963 9.53657 17.3454 9.83997 17.172C10.1443 16.9974 10.4891 16.9057 10.84 16.906H19.99C20.5194 16.904 21.0265 16.6922 21.4 16.317C21.7771 15.9434 21.9925 15.4368 22 14.906V6C21.9958 5.4714 21.7839 4.96567 21.41 4.59201C21.0401 4.2172 20.5366 4.00431 20.01 4V4Z" stroke="#64748B" stroke-width="1.5" stroke-linecap="round" stroke-linejoin="round"/>
<path d="M11.01 7.22998H19.01" stroke="#64748B" stroke-width="1.5" stroke-linecap="round" stroke-linejoin="round"/>
<path d="M13.01 10.39H19.01" stroke="#64748B" stroke-width="1.5" stroke-linecap="round" stroke-linejoin="round"/>
</svg>
