<svg width="24" height="24" viewBox="0 0 24 24" fill="none" xmlns="http://www.w3.org/2000/svg">
<path d="M12 22C14.4825 21.9999 16.8761 21.0763 18.7154 19.4091C20.5547 17.7419 21.7081 15.4501 21.9512 12.9796C22.1944 10.509 21.51 8.03639 20.0311 6.04254C18.5521 4.0487 16.3845 2.67622 13.9497 2.19206C11.5149 1.7079 8.98702 2.14667 6.85781 3.42304C4.72861 4.69941 3.15026 6.72211 2.42977 9.09772C1.70928 11.4733 1.89817 14.032 2.95968 16.2761C4.0212 18.5201 5.87945 20.2892 8.173 21.239C9.38632 21.7415 10.6867 22.0001 12 22Z" stroke="#64748B" stroke-width="1.5" stroke-miterlimit="10"/>
<path d="M8 15.02C8.175 15.25 8 17.98 11.92 17.98C16 17.98 15.839 15.23 16 15.02H8Z" stroke="#64748B" stroke-width="1.5" stroke-linecap="round" stroke-linejoin="round"/>
<path d="M9 10V8" stroke="#64748B" stroke-width="1.5" stroke-linecap="round" stroke-linejoin="round"/>
<path d="M15 10V8" stroke="#64748B" stroke-width="1.5" stroke-linecap="round" stroke-linejoin="round"/>
</svg>
