<svg width="24" height="24" viewBox="0 0 24 24" fill="none" xmlns="http://www.w3.org/2000/svg">
<path d="M21.8629 8.73004L19.821 5.27005C19.6831 5.03809 19.4598 4.86943 19.199 4.80026C18.9382 4.73108 18.6607 4.7669 18.426 4.90003L16.594 5.94004C16.44 6.02804 16.2653 6.07295 16.088 6.07005C15.9099 6.07706 15.7337 6.03187 15.581 5.94004C15.4279 5.85355 15.2992 5.7297 15.2069 5.58004C15.1163 5.42506 15.0668 5.24953 15.063 5.07005V3.00004C15.0593 2.73233 14.9499 2.47693 14.7586 2.28959C14.5673 2.10225 14.3097 1.99817 14.042 2.00004H9.95798C9.69009 1.99764 9.43214 2.10156 9.24075 2.28901C9.04936 2.47647 8.94015 2.73216 8.93698 3.00004V5.07005C8.93316 5.24953 8.88361 5.42506 8.793 5.58004C8.70073 5.7297 8.57204 5.85355 8.41898 5.94004C8.26626 6.03187 8.09002 6.07706 7.91196 6.07005C7.73468 6.07295 7.5599 6.02804 7.40598 5.94004L5.57394 4.90003C5.33925 4.7669 5.06174 4.73108 4.80093 4.80026C4.54013 4.86943 4.31684 5.03809 4.17899 5.27005L2.13699 8.73004C2.06967 8.84341 2.02607 8.96931 2.00894 9.10005C1.99185 9.23055 2.00107 9.36315 2.03598 9.49005C2.06901 9.61793 2.12899 9.73726 2.21194 9.84004C2.29378 9.94568 2.39579 10.0341 2.51199 10.1L4.34396 11.13C4.49984 11.2169 4.62886 11.3449 4.71695 11.5C4.8077 11.6509 4.85513 11.824 4.85397 12C4.85372 12.1759 4.8064 12.3486 4.71695 12.5C4.62815 12.6521 4.49908 12.7767 4.34396 12.86L2.51199 13.9C2.396 13.9621 2.29386 14.0471 2.21194 14.15C2.13281 14.2552 2.07323 14.3738 2.03598 14.5C2.00047 14.6286 1.99104 14.7629 2.00821 14.8951C2.02538 15.0274 2.06879 15.1548 2.13596 15.27L4.17795 18.73C4.31581 18.962 4.53915 19.1306 4.79996 19.1998C5.06077 19.269 5.33828 19.2332 5.57297 19.1L7.405 18.06C7.55806 17.9684 7.73308 17.92 7.91147 17.92C8.08986 17.92 8.26494 17.9684 8.418 18.06C8.57318 18.1437 8.70248 18.2682 8.79196 18.42C8.88406 18.5744 8.93372 18.7503 8.93594 18.93V21C8.93911 21.2679 9.04839 21.5236 9.23978 21.7111C9.43117 21.8985 9.68905 22.0024 9.95694 22H14.041C14.3087 22.0019 14.5663 21.8978 14.7576 21.7105C14.9489 21.5231 15.0583 21.2678 15.062 21V18.93C15.0658 18.7505 15.1154 18.575 15.206 18.42C15.2982 18.2704 15.4269 18.1465 15.58 18.06C15.7327 17.9682 15.9089 17.923 16.0869 17.93C16.2642 17.9271 16.4391 17.972 16.593 18.06L18.425 19.1C18.6596 19.2332 18.9372 19.269 19.198 19.1998C19.4588 19.1306 19.6821 18.962 19.82 18.73L21.862 15.27C21.9293 15.1567 21.9728 15.0308 21.99 14.9C22.007 14.7695 21.9979 14.6369 21.963 14.51C21.9299 14.3822 21.8699 14.2628 21.787 14.16C21.7051 14.0544 21.6032 13.966 21.487 13.9L19.655 12.87C19.5013 12.7823 19.3732 12.6558 19.2837 12.5032C19.1942 12.3505 19.1464 12.177 19.145 12C19.1454 11.8242 19.1926 11.6516 19.282 11.5C19.3708 11.348 19.4999 11.2234 19.655 11.14L21.487 10.1C21.603 10.038 21.705 9.95295 21.787 9.85005C21.8656 9.74452 21.9251 9.62606 21.963 9.50004C21.9993 9.37161 22.0092 9.23713 21.992 9.10478C21.9748 8.97242 21.9309 8.84493 21.8629 8.73004V8.73004Z" stroke="#64748B" stroke-width="1.5" stroke-linecap="round" stroke-linejoin="round"/>
<path d="M11.916 8H12.084C13.1449 8 14.1623 8.42142 14.9124 9.17157C15.6626 9.92172 16.084 10.9391 16.084 12C16.084 13.0609 15.6626 14.0783 14.9124 14.8284C14.1623 15.5786 13.1449 16 12.084 16H11.916C10.8551 16 9.83773 15.5786 9.08759 14.8284C8.33744 14.0783 7.91602 13.0609 7.91602 12C7.91602 10.9391 8.33744 9.92172 9.08759 9.17157C9.83773 8.42142 10.8551 8 11.916 8Z" stroke="#64748B" stroke-width="1.5" stroke-linecap="round" stroke-linejoin="round"/>
</svg>
