<svg width="24" height="24" viewBox="0 0 24 24" fill="none" xmlns="http://www.w3.org/2000/svg">
<path d="M14.23 11.41H19.79V20C19.7872 20.5296 19.5755 21.0366 19.201 21.411C18.8266 21.7855 18.3196 21.9971 17.79 22H6.55005C6.2879 21.9996 6.02833 21.9474 5.78638 21.8465C5.54443 21.7456 5.32482 21.5979 5.14001 21.412C4.76587 21.0369 4.55403 20.5298 4.55005 20V11.41H10.12" stroke="#64748B" stroke-width="1.5" stroke-miterlimit="10"/>
<path d="M14.24 7.29004H10.1V22H14.24V7.29004Z" stroke="#64748B" stroke-width="1.5" stroke-miterlimit="10"/>
<path d="M11.97 7.00004C11.9 7.06004 11.73 7.18004 10.6 7.00004C8.40996 6.66004 6.61002 6.38003 6.16002 5.24003C6.0019 4.54084 6.12776 3.80747 6.51 3.20103C6.8987 2.5966 7.50911 2.16894 8.20995 2.01005C10.3199 1.80005 12.84 6.22004 11.97 7.00004Z" stroke="#64748B" stroke-width="1.5" stroke-miterlimit="10"/>
<path d="M12.3801 7.00004C12.4401 7.06004 12.61 7.18004 13.74 7.00004C15.93 6.66004 17.73 6.38003 18.19 5.24003C18.344 4.54005 18.2149 3.80757 17.8309 3.20243C17.4468 2.5973 16.839 2.16866 16.1401 2.01005C14.0201 1.80005 11.5001 6.22004 12.3801 7.00004Z" stroke="#64748B" stroke-width="1.5" stroke-miterlimit="10"/>
<path d="M10.12 11.41H4C3.73653 11.4115 3.47531 11.3608 3.23157 11.2607C2.98783 11.1606 2.76636 11.0132 2.57996 10.827C2.39697 10.6394 2.25115 10.4188 2.15003 10.177C2.05048 9.9336 1.99949 9.67304 2 9.41003V9.29004C2.00289 8.7605 2.21454 8.25345 2.58899 7.879C2.96344 7.50455 3.47046 7.29293 4 7.29004H20C20.5295 7.29293 21.0366 7.50455 21.411 7.879C21.7855 8.25345 21.9971 8.7605 22 9.29004V9.41003C22.0005 9.67304 21.9495 9.9336 21.85 10.177C21.7513 10.4205 21.6049 10.6417 21.4194 10.8277C21.234 11.0137 21.0132 11.1607 20.77 11.26C20.5254 11.3592 20.2639 11.4101 20 11.41H14.23" stroke="#64748B" stroke-width="1.5" stroke-miterlimit="10"/>
</svg>
