<svg width="23" height="14" viewBox="0 0 23 14" fill="none" xmlns="http://www.w3.org/2000/svg">
<path d="M15.453 11.48C13.861 12.2287 12.0585 12.4019 10.353 11.97C8.57101 11.46 7.531 10.3 5.253 10.14C4.25387 10.08 3.25239 10.209 2.30101 10.52C2.15168 10.5682 1.9934 10.5818 1.83803 10.56C1.68213 10.535 1.53451 10.4729 1.40764 10.3789C1.28077 10.2849 1.17836 10.1619 1.10902 10.02C1.03727 9.88087 0.999882 9.72656 1.00001 9.57001V2.57001C0.998996 2.37462 1.0557 2.18329 1.16301 2.02001C1.2731 1.858 1.42617 1.72986 1.60502 1.65C2.75404 1.15784 4.00246 0.942071 5.25001 1.02001C7.52801 1.18001 8.56802 2.34 10.35 2.84C11.725 3.23 13.728 3.29 16.531 1.86C16.684 1.78255 16.854 1.74472 17.0253 1.74996C17.1967 1.7552 17.364 1.80335 17.512 1.89C17.6613 1.97492 17.7842 2.09952 17.867 2.25C17.954 2.39867 17.9999 2.56778 18 2.74001V6.56" stroke="#64748B" stroke-width="1.5" stroke-linecap="round" stroke-linejoin="round"/>
<path d="M3.97119 4.07001C4.68076 3.99319 5.39794 4.02691 6.09717 4.17" stroke="#64748B" stroke-width="1.5" stroke-linecap="round" stroke-linejoin="round"/>
<path d="M17.9999 13C18.6464 13.0458 19.2917 12.8959 19.8519 12.5698C20.412 12.2437 20.8611 11.7565 21.1405 11.1717C21.4199 10.5869 21.5168 9.93146 21.4186 9.29079C21.3203 8.65012 21.0315 8.05387 20.5896 7.57964C20.1478 7.10541 19.5735 6.77516 18.9414 6.6319C18.3092 6.48864 17.6486 6.53899 17.0455 6.7764C16.4424 7.01381 15.9247 7.42729 15.5599 7.963C15.195 8.49871 14.9999 9.13185 14.9999 9.78C14.9718 10.6045 15.2718 11.4066 15.8342 12.0102C16.3966 12.6138 17.1754 12.9698 17.9999 13V13Z" stroke="#64748B" stroke-width="1.5" stroke-linecap="round" stroke-linejoin="round"/>
<path d="M18 9.24001V10.32" stroke="#64748B" stroke-width="1.5" stroke-linecap="round" stroke-linejoin="round"/>
</svg>
