<svg width="375" height="100" viewBox="0 0 375 100" fill="none" xmlns="http://www.w3.org/2000/svg">
<mask id="mask0_234_1909" style="mask-type:alpha" maskUnits="userSpaceOnUse" x="0" y="0" width="375" height="100">
<path d="M0 0H375V100H0V0Z" fill="#5F2EEA"/>
</mask>
<g mask="url(#mask0_234_1909)">
<path d="M372.9 250H2.1C0.95 250 0 249.05 0 247.9V2.1C0 0.95 0.95 0 2.1 0H372.9C374.05 0 375 0.95 375 2.1V247.9C375 249.05 374.05 250 372.9 250Z" fill="#E5E7E6"/>
<path d="M309.6 54.8499H331.35C332.5 54.8499 333.45 55.7999 333.45 56.9499V78.6999C333.45 79.8499 332.5 80.7999 331.35 80.7999H309.6C308.45 80.7999 307.5 79.8499 307.5 78.6999V56.9499C307.5 55.7999 308.4 54.8499 309.6 54.8499Z" fill="#EDEFEE"/>
<path d="M351.8 2.94995H382.8C383.95 2.94995 384.9 3.89995 384.9 5.04995V36.0499C384.9 37.2 383.95 38.15 382.8 38.15H351.8C350.65 38.15 349.7 37.2 349.7 36.0499V5.04995C349.7 3.89995 350.65 2.94995 351.8 2.94995Z" fill="#DEE0DF"/>
<path d="M357.25 123.6H329.35C328.2 123.6 327.25 122.65 327.25 121.5V93.6C327.25 92.45 328.2 91.5 329.35 91.5H357.25C358.4 91.5 359.35 92.45 359.35 93.6V121.5C359.35 122.65 358.4 123.6 357.25 123.6ZM356.4 92.3H330.1C328.95 92.3 328 93.25 328 94.4V120.7C328 121.85 328.95 122.8 330.1 122.8H356.4C357.55 122.8 358.5 121.85 358.5 120.7V94.4C358.55 93.25 357.6 92.3 356.4 92.3Z" fill="#DEE0DF"/>
<path d="M341.3 15.1H313.4C312.25 15.1 311.3 14.15 311.3 13V-14.9C311.3 -16.05 312.25 -17 313.4 -17H341.3C342.45 -17 343.4 -16.05 343.4 -14.9V13C343.4 14.15 342.45 15.1 341.3 15.1ZM340.5 -16.2H314.2C313.05 -16.2 312.1 -15.25 312.1 -14.1V12.2C312.1 13.35 313.05 14.3 314.2 14.3H340.5C341.65 14.3 342.6 13.35 342.6 12.2V-14.1C342.6 -15.25 341.65 -16.2 340.5 -16.2Z" fill="#DEE0DF"/>
<path d="M168.2 165H41.5998C40.4498 165 39.4998 164.05 39.4998 162.9V36.2999C39.4998 35.1499 40.4498 34.2 41.5998 34.2H168.2C169.35 34.2 170.3 35.1499 170.3 36.2999V162.9C170.3 164.1 169.35 165 168.2 165ZM167.4 35H42.3998C41.2498 35 40.2998 35.9499 40.2998 37.0999V162.1C40.2998 163.25 41.2498 164.2 42.3998 164.2H167.4C168.55 164.2 169.5 163.25 169.5 162.1V37.0999C169.5 35.9499 168.55 35 167.4 35Z" fill="#EDEFEE"/>
<path d="M301.8 43.8H175.2C174.05 43.8 173.1 42.8499 173.1 41.7V-71.95C173.1 -80.3 179.85 -87.05 188.2 -87.05H288.85C297.2 -87.05 303.95 -80.3 303.95 -71.95V41.7C303.9 42.8999 302.95 43.8 301.8 43.8ZM188.15 -86.2C180.25 -86.2 173.9 -79.8 173.9 -71.95V40.9C173.9 42.05 174.85 43 176 43H301C302.15 43 303.1 42.05 303.1 40.9V-71.95C303.1 -79.85 296.7 -86.2 288.85 -86.2H188.15Z" fill="#EDEFEE"/>
<path d="M333.45 20.8999H337.45C338.6 20.8999 339.55 21.8499 339.55 22.9999V26.9999C339.55 28.1499 338.6 29.0999 337.45 29.0999H333.45C332.3 29.0999 331.35 28.1499 331.35 26.9999V22.9999C331.35 21.8499 332.3 20.8999 333.45 20.8999Z" fill="#DEE0DF"/>
<path d="M6.94995 59.95H-14.8C-15.95 59.95 -16.9 59 -16.9 57.85V36.1C-16.9 34.95 -15.95 34 -14.8 34H6.94995C8.09995 34 9.04995 34.95 9.04995 36.1V57.85C9.04995 59 8.09995 59.95 6.94995 59.95Z" fill="#DEE0DF"/>
<path d="M16.2499 125.5H-14.7501C-15.9001 125.5 -16.8501 124.55 -16.8501 123.4V92.4C-16.8501 91.25 -15.9001 90.3 -14.7501 90.3H16.2499C17.3999 90.3 18.3499 91.25 18.3499 92.4V123.4C18.3499 124.55 17.3999 125.5 16.2499 125.5Z" fill="#DEE0DF"/>
<path d="M97.3 42.2001H51.65C50.5 42.2001 49.55 41.2501 49.55 40.1001V-5.5499C49.55 -6.6999 50.5 -7.6499 51.65 -7.6499H97.3C98.45 -7.6499 99.4 -6.6999 99.4 -5.5499V40.1001C99.4 41.3001 98.45 42.2001 97.3 42.2001ZM96.45 -6.8499H52.4C51.25 -6.8499 50.3 -5.8999 50.3 -4.7499V39.3001C50.3 40.4501 51.25 41.4001 52.4 41.4001H96.45C97.6 41.4001 98.55 40.4501 98.55 39.3001V-4.7499C98.6 -5.8999 97.65 -6.8499 96.45 -6.8499Z" fill="#DEE0DF"/>
<path d="M96.4499 88.5502H68.5499C67.3999 88.5502 66.4499 87.6002 66.4499 86.4502V58.5502C66.4499 57.4002 67.3999 56.4502 68.5499 56.4502H96.4499C97.5999 56.4502 98.5499 57.4002 98.5499 58.5502V86.4502C98.5499 87.6002 97.5999 88.5502 96.4499 88.5502ZM95.6499 57.2502H69.3499C68.1999 57.2502 67.2499 58.2002 67.2499 59.3502V85.6502C67.2499 86.8002 68.1999 87.7502 69.3499 87.7502H95.6499C96.7999 87.7502 97.7499 86.8002 97.7499 85.6502V59.3502C97.7499 58.1502 96.7999 57.2502 95.6499 57.2502Z" fill="#DEE0DF"/>
<path d="M147.05 6.90015H142.25C141.1 6.90015 140.15 5.95015 140.15 4.80015V0.000146389C140.15 -1.14985 141.1 -2.09985 142.25 -2.09985H147.05C148.2 -2.09985 149.15 -1.14985 149.15 0.000146389V4.80015C149.15 5.95015 148.2 6.90015 147.05 6.90015ZM146.2 -1.34985H143C141.85 -1.34985 140.9 -0.399854 140.9 0.750146V3.95015C140.9 5.10015 141.85 6.05015 143 6.05015H146.2C147.35 6.05015 148.3 5.10015 148.3 3.95015V0.750146C148.35 -0.399854 147.4 -1.34985 146.2 -1.34985Z" fill="#DEE0DF"/>
<path d="M159.5 11.7H155.5C154.35 11.7 153.4 10.75 153.4 9.6V5.6C153.4 4.45 154.35 3.5 155.5 3.5H159.5C160.65 3.5 161.6 4.45 161.6 5.6V9.6C161.6 10.75 160.7 11.7 159.5 11.7Z" fill="#DEE0DF"/>
<path d="M61.2499 97.1001H57.2499C56.0999 97.1001 55.1499 96.1501 55.1499 95.0001V91.0001C55.1499 89.8501 56.0999 88.9001 57.2499 88.9001H61.2499C62.3999 88.9001 63.3499 89.8501 63.3499 91.0001V95.0001C63.3499 96.1501 62.3999 97.1001 61.2499 97.1001Z" fill="#DEE0DF"/>
<path d="M73.9499 37.9002H69.9499C68.7999 37.9002 67.8499 36.9502 67.8499 35.8002V31.8002C67.8499 30.6502 68.7999 29.7002 69.9499 29.7002H73.9499C75.1 29.7002 76.05 30.6502 76.05 31.8002V35.8002C76.05 37.0002 75.1 37.9002 73.9499 37.9002Z" fill="#DEE0DF"/>
<path d="M81.65 31.9002C80.5 31.9002 79.55 30.9502 79.55 29.8002C79.55 28.6502 80.5 27.7002 81.65 27.7002C82.8 27.7002 83.75 28.6502 83.75 29.8002C83.8 30.9502 82.85 31.9002 81.65 31.9002Z" fill="#DEE0DF"/>
<path d="M104.2 5.9002C103.05 5.9002 102.1 4.9502 102.1 3.8002C102.1 2.6502 103.05 1.7002 104.2 1.7002C105.35 1.7002 106.3 2.6502 106.3 3.8002C106.3 4.9502 105.35 5.9002 104.2 5.9002Z" fill="#DEE0DF"/>
<path d="M142.5 19.1501H129.9C128.75 19.1501 127.8 18.2001 127.8 17.0501V4.4501C127.8 3.3001 128.75 2.3501 129.9 2.3501H142.5C143.65 2.3501 144.6 3.3001 144.6 4.4501V17.0501C144.6 18.2001 143.7 19.1501 142.5 19.1501Z" fill="#DEE0DF"/>
<path d="M143.75 84.8501H138.95C137.8 84.8501 136.85 83.9001 136.85 82.7501V77.9501C136.85 76.8001 137.8 75.8501 138.95 75.8501H143.75C144.9 75.8501 145.85 76.8001 145.85 77.9501V82.7501C145.85 83.9001 144.9 84.8501 143.75 84.8501ZM142.95 76.6001H139.75C138.6 76.6001 137.65 77.5501 137.65 78.7001V81.9001C137.65 83.0501 138.6 84.0001 139.75 84.0001H142.95C144.1 84.0001 145.05 83.0501 145.05 81.9001V78.7001C145.05 77.5501 144.1 76.6001 142.95 76.6001Z" fill="#DEE0DF"/>
<path d="M139.25 97.1H126.65C125.5 97.1 124.55 96.15 124.55 95V82.4C124.55 81.25 125.5 80.3 126.65 80.3H139.25C140.4 80.3 141.35 81.25 141.35 82.4V95C141.35 96.15 140.4 97.1 139.25 97.1Z" fill="#DEE0DF"/>
<path d="M118.75 62.5499H87.2999C86.1499 62.5499 85.1999 61.5999 85.1999 60.4499V28.9999C85.1999 27.8499 86.1499 26.8999 87.2999 26.8999H118.75C119.9 26.8999 120.85 27.8499 120.85 28.9999V60.4499C120.85 61.5999 119.9 62.5499 118.75 62.5499Z" fill="#E5E7E6"/>
<path d="M118.75 26.8999H87.2999C86.1499 26.8999 85.1999 27.8499 85.1999 28.9999V60.4499C85.1999 61.5999 86.1499 62.5499 87.2999 62.5499H118.75C119.9 62.5499 120.85 61.5999 120.85 60.4499V28.9999C120.85 27.8499 119.9 26.8999 118.75 26.8999ZM120.65 29.2499V60.2499C120.65 61.3999 119.7 62.3499 118.55 62.3499H87.5499C86.3999 62.3499 85.4499 61.3999 85.4499 60.2499V29.2499C85.4499 28.0999 86.3999 27.1499 87.5499 27.1499H118.55C119.7 27.0999 120.65 28.0499 120.65 29.2499Z" fill="#FBFBFB"/>
<path d="M27.8999 115.55V94.15C27.8999 93 28.8499 92.05 29.9999 92.05H51.3999C52.5499 92.05 53.4999 93 53.4999 94.15V115.55C53.4999 116.7 52.5499 117.65 51.3999 117.65H29.9999C28.8499 117.65 27.8999 116.7 27.8999 115.55Z" fill="#E5E7E6"/>
<path d="M53.5499 115.55V94.15C53.5499 93 52.5999 92.05 51.4499 92.05H29.9999C28.8499 92.05 27.8999 93 27.8999 94.15V115.55C27.8999 116.7 28.8499 117.65 29.9999 117.65H51.3999C52.5999 117.65 53.5499 116.7 53.5499 115.55ZM28.0999 115.35V94.35C28.0999 93.2 29.0499 92.25 30.1999 92.25H51.1999C52.3499 92.25 53.2999 93.2 53.2999 94.35V115.35C53.2999 116.5 52.3499 117.45 51.1999 117.45H30.1999C29.0499 117.45 28.0999 116.5 28.0999 115.35Z" fill="#FBFBFB"/>
<path d="M45.2999 105.3H-1.0001C-2.1501 105.3 -3.1001 104.35 -3.1001 103.2V56.9001C-3.1001 55.7501 -2.1501 54.8 -1.0001 54.8H45.2999C46.4499 54.8 47.3999 55.7501 47.3999 56.9001V103.2C47.3999 104.35 46.4999 105.3 45.2999 105.3Z" fill="#E5E7E6"/>
<path d="M45.2999 54.8H-1.0001C-2.1501 54.8 -3.1001 55.7501 -3.1001 56.9001V103.2C-3.1001 104.35 -2.1501 105.3 -1.0001 105.3H45.2999C46.4499 105.3 47.3999 104.35 47.3999 103.2V56.9001C47.3999 55.7501 46.4999 54.8 45.2999 54.8ZM47.1999 57.1V103C47.1999 104.15 46.2499 105.1 45.0999 105.1H-0.800098C-1.9501 105.1 -2.9001 104.15 -2.9001 103V57.1C-2.9001 55.95 -1.9501 55 -0.800098 55H45.0999C46.2499 55 47.1999 55.95 47.1999 57.1Z" fill="#FBFBFB"/>
<path d="M78.3499 76.8H54.1999C53.0499 76.8 52.0999 75.85 52.0999 74.7V50.5499C52.0999 49.3999 53.0499 48.45 54.1999 48.45H78.3499C79.4999 48.45 80.4499 49.3999 80.4499 50.5499V74.7C80.4999 75.85 79.5499 76.8 78.3499 76.8Z" fill="#E5E7E6"/>
<path d="M78.3499 48.45H54.1999C53.0499 48.45 52.0999 49.3999 52.0999 50.5499V74.7C52.0999 75.85 53.0499 76.8 54.1999 76.8H78.3499C79.4999 76.8 80.4499 75.85 80.4499 74.7V50.5499C80.4999 49.3999 79.5499 48.45 78.3499 48.45ZM80.25 50.75V74.45C80.25 75.6 79.3 76.55 78.15 76.55H54.4499C53.2999 76.55 52.3499 75.6 52.3499 74.45V50.75C52.3499 49.6 53.2999 48.65 54.4499 48.65H78.15C79.3 48.65 80.25 49.6 80.25 50.75Z" fill="#FBFBFB"/>
<path d="M10.85 3.8999H68C69.15 3.8999 70.1 4.8499 70.1 5.9999V63.1499C70.1 64.2999 69.15 65.2499 68 65.2499H10.85C9.70005 65.2499 8.75005 64.2999 8.75005 63.1499V5.9999C8.75005 4.8499 9.70005 3.8999 10.85 3.8999Z" fill="#E5E7E6"/>
<path d="M68 3.8999H10.85C9.70005 3.8999 8.75005 4.8499 8.75005 5.9999V63.1499C8.75005 64.2999 9.70005 65.2499 10.85 65.2499H68C69.15 65.2499 70.1 64.2999 70.1 63.1499V5.9999C70.1 4.8499 69.15 3.8999 68 3.8999ZM69.9 6.2499V62.9999C69.9 64.1499 68.9501 65.0999 67.8 65.0999H11.05C9.90005 65.0999 8.95005 64.1499 8.95005 62.9999V6.2499C8.95005 5.0999 9.90005 4.1499 11.05 4.1499H67.8C68.9501 4.1499 69.9 5.0499 69.9 6.2499Z" fill="#FBFBFB"/>
<path d="M195.4 3.05005H197C198.15 3.05005 199.1 4.00005 199.1 5.15005V6.75005C199.1 7.90005 198.15 8.85005 197 8.85005H195.4C194.25 8.85005 193.3 7.90005 193.3 6.75005V5.15005C193.3 4.00005 194.2 3.05005 195.4 3.05005Z" fill="#EDEFEE"/>
<path d="M195.4 8.85005H197C198.15 8.85005 199.1 7.90005 199.1 6.75005V5.15005C199.1 4.00005 198.15 3.05005 197 3.05005H195.4C194.25 3.05005 193.3 4.00005 193.3 5.15005V6.75005C193.3 7.90005 194.2 8.85005 195.4 8.85005ZM193.5 6.55005V5.35005C193.5 4.20005 194.45 3.25005 195.6 3.25005H196.8C197.95 3.25005 198.9 4.20005 198.9 5.35005V6.55005C198.9 7.70005 197.95 8.65005 196.8 8.65005H195.6C194.45 8.65005 193.5 7.70005 193.5 6.55005Z" fill="#FBFBFB"/>
<path d="M146.85 43.2H148.45C149.6 43.2 150.55 44.1499 150.55 45.2999V46.9C150.55 48.05 149.6 49 148.45 49H146.85C145.7 49 144.75 48.05 144.75 46.9V45.2999C144.7 44.1499 145.65 43.2 146.85 43.2Z" fill="#EDEFEE"/>
<path d="M146.85 49H148.45C149.6 49 150.55 48.05 150.55 46.9V45.2999C150.55 44.1499 149.6 43.2 148.45 43.2H146.85C145.7 43.2 144.75 44.1499 144.75 45.2999V46.9C144.7 48.05 145.65 49 146.85 49ZM144.95 46.7V45.5C144.95 44.35 145.9 43.4 147.05 43.4H148.25C149.4 43.4 150.35 44.35 150.35 45.5V46.7C150.35 47.85 149.4 48.7999 148.25 48.7999H147.05C145.9 48.7999 144.95 47.85 144.95 46.7Z" fill="#FBFBFB"/>
<path d="M166.05 15.95V-4.65C166.05 -5.8 167 -6.75 168.15 -6.75H188.7C189.85 -6.75 190.8 -5.8 190.8 -4.65V15.9C190.8 17.05 189.85 18 188.7 18H168.15C166.95 18.05 166.05 17.1 166.05 15.95Z" fill="#E5E7E6"/>
<path d="M168.15 18.05H188.7C189.85 18.05 190.8 17.1 190.8 15.95V-4.65C190.8 -5.8 189.85 -6.75 188.7 -6.75H168.15C167 -6.75 166.05 -5.8 166.05 -4.65V15.9C166.05 17.1 166.95 18.05 168.15 18.05ZM166.25 15.7V-4.4C166.25 -5.55 167.2 -6.5 168.35 -6.5H188.5C189.65 -6.5 190.6 -5.55 190.6 -4.4V15.75C190.6 16.9 189.65 17.85 188.5 17.85H168.35C167.2 17.8 166.25 16.9 166.25 15.7Z" fill="#FBFBFB"/>
<path d="M105.2 -12.05H118.05C119.2 -12.05 120.15 -11.1 120.15 -9.95005V2.89995C120.15 4.04995 119.2 4.99995 118.05 4.99995H105.2C104.05 4.99995 103.1 4.04995 103.1 2.89995V-9.95005C103.1 -11.1 104 -12.05 105.2 -12.05Z" fill="#EDEFEE"/>
<path d="M105.2 4.99995H118.05C119.2 4.99995 120.15 4.04995 120.15 2.89995V-9.95005C120.15 -11.1 119.2 -12.05 118.05 -12.05H105.2C104.05 -12.05 103.1 -11.1 103.1 -9.95005V2.89995C103.1 4.04995 104 4.99995 105.2 4.99995ZM103.3 2.69995V-9.75005C103.3 -10.9 104.25 -11.85 105.4 -11.85H117.85C119 -11.85 119.95 -10.9 119.95 -9.75005V2.69995C119.95 3.84995 119 4.79995 117.85 4.79995H105.4C104.25 4.79995 103.3 3.84995 103.3 2.69995Z" fill="#FBFBFB"/>
<path d="M110.15 79.85V102.85C110.15 104 109.2 104.95 108.05 104.95H85.0499C83.8999 104.95 82.9499 104 82.9499 102.85V79.85C82.9499 78.7 83.8999 77.75 85.0499 77.75H108.05C109.2 77.75 110.15 78.7 110.15 79.85Z" fill="#EDEFEE"/>
<path d="M108.05 77.75H85.0499C83.8999 77.75 82.9499 78.7 82.9499 79.85V102.85C82.9499 104 83.8999 104.95 85.0499 104.95H108.05C109.2 104.95 110.15 104 110.15 102.85V79.85C110.15 78.7 109.2 77.75 108.05 77.75ZM109.95 80.1V102.65C109.95 103.8 109 104.75 107.85 104.75H85.2999C84.1499 104.75 83.1999 103.8 83.1999 102.65V80.1C83.1999 78.95 84.1499 78 85.2999 78H107.85C109 78 109.95 78.9 109.95 80.1Z" fill="#FBFBFB"/>
<path d="M84.3499 -10.15V12.85C84.3499 14 83.3999 14.95 82.2499 14.95H59.2499C58.0999 14.95 57.1499 14 57.1499 12.85V-10.15C57.1499 -11.3 58.0999 -12.25 59.2499 -12.25H82.2499C83.3999 -12.25 84.3499 -11.35 84.3499 -10.15Z" fill="#EDEFEE"/>
<path d="M82.2499 -12.25H59.2499C58.0999 -12.25 57.1499 -11.3 57.1499 -10.15V12.85C57.1499 14 58.0999 14.95 59.2499 14.95H82.2499C83.3999 14.95 84.3499 14 84.3499 12.85V-10.15C84.3499 -11.35 83.3999 -12.25 82.2499 -12.25ZM84.1499 -9.95V12.6C84.1499 13.75 83.1999 14.7 82.0499 14.7H59.4999C58.3499 14.7 57.3999 13.75 57.3999 12.6V-9.95C57.3999 -11.1 58.3499 -12.05 59.4999 -12.05H82.0499C83.1999 -12.05 84.1499 -11.1 84.1499 -9.95Z" fill="#FBFBFB"/>
<path d="M160.95 24.1501H154.4C153.25 24.1501 152.3 23.2001 152.3 22.0501V15.4501C152.3 14.3001 153.25 13.3501 154.4 13.3501H160.95C162.1 13.3501 163.05 14.3001 163.05 15.4501V22.0001C163.05 23.2001 162.1 24.1501 160.95 24.1501Z" fill="#E5E7E6"/>
<path d="M160.95 13.3501H154.4C153.25 13.3501 152.3 14.3001 152.3 15.4501V22.0001C152.3 23.1501 153.25 24.1001 154.4 24.1001H160.95C162.1 24.1001 163.05 23.1501 163.05 22.0001V15.4501C163.05 14.3001 162.1 13.3501 160.95 13.3501ZM162.85 15.7001V21.8501C162.85 23.0001 161.9 23.9501 160.75 23.9501H154.6C153.45 23.9501 152.5 23.0001 152.5 21.8501V15.7001C152.5 14.5501 153.45 13.6001 154.6 13.6001H160.75C161.9 13.6001 162.85 14.5001 162.85 15.7001Z" fill="#FBFBFB"/>
<path d="M137.25 69.9999H126.6C125.45 69.9999 124.5 69.0499 124.5 67.8999V57.2499C124.5 56.0999 125.45 55.1499 126.6 55.1499H137.25C138.4 55.1499 139.35 56.0999 139.35 57.2499V67.8999C139.4 69.0499 138.45 69.9999 137.25 69.9999Z" fill="#EDEFEE"/>
<path d="M137.25 55.1499H126.6C125.45 55.1499 124.5 56.0999 124.5 57.2499V67.8999C124.5 69.0499 125.45 69.9999 126.6 69.9999H137.25C138.4 69.9999 139.35 69.0499 139.35 67.8999V57.2499C139.4 56.0999 138.45 55.1499 137.25 55.1499ZM139.15 57.4499V67.6499C139.15 68.7999 138.2 69.7499 137.05 69.7499H126.85C125.7 69.7499 124.75 68.7999 124.75 67.6499V57.4499C124.75 56.2999 125.7 55.3499 126.85 55.3499H137.05C138.2 55.3499 139.15 56.2999 139.15 57.4499Z" fill="#FBFBFB"/>
<path d="M140.85 41.5H112.05C110.9 41.5 109.95 40.55 109.95 39.4V10.6C109.95 9.45 110.9 8.5 112.05 8.5H140.85C142 8.5 142.95 9.45 142.95 10.6V39.4C142.95 40.55 142 41.5 140.85 41.5Z" fill="#EDEFEE"/>
<path d="M140.85 8.5H112.05C110.9 8.5 109.95 9.45 109.95 10.6V39.4C109.95 40.55 110.9 41.5 112.05 41.5H140.85C142 41.5 142.95 40.55 142.95 39.4V10.6C142.95 9.45 142 8.5 140.85 8.5ZM142.75 10.8V39.2C142.75 40.35 141.8 41.3 140.65 41.3H112.25C111.1 41.3 110.15 40.35 110.15 39.2V10.8C110.15 9.65 111.1 8.7 112.25 8.7H140.65C141.8 8.7 142.75 9.65 142.75 10.8Z" fill="#FBFBFB"/>
<path d="M96.1499 17.2V12.65C96.1499 11.5 97.0999 10.55 98.2499 10.55H102.8C103.95 10.55 104.9 11.5 104.9 12.65V17.2C104.9 18.35 103.95 19.3 102.8 19.3H98.2499C97.0999 19.3 96.1499 18.35 96.1499 17.2Z" fill="#E5E7E6"/>
<path d="M102.8 10.55H98.2499C97.0999 10.55 96.1499 11.5 96.1499 12.65V17.2C96.1499 18.35 97.0999 19.3 98.2499 19.3H102.8C103.95 19.3 104.9 18.35 104.9 17.2V12.65C104.9 11.5 103.95 10.55 102.8 10.55ZM104.7 12.85V17C104.7 18.15 103.75 19.1 102.6 19.1H98.4499C97.2999 19.1 96.3499 18.15 96.3499 17V12.85C96.3499 11.7 97.2999 10.75 98.4499 10.75H102.6C103.75 10.75 104.7 11.7 104.7 12.85Z" fill="#FBFBFB"/>
<path d="M6.94995 69.6499H19.8C20.95 69.6499 21.9 70.5999 21.9 71.7499V84.5999C21.9 85.7499 20.95 86.6999 19.8 86.6999H6.94995C5.79995 86.6999 4.84995 85.7499 4.84995 84.5999V71.7499C4.84995 70.5999 5.79995 69.6499 6.94995 69.6499Z" fill="#E5E7E6"/>
<path d="M6.94995 86.75H19.8C20.95 86.75 21.9 85.8 21.9 84.65V71.8C21.9 70.65 20.95 69.7 19.8 69.7H6.94995C5.79995 69.7 4.84995 70.65 4.84995 71.8V84.65C4.84995 85.8 5.79995 86.75 6.94995 86.75ZM5.04995 84.4V72C5.04995 70.85 5.99995 69.9 7.14995 69.9H19.6C20.75 69.9 21.7 70.85 21.7 72V84.45C21.7 85.6 20.75 86.55 19.6 86.55H7.14995C5.99995 86.5 5.04995 85.6 5.04995 84.4Z" fill="#FBFBFB"/>
<path d="M27.8999 96.95V92.4C27.8999 91.25 28.8499 90.3 29.9999 90.3H34.5499C35.6999 90.3 36.6499 91.25 36.6499 92.4V96.95C36.6499 98.1 35.6999 99.05 34.5499 99.05H29.9999C28.8499 99.05 27.8999 98.1 27.8999 96.95Z" fill="#EDEFEE"/>
<path d="M34.5499 90.3H29.9999C28.8499 90.3 27.8999 91.25 27.8999 92.4V96.95C27.8999 98.1 28.8499 99.05 29.9999 99.05H34.5499C35.6999 99.05 36.6499 98.1 36.6499 96.95V92.4C36.6499 91.2 35.6999 90.3 34.5499 90.3ZM36.4499 92.6V96.75C36.4499 97.9 35.4999 98.85 34.3499 98.85H30.1999C29.0499 98.85 28.0999 97.9 28.0999 96.75V92.6C28.0999 91.45 29.0499 90.5 30.1999 90.5H34.3499C35.4999 90.5 36.4499 91.45 36.4499 92.6Z" fill="#FBFBFB"/>
<path d="M17.5999 23H-11.2001C-12.3501 23 -13.3001 22.05 -13.3001 20.9V-7.9C-13.3001 -9.05 -12.3501 -10 -11.2001 -10H17.5999C18.7499 -10 19.6999 -9.05 19.6999 -7.9V20.9C19.7499 22.05 18.7999 23 17.5999 23Z" fill="#EDEFEE"/>
<path d="M17.5999 -10.05H-11.2001C-12.3501 -10.05 -13.3001 -9.10005 -13.3001 -7.95005V20.85C-13.3001 22 -12.3501 22.95 -11.2001 22.95H17.5999C18.7499 22.95 19.6999 22 19.6999 20.85V-7.95005C19.7499 -9.10005 18.7999 -10.05 17.5999 -10.05ZM19.4999 -7.70005V20.7C19.4999 21.85 18.5499 22.7999 17.3999 22.7999H-11.0001C-12.1501 22.7999 -13.1001 21.85 -13.1001 20.7V-7.70005C-13.1001 -8.85005 -12.1501 -9.80005 -11.0001 -9.80005H17.3999C18.5499 -9.80005 19.4999 -8.90005 19.4999 -7.70005Z" fill="#FBFBFB"/>
<path d="M406.6 87.4999H349.45C348.3 87.4999 347.35 86.5499 347.35 85.3999V28.2499C347.35 27.0999 348.3 26.1499 349.45 26.1499H406.6C407.75 26.1499 408.7 27.0999 408.7 28.2499V85.3999C408.7 86.5499 407.8 87.4999 406.6 87.4999Z" fill="#E5E7E6"/>
<path d="M349.45 87.4999H406.6C407.75 87.4999 408.7 86.5499 408.7 85.3999V28.2499C408.7 27.0999 407.75 26.1499 406.6 26.1499H349.45C348.3 26.1499 347.35 27.0999 347.35 28.2499V85.3999C347.35 86.5499 348.3 87.4999 349.45 87.4999ZM347.55 85.1999V28.4499C347.55 27.2999 348.5 26.3499 349.65 26.3499H406.4C407.55 26.3499 408.5 27.2999 408.5 28.4499V85.1999C408.5 86.3499 407.55 87.2999 406.4 87.2999H349.65C348.5 87.2999 347.55 86.3499 347.55 85.1999Z" fill="#FBFBFB"/>
<path d="M357.55 76.8499H373.6C374.75 76.8499 375.7 77.7999 375.7 78.9499V94.9999C375.7 96.1499 374.75 97.0999 373.6 97.0999H357.55C356.4 97.0999 355.45 96.1499 355.45 94.9999V78.9499C355.45 77.7999 356.4 76.8499 357.55 76.8499Z" fill="#EDEFEE"/>
<path d="M357.55 97.0999H373.6C374.75 97.0999 375.7 96.1499 375.7 94.9999V78.9499C375.7 77.7999 374.75 76.8499 373.6 76.8499H357.55C356.4 76.8499 355.45 77.7999 355.45 78.9499V94.9999C355.45 96.1499 356.4 97.0999 357.55 97.0999ZM355.65 94.7999V79.1499C355.65 77.9999 356.6 77.0499 357.75 77.0499H373.4C374.55 77.0499 375.5 77.9999 375.5 79.1499V94.7999C375.5 95.9499 374.55 96.8999 373.4 96.8999H357.75C356.6 96.8999 355.65 95.9499 355.65 94.7999Z" fill="#FBFBFB"/>
<path d="M362.3 48.4999V69.0499C362.3 70.1999 361.35 71.1499 360.2 71.1499H339.65C338.5 71.1499 337.55 70.1999 337.55 69.0499V48.4999C337.55 47.3499 338.5 46.3999 339.65 46.3999H360.2C361.35 46.3999 362.3 47.2999 362.3 48.4999Z" fill="#E5E7E6"/>
<path d="M360.2 46.3999H339.65C338.5 46.3999 337.55 47.3499 337.55 48.4999V69.0499C337.55 70.1999 338.5 71.1499 339.65 71.1499H360.2C361.35 71.1499 362.3 70.1999 362.3 69.0499V48.4999C362.3 47.2999 361.35 46.3999 360.2 46.3999ZM362.1 48.6999V68.8499C362.1 69.9999 361.15 70.9499 360 70.9499H339.85C338.7 70.9499 337.75 69.9999 337.75 68.8499V48.6999C337.75 47.5499 338.7 46.5999 339.85 46.5999H360C361.15 46.5999 362.1 47.5499 362.1 48.6999Z" fill="#FBFBFB"/>
<path d="M319.1 104.25H317.5C316.35 104.25 315.4 103.3 315.4 102.15V100.55C315.4 99.4 316.35 98.45 317.5 98.45H319.1C320.25 98.45 321.2 99.4 321.2 100.55V102.15C321.2 103.3 320.25 104.25 319.1 104.25Z" fill="#EDEFEE"/>
<path d="M319.1 98.45H317.5C316.35 98.45 315.4 99.4 315.4 100.55V102.15C315.4 103.3 316.35 104.25 317.5 104.25H319.1C320.25 104.25 321.2 103.3 321.2 102.15V100.55C321.2 99.35 320.25 98.45 319.1 98.45ZM321 100.75V101.95C321 103.1 320.05 104.05 318.9 104.05H317.7C316.55 104.05 315.6 103.1 315.6 101.95V100.75C315.6 99.6 316.55 98.65 317.7 98.65H318.9C320.05 98.65 321 99.6 321 100.75Z" fill="#FBFBFB"/>
</g>
</svg>
