<svg width="237" height="235" viewBox="0 0 237 235" fill="none" xmlns="http://www.w3.org/2000/svg">
<path d="M244.95 232.05C242.216 234.784 237.784 234.784 235.05 232.05L219.95 216.95C217.216 214.216 217.216 209.784 219.95 207.05L235.05 191.95C237.784 189.216 242.216 189.216 244.95 191.95L260.05 207.05C262.784 209.784 262.784 214.216 260.05 216.95L244.95 232.05Z" fill="#7DC8A9"/>
<path d="M159.95 166.95C157.216 164.216 152.784 164.216 150.05 166.95L134.95 182.05C132.216 184.784 132.216 189.216 134.95 191.95L150.05 207.05C152.784 209.784 157.216 209.784 159.95 207.05L175.05 191.95C177.784 189.216 177.784 184.784 175.05 182.05L159.95 166.95Z" fill="#7DC8A9"/>
<path d="M244.95 16.9497C242.216 14.2161 237.784 14.2161 235.05 16.9497L219.95 32.0502C217.216 34.7839 217.216 39.2161 219.95 41.9497L235.05 57.0502C237.784 59.7839 242.216 59.7839 244.95 57.0503L260.05 41.9497C262.784 39.2161 262.784 34.7839 260.05 32.0503L244.95 16.9497Z" fill="white"/>
<path d="M223.401 54.8044C220.679 52.1358 216.322 52.1358 213.6 54.8044L198.099 70.0015C195.299 72.7459 195.299 77.2541 198.099 79.9985L213.6 95.1956C216.322 97.8642 220.678 97.8642 223.401 95.1956L238.902 79.9985C241.701 77.2541 241.701 72.7459 238.902 70.0015L223.401 54.8044Z" fill="#7DC8A9"/>
<path d="M202.4 82.1956C199.678 84.8642 195.322 84.8642 192.6 82.1956L177.098 66.9985C174.299 64.2541 174.299 59.7459 177.098 57.0015L192.6 41.8044C195.322 39.1358 199.678 39.1358 202.401 41.8044L217.902 57.0015C220.701 59.7459 220.701 64.2541 217.902 66.9985L202.4 82.1956Z" fill="#F5B255"/>
<path d="M171.05 194.05C173.784 196.784 178.216 196.784 180.95 194.05L196.05 178.95C198.784 176.216 198.784 171.784 196.05 169.05L180.95 153.95C178.216 151.216 173.784 151.216 171.05 153.95L155.95 169.05C153.216 171.784 153.216 176.216 155.95 178.95L171.05 194.05Z" fill="#9DD6BF"/>
<path d="M213.148 45.3348C215.858 47.9404 220.142 47.9404 222.852 45.3348L238.752 30.0458C241.617 27.2917 241.617 22.7083 238.752 19.9542L222.852 4.66516C220.142 2.0596 215.858 2.0596 213.148 4.66516L197.248 19.9542C194.383 22.7083 194.383 27.2917 197.248 30.0458L213.148 45.3348Z" fill="#9DD6BF"/>
<path d="M64.0503 157.05C66.7839 159.784 71.2161 159.784 73.9497 157.05L89.0503 141.95C91.7839 139.216 91.7839 134.784 89.0503 132.05L73.9498 116.95C71.2161 114.216 66.7839 114.216 64.0503 116.95L48.9498 132.05C46.2161 134.784 46.2161 139.216 48.9497 141.95L64.0503 157.05Z" fill="#9DD6BF"/>
<path d="M235.05 157.05C237.784 159.784 242.216 159.784 244.95 157.05L260.05 141.95C262.784 139.216 262.784 134.784 260.05 132.05L244.95 116.95C242.216 114.216 237.784 114.216 235.05 116.95L219.95 132.05C217.216 134.784 217.216 139.216 219.95 141.95L235.05 157.05Z" fill="#F4A73D"/>
<path d="M107.05 232.05C109.784 234.784 114.216 234.784 116.95 232.05L132.05 216.95C134.784 214.216 134.784 209.784 132.05 207.05L116.95 191.95C114.216 189.216 109.784 189.216 107.05 191.95L91.9498 207.05C89.2161 209.784 89.2161 214.216 91.9497 216.95L107.05 232.05Z" fill="#AEDDCA"/>
<path d="M192.05 232.05C194.784 234.784 199.216 234.784 201.95 232.05L217.05 216.95C219.784 214.216 219.784 209.784 217.05 207.05L201.95 191.95C199.216 189.216 194.784 189.216 192.05 191.95L176.95 207.05C174.216 209.784 174.216 214.216 176.95 216.95L192.05 232.05Z" fill="#6CC19F"/>
<path d="M171.05 119.05C173.784 121.784 178.216 121.784 180.95 119.05L196.05 103.95C198.784 101.216 198.784 96.7839 196.05 94.0503L180.95 78.9498C178.216 76.2161 173.784 76.2161 171.05 78.9497L155.95 94.0503C153.216 96.7839 153.216 101.216 155.95 103.95L171.05 119.05Z" fill="#6CC19F"/>
<path d="M107.05 166.95C109.784 164.216 114.216 164.216 116.95 166.95L132.05 182.05C134.784 184.784 134.784 189.216 132.05 191.95L116.95 207.05C114.216 209.784 109.784 209.784 107.05 207.05L91.9497 191.95C89.2161 189.216 89.2161 184.784 91.9497 182.05L107.05 166.95Z" fill="#FBDEB6"/>
<path d="M214.05 194.05C216.784 196.784 221.216 196.784 223.95 194.05L239.05 178.95C241.784 176.216 241.784 171.784 239.05 169.05L223.95 153.95C221.216 151.216 216.784 151.216 214.05 153.95L198.95 169.05C196.216 171.784 196.216 176.216 198.95 178.95L214.05 194.05Z" fill="#F4A73D"/>
<path d="M234.6 82.1956C237.322 84.8642 241.678 84.8642 244.4 82.1956L259.902 66.9985C262.701 64.2541 262.701 59.7459 259.902 57.0015L244.401 41.8044C241.678 39.1358 237.322 39.1358 234.6 41.8044L219.098 57.0015C216.299 59.7459 216.299 64.2541 219.098 66.9985L234.6 82.1956Z" fill="#F4A73D"/>
<path d="M107.001 157.901C109.746 160.701 114.254 160.701 116.999 157.901L132.196 142.4C134.864 139.678 134.864 135.322 132.196 132.599L116.999 117.098C114.254 114.299 109.746 114.299 107.001 117.098L91.8044 132.599C89.1358 135.321 89.1358 139.678 91.8044 142.4L107.001 157.901Z" fill="white"/>
<path d="M234.55 91.9497C237.284 89.2161 241.716 89.2161 244.45 91.9498L260.05 107.55C262.784 110.284 262.784 114.716 260.05 117.45L244.45 133.05C241.716 135.784 237.284 135.784 234.55 133.05L218.95 117.45C216.216 114.716 216.216 110.284 218.95 107.55L234.55 91.9497Z" fill="white"/>
<path d="M95.2754 195.166C92.5062 197.843 88.0943 197.78 85.4027 195.025L69.9197 179.177C67.2082 176.401 67.2717 171.949 70.0613 169.252L85.9902 153.852C88.7594 151.175 93.1713 151.238 95.8629 153.993L111.346 169.841C114.057 172.617 113.994 177.069 111.204 179.766L95.2754 195.166Z" fill="#5CBA94"/>
<path d="M128.55 194.05C131.284 196.784 135.716 196.784 138.45 194.05L154.05 178.45C156.784 175.716 156.784 171.284 154.05 168.55L138.45 152.95C135.716 150.216 131.284 150.216 128.55 152.95L112.95 168.55C110.216 171.284 110.216 175.716 112.95 178.45L128.55 194.05Z" fill="white"/>
<path d="M138.45 128.95C135.716 126.216 131.284 126.216 128.55 128.95L112.95 144.55C110.216 147.284 110.216 151.716 112.95 154.45L128.55 170.05C131.284 172.784 135.716 172.784 138.45 170.05L154.05 154.45C156.784 151.716 156.784 147.284 154.05 144.55L138.45 128.95Z" fill="#AEDDCA"/>
<path d="M192.55 165.95C195.284 163.216 199.716 163.216 202.45 165.95L218.05 181.55C220.784 184.284 220.784 188.716 218.05 191.45L202.45 207.05C199.716 209.784 195.284 209.784 192.55 207.05L176.95 191.45C174.216 188.716 174.216 184.284 176.95 181.55L192.55 165.95Z" fill="white"/>
<path d="M192.502 91.0956C195.247 88.2975 199.753 88.2975 202.498 91.0956L218.193 107.099C220.863 109.821 220.863 114.179 218.193 116.901L202.498 132.904C199.753 135.702 195.247 135.702 192.502 132.904L176.807 116.901C174.137 114.179 174.137 109.821 176.807 107.099L192.502 91.0956Z" fill="white"/>
<path d="M63.5503 165.95C66.2839 163.216 70.7161 163.216 73.4497 165.95L89.0503 181.55C91.7839 184.284 91.7839 188.716 89.0502 191.45L73.4497 207.05C70.7161 209.784 66.2839 209.784 63.5502 207.05L47.9497 191.45C45.2161 188.716 45.2161 184.284 47.9497 181.55L63.5503 165.95Z" fill="white"/>
<path d="M170.55 204.95C173.284 202.216 177.716 202.216 180.45 204.95L196.05 220.55C198.784 223.284 198.784 227.716 196.05 230.45L180.45 246.05C177.716 248.784 173.284 248.784 170.55 246.05L154.95 230.45C152.216 227.716 152.216 223.284 154.95 220.55L170.55 204.95Z" fill="white"/>
<path d="M94.9498 202.95C92.2161 200.216 87.7839 200.216 85.0503 202.95L68.9497 219.05C66.2161 221.784 66.2161 226.216 68.9497 228.95L85.0502 245.05C87.7839 247.784 92.2161 247.784 94.9497 245.05L111.05 228.95C113.784 226.216 113.784 221.784 111.05 219.05L94.9498 202.95Z" fill="#7DC8A9"/>
<path d="M41.4109 203.388C44.1733 200.464 48.8267 200.464 51.5891 203.388L67.4607 220.194C70.0085 222.891 70.0085 227.109 67.4607 229.806L51.5891 246.612C48.8267 249.536 44.1733 249.536 41.4109 246.612L25.5393 229.806C22.9915 227.109 22.9915 222.891 25.5393 220.194L41.4109 203.388Z" fill="white"/>
<path d="M150.05 157.05C152.784 159.784 157.216 159.784 159.95 157.05L175.05 141.95C177.784 139.216 177.784 134.784 175.05 132.05L159.95 116.95C157.216 114.216 152.784 114.216 150.05 116.95L134.95 132.05C132.216 134.784 132.216 139.216 134.95 141.95L150.05 157.05Z" fill="#8DCFB4"/>
<path d="M150.05 157.05C152.784 159.784 157.216 159.784 159.95 157.05L175.05 141.95C177.784 139.216 177.784 134.784 175.05 132.05L159.95 116.95C157.216 114.216 152.784 114.216 150.05 116.95L134.95 132.05C132.216 134.784 132.216 139.216 134.95 141.95L150.05 157.05Z" fill="#F1910C"/>
<path d="M20.0111 231.931C22.7535 234.718 27.2465 234.718 29.9889 231.931L45.167 216.51C47.8485 213.786 47.8485 209.414 45.167 206.69L29.9889 191.269C27.2465 188.482 22.7535 188.482 20.0111 191.269L4.83299 206.69C2.15148 209.414 2.15148 213.786 4.83298 216.51L20.0111 231.931Z" fill="#8DCFB4"/>
<path d="M62.9542 232.752C65.7083 235.617 70.2917 235.617 73.0458 232.752L88.3348 216.852C90.9404 214.142 90.9404 209.858 88.3348 207.148L73.0458 191.248C70.2917 188.383 65.7083 188.383 62.9542 191.248L47.6652 207.148C45.0596 209.858 45.0596 214.142 47.6652 216.852L62.9542 232.752Z" fill="#8DCFB4"/>
<path d="M150.05 82.0503C152.784 84.7839 157.216 84.7839 159.95 82.0503L175.05 66.9497C177.784 64.2161 177.784 59.7839 175.05 57.0503L159.95 41.9497C157.216 39.2161 152.784 39.2161 150.05 41.9497L134.95 57.0503C132.216 59.7839 132.216 64.2161 134.95 66.9497L150.05 82.0503Z" fill="#8DCFB4"/>
<path d="M158.95 232.05C156.216 234.784 151.784 234.784 149.05 232.05L133.95 216.95C131.216 214.216 131.216 209.784 133.95 207.05L149.05 191.95C151.784 189.216 156.216 189.216 158.95 191.95L174.05 207.05C176.784 209.784 176.784 214.216 174.05 216.95L158.95 232.05Z" fill="#5CBA94"/>
<path d="M223.346 119.617C220.562 122.377 216.054 122.312 213.35 119.474L198.375 103.758C195.746 100.998 195.808 96.6414 198.515 93.9578L213.932 78.6751C216.716 75.9153 221.224 75.9796 223.928 78.8178L238.902 94.5341C241.532 97.2939 241.47 101.65 238.762 104.334L223.346 119.617Z" fill="#5CBA94"/>
<path d="M180.95 128.95C178.216 126.216 173.784 126.216 171.05 128.95L155.95 144.05C153.216 146.784 153.216 151.216 155.95 153.95L171.05 169.05C173.784 171.784 178.216 171.784 180.95 169.05L196.05 153.95C198.784 151.216 198.784 146.784 196.05 144.05L180.95 128.95Z" fill="#DEF1EA"/>
<path d="M201.95 157.05C199.216 159.784 194.784 159.784 192.05 157.05L176.95 141.95C174.216 139.216 174.216 134.784 176.95 132.05L192.05 116.95C194.784 114.216 199.216 114.216 201.95 116.95L217.05 132.05C219.784 134.784 219.784 139.216 217.05 141.95L201.95 157.05Z" fill="#AEDDCA"/>
<path d="M94.9985 129.098C92.2541 126.299 87.7459 126.299 85.0015 129.098L69.8044 144.599C67.1358 147.322 67.1358 151.678 69.8044 154.4L85.0015 169.902C87.7459 172.701 92.2541 172.701 94.9985 169.902L110.196 154.4C112.864 151.678 112.864 147.322 110.196 144.6L94.9985 129.098Z" fill="#DEF1EA"/>
<path d="M116.498 91.0956C113.753 88.2975 109.247 88.2975 106.502 91.0956L90.8072 107.099C88.1373 109.821 88.1373 114.179 90.8072 116.901L106.502 132.904C109.247 135.702 113.753 135.702 116.498 132.904L132.193 116.901C134.863 114.179 134.863 109.821 132.193 107.099L116.498 91.0956Z" fill="#DEF1EA"/>
<path d="M213.55 203.95C216.284 201.216 220.716 201.216 223.45 203.95L239.05 219.55C241.784 222.284 241.784 226.716 239.05 229.45L223.45 245.05C220.716 247.784 216.284 247.784 213.55 245.05L197.95 229.45C195.216 226.716 195.216 222.284 197.95 219.55L213.55 203.95Z" fill="#F9D39E"/>
<path d="M137.95 204.95C135.216 202.216 130.784 202.216 128.05 204.95L112.95 220.05C110.216 222.784 110.216 227.216 112.95 229.95L128.05 245.05C130.784 247.784 135.216 247.784 137.95 245.05L153.05 229.95C155.784 227.216 155.784 222.784 153.05 220.05L137.95 204.95Z" fill="#F9D39E"/>
<path d="M222.95 128.95C220.216 126.216 215.784 126.216 213.05 128.95L197.95 144.05C195.216 146.784 195.216 151.216 197.95 153.95L213.05 169.05C215.784 171.784 220.216 171.784 222.95 169.05L238.05 153.95C240.784 151.216 240.784 146.784 238.05 144.05L222.95 128.95Z" fill="#F29C24"/>
<path d="M244.95 166.95C242.216 164.216 237.784 164.216 235.05 166.95L219.95 182.05C217.216 184.784 217.216 189.216 219.95 191.95L235.05 207.05C237.784 209.784 242.216 209.784 244.95 207.05L260.05 191.95C262.784 189.216 262.784 184.784 260.05 182.05L244.95 166.95Z" fill="#F9D39E"/>
</svg>
