<svg width="279" height="261" viewBox="0 0 279 261" fill="none" xmlns="http://www.w3.org/2000/svg">
<path d="M10.4312 6.37832C13.1649 3.64465 17.597 3.64465 20.3307 6.37832L37.8122 23.8598C40.5458 26.5935 40.5458 31.0256 37.8122 33.7593L20.3307 51.2407C17.597 53.9744 13.1649 53.9744 10.4312 51.2407L-7.05025 33.7593C-9.78392 31.0256 -9.78392 26.5934 -7.05025 23.8598L10.4312 6.37832Z" fill="#7DC8A9"/>
<path d="M103.526 78.6217C106.26 81.3554 110.692 81.3553 113.426 78.6217L130.907 61.1402C133.641 58.4065 133.641 53.9744 130.907 51.2407L113.426 33.7593C110.692 31.0256 106.26 31.0256 103.526 33.7593L86.045 51.2407C83.3113 53.9744 83.3113 58.4066 86.045 61.1402L103.526 78.6217Z" fill="#7DC8A9"/>
<path d="M10.4312 242.907C13.1649 245.641 17.597 245.641 20.3307 242.907L37.8122 225.426C40.5458 222.692 40.5458 218.26 37.8122 215.526L20.3307 198.045C17.597 195.311 13.1649 195.311 10.4312 198.045L-7.05025 215.526C-9.78392 218.26 -9.78392 222.692 -7.05025 225.426L10.4312 242.907Z" fill="white"/>
<path d="M34.0281 201.434C36.7501 204.102 41.107 204.102 43.8291 201.434L61.7587 183.856C64.558 181.111 64.558 176.603 61.7587 173.859L43.8291 156.281C41.107 153.612 36.7501 153.612 34.0281 156.281L16.0985 173.859C13.2991 176.603 13.2991 181.111 16.0985 183.856L34.0281 201.434Z" fill="#7DC8A9"/>
<path d="M57.0281 170.519C59.7501 167.85 64.107 167.85 66.8291 170.519L84.7587 188.097C87.558 190.841 87.558 195.349 84.7587 198.094L66.8291 215.672C64.107 218.34 59.7501 218.34 57.0281 215.672L39.0985 198.094C36.2991 195.349 36.2991 190.841 39.0985 188.097L57.0281 170.519Z" fill="#F5B255"/>
<path d="M90.4259 47.9974C87.6922 45.2637 83.2601 45.2637 80.5264 47.9974L63.045 65.4788C60.3113 68.2125 60.3113 72.6447 63.045 75.3783L80.5264 92.8598C83.2601 95.5935 87.6922 95.5935 90.4259 92.8598L107.907 75.3783C110.641 72.6447 110.641 68.2125 107.907 65.4788L90.4259 47.9974Z" fill="#9DD6BF"/>
<path d="M44.328 210.903C41.6182 208.298 37.3342 208.298 34.6244 210.903L16.2477 228.573C13.3834 231.327 13.3834 235.911 16.2477 238.665L34.6244 256.335C37.3342 258.94 41.6182 258.94 44.328 256.335L62.7047 238.665C65.569 235.911 65.569 231.327 62.7047 228.573L44.328 210.903Z" fill="#9DD6BF"/>
<path d="M207.616 88.5212C204.883 85.7875 200.451 85.7875 197.717 88.5212L180.235 106.003C177.502 108.736 177.502 113.168 180.235 115.902L197.717 133.384C200.451 136.117 204.883 136.117 207.616 133.384L225.098 115.902C227.832 113.168 227.832 108.736 225.098 106.003L207.616 88.5212Z" fill="#9DD6BF"/>
<path d="M20.3307 88.5212C17.597 85.7875 13.1649 85.7875 10.4312 88.5212L-7.05026 106.003C-9.78393 108.736 -9.78393 113.168 -7.05025 115.902L10.4312 133.384C13.1649 136.117 17.597 136.117 20.3307 133.384L37.8122 115.902C40.5458 113.168 40.5458 108.736 37.8122 106.003L20.3307 88.5212Z" fill="#F4A73D"/>
<path d="M160.521 6.37832C157.788 3.64465 153.355 3.64465 150.622 6.37832L133.14 23.8598C130.407 26.5935 130.407 31.0256 133.14 33.7593L150.622 51.2407C153.355 53.9744 157.788 53.9744 160.521 51.2407L178.003 33.7593C180.736 31.0256 180.736 26.5934 178.003 23.8598L160.521 6.37832Z" fill="#AEDDCA"/>
<path d="M67.4259 6.37832C64.6922 3.64465 60.2601 3.64465 57.5264 6.37832L40.045 23.8598C37.3113 26.5935 37.3113 31.0256 40.045 33.7593L57.5264 51.2407C60.2601 53.9744 64.6922 53.9744 67.4259 51.2407L84.9074 33.7593C87.641 31.0256 87.641 26.5934 84.9074 23.8598L67.4259 6.37832Z" fill="#6CC19F"/>
<path d="M90.4259 130.14C87.6922 127.407 83.2601 127.407 80.5264 130.14L63.045 147.622C60.3113 150.355 60.3113 154.788 63.045 157.521L80.5264 175.003C83.2601 177.736 87.6922 177.736 90.4259 175.003L107.907 157.521C110.641 154.788 110.641 150.355 107.907 147.622L90.4259 130.14Z" fill="#6CC19F"/>
<path d="M160.521 78.6217C157.788 81.3554 153.355 81.3553 150.622 78.6217L133.14 61.1402C130.407 58.4065 130.407 53.9744 133.14 51.2407L150.622 33.7593C153.355 31.0256 157.788 31.0256 160.521 33.7593L178.003 51.2407C180.736 53.9744 180.736 58.4066 178.003 61.1402L160.521 78.6217Z" fill="#FBDEB6"/>
<path d="M43.3307 47.9974C40.597 45.2637 36.1649 45.2637 33.4312 47.9974L15.9497 65.4788C13.2161 68.2125 13.2161 72.6447 15.9497 75.3783L33.4312 92.8598C36.1649 95.5935 40.597 95.5935 43.3307 92.8598L60.8122 75.3783C63.5458 72.6447 63.5458 68.2125 60.8122 65.4788L43.3307 47.9974Z" fill="#F4A73D"/>
<path d="M20.829 170.519C18.107 167.85 13.7501 167.85 11.028 170.519L-6.90155 188.097C-9.70089 190.841 -9.70088 195.349 -6.90155 198.094L11.028 215.672C13.7501 218.34 18.107 218.34 20.829 215.672L38.7586 198.094C41.558 195.349 41.558 190.841 38.7586 188.097L20.829 170.519Z" fill="#F4A73D"/>
<path d="M160.57 87.5747C157.825 84.7753 153.317 84.7753 150.573 87.5747L132.995 105.504C130.326 108.226 130.326 112.583 132.995 115.305L150.573 133.235C153.317 136.034 157.826 136.034 160.57 133.235L178.148 115.305C180.817 112.583 180.817 108.226 178.148 105.504L160.57 87.5747Z" fill="white"/>
<path d="M20.8783 160.765C18.1446 163.498 13.7125 163.498 10.9788 160.765L-7.05028 142.735C-9.78395 140.002 -9.78395 135.57 -7.05028 132.836L10.9788 114.807C13.7125 112.073 18.1446 112.073 20.8783 114.807L38.9074 132.836C41.641 135.57 41.641 140.002 38.9074 142.735L20.8783 160.765Z" fill="white"/>
<path d="M174.366 46.7857C177.135 44.1084 181.547 44.1713 184.238 46.9265L202.128 65.2383C204.839 68.0139 204.776 72.4654 201.986 75.1625L183.582 92.9564C180.812 95.6337 176.4 95.5708 173.709 92.8156L155.82 74.5038C153.108 71.7282 153.172 67.2766 155.961 64.5796L174.366 46.7857Z" fill="#5CBA94"/>
<path d="M136.974 47.9974C134.24 45.2637 129.808 45.2637 127.074 47.9974L109.045 66.0264C106.311 68.7601 106.311 73.1923 109.045 75.9259L127.074 93.955C129.808 96.6887 134.24 96.6887 136.974 93.955L155.003 75.9259C157.736 73.1923 157.736 68.7601 155.003 66.0264L136.974 47.9974Z" fill="white"/>
<path d="M127.074 120.241C129.808 122.974 134.24 122.974 136.974 120.241L155.003 102.212C157.736 99.478 157.736 95.0458 155.003 92.3122L136.974 74.2831C134.24 71.5494 129.808 71.5494 127.074 74.2831L109.045 92.3122C106.311 95.0458 106.311 99.478 109.045 102.212L127.074 120.241Z" fill="#AEDDCA"/>
<path d="M66.8783 79.7169C64.1446 82.4506 59.7125 82.4506 56.9788 79.7169L38.9497 61.6878C36.2161 58.9542 36.216 54.522 38.9497 51.7883L56.9788 33.7593C59.7125 31.0256 64.1446 31.0256 66.8783 33.7593L84.9074 51.7883C87.641 54.522 87.641 58.9542 84.9074 61.6878L66.8783 79.7169Z" fill="white"/>
<path d="M66.9261 161.714C64.1819 164.512 59.6752 164.512 56.931 161.714L38.8072 143.235C36.1373 140.513 36.1373 136.154 38.8072 133.432L56.931 114.953C59.6752 112.155 64.1819 112.155 66.9261 114.953L85.0499 133.432C87.7198 136.154 87.7198 140.513 85.0499 143.235L66.9261 161.714Z" fill="white"/>
<path d="M208.164 79.7169C205.43 82.4506 200.998 82.4506 198.265 79.7169L180.235 61.6878C177.502 58.9542 177.502 54.522 180.235 51.7883L198.264 33.7593C200.998 31.0256 205.43 31.0256 208.164 33.7593L226.193 51.7883C228.927 54.522 228.927 58.9542 226.193 61.6878L208.164 79.7169Z" fill="white"/>
<path d="M90.9736 37.0026C88.2399 39.7363 83.8077 39.7363 81.0741 37.0026L63.045 18.9736C60.3113 16.2399 60.3113 11.8077 63.045 9.07406L81.0741 -8.95502C83.8077 -11.6887 88.2399 -11.6887 90.9736 -8.95502L109.003 9.07405C111.736 11.8077 111.736 16.2399 109.003 18.9736L90.9736 37.0026Z" fill="white"/>
<path d="M174.717 39.1931C177.451 41.9268 181.883 41.9268 184.616 39.1931L203.193 20.6164C205.927 17.8827 205.927 13.4506 203.193 10.7169L184.616 -7.85978C181.883 -10.5934 177.451 -10.5935 174.717 -7.85978L156.14 10.7169C153.407 13.4506 153.407 17.8827 156.14 20.6164L174.717 39.1931Z" fill="#7DC8A9"/>
<path d="M232.399 38.7544C229.636 41.6792 224.983 41.6792 222.22 38.7544L203.92 19.3778C201.372 16.68 201.372 12.4628 203.92 9.76506L222.22 -9.61155C224.983 -12.5364 229.636 -12.5364 232.399 -9.61155L250.699 9.76505C253.247 12.4628 253.247 16.68 250.699 19.3778L232.399 38.7544Z" fill="white"/>
<path d="M113.426 88.5212C110.692 85.7875 106.26 85.7875 103.526 88.5212L86.045 106.003C83.3113 108.736 83.3113 113.168 86.045 115.902L103.526 133.384C106.26 136.117 110.692 136.117 113.426 133.384L130.907 115.902C133.641 113.168 133.641 108.736 130.907 106.003L113.426 88.5212Z" fill="#8DCFB4"/>
<path d="M113.426 88.5212C110.692 85.7875 106.26 85.7875 103.526 88.5212L86.045 106.003C83.3113 108.736 83.3113 113.168 86.045 115.902L103.526 133.384C106.26 136.117 110.692 136.117 113.426 133.384L130.907 115.902C133.641 113.168 133.641 108.736 130.907 106.003L113.426 88.5212Z" fill="#F1910C"/>
<path d="M255.846 6.49726C253.104 3.71101 248.611 3.71102 245.868 6.49727L228.309 24.3373C225.628 27.0617 225.628 31.4335 228.309 34.1579L245.868 51.998C248.611 54.7842 253.104 54.7842 255.846 51.998L273.405 34.1579C276.087 31.4335 276.087 27.0617 273.405 24.3373L255.846 6.49726Z" fill="#8DCFB4"/>
<path d="M208.808 5.58102C206.054 2.7167 201.47 2.71669 198.716 5.58101L181.046 23.9578C178.441 26.6676 178.441 30.9515 181.046 33.6613L198.716 52.0381C201.47 54.9024 206.054 54.9024 208.808 52.0381L226.478 33.6613C229.083 30.9515 229.083 26.6676 226.478 23.9578L208.808 5.58102Z" fill="#8DCFB4"/>
<path d="M113.426 170.664C110.692 167.93 106.26 167.93 103.526 170.664L86.045 188.145C83.3114 190.879 83.3114 195.311 86.045 198.045L103.526 215.526C106.26 218.26 110.692 218.26 113.426 215.526L130.907 198.045C133.641 195.311 133.641 190.879 130.907 188.145L113.426 170.664Z" fill="#8DCFB4"/>
<path d="M104.622 6.37832C107.355 3.64465 111.788 3.64465 114.521 6.37832L132.003 23.8598C134.736 26.5935 134.736 31.0256 132.003 33.7593L114.521 51.2407C111.788 53.9744 107.355 53.9744 104.622 51.2407L87.1402 33.7593C84.4066 31.0256 84.4066 26.5934 87.1402 23.8598L104.622 6.37832Z" fill="#5CBA94"/>
<path d="M34.1044 129.513C36.8885 126.753 41.3961 126.817 44.1004 129.655L61.4208 147.834C64.0503 150.594 63.9882 154.95 61.281 157.634L43.4489 175.311C40.6648 178.071 36.1571 178.006 33.4529 175.168L16.1325 156.99C13.5029 154.23 13.5651 149.873 16.2723 147.19L34.1044 129.513Z" fill="#5CBA94"/>
<path d="M80.5264 120.241C83.2601 122.974 87.6922 122.974 90.4259 120.241L107.907 102.759C110.641 100.026 110.641 95.5934 107.907 92.8598L90.4259 75.3783C87.6922 72.6446 83.2601 72.6446 80.5264 75.3783L63.045 92.8598C60.3113 95.5934 60.3113 100.026 63.045 102.759L80.5264 120.241Z" fill="#DEF1EA"/>
<path d="M57.5264 88.5212C60.2601 85.7875 64.6922 85.7875 67.4259 88.5212L84.9074 106.003C87.641 108.736 87.641 113.168 84.9074 115.902L67.4259 133.384C64.6922 136.117 60.2601 136.117 57.5264 133.384L40.045 115.902C37.3113 113.168 37.3113 108.736 40.045 106.003L57.5264 88.5212Z" fill="#AEDDCA"/>
<path d="M174.668 120.092C177.413 122.891 181.921 122.891 184.665 120.092L202.243 102.162C204.912 99.4404 204.912 95.0834 202.243 92.3614L184.665 74.4318C181.921 71.6325 177.413 71.6325 174.668 74.4318L157.09 92.3614C154.421 95.0834 154.421 99.4404 157.09 102.162L174.668 120.092Z" fill="#DEF1EA"/>
<path d="M151.122 161.714C153.866 164.512 158.372 164.512 161.117 161.714L179.24 143.235C181.91 140.513 181.91 136.154 179.24 133.432L161.117 114.953C158.372 112.155 153.866 112.155 151.121 114.953L132.998 133.432C130.328 136.154 130.328 140.513 132.998 143.235L151.122 161.714Z" fill="#DEF1EA"/>
<path d="M43.8783 38.0979C41.1446 40.8315 36.7125 40.8315 33.9788 38.0979L15.9497 20.0688C13.2161 17.3351 13.216 12.903 15.9497 10.1693L33.9788 -7.85977C36.7125 -10.5934 41.1446 -10.5934 43.8783 -7.85977L61.9074 10.1693C64.641 12.903 64.641 17.3351 61.9074 20.0688L43.8783 38.0979Z" fill="#F9D39E"/>
<path d="M127.622 37.0026C130.355 39.7363 134.788 39.7363 137.521 37.0026L155.003 19.5212C157.736 16.7875 157.736 12.3553 155.003 9.62168L137.521 -7.85978C134.788 -10.5935 130.355 -10.5935 127.622 -7.85978L110.14 9.62168C107.407 12.3553 107.407 16.7875 110.14 19.5212L127.622 37.0026Z" fill="#F9D39E"/>
<path d="M34.5264 120.241C37.2601 122.974 41.6922 122.974 44.4259 120.241L61.9074 102.759C64.641 100.026 64.641 95.5934 61.9074 92.8598L44.4259 75.3783C41.6922 72.6446 37.2601 72.6446 34.5264 75.3783L17.045 92.8598C14.3113 95.5934 14.3113 100.026 17.045 102.759L34.5264 120.241Z" fill="#F29C24"/>
<path d="M10.4312 78.6217C13.1649 81.3554 17.597 81.3553 20.3307 78.6217L37.8122 61.1402C40.5458 58.4065 40.5458 53.9744 37.8122 51.2407L20.3307 33.7593C17.597 31.0256 13.1649 31.0256 10.4312 33.7593L-7.05025 51.2407C-9.78392 53.9744 -9.78392 58.4066 -7.05025 61.1402L10.4312 78.6217Z" fill="#F9D39E"/>
</svg>
