<svg width="24" height="24" viewBox="0 0 24 24" fill="none" xmlns="http://www.w3.org/2000/svg">
<path d="M12.0001 22C14.3136 22.0003 16.5557 21.1983 18.3443 19.7307C20.1329 18.2632 21.3573 16.2209 21.8089 13.9518C22.2605 11.6827 21.9112 9.32718 20.8207 7.28669C19.7303 5.24619 17.966 3.64696 15.8285 2.76145C13.6911 1.87594 11.3128 1.75896 9.09881 2.43045C6.8848 3.10195 4.97213 4.52036 3.6867 6.444C2.40126 8.36764 1.82265 10.6775 2.04937 12.98C2.27609 15.2824 3.29416 17.435 4.93011 19.071C6.80644 20.9443 9.34868 21.9975 12.0001 22V22Z" stroke="#64748B" stroke-width="1.5" stroke-miterlimit="10" stroke-linecap="round"/>
<path d="M9.90004 9.35004C9.6613 9.59021 9.50686 9.90132 9.45998 10.2367C9.4131 10.5721 9.4763 10.9136 9.64003 11.21C10.3409 12.51 11.3992 13.5822 12.69 14.3C13.0189 14.4814 13.3989 14.5483 13.77 14.49C14.1464 14.4378 14.4946 14.2619 14.76 13.99L14.9101 13.84C15.0535 13.697 15.2233 13.5833 15.4101 13.505C15.6008 13.4285 15.8045 13.3895 16.01 13.39C16.4215 13.3903 16.8164 13.5519 17.11 13.84L17.5401 14.28C17.8283 14.5736 17.9898 14.9686 17.9898 15.38C17.9898 15.7915 17.8283 16.1865 17.5401 16.48L16.48 17.54C16.3206 17.698 16.1299 17.8206 15.9201 17.9C15.7094 17.9787 15.4846 18.0128 15.26 18C12.8528 17.8512 10.583 16.8278 8.87758 15.1224C7.17219 13.417 6.14883 11.1472 6.00002 8.74002C5.97962 8.51605 6.01036 8.29036 6.08998 8.08002C6.16877 7.86986 6.29149 7.67895 6.44997 7.52002L7.51003 6.46003C7.65141 6.31336 7.82166 6.19759 8.01003 6.12003C8.20034 6.04146 8.40411 6.00071 8.61 6.00003C8.8158 5.99866 9.01977 6.03844 9.20998 6.11704C9.3987 6.19533 9.569 6.31214 9.70998 6.46003L10.15 6.89005C10.4383 7.18362 10.5997 7.57859 10.5997 7.99002C10.5997 8.40146 10.4383 8.79646 10.15 9.09003L9.90004 9.35004Z" stroke="#64748B" stroke-width="1.5" stroke-miterlimit="10" stroke-linecap="round"/>
</svg>
