<svg width="355" height="130" viewBox="0 0 355 130" fill="none" xmlns="http://www.w3.org/2000/svg">
<rect opacity="0.7" x="7.06888" width="343" height="110" rx="10" transform="rotate(3.21 7.06888 0)" fill="url(#paint0_diamond_260_2361)"/>
<g filter="url(#filter0_d_260_2361)">
<rect x="6" y="12.5248" width="343" height="100" rx="10" fill="#FFF59D"/>
</g>
<g clip-path="url(#clip0_260_2361)">
<path d="M1.36999 22.1398C10.5738 22.1398 18.035 14.6786 18.035 5.47482C18.035 -3.72901 10.5738 -11.1902 1.36999 -11.1902C-7.83384 -11.1902 -15.295 -3.72901 -15.295 5.47482C-15.295 14.6786 -7.83384 22.1398 1.36999 22.1398Z" stroke="#F9A825" stroke-opacity="0.6" stroke-width="2"/>
<path d="M58.29 80.7798C67.4938 80.7798 74.955 73.3186 74.955 64.1148C74.955 54.911 67.4938 47.4498 58.29 47.4498C49.0862 47.4498 41.625 54.911 41.625 64.1148C41.625 73.3186 49.0862 80.7798 58.29 80.7798Z" stroke="#F9A825" stroke-opacity="0.6" stroke-width="2"/>
<path d="M234.04 42.5298C249.037 42.5298 261.195 30.3721 261.195 15.3748C261.195 0.377519 249.037 -11.7802 234.04 -11.7802C219.043 -11.7802 206.885 0.377519 206.885 15.3748C206.885 30.3721 219.043 42.5298 234.04 42.5298Z" stroke="#F9A825" stroke-opacity="0.6" stroke-width="2"/>
<path d="M37.18 56.5898C50.4321 56.5898 61.175 45.8469 61.175 32.5948C61.175 19.3427 50.4321 8.59981 37.18 8.59981C23.9279 8.59981 13.185 19.3427 13.185 32.5948C13.185 45.8469 23.9279 56.5898 37.18 56.5898Z" stroke="#F9A825" stroke-opacity="0.6" stroke-width="2"/>
<path d="M88.68 46.7098C93.3495 46.7098 97.135 42.9244 97.135 38.2548C97.135 33.5852 93.3495 29.7998 88.68 29.7998C84.0104 29.7998 80.225 33.5852 80.225 38.2548C80.225 42.9244 84.0104 46.7098 88.68 46.7098Z" stroke="#F9A825" stroke-opacity="0.6" stroke-width="2"/>
<path d="M100.21 139.43C116.837 139.43 130.315 125.951 130.315 109.325C130.315 92.6983 116.837 79.2198 100.21 79.2198C83.5834 79.2198 70.105 92.6983 70.105 109.325C70.105 125.951 83.5834 139.43 100.21 139.43Z" stroke="#F9A825" stroke-opacity="0.6" stroke-width="2"/>
<path d="M13.44 70.3748C25.3307 70.3748 34.97 60.7355 34.97 48.8448C34.97 36.9541 25.3307 27.3148 13.44 27.3148C1.54928 27.3148 -8.09003 36.9541 -8.09003 48.8448C-8.09003 60.7355 1.54928 70.3748 13.44 70.3748Z" stroke="#F9A825" stroke-opacity="0.6" stroke-width="2"/>
</g>
<g filter="url(#filter1_f_260_2361)">
<rect x="177" y="53.5248" width="160" height="44" rx="12" fill="#F8FAFC"/>
<rect x="177.5" y="54.0248" width="159" height="43" rx="11.5" stroke="#F9A825"/>
</g>
<path d="M205.289 71.5111L206.178 70.6127C206.393 70.4044 206.588 70.3881 206.764 70.5639L207.711 71.5111C207.906 71.7065 207.9 71.9115 207.691 72.1264L206.793 73.015C206.598 73.2104 206.402 73.2104 206.207 73.015L205.26 72.0678C205.097 71.8855 205.107 71.6999 205.289 71.5111ZM201.9 71.5111L202.789 70.6127C203.004 70.4044 203.199 70.3881 203.375 70.5639L204.322 71.5111C204.518 71.7065 204.511 71.9115 204.303 72.1264L203.404 73.015C203.209 73.2104 203.014 73.2104 202.818 73.015L201.871 72.0678C201.695 71.892 201.705 71.7065 201.9 71.5111ZM200.768 78.767H208.717C210.52 78.767 211.419 78.0509 211.412 76.6186V74.3529H213.141V76.6381C213.141 78.0574 213.906 78.767 215.436 78.767H215.602C215.751 78.767 215.826 79.0372 215.826 79.5775V79.685C215.826 80.2449 215.751 80.5248 215.602 80.5248H215.416C213.99 80.5248 212.978 80.0365 212.379 79.06L212.359 79.0307L212.34 79.06C211.806 80.0365 210.592 80.5248 208.697 80.5248H200.738C197.926 80.5248 196.52 79.086 196.52 76.2084V74.2455H198.229V76.1986C198.229 77.9109 199.075 78.767 200.768 78.767ZM215.504 80.5248C215.159 80.5248 214.986 80.2449 214.986 79.685V79.5775C214.986 79.3041 215.029 79.099 215.113 78.9623C215.204 78.8321 215.335 78.767 215.504 78.767H216.5C217.763 78.767 218.395 78.1453 218.395 76.9018V67.4975H220.025V76.9408C220.025 79.3301 218.847 80.5248 216.49 80.5248H215.504ZM229.049 77.058V80.5443C229.049 83.5326 227.2 85.0235 223.502 85.017H222.779V83.269H223.443C226.067 83.2755 227.382 82.3673 227.389 80.5443V80.5248H227.369H225.807C223.534 80.5248 222.402 79.4115 222.408 77.185C222.415 75.9871 222.701 75.0691 223.268 74.4311C223.86 73.7996 224.703 73.4708 225.797 73.4447C226.767 73.4447 227.542 73.7247 228.121 74.2846C228.74 74.8835 229.049 75.808 229.049 77.058ZM224.039 77.1752C224.039 78.2299 224.625 78.7572 225.797 78.7572H227.379H227.398V78.7377L227.389 77.1166C227.389 75.782 226.845 75.1179 225.758 75.1244C224.612 75.1244 224.039 75.808 224.039 77.1752ZM234.547 80.5248H230.992V78.767H234.557C236.262 78.767 237.118 78.3536 237.125 77.5268C237.125 77.0841 236.793 76.4786 236.129 75.7104L233.453 72.6244L234.635 71.2963L237.545 74.6947C238.417 75.7104 238.85 76.6934 238.844 77.644C238.837 79.5645 237.405 80.5248 234.547 80.5248ZM251.002 73.7963L251.891 72.9076C252.118 72.6863 252.327 72.67 252.516 72.8588L253.473 73.8061C253.674 74.0144 253.665 74.2325 253.443 74.4604L252.555 75.349C252.34 75.5574 252.128 75.5606 251.92 75.3588L250.973 74.4018C250.784 74.213 250.794 74.0111 251.002 73.7963ZM258.297 80.017C258.225 83.2917 256.34 84.9291 252.643 84.9291H252.105C248.258 84.9291 246.334 83.1322 246.334 79.5385V76.2084H248.062V79.5287C248.062 81.9506 249.417 83.1615 252.125 83.1615H252.623C255.338 83.1615 256.695 82.1296 256.695 80.0658V74.3627H258.414L258.297 80.017ZM260.973 67.4975H262.594V80.515H260.973V67.4975ZM271.646 77.058V78.7475V78.767H271.666H273.16C273.31 78.767 273.385 79.0372 273.385 79.5775V79.685C273.385 79.9649 273.365 80.1765 273.326 80.3197C273.287 80.4565 273.232 80.5248 273.16 80.5248H271.676H271.656V80.5443C271.604 83.5326 269.752 85.0235 266.1 85.017H265.377V83.269H266.041C268.665 83.2755 269.98 82.3673 269.986 80.5443V80.5248H269.967H268.404C266.132 80.5248 264.999 79.4115 265.006 77.185C265.012 75.9871 265.299 75.0691 265.865 74.4311C266.445 73.78 267.288 73.4512 268.395 73.4447C269.365 73.4447 270.139 73.7247 270.719 74.2846C271.025 74.5841 271.253 74.9649 271.402 75.4272C271.559 75.8894 271.64 76.433 271.646 77.058ZM266.637 77.1752C266.637 78.2364 267.223 78.767 268.395 78.767H269.977H269.996V78.7475L269.986 77.1166C269.986 75.782 269.443 75.1179 268.355 75.1244C267.783 75.1244 267.353 75.2969 267.066 75.642C266.78 75.9805 266.637 76.4916 266.637 77.1752ZM277.32 69.0111L278.209 68.1225C278.437 67.9011 278.645 67.8848 278.834 68.0736L279.791 69.0209C279.993 69.2292 279.983 69.4473 279.762 69.6752L278.873 70.5639C278.658 70.7722 278.447 70.7755 278.238 70.5736L277.291 69.6166C277.102 69.4278 277.112 69.226 277.32 69.0111ZM281.832 78.7572L280.689 79.3725C279.283 80.1407 277.747 80.5248 276.08 80.5248H273.082C272.737 80.5248 272.564 80.2449 272.564 79.685V79.5775C272.564 79.3041 272.607 79.099 272.691 78.9623C272.783 78.8321 272.913 78.767 273.082 78.767H276.061C277.421 78.767 278.678 78.4675 279.83 77.8686L282.545 76.4525L282.574 76.433L282.545 76.4135L280.689 75.3393C278.945 74.3301 277.35 74.3985 275.904 75.5443L275.201 76.101L274.078 74.8412L274.674 74.3432C276.725 72.6114 278.857 72.3868 281.07 73.6693L282.916 74.7338C283.561 75.1049 284.146 75.349 284.674 75.4662V77.2143L283.17 78.0248L283.15 78.0346L283.17 78.0541C283.632 78.5294 284.234 78.767 284.977 78.767H286.158C286.308 78.767 286.383 79.0372 286.383 79.5775V79.685C286.383 79.9649 286.363 80.1765 286.324 80.3197C286.285 80.4565 286.23 80.5248 286.158 80.5248H285.006C283.587 80.5248 282.538 79.9356 281.861 78.7572L281.852 78.7475L281.832 78.7572ZM295.621 70.6322L296.52 69.7338C296.715 69.5385 296.894 69.5222 297.057 69.685L298.004 70.6322C298.186 70.8145 298.18 71.0033 297.984 71.1986L297.086 72.0971C296.904 72.2794 296.721 72.2794 296.539 72.0971L295.592 71.1498C295.429 70.9871 295.439 70.8145 295.621 70.6322ZM292.232 70.6322L293.131 69.7338C293.326 69.5385 293.505 69.5222 293.668 69.685L294.615 70.6322C294.798 70.8145 294.791 71.0033 294.596 71.1986L293.697 72.0971C293.515 72.2794 293.333 72.2794 293.15 72.0971L292.203 71.1498C292.047 70.9871 292.057 70.8145 292.232 70.6322ZM293.922 67.8393L294.82 66.9408C295.022 66.7455 295.201 66.7292 295.357 66.892L296.305 67.8393C296.487 68.0216 296.48 68.2104 296.285 68.4057L295.387 69.3041C295.204 69.4864 295.025 69.4864 294.85 69.3041L293.893 68.3568C293.73 68.1941 293.74 68.0216 293.922 67.8393ZM301.217 76.8529C301.223 78.129 301.949 78.767 303.395 78.767H303.668C303.818 78.767 303.893 79.0372 303.893 79.5775V79.685C303.893 79.8282 303.886 79.9551 303.873 80.0658C303.867 80.17 303.854 80.2579 303.834 80.3295C303.814 80.3946 303.788 80.4434 303.756 80.476C303.73 80.5085 303.701 80.5248 303.668 80.5248H303.473C302.047 80.5248 301.044 80.0821 300.465 79.1967L300.445 79.1674L300.436 79.1967C300.038 80.0821 299.202 80.5248 297.926 80.5248C297.34 80.5248 296.842 80.4141 296.432 80.1928C296.028 79.9714 295.709 79.6361 295.475 79.1869L295.465 79.1576L295.445 79.1869C294.977 80.0788 294.088 80.5248 292.779 80.5248C291.536 80.5248 290.676 80.0723 290.201 79.1674L290.191 79.1381L290.172 79.1674C289.625 80.0723 288.564 80.5248 286.988 80.5248H286.07C285.725 80.5248 285.553 80.2449 285.553 79.685V79.5775C285.553 79.3041 285.598 79.1023 285.689 78.9721C285.774 78.8354 285.901 78.767 286.07 78.767H286.998C288.508 78.767 289.264 78.1355 289.264 76.8725V74.3334H290.982L290.992 76.892C290.999 78.1355 291.598 78.7605 292.789 78.767C293.954 78.7735 294.537 78.142 294.537 76.8725V74.3334H296.256L296.266 76.892C296.272 78.1355 296.829 78.7605 297.936 78.767C298.99 78.7735 299.518 78.1453 299.518 76.8822V74.3334H301.207L301.217 76.8529ZM307.145 83.5033L308.033 82.6049C308.248 82.3966 308.443 82.3803 308.619 82.5561L309.566 83.5033C309.762 83.6986 309.755 83.9037 309.547 84.1186L308.648 85.0072C308.453 85.2025 308.258 85.2025 308.062 85.0072L307.115 84.06C306.952 83.8777 306.962 83.6921 307.145 83.5033ZM303.756 83.5033L304.645 82.6049C304.859 82.3966 305.055 82.3803 305.23 82.5561L306.178 83.5033C306.373 83.6986 306.367 83.9037 306.158 84.1186L305.26 85.0072C305.064 85.2025 304.869 85.2025 304.674 85.0072L303.727 84.06C303.551 83.8842 303.561 83.6986 303.756 83.5033ZM312.037 80.5248H311.832C310.393 80.5248 309.391 80.0821 308.824 79.1967C308.154 80.0821 306.992 80.5248 305.338 80.5248H303.57C303.225 80.5248 303.053 80.2449 303.053 79.685V79.5775C303.053 79.3041 303.098 79.1023 303.189 78.9721C303.274 78.8354 303.401 78.767 303.57 78.767H305.387C307.053 78.767 307.887 78.1322 307.887 76.8627V74.3432H309.605V76.8627C309.605 78.1322 310.344 78.767 311.822 78.767H312.037C312.187 78.767 312.262 79.0372 312.262 79.5775V79.685C312.262 80.2449 312.187 80.5248 312.037 80.5248ZM315.455 83.6498C315.273 83.4675 315.263 83.295 315.426 83.1322L316.373 82.185C316.555 82.0027 316.738 82.0059 316.92 82.1947L317.818 83.0834C318.014 83.2787 318.02 83.4675 317.838 83.6498L316.891 84.5971C316.734 84.7598 316.555 84.7436 316.354 84.5482L315.455 83.6498ZM312.066 83.6498C311.884 83.4675 311.874 83.295 312.037 83.1322L312.984 82.185C313.167 82.0027 313.349 82.0059 313.531 82.1947L314.43 83.0834C314.625 83.2787 314.631 83.4675 314.449 83.6498L313.502 84.5971C313.339 84.7598 313.16 84.7436 312.965 84.5482L312.066 83.6498ZM313.756 86.4428C313.574 86.2605 313.564 86.088 313.727 85.9252L314.684 84.9779C314.859 84.7956 315.038 84.7989 315.221 84.9877L316.119 85.8764C316.314 86.0717 316.321 86.2605 316.139 86.4428L315.191 87.39C315.029 87.5528 314.85 87.5365 314.654 87.3412L313.756 86.4428ZM311.949 80.5248C311.604 80.5248 311.432 80.2449 311.432 79.685V79.5775C311.432 79.0372 311.604 78.767 311.949 78.767H314.225C315.54 78.767 316.197 78.1387 316.197 76.8822V74.0111H317.896V76.892C317.896 79.3139 316.676 80.5248 314.234 80.5248H311.949Z" fill="#F9A825"/>
<defs>
<filter id="filter0_d_260_2361" x="0" y="10.5248" width="355" height="112" filterUnits="userSpaceOnUse" color-interpolation-filters="sRGB">
<feFlood flood-opacity="0" result="BackgroundImageFix"/>
<feColorMatrix in="SourceAlpha" type="matrix" values="0 0 0 0 0 0 0 0 0 0 0 0 0 0 0 0 0 0 127 0" result="hardAlpha"/>
<feOffset dy="4"/>
<feGaussianBlur stdDeviation="3"/>
<feColorMatrix type="matrix" values="0 0 0 0 0 0 0 0 0 0 0 0 0 0 0 0 0 0 0.08 0"/>
<feBlend mode="normal" in2="BackgroundImageFix" result="effect1_dropShadow_260_2361"/>
<feBlend mode="normal" in="SourceGraphic" in2="effect1_dropShadow_260_2361" result="shape"/>
</filter>
<filter id="filter1_f_260_2361" x="176.5" y="53.0248" width="161" height="45" filterUnits="userSpaceOnUse" color-interpolation-filters="sRGB">
<feFlood flood-opacity="0" result="BackgroundImageFix"/>
<feBlend mode="normal" in="SourceGraphic" in2="BackgroundImageFix" result="shape"/>
<feGaussianBlur stdDeviation="0.25" result="effect1_foregroundBlur_260_2361"/>
</filter>
<radialGradient id="paint0_diamond_260_2361" cx="0" cy="0" r="1" gradientUnits="userSpaceOnUse" gradientTransform="translate(178.569 55) rotate(89.9134) scale(330.847 1031.64)">
<stop stop-color="#FFFDE7"/>
<stop offset="1" stop-color="#FFF59D"/>
</radialGradient>
<clipPath id="clip0_260_2361">
<rect width="343" height="100" fill="white" transform="translate(6 12.5248)"/>
</clipPath>
</defs>
</svg>
