<svg width="355" height="133" viewBox="0 0 355 133" fill="none" xmlns="http://www.w3.org/2000/svg">
<rect opacity="0.7" x="2.54605" y="22.7054" width="343" height="110" rx="10" transform="rotate(-3.79556 2.54605 22.7054)" fill="#D2ECEB"/>
<g filter="url(#filter0_d_258_2345)">
<rect x="6" y="12.7151" width="343" height="103" rx="10" fill="url(#paint0_diamond_258_2345)"/>
</g>
<g filter="url(#filter1_d_258_2345)">
<rect x="6" y="15.67" width="343" height="100" rx="10" fill="url(#paint1_diamond_258_2345)"/>
</g>
<g opacity="0.2">
<mask id="mask0_258_2345" style="mask-type:alpha" maskUnits="userSpaceOnUse" x="6" y="12" width="343" height="104">
<rect x="6" y="12.7151" width="343" height="103" rx="10" fill="url(#paint2_linear_258_2345)"/>
</mask>
<g mask="url(#mask0_258_2345)">
<g opacity="0.5">
<mask id="mask1_258_2345" style="mask-type:alpha" maskUnits="userSpaceOnUse" x="58" y="97" width="30" height="13">
<path d="M77.1481 109.14L87.1859 97.515L58.316 99.1371L77.1481 109.14Z" fill="url(#paint3_radial_258_2345)"/>
</mask>
<g mask="url(#mask1_258_2345)">
<path d="M77.1481 109.14L87.1859 97.515L58.316 99.1371L77.1481 109.14Z" fill="#00695C"/>
</g>
<mask id="mask2_258_2345" style="mask-type:alpha" maskUnits="userSpaceOnUse" x="152" y="29" width="20" height="10">
<path d="M154.342 36.5941L167.755 38.3064L171.22 30.3759L160.027 29.3846L152.921 31.6376C157.362 32.9893 157.806 34.972 154.342 36.5941Z" fill="url(#paint4_radial_258_2345)"/>
</mask>
<g mask="url(#mask2_258_2345)">
<path d="M154.342 36.5941L167.755 38.3064L171.22 30.3759L160.027 29.3846L152.921 31.6376C157.362 32.9893 157.806 34.972 154.342 36.5941Z" fill="url(#paint5_radial_258_2345)"/>
</g>
<mask id="mask3_258_2345" style="mask-type:alpha" maskUnits="userSpaceOnUse" x="131" y="31" width="22" height="7">
<path d="M149.19 36.5941C144.837 37.7657 138.086 37.7657 134.177 36.5941C130.357 35.4226 130.979 33.5301 135.332 32.3585C139.596 31.2771 146.08 31.2771 149.9 32.3585C153.72 33.5301 153.453 35.4226 149.19 36.5941Z" fill="url(#paint6_radial_258_2345)"/>
</mask>
<g mask="url(#mask3_258_2345)">
<path d="M149.19 36.5941C144.837 37.7657 138.086 37.7657 134.177 36.5941C130.357 35.4226 130.979 33.5301 135.332 32.3585C139.596 31.2771 146.08 31.2771 149.9 32.3585C153.72 33.5301 153.453 35.4226 149.19 36.5941Z" fill="#00695C"/>
</g>
<mask id="mask4_258_2345" style="mask-type:alpha" maskUnits="userSpaceOnUse" x="124" y="63" width="78" height="40">
<path d="M138.441 94.1806C143.149 96.2533 144.57 98.6866 143.771 101.48L168.199 102.291L201.156 88.0524L200.001 65.6126L146.436 63.2695L124.228 81.0231L124.317 91.5671C129.913 91.477 134.355 92.3782 138.441 94.1806Z" fill="url(#paint7_radial_258_2345)"/>
</mask>
<g mask="url(#mask4_258_2345)">
<path d="M138.441 94.1806C143.149 96.2533 144.57 98.6866 143.771 101.48L168.199 102.291L201.156 88.0524L200.001 65.6126L146.436 63.2695L124.228 81.0231L124.317 91.5671C129.913 91.477 134.355 92.3782 138.441 94.1806Z" fill="#00695C"/>
</g>
<mask id="mask5_258_2345" style="mask-type:alpha" maskUnits="userSpaceOnUse" x="80" y="98" width="27" height="24">
<path d="M100.333 108.78C94.8253 105.986 93.937 102.291 97.0461 98.9569L92.8711 98.236L80.6125 110.943L99.9775 121.216L106.995 111.033C104.508 110.492 102.287 109.771 100.333 108.78Z" fill="url(#paint8_radial_258_2345)"/>
</mask>
<g mask="url(#mask5_258_2345)">
<path d="M100.333 108.78C94.8253 105.986 93.937 102.291 97.0461 98.9569L92.8711 98.236L80.6125 110.943L99.9775 121.216L106.995 111.033C104.508 110.492 102.287 109.771 100.333 108.78Z" fill="#00695C"/>
</g>
<mask id="mask6_258_2345" style="mask-type:alpha" maskUnits="userSpaceOnUse" x="101" y="93" width="39" height="17">
<path d="M132.934 106.978C124.584 110.312 111.97 110.312 105.307 106.978C98.8227 103.823 100.511 98.7767 108.861 95.8027C116.944 92.9189 128.492 92.9189 135.066 95.8027C141.817 98.7767 141.106 103.733 132.934 106.978Z" fill="url(#paint9_radial_258_2345)"/>
</mask>
<g mask="url(#mask6_258_2345)">
<path d="M132.934 106.978C124.584 110.312 111.97 110.312 105.307 106.978C98.8227 103.823 100.511 98.7767 108.861 95.8027C116.944 92.9189 128.492 92.9189 135.066 95.8027C141.817 98.7767 141.106 103.733 132.934 106.978Z" fill="#00695C"/>
</g>
<mask id="mask7_258_2345" style="mask-type:alpha" maskUnits="userSpaceOnUse" x="250" y="65" width="42" height="11">
<path d="M253.655 75.2554L285.278 72.1914L291.674 65.2522L270.976 65.3423L250.012 73.4531C251.434 73.9938 252.677 74.6246 253.655 75.2554Z" fill="url(#paint10_radial_258_2345)"/>
</mask>
<g mask="url(#mask7_258_2345)">
<path d="M253.655 75.2554L285.278 72.1914L291.674 65.2522L270.976 65.3423L250.012 73.4531C251.434 73.9938 252.677 74.6246 253.655 75.2554Z" fill="#00695C"/>
</g>
<mask id="mask8_258_2345" style="mask-type:alpha" maskUnits="userSpaceOnUse" x="231" y="65" width="32" height="8">
<path d="M245.127 72.0111L262.538 65.4324L231.802 65.6126L232.69 70.8396C236.865 70.7495 241.218 71.1099 245.127 72.0111Z" fill="url(#paint11_radial_258_2345)"/>
</mask>
<g mask="url(#mask8_258_2345)">
<path d="M245.127 72.0111L262.538 65.4324L231.802 65.6126L232.69 70.8396C236.865 70.7495 241.218 71.1099 245.127 72.0111Z" fill="#00695C"/>
</g>
<mask id="mask9_258_2345" style="mask-type:alpha" maskUnits="userSpaceOnUse" x="221" y="72" width="31" height="12">
<path d="M248.325 81.8342C243.172 84.0872 233.312 84.0872 226.65 81.8342C220.165 79.5812 219.277 76.0665 224.518 73.9938C229.67 71.921 238.909 71.921 245.304 73.9938C251.967 76.0665 253.388 79.5812 248.325 81.8342Z" fill="url(#paint12_radial_258_2345)"/>
</mask>
<g mask="url(#mask9_258_2345)">
<path d="M248.325 81.8342C243.172 84.0872 233.312 84.0872 226.65 81.8342C220.165 79.5812 219.277 76.0665 224.518 73.9938C229.67 71.921 238.909 71.921 245.304 73.9938C251.967 76.0665 253.388 79.5812 248.325 81.8342Z" fill="#00695C"/>
</g>
<mask id="mask10_258_2345" style="mask-type:alpha" maskUnits="userSpaceOnUse" x="279" y="36" width="32" height="7">
<path d="M294.783 36.8645L280.037 37.8558C280.304 38.3965 280.037 39.0274 279.149 39.478L293.184 42.9025L310.328 40.4693L294.783 36.8645Z" fill="url(#paint13_radial_258_2345)"/>
</mask>
<g mask="url(#mask10_258_2345)">
<path d="M294.783 36.8645L280.037 37.8558C280.304 38.3965 280.037 39.0274 279.149 39.478L293.184 42.9025L310.328 40.4693L294.783 36.8645Z" fill="#00695C"/>
</g>
<mask id="mask11_258_2345" style="mask-type:alpha" maskUnits="userSpaceOnUse" x="256" y="32" width="34" height="5">
<path d="M275.329 35.5127C276.573 35.783 277.639 36.1435 278.349 36.504L289.986 35.6929L279.06 33.1696L256.941 32.9893L256.852 34.0708L261.472 35.1522C265.114 34.4313 270.976 34.5214 275.329 35.5127Z" fill="url(#paint14_radial_258_2345)"/>
</mask>
<g mask="url(#mask11_258_2345)">
<path d="M275.329 35.5127C276.573 35.783 277.639 36.1435 278.349 36.504L289.986 35.6929L279.06 33.1696L256.941 32.9893L256.852 34.0708L261.472 35.1522C265.114 34.4313 270.976 34.5214 275.329 35.5127Z" fill="#00695C"/>
</g>
<mask id="mask12_258_2345" style="mask-type:alpha" maskUnits="userSpaceOnUse" x="261" y="35" width="16" height="5">
<path d="M275.596 39.2977C273.197 40.1989 268.4 40.1989 264.847 39.2977C261.383 38.3965 260.583 37.0447 262.982 36.2336C265.38 35.4226 270.088 35.4226 273.464 36.2336C277.017 37.0447 277.994 38.3965 275.596 39.2977Z" fill="url(#paint15_radial_258_2345)"/>
</mask>
<g mask="url(#mask12_258_2345)">
<path d="M275.596 39.2977C273.197 40.1989 268.4 40.1989 264.847 39.2977C261.383 38.3965 260.583 37.0447 262.982 36.2336C265.38 35.4226 270.088 35.4226 273.464 36.2336C277.017 37.0447 277.994 38.3965 275.596 39.2977Z" fill="#00695C"/>
</g>
</g>
<g opacity="0.5">
<mask id="mask13_258_2345" style="mask-type:alpha" maskUnits="userSpaceOnUse" x="203" y="54" width="21" height="10">
<path d="M204.176 54.0773L223.097 54.7983L222.919 63.7201L203.376 63.8103L204.176 54.0773Z" fill="url(#paint16_radial_258_2345)"/>
</mask>
<g mask="url(#mask13_258_2345)">
<path d="M204.176 54.0773L223.097 54.7983L222.919 63.7201L203.376 63.8103L204.176 54.0773Z" fill="#00695C"/>
</g>
<mask id="mask14_258_2345" style="mask-type:alpha" maskUnits="userSpaceOnUse" x="202" y="30" width="19" height="11">
<path d="M204.087 39.0274L220.521 40.6495L218.655 31.4573L202.133 30.466L204.087 39.0274Z" fill="url(#paint17_radial_258_2345)"/>
</mask>
<g mask="url(#mask14_258_2345)">
<path d="M204.087 39.0274L220.521 40.6495L218.655 31.4573L202.133 30.466L204.087 39.0274Z" fill="#00695C"/>
</g>
<mask id="mask15_258_2345" style="mask-type:alpha" maskUnits="userSpaceOnUse" x="175" y="30" width="24" height="9">
<path d="M198.135 30.1055L178.592 30.5561L175.039 38.757H198.668L198.135 30.1055Z" fill="url(#paint18_radial_258_2345)"/>
</mask>
<g mask="url(#mask15_258_2345)">
<path d="M198.135 30.1055L178.592 30.5561L175.039 38.757H198.668L198.135 30.1055Z" fill="#00695C"/>
</g>
<mask id="mask16_258_2345" style="mask-type:alpha" maskUnits="userSpaceOnUse" x="-2" y="47" width="42" height="41">
<path d="M10.5251 47.1381L-2 50.1121V67.3249L35.8418 87.3315L39.2174 50.2923L10.5251 47.1381Z" fill="url(#paint19_radial_258_2345)"/>
</mask>
<g mask="url(#mask16_258_2345)">
<path d="M10.5251 47.1381L-2 50.1121V67.3249L35.8418 87.3315L39.2174 50.2923L10.5251 47.1381Z" fill="#00695C"/>
</g>
<mask id="mask17_258_2345" style="mask-type:alpha" maskUnits="userSpaceOnUse" x="17" y="31" width="61" height="17">
<path d="M17.2762 45.516L45.4355 47.769L52.8085 40.289L77.2369 31.4573L17.2762 45.516Z" fill="url(#paint20_radial_258_2345)"/>
</mask>
<g mask="url(#mask17_258_2345)">
<path d="M17.2762 45.516L45.4355 47.769L52.8085 40.289L77.2369 31.4573L17.2762 45.516Z" fill="#00695C"/>
</g>
<mask id="mask18_258_2345" style="mask-type:alpha" maskUnits="userSpaceOnUse" x="127" y="8" width="69" height="20">
<path d="M174.595 8.65703L127.604 19.7417L159.672 27.6723L195.559 13.6136L174.595 8.65703Z" fill="url(#paint21_radial_258_2345)"/>
</mask>
<g mask="url(#mask18_258_2345)">
<path d="M174.595 8.65703L127.604 19.7417L159.672 27.6723L195.559 13.6136L174.595 8.65703Z" fill="#00695C"/>
</g>
<mask id="mask19_258_2345" style="mask-type:alpha" maskUnits="userSpaceOnUse" x="163" y="14" width="44" height="16">
<path d="M198.313 14.2445L163.403 28.3031L173.263 29.3846L206.485 16.137L198.313 14.2445Z" fill="url(#paint22_radial_258_2345)"/>
</mask>
<g mask="url(#mask19_258_2345)">
<path d="M198.313 14.2445L163.403 28.3031L173.263 29.3846L206.485 16.137L198.313 14.2445Z" fill="#00695C"/>
</g>
<mask id="mask20_258_2345" style="mask-type:alpha" maskUnits="userSpaceOnUse" x="183" y="17" width="50" height="13">
<path d="M211.193 17.3085L183.389 28.3932L202.754 27.8525L220.165 29.4747L232.957 22.3552L211.193 17.3085Z" fill="url(#paint23_radial_258_2345)"/>
</mask>
<g mask="url(#mask20_258_2345)">
<path d="M211.193 17.3085L183.389 28.3932L202.754 27.8525L220.165 29.4747L232.957 22.3552L211.193 17.3085Z" fill="#00695C"/>
</g>
<mask id="mask21_258_2345" style="mask-type:alpha" maskUnits="userSpaceOnUse" x="228" y="24" width="41" height="7">
<path d="M240.241 24.0675L228.96 30.6462H268.045L240.241 24.0675Z" fill="url(#paint24_radial_258_2345)"/>
</mask>
<g mask="url(#mask21_258_2345)">
<path d="M240.241 24.0675L228.96 30.6462H268.045L240.241 24.0675Z" fill="#00695C"/>
</g>
<mask id="mask22_258_2345" style="mask-type:alpha" maskUnits="userSpaceOnUse" x="297" y="41" width="25" height="7">
<path d="M315.125 41.6408L297.892 44.1642L310.684 47.2282L321.521 43.1729L315.125 41.6408Z" fill="url(#paint25_radial_258_2345)"/>
</mask>
<g mask="url(#mask22_258_2345)">
<path d="M315.125 41.6408L297.892 44.1642L310.684 47.2282L321.521 43.1729L315.125 41.6408Z" fill="#00695C"/>
</g>
<mask id="mask23_258_2345" style="mask-type:alpha" maskUnits="userSpaceOnUse" x="126" y="37" width="41" height="11">
<path d="M166.512 39.5681L151.322 37.5854C146.347 38.8471 139.329 39.0274 134.088 38.1262L126.005 40.8297L157.451 47.1381L166.512 39.5681Z" fill="url(#paint26_radial_258_2345)"/>
</mask>
<g mask="url(#mask23_258_2345)">
<path d="M166.512 39.5681L151.322 37.5854C146.347 38.8471 139.329 39.0274 134.088 38.1262L126.005 40.8297L157.451 47.1381L166.512 39.5681Z" fill="#00695C"/>
</g>
<mask id="mask24_258_2345" style="mask-type:alpha" maskUnits="userSpaceOnUse" x="109" y="91" width="114" height="70">
<path d="M201.244 91.6572L169.354 106.076L143.593 104.815C142.172 106.257 139.951 107.699 136.931 108.87C131.601 111.033 124.85 112.114 118.277 112.114L109.393 126.173L174.329 160.509L222.741 134.915L201.244 91.6572Z" fill="url(#paint27_radial_258_2345)"/>
</mask>
<g mask="url(#mask24_258_2345)">
<path d="M201.244 91.6572L169.354 106.076L143.593 104.815C142.172 106.257 139.951 107.699 136.931 108.87C131.601 111.033 124.85 112.114 118.277 112.114L109.393 126.173L174.329 160.509L222.741 134.915L201.244 91.6572Z" fill="#00695C"/>
</g>
<mask id="mask25_258_2345" style="mask-type:alpha" maskUnits="userSpaceOnUse" x="236" y="67" width="102" height="46">
<path d="M302.156 67.2348L293.806 74.7147L256.053 78.3195C256.497 80.0318 255.253 81.7441 252.233 83.0958C249.391 84.3575 240.596 86.0698 236.332 86.3402L262.182 112.385L337.955 74.0839L302.156 67.2348Z" fill="url(#paint28_radial_258_2345)"/>
</mask>
<g mask="url(#mask25_258_2345)">
<path d="M302.156 67.2348L293.806 74.7147L256.053 78.3195C256.497 80.0318 255.253 81.7441 252.233 83.0958C249.391 84.3575 240.596 86.0698 236.332 86.3402L262.182 112.385L337.955 74.0839L302.156 67.2348Z" fill="#00695C"/>
</g>
<mask id="mask26_258_2345" style="mask-type:alpha" maskUnits="userSpaceOnUse" x="205" y="65" width="19" height="22">
<path d="M220.965 72.8222C221.853 72.4617 222.919 72.1914 223.985 71.921L223.63 65.5225H205.153L207.018 86.7006L218.922 80.6626C215.368 78.7701 215.28 75.0752 220.965 72.8222Z" fill="url(#paint29_radial_258_2345)"/>
</mask>
<g mask="url(#mask26_258_2345)">
<path d="M220.965 72.8222C221.853 72.4617 222.919 72.1914 223.985 71.921L223.63 65.5225H205.153L207.018 86.7006L218.922 80.6626C215.368 78.7701 215.28 75.0752 220.965 72.8222Z" fill="#00695C"/>
</g>
<mask id="mask27_258_2345" style="mask-type:alpha" maskUnits="userSpaceOnUse" x="209" y="84" width="51" height="47">
<path d="M233.845 87.4216C231.891 87.0611 223.63 85.0785 221.853 84.5378L209.061 89.6746L231.891 130.048L259.073 115.088L233.845 87.4216Z" fill="url(#paint30_radial_258_2345)"/>
</mask>
<g mask="url(#mask27_258_2345)">
<path d="M233.845 87.4216C231.891 87.0611 223.63 85.0785 221.853 84.5378L209.061 89.6746L231.891 130.048L259.073 115.088L233.845 87.4216Z" fill="#00695C"/>
</g>
<mask id="mask28_258_2345" style="mask-type:alpha" maskUnits="userSpaceOnUse" x="226" y="32" width="34" height="9">
<path d="M259.073 36.2336L252.233 34.5214L252.411 32.8992L226.295 32.719L227.538 40.0186L258.807 37.8558C258.363 37.3151 258.363 36.7744 259.073 36.2336Z" fill="url(#paint31_radial_258_2345)"/>
</mask>
<g mask="url(#mask28_258_2345)">
<path d="M259.073 36.2336L252.233 34.5214L252.411 32.8992L226.295 32.719L227.538 40.0186L258.807 37.8558C258.363 37.3151 258.363 36.7744 259.073 36.2336Z" fill="#00695C"/>
</g>
<mask id="mask29_258_2345" style="mask-type:alpha" maskUnits="userSpaceOnUse" x="49" y="51" width="47" height="46">
<path d="M95.8913 62.1881C90.2061 61.4672 86.2088 60.2956 83.455 59.2142C83.0997 59.0339 82.7444 58.9438 82.389 58.7636C79.3688 57.4118 77.4145 55.7896 76.2597 54.0773L49.9659 51.554L50.943 95.262L52.4531 96.0731L89.0513 95.4422L95.1806 66.4237L95.8913 62.1881Z" fill="url(#paint32_radial_258_2345)"/>
</mask>
<g mask="url(#mask29_258_2345)">
<path d="M95.8913 62.1881C90.2061 61.4672 86.2088 60.2956 83.455 59.2142C83.0997 59.0339 82.7444 58.9438 82.389 58.7636C79.3688 57.4118 77.4145 55.7896 76.2597 54.0773L49.9659 51.554L50.943 95.262L52.4531 96.0731L89.0513 95.4422L95.1806 66.4237L95.8913 62.1881Z" fill="#00695C"/>
</g>
<mask id="mask30_258_2345" style="mask-type:alpha" maskUnits="userSpaceOnUse" x="104" y="42" width="52" height="15">
<path d="M104.686 54.9785L114.368 56.4205C116.322 56.4205 118.454 56.2402 120.675 56.1501C129.558 55.5193 139.329 54.4378 149.634 53.1761L155.497 48.58L123.34 42.0013L107.35 47.769L104.686 54.9785Z" fill="url(#paint33_radial_258_2345)"/>
</mask>
<g mask="url(#mask30_258_2345)">
<path d="M104.686 54.9785L114.368 56.4205C116.322 56.4205 118.454 56.2402 120.675 56.1501C129.558 55.5193 139.329 54.4378 149.634 53.1761L155.497 48.58L123.34 42.0013L107.35 47.769L104.686 54.9785Z" fill="#00695C"/>
</g>
<mask id="mask31_258_2345" style="mask-type:alpha" maskUnits="userSpaceOnUse" x="107" y="20" width="50" height="20">
<path d="M108.683 31.187L124.406 39.7483L131.068 37.4052H130.979C125.738 35.7831 126.627 33.1696 132.667 31.5474C137.642 30.2858 144.659 30.0154 149.9 30.9166L156.296 28.7537L123.695 20.643L107.173 24.5181C108.683 26.1403 109.838 28.3933 108.683 31.187Z" fill="url(#paint34_radial_258_2345)"/>
</mask>
<g mask="url(#mask31_258_2345)">
<path d="M108.683 31.187L124.406 39.7483L131.068 37.4052H130.979C125.738 35.7831 126.627 33.1696 132.667 31.5474C137.642 30.2858 144.659 30.0154 149.9 30.9166L156.296 28.7537L123.695 20.643L107.173 24.5181C108.683 26.1403 109.838 28.3933 108.683 31.187Z" fill="#00695C"/>
</g>
<mask id="mask32_258_2345" style="mask-type:alpha" maskUnits="userSpaceOnUse" x="315" y="44" width="42" height="13">
<path d="M356.876 51.4639L326.051 44.2543L315.303 48.3998L348.437 56.5106C351.368 56.5106 354.211 56.5106 356.964 56.5106V51.4639H356.876Z" fill="url(#paint35_radial_258_2345)"/>
</mask>
<g mask="url(#mask32_258_2345)">
<path d="M356.876 51.4639L326.051 44.2543L315.303 48.3998L348.437 56.5106C351.368 56.5106 354.211 56.5106 356.964 56.5106V51.4639H356.876Z" fill="#00695C"/>
</g>
<mask id="mask33_258_2345" style="mask-type:alpha" maskUnits="userSpaceOnUse" x="301" y="59" width="52" height="13">
<path d="M306.065 59.9351L301.357 63.9905L342.752 71.6507L352.256 66.6039L324.897 61.6474C318.678 61.1968 312.372 60.6561 306.065 59.9351Z" fill="url(#paint36_radial_258_2345)"/>
</mask>
<g mask="url(#mask33_258_2345)">
<path d="M306.065 59.9351L301.357 63.9905L342.752 71.6507L352.256 66.6039L324.897 61.6474C318.678 61.1968 312.372 60.6561 306.065 59.9351Z" fill="#00695C"/>
</g>
<mask id="mask34_258_2345" style="mask-type:alpha" maskUnits="userSpaceOnUse" x="164" y="40" width="36" height="10">
<path d="M177.527 49.7516C184.722 48.9405 191.917 48.1294 199.112 47.4986L198.668 40.1088H174.151L164.557 48.3097L177.527 49.7516Z" fill="url(#paint37_radial_258_2345)"/>
</mask>
<g mask="url(#mask34_258_2345)">
<path d="M177.527 49.7516C184.722 48.9405 191.917 48.1294 199.112 47.4986L198.668 40.1088H174.151L164.557 48.3097L177.527 49.7516Z" fill="#00695C"/>
</g>
<mask id="mask35_258_2345" style="mask-type:alpha" maskUnits="userSpaceOnUse" x="93" y="61" width="46" height="36">
<path d="M114.546 80.4824L138.441 62.0079L134.799 61.4671C130.891 61.8276 126.982 62.1881 123.162 62.5486C114.19 63.2695 106.906 63.1794 100.866 62.7288L93.3152 95.0818L99.9775 96.6138C101.399 95.7126 103.087 94.9916 105.13 94.2707C107.883 93.2794 110.815 92.6485 113.924 92.1078L114.546 80.4824Z" fill="url(#paint38_radial_258_2345)"/>
</mask>
<g mask="url(#mask35_258_2345)">
<path d="M114.546 80.4824L138.441 62.0079L134.799 61.4671C130.891 61.8276 126.982 62.1881 123.162 62.5486C114.19 63.2695 106.906 63.1794 100.866 62.7288L93.3152 95.0818L99.9775 96.6138C101.399 95.7126 103.087 94.9916 105.13 94.2707C107.883 93.2794 110.815 92.6485 113.924 92.1078L114.546 80.4824Z" fill="#00695C"/>
</g>
</g>
<g opacity="0.5">
<mask id="mask36_258_2345" style="mask-type:alpha" maskUnits="userSpaceOnUse" x="153" y="48" width="47" height="10">
<path d="M198.668 51.6441C199.023 50.9231 200.178 49.7516 199.645 48.8504C187.209 50.0219 174.506 51.554 162.159 53.086C160.826 53.2663 159.494 53.4465 158.161 53.6267C157.184 54.9785 155.496 56.3303 153.453 57.592C157.451 57.1414 161.537 56.6007 165.623 56.06C176.727 54.6181 187.831 53.2663 198.49 52.1848C198.579 52.0046 198.579 51.8243 198.668 51.6441Z" fill="url(#paint39_radial_258_2345)"/>
</mask>
<g mask="url(#mask36_258_2345)">
<path d="M198.668 51.6441C199.023 50.9231 200.178 49.7516 199.645 48.8504C187.209 50.0219 174.506 51.554 162.159 53.086C160.826 53.2663 159.494 53.4465 158.161 53.6267C157.184 54.9785 155.496 56.3303 153.453 57.592C157.451 57.1414 161.537 56.6007 165.623 56.06C176.727 54.6181 187.831 53.2663 198.49 52.1848C198.579 52.0046 198.579 51.8243 198.668 51.6441Z" fill="#00695C"/>
</g>
<mask id="mask37_258_2345" style="mask-type:alpha" maskUnits="userSpaceOnUse" x="205" y="47" width="19" height="5">
<path d="M222.564 47.4085C217.056 47.5887 211.371 47.9492 205.775 48.3998C206.485 49.3911 205.864 50.5627 205.331 51.554C211.549 51.0133 217.589 50.5627 223.541 50.2923C223.363 49.301 222.741 48.3097 222.564 47.4085Z" fill="url(#paint40_radial_258_2345)"/>
</mask>
<g mask="url(#mask37_258_2345)">
<path d="M222.564 47.4085C217.056 47.5887 211.371 47.9492 205.775 48.3998C206.485 49.3911 205.864 50.5627 205.331 51.554C211.549 51.0133 217.589 50.5627 223.541 50.2923C223.363 49.301 222.741 48.3097 222.564 47.4085Z" fill="#00695C"/>
</g>
<mask id="mask38_258_2345" style="mask-type:alpha" maskUnits="userSpaceOnUse" x="228" y="47" width="74" height="11">
<path d="M301.978 54.7983C289.897 53.4465 277.727 51.8243 265.913 49.7516C253.832 47.6789 241.396 47.048 228.871 47.2283C229.048 48.2196 229.759 49.2109 230.025 50.2022C241.218 50.022 251.966 50.5627 262.36 52.4552C273.996 54.5279 286.344 56.2402 298.869 57.6821C300.024 56.6908 301.179 55.7896 301.978 54.7983Z" fill="url(#paint41_radial_258_2345)"/>
</mask>
<g mask="url(#mask38_258_2345)">
<path d="M301.978 54.7983C289.897 53.4465 277.727 51.8243 265.913 49.7516C253.832 47.6789 241.396 47.048 228.871 47.2283C229.048 48.2196 229.759 49.2109 230.025 50.2022C241.218 50.022 251.966 50.5627 262.36 52.4552C273.996 54.5279 286.344 56.2402 298.869 57.6821C300.024 56.6908 301.179 55.7896 301.978 54.7983Z" fill="#00695C"/>
</g>
<mask id="mask39_258_2345" style="mask-type:alpha" maskUnits="userSpaceOnUse" x="309" y="55" width="48" height="7">
<path d="M356.875 57.9525C343.729 58.0426 328.45 57.3216 312.194 55.7896C312.194 55.8797 312.194 55.8797 312.105 55.9698C311.483 56.9612 310.506 57.8623 309.44 58.7635C318.678 59.6647 327.828 60.3857 336.533 60.8363C343.729 61.1968 350.48 61.377 356.875 61.4671V57.9525Z" fill="url(#paint42_radial_258_2345)"/>
</mask>
<g mask="url(#mask39_258_2345)">
<path d="M356.875 57.9525C343.729 58.0426 328.45 57.3216 312.194 55.7896C312.194 55.8797 312.194 55.8797 312.105 55.9698C311.483 56.9612 310.506 57.8623 309.44 58.7635C318.678 59.6647 327.828 60.3857 336.533 60.8363C343.729 61.1968 350.48 61.377 356.875 61.4671V57.9525Z" fill="#00695C"/>
</g>
<mask id="mask40_258_2345" style="mask-type:alpha" maskUnits="userSpaceOnUse" x="96" y="25" width="10" height="6">
<path d="M97.2237 29.1142C99.7998 29.4747 102.554 29.745 105.041 30.1956C105.574 28.213 104.863 26.5908 103.797 25.239L96.2466 27.0414C96.5131 27.6723 96.6908 28.3031 96.6908 29.0241C96.8684 29.0241 97.0461 29.0241 97.2237 29.1142Z" fill="url(#paint43_radial_258_2345)"/>
</mask>
<g mask="url(#mask40_258_2345)">
<path d="M97.2237 29.1142C99.7998 29.4747 102.554 29.745 105.041 30.1956C105.574 28.213 104.863 26.5908 103.797 25.239L96.2466 27.0414C96.5131 27.6723 96.6908 28.3031 96.6908 29.0241C96.8684 29.0241 97.0461 29.0241 97.2237 29.1142Z" fill="#00695C"/>
</g>
<mask id="mask41_258_2345" style="mask-type:alpha" maskUnits="userSpaceOnUse" x="105" y="55" width="42" height="7">
<path d="M146.436 55.0687C137.642 56.1501 129.114 57.0513 121.297 57.592C116.5 57.9525 112.236 58.0426 108.416 57.8623C108.416 58.9438 107.35 60.1153 105.84 61.1968C110.548 61.377 116.056 61.2869 122.452 60.8363C127.959 60.3857 133.733 59.845 139.685 59.2141C142.083 57.8623 144.57 56.5106 146.436 55.0687Z" fill="url(#paint44_radial_258_2345)"/>
</mask>
<g mask="url(#mask41_258_2345)">
<path d="M146.436 55.0687C137.642 56.1501 129.114 57.0513 121.297 57.592C116.5 57.9525 112.236 58.0426 108.416 57.8623C108.416 58.9438 107.35 60.1153 105.84 61.1968C110.548 61.377 116.056 61.2869 122.452 60.8363C127.959 60.3857 133.733 59.845 139.685 59.2141C142.083 57.8623 144.57 56.5106 146.436 55.0687Z" fill="url(#paint45_radial_258_2345)"/>
</g>
<mask id="mask42_258_2345" style="mask-type:alpha" maskUnits="userSpaceOnUse" x="79" y="30" width="26" height="31">
<path d="M101.132 57.3216C101.043 57.3216 101.043 57.2315 101.043 57.2315C98.645 56.7809 96.6019 56.2402 94.8253 55.5192C84.5209 51.1034 89.3178 42.7223 98.112 37.4052C101.221 35.5127 103.087 33.8004 104.152 32.1783C103.531 31.998 102.731 31.8178 101.932 31.6376C100.155 31.3672 98.2008 31.0968 96.2466 30.8265C95.5359 32.5387 93.7593 34.5214 90.1173 36.5941C79.5464 42.7223 74.0389 52.1848 86.2975 57.6821C86.564 57.7722 86.9194 57.9525 87.2747 58.0426C89.9396 59.124 93.937 60.2055 99.5333 60.8363C101.221 59.6647 102.465 58.4031 101.132 57.3216Z" fill="url(#paint46_radial_258_2345)"/>
</mask>
<g mask="url(#mask42_258_2345)">
<path d="M101.132 57.3216C101.043 57.3216 101.043 57.2315 101.043 57.2315C98.645 56.7809 96.6019 56.2402 94.8253 55.5192C84.5209 51.1034 89.3178 42.7223 98.112 37.4052C101.221 35.5127 103.087 33.8004 104.152 32.1783C103.531 31.998 102.731 31.8178 101.932 31.6376C100.155 31.3672 98.2008 31.0968 96.2466 30.8265C95.5359 32.5387 93.7593 34.5214 90.1173 36.5941C79.5464 42.7223 74.0389 52.1848 86.2975 57.6821C86.564 57.7722 86.9194 57.9525 87.2747 58.0426C89.9396 59.124 93.937 60.2055 99.5333 60.8363C101.221 59.6647 102.465 58.4031 101.132 57.3216Z" fill="#00695C"/>
</g>
</g>
</g>
</g>
<path d="M118.159 26.9182C118.074 26.9182 117.989 26.9182 117.989 26.9182C100.839 26.9182 87 41.0441 87 58.4429C87 62.2328 88.5282 71.3629 93.1129 78.6842C98.8861 87.9004 115.697 108.056 118.159 111.07C118.159 111.07 118.244 111.242 118.244 111.156L118.328 111.07C120.791 108.142 137.516 87.8143 143.289 78.6842C147.874 71.3629 149.317 62.2328 149.317 58.4429C149.232 40.9579 135.309 26.9182 118.159 26.9182ZM118.159 81.785C105.763 81.785 95.6599 71.6213 95.6599 59.0459C95.6599 46.4704 105.678 36.2206 118.074 36.2206C130.469 36.2206 140.573 46.3843 140.573 58.9597C140.573 71.5351 130.554 81.785 118.159 81.785Z" fill="white"/>
<path d="M109.767 56.0829H114.174V59.2689H109.767V64.2494H106.41V59.2689H101.992V56.0829H106.41V51.3099H109.767V56.0829ZM120.656 65.9828H118.569H118.141V65.5555V61.6981C118.141 57.9221 117.653 54.3983 116.677 51.1268L116.555 50.724L116.957 50.6019L118.935 49.9794L119.35 49.8573L119.472 50.2601C120.546 53.8327 121.083 57.6495 121.083 61.7103V65.5555V65.9828H120.656ZM125.283 59.5009C125.307 58.4022 125.698 57.4745 126.454 56.7177C126.829 56.3433 127.248 56.0585 127.712 55.8632C128.184 55.6679 128.688 55.5702 129.225 55.5702C129.771 55.5702 130.275 55.6679 130.739 55.8632C131.203 56.0585 131.626 56.3433 132.009 56.7177C132.196 56.9048 132.359 57.1042 132.497 57.3158C132.643 57.5274 132.765 57.7512 132.863 57.9872C132.961 58.2151 133.034 58.4551 133.083 58.7074C133.099 58.7969 133.111 58.8864 133.119 58.976C133.136 59.0573 133.144 59.1428 133.144 59.2323C133.152 59.3137 133.156 59.4032 133.156 59.5009C133.148 60.038 133.046 60.5425 132.851 61.0145C132.664 61.4784 132.383 61.8975 132.009 62.2719C131.952 62.3288 131.895 62.3817 131.838 62.4305C131.789 62.4794 131.732 62.5282 131.667 62.577C131.61 62.6177 131.553 62.6625 131.496 62.7113C131.439 62.752 131.378 62.7927 131.313 62.8334C131.256 62.8659 131.195 62.9026 131.13 62.9432C131.065 62.9758 130.999 63.0083 130.934 63.0409C130.869 63.0734 130.804 63.1019 130.739 63.1263C130.625 63.1752 130.507 63.2199 130.385 63.2606C130.263 63.2932 130.137 63.3217 130.007 63.3461C129.885 63.3705 129.758 63.3908 129.628 63.4071C129.498 63.4152 129.364 63.4193 129.225 63.4193C128.135 63.4112 127.211 63.0287 126.454 62.2719C126.08 61.8975 125.795 61.4784 125.6 61.0145C125.405 60.5425 125.299 60.038 125.283 59.5009ZM127.895 59.4887C127.895 59.5538 127.899 59.6189 127.907 59.684C127.915 59.7409 127.927 59.7979 127.944 59.8549C127.952 59.9037 127.968 59.9566 127.992 60.0136C128.058 60.1682 128.159 60.3106 128.298 60.4408C128.55 60.7012 128.863 60.8314 129.238 60.8314C129.612 60.8314 129.929 60.7012 130.19 60.4408C130.45 60.1804 130.58 59.8671 130.58 59.5009C130.58 59.4195 130.572 59.3462 130.556 59.2811C130.548 59.2079 130.532 59.1387 130.507 59.0736C130.499 59.0411 130.491 59.0085 130.483 58.976C130.466 58.9434 130.45 58.9149 130.434 58.8905C130.418 58.858 130.401 58.8295 130.385 58.8051C130.369 58.7725 130.348 58.74 130.324 58.7074C130.308 58.683 130.287 58.6545 130.263 58.622C130.239 58.5975 130.214 58.5731 130.19 58.5487C130.051 58.4104 129.905 58.3086 129.75 58.2435C129.596 58.1866 129.429 58.1581 129.25 58.1581C128.867 58.1662 128.55 58.2964 128.298 58.5487C128.021 58.8254 127.887 59.1387 127.895 59.4887Z" fill="white"/>
<path d="M235.697 28.9473C235.612 28.9473 235.612 28.9473 235.612 28.9473C224.83 28.9473 216 37.9051 216 48.844C216 51.2557 216.934 57.0266 219.821 61.5917C223.471 67.3626 234.084 80.1964 235.612 82.0052C235.612 82.0052 235.612 82.0913 235.697 82.0913L235.782 82.0052C237.31 80.1103 247.923 67.3626 251.574 61.5055C254.46 56.8544 255.394 51.0834 255.394 48.7579C255.309 37.819 246.564 28.9473 235.697 28.9473ZM235.697 63.5727C227.886 63.5727 221.519 57.1128 221.519 49.1885C221.519 41.2643 227.886 34.8043 235.697 34.8043C243.508 34.8043 249.875 41.2643 249.875 49.1885C249.875 57.1128 243.508 63.5727 235.697 63.5727Z" fill="url(#paint47_linear_258_2345)"/>
<path d="M230.346 46.7547H234.048V49.4309H230.346V53.6145H227.526V49.4309H223.814V46.7547H227.526V42.7454H230.346V46.7547ZM238.35 55.0804H237.014H236.74V54.8069V52.3382C236.74 49.9215 236.428 47.6663 235.803 45.5725L235.725 45.3147L235.983 45.2366L237.248 44.8382L237.514 44.76L237.592 45.0179C238.279 47.3043 238.623 49.747 238.623 52.346V54.8069V55.0804H238.35ZM241.311 50.9319C241.326 50.2288 241.576 49.635 242.061 49.1507C242.3 48.9111 242.569 48.7288 242.865 48.6038C243.168 48.4788 243.49 48.4163 243.834 48.4163C244.183 48.4163 244.506 48.4788 244.803 48.6038C245.1 48.7288 245.371 48.9111 245.615 49.1507C245.735 49.2705 245.839 49.3981 245.928 49.5335C246.022 49.6689 246.1 49.8121 246.162 49.9632C246.225 50.109 246.272 50.2626 246.303 50.4241C246.313 50.4814 246.321 50.5387 246.326 50.596C246.337 50.6481 246.342 50.7028 246.342 50.76C246.347 50.8121 246.35 50.8694 246.35 50.9319C246.345 51.2757 246.279 51.5986 246.154 51.9007C246.035 52.1975 245.855 52.4658 245.615 52.7054C245.579 52.7418 245.543 52.7757 245.506 52.8069C245.475 52.8382 245.438 52.8694 245.397 52.9007C245.36 52.9267 245.324 52.9554 245.287 52.9866C245.251 53.0126 245.212 53.0387 245.17 53.0647C245.134 53.0856 245.095 53.109 245.053 53.135C245.011 53.1559 244.97 53.1767 244.928 53.1975C244.886 53.2184 244.845 53.2366 244.803 53.2522C244.73 53.2835 244.654 53.3121 244.576 53.3382C244.498 53.359 244.418 53.3772 244.334 53.3929C244.256 53.4085 244.175 53.4215 244.092 53.4319C244.009 53.4371 243.923 53.4397 243.834 53.4397C243.136 53.4345 242.545 53.1897 242.061 52.7054C241.821 52.4658 241.639 52.1975 241.514 51.9007C241.389 51.5986 241.321 51.2757 241.311 50.9319ZM242.983 50.9241C242.983 50.9658 242.985 51.0074 242.99 51.0491C242.996 51.0856 243.003 51.122 243.014 51.1585C243.019 51.1897 243.029 51.2236 243.045 51.26C243.087 51.359 243.152 51.4501 243.24 51.5335C243.402 51.7001 243.602 51.7835 243.842 51.7835C244.082 51.7835 244.285 51.7001 244.451 51.5335C244.618 51.3668 244.701 51.1663 244.701 50.9319C244.701 50.8798 244.696 50.833 244.686 50.7913C244.681 50.7444 244.67 50.7001 244.654 50.6585C244.649 50.6376 244.644 50.6168 244.639 50.596C244.628 50.5751 244.618 50.5569 244.608 50.5413C244.597 50.5205 244.587 50.5022 244.576 50.4866C244.566 50.4658 244.553 50.4449 244.537 50.4241C244.527 50.4085 244.514 50.3903 244.498 50.3694C244.483 50.3538 244.467 50.3382 244.451 50.3225C244.363 50.234 244.269 50.1689 244.17 50.1272C244.071 50.0908 243.964 50.0725 243.85 50.0725C243.605 50.0778 243.402 50.1611 243.24 50.3225C243.063 50.4996 242.977 50.7001 242.983 50.9241Z" fill="url(#paint48_linear_258_2345)"/>
<path d="M174.652 15.7586C174.604 15.7586 174.604 15.7586 174.652 15.7586C169.862 15.7586 166 19.6765 166 24.5366C166 25.5781 166.44 28.1074 167.711 30.1407C169.324 32.7196 173.968 38.3236 174.652 39.1171V39.1667V39.1171C175.337 38.274 179.981 32.67 181.594 30.0911C182.865 28.0578 183.256 25.5285 183.256 24.4871C183.305 19.6765 179.443 15.7586 174.652 15.7586ZM174.652 31.0334C171.182 31.0334 168.395 28.2066 168.395 24.6854C168.395 21.1643 171.182 18.3375 174.652 18.3375C178.123 18.3375 180.91 21.1643 180.91 24.6854C180.91 28.157 178.074 31.0334 174.652 31.0334Z" fill="white"/>
<path d="M172.052 24.4437H173.286V25.3358H172.052V26.7304H171.112V25.3358H169.874V24.4437H171.112V23.1073H172.052V24.4437ZM175.1 27.2157H174.516H174.396V27.0961V26.016C174.396 24.9587 174.26 23.9721 173.986 23.056L173.952 22.9432L174.065 22.9091L174.619 22.7348L174.735 22.7006L174.769 22.8134C175.07 23.8137 175.22 24.8824 175.22 26.0194V27.0961V27.2157H175.1ZM176.396 25.4008C176.403 25.0932 176.512 24.8334 176.724 24.6215C176.829 24.5167 176.946 24.4369 177.076 24.3822C177.208 24.3275 177.35 24.3002 177.5 24.3002C177.653 24.3002 177.794 24.3275 177.924 24.3822C178.054 24.4369 178.172 24.5167 178.279 24.6215C178.332 24.6739 178.377 24.7297 178.416 24.789C178.457 24.8482 178.491 24.9109 178.518 24.9769C178.546 25.0407 178.566 25.108 178.58 25.1786C178.585 25.2037 178.588 25.2287 178.59 25.2538C178.595 25.2766 178.597 25.3005 178.597 25.3256C178.599 25.3484 178.6 25.3734 178.6 25.4008C178.598 25.5512 178.57 25.6924 178.515 25.8246C178.463 25.9545 178.384 26.0718 178.279 26.1766C178.263 26.1926 178.247 26.2074 178.231 26.2211C178.218 26.2348 178.202 26.2484 178.184 26.2621C178.168 26.2735 178.152 26.286 178.136 26.2997C178.12 26.3111 178.103 26.3225 178.084 26.3339C178.068 26.343 178.051 26.3532 178.033 26.3646C178.015 26.3738 177.997 26.3829 177.978 26.392C177.96 26.4011 177.942 26.4091 177.924 26.4159C177.892 26.4296 177.859 26.4421 177.825 26.4535C177.79 26.4626 177.755 26.4706 177.719 26.4774C177.684 26.4843 177.649 26.49 177.613 26.4945C177.576 26.4968 177.539 26.4979 177.5 26.4979C177.195 26.4957 176.936 26.3886 176.724 26.1766C176.619 26.0718 176.539 25.9545 176.485 25.8246C176.43 25.6924 176.4 25.5512 176.396 25.4008ZM177.127 25.3974C177.127 25.4156 177.128 25.4338 177.131 25.452C177.133 25.468 177.136 25.4839 177.141 25.4999C177.143 25.5136 177.148 25.5284 177.155 25.5443C177.173 25.5876 177.201 25.6275 177.24 25.664C177.311 25.7369 177.399 25.7733 177.503 25.7733C177.608 25.7733 177.697 25.7369 177.77 25.664C177.843 25.591 177.879 25.5033 177.879 25.4008C177.879 25.378 177.877 25.3575 177.872 25.3392C177.87 25.3187 177.866 25.2994 177.859 25.2811C177.857 25.272 177.854 25.2629 177.852 25.2538C177.847 25.2447 177.843 25.2367 177.838 25.2299C177.834 25.2208 177.829 25.2128 177.825 25.2059C177.82 25.1968 177.814 25.1877 177.808 25.1786C177.803 25.1718 177.797 25.1638 177.79 25.1547C177.784 25.1478 177.777 25.141 177.77 25.1342C177.731 25.0954 177.69 25.0669 177.647 25.0487C177.604 25.0328 177.557 25.0248 177.507 25.0248C177.4 25.0271 177.311 25.0635 177.24 25.1342C177.163 25.2116 177.125 25.2994 177.127 25.3974Z" fill="white"/>
<g filter="url(#filter2_f_258_2345)">
<rect x="177" y="59.7151" width="160" height="44" rx="12" fill="#F8FAFC"/>
<rect x="177.5" y="60.2151" width="159" height="43" rx="11.5" stroke="#00695C"/>
</g>
<path d="M218.359 86.676H216.689V83.6877C216.689 80.1135 216.292 77.0015 215.498 74.3518L217.09 73.8635C217.936 76.689 218.359 79.967 218.359 83.6975V86.676ZM222.402 81.8323C222.422 81.051 222.699 80.3902 223.232 79.8498C223.773 79.3095 224.434 79.036 225.215 79.0295C225.605 79.0295 225.967 79.0979 226.299 79.2346C226.631 79.3713 226.93 79.5764 227.197 79.8498C227.334 79.9866 227.451 80.1298 227.549 80.2795C227.653 80.4293 227.738 80.5855 227.803 80.7483C227.874 80.911 227.926 81.0836 227.959 81.2659C227.998 81.4482 228.018 81.637 228.018 81.8323C228.011 82.607 227.738 83.2646 227.197 83.8049C226.93 84.0784 226.631 84.2834 226.299 84.4202C225.967 84.5569 225.605 84.6252 225.215 84.6252C224.434 84.6187 223.773 84.3453 223.232 83.8049C222.699 83.2646 222.422 82.607 222.402 81.8323ZM223.975 81.8323C223.981 82.0015 224.014 82.161 224.072 82.3108C224.131 82.454 224.222 82.5842 224.346 82.7014C224.58 82.9423 224.87 83.0627 225.215 83.0627C225.56 83.0627 225.853 82.9423 226.094 82.7014C226.335 82.4605 226.455 82.1708 226.455 81.8323C226.455 81.7607 226.449 81.6923 226.436 81.6272C226.423 81.5621 226.406 81.5002 226.387 81.4416C226.367 81.383 226.344 81.3277 226.318 81.2756C226.292 81.217 226.26 81.1617 226.221 81.1096C226.182 81.0575 226.139 81.0054 226.094 80.9534C225.97 80.8362 225.833 80.7483 225.684 80.6897C225.54 80.6246 225.384 80.592 225.215 80.592C224.87 80.5985 224.58 80.719 224.346 80.9534C224.092 81.2073 223.968 81.5002 223.975 81.8323ZM241.797 79.0881H245.762V80.7971H241.797V85.2893H239.98V80.7971H236.016V79.0881H239.98V74.9377H241.797V79.0881ZM270.43 83.0627C270.436 84.3258 270.983 84.9605 272.07 84.967C273.145 84.9735 273.682 84.342 273.682 83.0725L273.672 80.5237H275.371L275.381 83.053C275.381 84.3225 276.107 84.9573 277.559 84.9573H277.822C277.894 84.9573 277.949 85.0256 277.988 85.1623C278.027 85.2926 278.047 85.4944 278.047 85.7678V85.8752C278.047 86.4351 277.972 86.7151 277.822 86.7151H277.627C276.208 86.7151 275.208 86.2724 274.629 85.387L274.609 85.3577L274.59 85.387C274.18 86.2724 273.366 86.7183 272.148 86.7248C270.944 86.7248 270.114 86.2724 269.658 85.3674L269.639 85.3284L269.619 85.3674C269.189 86.2854 268.33 86.7379 267.041 86.7248C266.234 86.7183 265.576 86.4514 265.068 85.9241L265.039 85.885V85.9338V86.2073C265.039 89.482 263.154 91.1194 259.385 91.1194H258.848C255 91.1194 253.076 89.3225 253.076 85.7288V82.3987H254.805V85.719C254.805 88.1409 256.159 89.3518 258.867 89.3518H259.365C262.08 89.3518 263.438 88.3199 263.438 86.2561V80.553H265.156V82.8381C265.156 84.2509 265.788 84.9605 267.051 84.967C268.145 84.9735 268.695 84.3453 268.701 83.0823V80.5334H270.41L270.43 83.0627ZM281.309 89.6936L282.197 88.7952C282.412 88.5868 282.607 88.5705 282.783 88.7463L283.73 89.6936C283.926 89.8889 283.919 90.094 283.711 90.3088L282.812 91.1975C282.617 91.3928 282.422 91.3928 282.227 91.1975L281.279 90.2502C281.117 90.0679 281.126 89.8824 281.309 89.6936ZM277.92 89.6936L278.809 88.7952C279.023 88.5868 279.219 88.5705 279.395 88.7463L280.342 89.6936C280.537 89.8889 280.531 90.094 280.322 90.3088L279.424 91.1975C279.229 91.3928 279.033 91.3928 278.838 91.1975L277.891 90.2502C277.715 90.0745 277.725 89.8889 277.92 89.6936ZM286.201 86.7151H285.996C284.557 86.7151 283.555 86.2724 282.988 85.387C282.318 86.2724 281.156 86.7151 279.502 86.7151H277.734C277.389 86.7151 277.217 86.4351 277.217 85.8752V85.7678C277.217 85.4944 277.262 85.2926 277.354 85.1623C277.438 85.0256 277.565 84.9573 277.734 84.9573H279.551C281.217 84.9573 282.051 84.3225 282.051 83.053V80.5334H283.77V83.053C283.77 84.3225 284.508 84.9573 285.986 84.9573H286.201C286.351 84.9573 286.426 85.2275 286.426 85.7678V85.8752C286.426 86.4351 286.351 86.7151 286.201 86.7151ZM293.047 86.7151H292.598C291.458 86.7151 290.527 86.2952 289.805 85.4553L289.785 85.4358L289.775 85.4553C289.124 86.2952 288.213 86.7151 287.041 86.7151H286.113C285.768 86.7151 285.596 86.4351 285.596 85.8752V85.7678C285.596 85.4944 285.638 85.2893 285.723 85.1526C285.814 85.0224 285.944 84.9573 286.113 84.9573H287.021C288.343 84.9573 289.004 84.3485 289.004 83.1311V73.6877H290.625V83.1409C290.625 84.3518 291.315 84.9573 292.695 84.9573H293.047C293.197 84.9573 293.271 85.2275 293.271 85.7678V85.8752C293.271 86.4351 293.197 86.7151 293.047 86.7151ZM296.455 89.8401C296.273 89.6578 296.263 89.4853 296.426 89.3225L297.373 88.3752C297.555 88.1929 297.738 88.1962 297.92 88.385L298.818 89.2737C299.014 89.469 299.02 89.6578 298.838 89.8401L297.891 90.7873C297.734 90.9501 297.555 90.9338 297.354 90.7385L296.455 89.8401ZM293.066 89.8401C292.884 89.6578 292.874 89.4853 293.037 89.3225L293.984 88.3752C294.167 88.1929 294.349 88.1962 294.531 88.385L295.43 89.2737C295.625 89.469 295.632 89.6578 295.449 89.8401L294.502 90.7873C294.339 90.9501 294.16 90.9338 293.965 90.7385L293.066 89.8401ZM294.756 92.633C294.574 92.4508 294.564 92.2782 294.727 92.1155L295.684 91.1682C295.859 90.9859 296.038 90.9892 296.221 91.178L297.119 92.0666C297.314 92.262 297.321 92.4508 297.139 92.633L296.191 93.5803C296.029 93.7431 295.85 93.7268 295.654 93.5315L294.756 92.633ZM292.949 86.7151C292.604 86.7151 292.432 86.4351 292.432 85.8752V85.7678C292.432 85.2275 292.604 84.9573 292.949 84.9573H295.225C296.54 84.9573 297.197 84.329 297.197 83.0725V80.2014H298.896V83.0823C298.896 85.5041 297.676 86.7151 295.234 86.7151H292.949Z" fill="#00695C"/>
<defs>
<filter id="filter0_d_258_2345" x="2" y="12.7151" width="351" height="111" filterUnits="userSpaceOnUse" color-interpolation-filters="sRGB">
<feFlood flood-opacity="0" result="BackgroundImageFix"/>
<feColorMatrix in="SourceAlpha" type="matrix" values="0 0 0 0 0 0 0 0 0 0 0 0 0 0 0 0 0 0 127 0" result="hardAlpha"/>
<feOffset dy="4"/>
<feGaussianBlur stdDeviation="2"/>
<feComposite in2="hardAlpha" operator="out"/>
<feColorMatrix type="matrix" values="0 0 0 0 0 0 0 0 0 0 0 0 0 0 0 0 0 0 0.08 0"/>
<feBlend mode="normal" in2="BackgroundImageFix" result="effect1_dropShadow_258_2345"/>
<feBlend mode="normal" in="SourceGraphic" in2="effect1_dropShadow_258_2345" result="shape"/>
</filter>
<filter id="filter1_d_258_2345" x="0" y="13.67" width="355" height="112" filterUnits="userSpaceOnUse" color-interpolation-filters="sRGB">
<feFlood flood-opacity="0" result="BackgroundImageFix"/>
<feColorMatrix in="SourceAlpha" type="matrix" values="0 0 0 0 0 0 0 0 0 0 0 0 0 0 0 0 0 0 127 0" result="hardAlpha"/>
<feOffset dy="4"/>
<feGaussianBlur stdDeviation="3"/>
<feColorMatrix type="matrix" values="0 0 0 0 1 0 0 0 0 1 0 0 0 0 1 0 0 0 0.12 0"/>
<feBlend mode="normal" in2="BackgroundImageFix" result="effect1_dropShadow_258_2345"/>
<feBlend mode="normal" in="SourceGraphic" in2="effect1_dropShadow_258_2345" result="shape"/>
</filter>
<filter id="filter2_f_258_2345" x="176.5" y="59.2151" width="161" height="45" filterUnits="userSpaceOnUse" color-interpolation-filters="sRGB">
<feFlood flood-opacity="0" result="BackgroundImageFix"/>
<feBlend mode="normal" in="SourceGraphic" in2="BackgroundImageFix" result="shape"/>
<feGaussianBlur stdDeviation="0.25" result="effect1_foregroundBlur_258_2345"/>
</filter>
<radialGradient id="paint0_diamond_258_2345" cx="0" cy="0" r="1" gradientUnits="userSpaceOnUse" gradientTransform="translate(177.5 64.2151) rotate(89.9075) scale(309.793 1031.64)">
<stop stop-color="#E0F2F1"/>
<stop offset="1" stop-color="#80CBC4"/>
</radialGradient>
<radialGradient id="paint1_diamond_258_2345" cx="0" cy="0" r="1" gradientUnits="userSpaceOnUse" gradientTransform="translate(177.5 65.67) rotate(89.9048) scale(300.77 1031.64)">
<stop stop-color="#E0F2F1"/>
<stop offset="1" stop-color="#80CBC4"/>
</radialGradient>
<linearGradient id="paint2_linear_258_2345" x1="349" y1="64.2151" x2="6" y2="64.2151" gradientUnits="userSpaceOnUse">
<stop stop-color="#0277BD"/>
<stop offset="1" stop-color="#81D4FA"/>
</linearGradient>
<radialGradient id="paint3_radial_258_2345" cx="0" cy="0" r="1" gradientUnits="userSpaceOnUse" gradientTransform="translate(171.075 61.5274) scale(195.439 198.275)">
<stop stop-color="white"/>
<stop offset="0.043671" stop-color="#D6D6D6"/>
<stop offset="0.099335" stop-color="#AAAAAA"/>
<stop offset="0.1607" stop-color="#818181"/>
<stop offset="0.2264" stop-color="#5E5E5E"/>
<stop offset="0.2976" stop-color="#414141"/>
<stop offset="0.3761" stop-color="#292929"/>
<stop offset="0.465" stop-color="#171717"/>
<stop offset="0.5702" stop-color="#0A0A0A"/>
<stop offset="0.7078" stop-color="#020202"/>
<stop offset="1"/>
</radialGradient>
<radialGradient id="paint4_radial_258_2345" cx="0" cy="0" r="1" gradientUnits="userSpaceOnUse" gradientTransform="translate(171.074 61.5275) scale(195.45 198.286)">
<stop stop-color="white"/>
<stop offset="0.043671" stop-color="#D6D6D6"/>
<stop offset="0.099335" stop-color="#AAAAAA"/>
<stop offset="0.1607" stop-color="#818181"/>
<stop offset="0.2264" stop-color="#5E5E5E"/>
<stop offset="0.2976" stop-color="#414141"/>
<stop offset="0.3761" stop-color="#292929"/>
<stop offset="0.465" stop-color="#171717"/>
<stop offset="0.5702" stop-color="#0A0A0A"/>
<stop offset="0.7078" stop-color="#020202"/>
<stop offset="1"/>
</radialGradient>
<radialGradient id="paint5_radial_258_2345" cx="0" cy="0" r="1" gradientUnits="userSpaceOnUse" gradientTransform="translate(171.074 61.5275) scale(195.45 198.286)">
<stop stop-color="#004D40"/>
<stop offset="0.1471" stop-color="#00897B"/>
<stop offset="1" stop-color="#26A69A"/>
</radialGradient>
<radialGradient id="paint6_radial_258_2345" cx="0" cy="0" r="1" gradientUnits="userSpaceOnUse" gradientTransform="translate(171.076 61.5246) scale(195.438 198.275)">
<stop stop-color="white"/>
<stop offset="0.043671" stop-color="#D6D6D6"/>
<stop offset="0.099335" stop-color="#AAAAAA"/>
<stop offset="0.1607" stop-color="#818181"/>
<stop offset="0.2264" stop-color="#5E5E5E"/>
<stop offset="0.2976" stop-color="#414141"/>
<stop offset="0.3761" stop-color="#292929"/>
<stop offset="0.465" stop-color="#171717"/>
<stop offset="0.5702" stop-color="#0A0A0A"/>
<stop offset="0.7078" stop-color="#020202"/>
<stop offset="1"/>
</radialGradient>
<radialGradient id="paint7_radial_258_2345" cx="0" cy="0" r="1" gradientUnits="userSpaceOnUse" gradientTransform="translate(171.075 61.5267) scale(195.441 198.277)">
<stop stop-color="white"/>
<stop offset="0.043671" stop-color="#D6D6D6"/>
<stop offset="0.099335" stop-color="#AAAAAA"/>
<stop offset="0.1607" stop-color="#818181"/>
<stop offset="0.2264" stop-color="#5E5E5E"/>
<stop offset="0.2976" stop-color="#414141"/>
<stop offset="0.3761" stop-color="#292929"/>
<stop offset="0.465" stop-color="#171717"/>
<stop offset="0.5702" stop-color="#0A0A0A"/>
<stop offset="0.7078" stop-color="#020202"/>
<stop offset="1"/>
</radialGradient>
<radialGradient id="paint8_radial_258_2345" cx="0" cy="0" r="1" gradientUnits="userSpaceOnUse" gradientTransform="translate(171.072 61.5257) scale(195.438 198.275)">
<stop stop-color="white"/>
<stop offset="0.043671" stop-color="#D6D6D6"/>
<stop offset="0.099335" stop-color="#AAAAAA"/>
<stop offset="0.1607" stop-color="#818181"/>
<stop offset="0.2264" stop-color="#5E5E5E"/>
<stop offset="0.2976" stop-color="#414141"/>
<stop offset="0.3761" stop-color="#292929"/>
<stop offset="0.465" stop-color="#171717"/>
<stop offset="0.5702" stop-color="#0A0A0A"/>
<stop offset="0.7078" stop-color="#020202"/>
<stop offset="1"/>
</radialGradient>
<radialGradient id="paint9_radial_258_2345" cx="0" cy="0" r="1" gradientUnits="userSpaceOnUse" gradientTransform="translate(171.075 61.5276) scale(195.438 198.274)">
<stop stop-color="white"/>
<stop offset="0.043671" stop-color="#D6D6D6"/>
<stop offset="0.099335" stop-color="#AAAAAA"/>
<stop offset="0.1607" stop-color="#818181"/>
<stop offset="0.2264" stop-color="#5E5E5E"/>
<stop offset="0.2976" stop-color="#414141"/>
<stop offset="0.3761" stop-color="#292929"/>
<stop offset="0.465" stop-color="#171717"/>
<stop offset="0.5702" stop-color="#0A0A0A"/>
<stop offset="0.7078" stop-color="#020202"/>
<stop offset="1"/>
</radialGradient>
<radialGradient id="paint10_radial_258_2345" cx="0" cy="0" r="1" gradientUnits="userSpaceOnUse" gradientTransform="translate(171.074 61.5262) scale(195.443 198.28)">
<stop stop-color="white"/>
<stop offset="0.043671" stop-color="#D6D6D6"/>
<stop offset="0.099335" stop-color="#AAAAAA"/>
<stop offset="0.1607" stop-color="#818181"/>
<stop offset="0.2264" stop-color="#5E5E5E"/>
<stop offset="0.2976" stop-color="#414141"/>
<stop offset="0.3761" stop-color="#292929"/>
<stop offset="0.465" stop-color="#171717"/>
<stop offset="0.5702" stop-color="#0A0A0A"/>
<stop offset="0.7078" stop-color="#020202"/>
<stop offset="1"/>
</radialGradient>
<radialGradient id="paint11_radial_258_2345" cx="0" cy="0" r="1" gradientUnits="userSpaceOnUse" gradientTransform="translate(171.074 61.5262) scale(195.444 198.28)">
<stop stop-color="white"/>
<stop offset="0.043671" stop-color="#D6D6D6"/>
<stop offset="0.099335" stop-color="#AAAAAA"/>
<stop offset="0.1607" stop-color="#818181"/>
<stop offset="0.2264" stop-color="#5E5E5E"/>
<stop offset="0.2976" stop-color="#414141"/>
<stop offset="0.3761" stop-color="#292929"/>
<stop offset="0.465" stop-color="#171717"/>
<stop offset="0.5702" stop-color="#0A0A0A"/>
<stop offset="0.7078" stop-color="#020202"/>
<stop offset="1"/>
</radialGradient>
<radialGradient id="paint12_radial_258_2345" cx="0" cy="0" r="1" gradientUnits="userSpaceOnUse" gradientTransform="translate(171.075 61.5267) scale(195.439 198.275)">
<stop stop-color="white"/>
<stop offset="0.043671" stop-color="#D6D6D6"/>
<stop offset="0.099335" stop-color="#AAAAAA"/>
<stop offset="0.1607" stop-color="#818181"/>
<stop offset="0.2264" stop-color="#5E5E5E"/>
<stop offset="0.2976" stop-color="#414141"/>
<stop offset="0.3761" stop-color="#292929"/>
<stop offset="0.465" stop-color="#171717"/>
<stop offset="0.5702" stop-color="#0A0A0A"/>
<stop offset="0.7078" stop-color="#020202"/>
<stop offset="1"/>
</radialGradient>
<radialGradient id="paint13_radial_258_2345" cx="0" cy="0" r="1" gradientUnits="userSpaceOnUse" gradientTransform="translate(171.07 61.5248) scale(195.448 198.283)">
<stop stop-color="white"/>
<stop offset="0.043671" stop-color="#D6D6D6"/>
<stop offset="0.099335" stop-color="#AAAAAA"/>
<stop offset="0.1607" stop-color="#818181"/>
<stop offset="0.2264" stop-color="#5E5E5E"/>
<stop offset="0.2976" stop-color="#414141"/>
<stop offset="0.3761" stop-color="#292929"/>
<stop offset="0.465" stop-color="#171717"/>
<stop offset="0.5702" stop-color="#0A0A0A"/>
<stop offset="0.7078" stop-color="#020202"/>
<stop offset="1"/>
</radialGradient>
<radialGradient id="paint14_radial_258_2345" cx="0" cy="0" r="1" gradientUnits="userSpaceOnUse" gradientTransform="translate(171.069 61.5303) scale(195.451 198.287)">
<stop stop-color="white"/>
<stop offset="0.043671" stop-color="#D6D6D6"/>
<stop offset="0.099335" stop-color="#AAAAAA"/>
<stop offset="0.1607" stop-color="#818181"/>
<stop offset="0.2264" stop-color="#5E5E5E"/>
<stop offset="0.2976" stop-color="#414141"/>
<stop offset="0.3761" stop-color="#292929"/>
<stop offset="0.465" stop-color="#171717"/>
<stop offset="0.5702" stop-color="#0A0A0A"/>
<stop offset="0.7078" stop-color="#020202"/>
<stop offset="1"/>
</radialGradient>
<radialGradient id="paint15_radial_258_2345" cx="0" cy="0" r="1" gradientUnits="userSpaceOnUse" gradientTransform="translate(171.079 61.5257) scale(195.432 198.268)">
<stop stop-color="white"/>
<stop offset="0.043671" stop-color="#D6D6D6"/>
<stop offset="0.099335" stop-color="#AAAAAA"/>
<stop offset="0.1607" stop-color="#818181"/>
<stop offset="0.2264" stop-color="#5E5E5E"/>
<stop offset="0.2976" stop-color="#414141"/>
<stop offset="0.3761" stop-color="#292929"/>
<stop offset="0.465" stop-color="#171717"/>
<stop offset="0.5702" stop-color="#0A0A0A"/>
<stop offset="0.7078" stop-color="#020202"/>
<stop offset="1"/>
</radialGradient>
<radialGradient id="paint16_radial_258_2345" cx="0" cy="0" r="1" gradientUnits="userSpaceOnUse" gradientTransform="translate(171.074 61.5262) scale(195.442 198.278)">
<stop stop-color="white"/>
<stop offset="0.043671" stop-color="#D6D6D6"/>
<stop offset="0.099335" stop-color="#AAAAAA"/>
<stop offset="0.1607" stop-color="#818181"/>
<stop offset="0.2264" stop-color="#5E5E5E"/>
<stop offset="0.2976" stop-color="#414141"/>
<stop offset="0.3761" stop-color="#292929"/>
<stop offset="0.465" stop-color="#171717"/>
<stop offset="0.5702" stop-color="#0A0A0A"/>
<stop offset="0.7078" stop-color="#020202"/>
<stop offset="1"/>
</radialGradient>
<radialGradient id="paint17_radial_258_2345" cx="0" cy="0" r="1" gradientUnits="userSpaceOnUse" gradientTransform="translate(171.073 61.5278) scale(195.445 198.281)">
<stop stop-color="white"/>
<stop offset="0.043671" stop-color="#D6D6D6"/>
<stop offset="0.099335" stop-color="#AAAAAA"/>
<stop offset="0.1607" stop-color="#818181"/>
<stop offset="0.2264" stop-color="#5E5E5E"/>
<stop offset="0.2976" stop-color="#414141"/>
<stop offset="0.3761" stop-color="#292929"/>
<stop offset="0.465" stop-color="#171717"/>
<stop offset="0.5702" stop-color="#0A0A0A"/>
<stop offset="0.7078" stop-color="#020202"/>
<stop offset="1"/>
</radialGradient>
<radialGradient id="paint18_radial_258_2345" cx="0" cy="0" r="1" gradientUnits="userSpaceOnUse" gradientTransform="translate(171.074 61.5256) scale(195.445 198.282)">
<stop stop-color="white"/>
<stop offset="0.043671" stop-color="#D6D6D6"/>
<stop offset="0.099335" stop-color="#AAAAAA"/>
<stop offset="0.1607" stop-color="#818181"/>
<stop offset="0.2264" stop-color="#5E5E5E"/>
<stop offset="0.2976" stop-color="#414141"/>
<stop offset="0.3761" stop-color="#292929"/>
<stop offset="0.465" stop-color="#171717"/>
<stop offset="0.5702" stop-color="#0A0A0A"/>
<stop offset="0.7078" stop-color="#020202"/>
<stop offset="1"/>
</radialGradient>
<radialGradient id="paint19_radial_258_2345" cx="0" cy="0" r="1" gradientUnits="userSpaceOnUse" gradientTransform="translate(171.079 61.5263) scale(195.446 198.282)">
<stop stop-color="white"/>
<stop offset="0.043671" stop-color="#D6D6D6"/>
<stop offset="0.099335" stop-color="#AAAAAA"/>
<stop offset="0.1607" stop-color="#818181"/>
<stop offset="0.2264" stop-color="#5E5E5E"/>
<stop offset="0.2976" stop-color="#414141"/>
<stop offset="0.3761" stop-color="#292929"/>
<stop offset="0.465" stop-color="#171717"/>
<stop offset="0.5702" stop-color="#0A0A0A"/>
<stop offset="0.7078" stop-color="#020202"/>
<stop offset="1"/>
</radialGradient>
<radialGradient id="paint20_radial_258_2345" cx="0" cy="0" r="1" gradientUnits="userSpaceOnUse" gradientTransform="translate(171.074 61.5265) scale(195.44 198.276)">
<stop stop-color="white"/>
<stop offset="0.043671" stop-color="#D6D6D6"/>
<stop offset="0.099335" stop-color="#AAAAAA"/>
<stop offset="0.1607" stop-color="#818181"/>
<stop offset="0.2264" stop-color="#5E5E5E"/>
<stop offset="0.2976" stop-color="#414141"/>
<stop offset="0.3761" stop-color="#292929"/>
<stop offset="0.465" stop-color="#171717"/>
<stop offset="0.5702" stop-color="#0A0A0A"/>
<stop offset="0.7078" stop-color="#020202"/>
<stop offset="1"/>
</radialGradient>
<radialGradient id="paint21_radial_258_2345" cx="0" cy="0" r="1" gradientUnits="userSpaceOnUse" gradientTransform="translate(171.075 61.5272) scale(195.44 198.276)">
<stop stop-color="white"/>
<stop offset="0.043671" stop-color="#D6D6D6"/>
<stop offset="0.099335" stop-color="#AAAAAA"/>
<stop offset="0.1607" stop-color="#818181"/>
<stop offset="0.2264" stop-color="#5E5E5E"/>
<stop offset="0.2976" stop-color="#414141"/>
<stop offset="0.3761" stop-color="#292929"/>
<stop offset="0.465" stop-color="#171717"/>
<stop offset="0.5702" stop-color="#0A0A0A"/>
<stop offset="0.7078" stop-color="#020202"/>
<stop offset="1"/>
</radialGradient>
<radialGradient id="paint22_radial_258_2345" cx="0" cy="0" r="1" gradientUnits="userSpaceOnUse" gradientTransform="translate(171.075 61.5254) scale(195.437 198.273)">
<stop stop-color="white"/>
<stop offset="0.043671" stop-color="#D6D6D6"/>
<stop offset="0.099335" stop-color="#AAAAAA"/>
<stop offset="0.1607" stop-color="#818181"/>
<stop offset="0.2264" stop-color="#5E5E5E"/>
<stop offset="0.2976" stop-color="#414141"/>
<stop offset="0.3761" stop-color="#292929"/>
<stop offset="0.465" stop-color="#171717"/>
<stop offset="0.5702" stop-color="#0A0A0A"/>
<stop offset="0.7078" stop-color="#020202"/>
<stop offset="1"/>
</radialGradient>
<radialGradient id="paint23_radial_258_2345" cx="0" cy="0" r="1" gradientUnits="userSpaceOnUse" gradientTransform="translate(171.075 61.5255) scale(195.437 198.273)">
<stop stop-color="white"/>
<stop offset="0.043671" stop-color="#D6D6D6"/>
<stop offset="0.099335" stop-color="#AAAAAA"/>
<stop offset="0.1607" stop-color="#818181"/>
<stop offset="0.2264" stop-color="#5E5E5E"/>
<stop offset="0.2976" stop-color="#414141"/>
<stop offset="0.3761" stop-color="#292929"/>
<stop offset="0.465" stop-color="#171717"/>
<stop offset="0.5702" stop-color="#0A0A0A"/>
<stop offset="0.7078" stop-color="#020202"/>
<stop offset="1"/>
</radialGradient>
<radialGradient id="paint24_radial_258_2345" cx="0" cy="0" r="1" gradientUnits="userSpaceOnUse" gradientTransform="translate(171.075 61.5231) scale(195.44 198.275)">
<stop stop-color="white"/>
<stop offset="0.043671" stop-color="#D6D6D6"/>
<stop offset="0.099335" stop-color="#AAAAAA"/>
<stop offset="0.1607" stop-color="#818181"/>
<stop offset="0.2264" stop-color="#5E5E5E"/>
<stop offset="0.2976" stop-color="#414141"/>
<stop offset="0.3761" stop-color="#292929"/>
<stop offset="0.465" stop-color="#171717"/>
<stop offset="0.5702" stop-color="#0A0A0A"/>
<stop offset="0.7078" stop-color="#020202"/>
<stop offset="1"/>
</radialGradient>
<radialGradient id="paint25_radial_258_2345" cx="0" cy="0" r="1" gradientUnits="userSpaceOnUse" gradientTransform="translate(171.072 61.5243) scale(195.444 198.279)">
<stop stop-color="white"/>
<stop offset="0.043671" stop-color="#D6D6D6"/>
<stop offset="0.099335" stop-color="#AAAAAA"/>
<stop offset="0.1607" stop-color="#818181"/>
<stop offset="0.2264" stop-color="#5E5E5E"/>
<stop offset="0.2976" stop-color="#414141"/>
<stop offset="0.3761" stop-color="#292929"/>
<stop offset="0.465" stop-color="#171717"/>
<stop offset="0.5702" stop-color="#0A0A0A"/>
<stop offset="0.7078" stop-color="#020202"/>
<stop offset="1"/>
</radialGradient>
<radialGradient id="paint26_radial_258_2345" cx="0" cy="0" r="1" gradientUnits="userSpaceOnUse" gradientTransform="translate(171.076 61.5265) scale(195.444 198.28)">
<stop stop-color="white"/>
<stop offset="0.043671" stop-color="#D6D6D6"/>
<stop offset="0.099335" stop-color="#AAAAAA"/>
<stop offset="0.1607" stop-color="#818181"/>
<stop offset="0.2264" stop-color="#5E5E5E"/>
<stop offset="0.2976" stop-color="#414141"/>
<stop offset="0.3761" stop-color="#292929"/>
<stop offset="0.465" stop-color="#171717"/>
<stop offset="0.5702" stop-color="#0A0A0A"/>
<stop offset="0.7078" stop-color="#020202"/>
<stop offset="1"/>
</radialGradient>
<radialGradient id="paint27_radial_258_2345" cx="0" cy="0" r="1" gradientUnits="userSpaceOnUse" gradientTransform="translate(171.074 61.5265) scale(195.441 198.277)">
<stop stop-color="white"/>
<stop offset="0.043671" stop-color="#D6D6D6"/>
<stop offset="0.099335" stop-color="#AAAAAA"/>
<stop offset="0.1607" stop-color="#818181"/>
<stop offset="0.2264" stop-color="#5E5E5E"/>
<stop offset="0.2976" stop-color="#414141"/>
<stop offset="0.3761" stop-color="#292929"/>
<stop offset="0.465" stop-color="#171717"/>
<stop offset="0.5702" stop-color="#0A0A0A"/>
<stop offset="0.7078" stop-color="#020202"/>
<stop offset="1"/>
</radialGradient>
<radialGradient id="paint28_radial_258_2345" cx="0" cy="0" r="1" gradientUnits="userSpaceOnUse" gradientTransform="translate(171.075 61.5267) scale(195.441 198.277)">
<stop stop-color="white"/>
<stop offset="0.043671" stop-color="#D6D6D6"/>
<stop offset="0.099335" stop-color="#AAAAAA"/>
<stop offset="0.1607" stop-color="#818181"/>
<stop offset="0.2264" stop-color="#5E5E5E"/>
<stop offset="0.2976" stop-color="#414141"/>
<stop offset="0.3761" stop-color="#292929"/>
<stop offset="0.465" stop-color="#171717"/>
<stop offset="0.5702" stop-color="#0A0A0A"/>
<stop offset="0.7078" stop-color="#020202"/>
<stop offset="1"/>
</radialGradient>
<radialGradient id="paint29_radial_258_2345" cx="0" cy="0" r="1" gradientUnits="userSpaceOnUse" gradientTransform="translate(171.075 61.5267) scale(195.438 198.274)">
<stop stop-color="white"/>
<stop offset="0.043671" stop-color="#D6D6D6"/>
<stop offset="0.099335" stop-color="#AAAAAA"/>
<stop offset="0.1607" stop-color="#818181"/>
<stop offset="0.2264" stop-color="#5E5E5E"/>
<stop offset="0.2976" stop-color="#414141"/>
<stop offset="0.3761" stop-color="#292929"/>
<stop offset="0.465" stop-color="#171717"/>
<stop offset="0.5702" stop-color="#0A0A0A"/>
<stop offset="0.7078" stop-color="#020202"/>
<stop offset="1"/>
</radialGradient>
<radialGradient id="paint30_radial_258_2345" cx="0" cy="0" r="1" gradientUnits="userSpaceOnUse" gradientTransform="translate(171.072 61.5261) scale(195.445 198.281)">
<stop stop-color="white"/>
<stop offset="0.043671" stop-color="#D6D6D6"/>
<stop offset="0.099335" stop-color="#AAAAAA"/>
<stop offset="0.1607" stop-color="#818181"/>
<stop offset="0.2264" stop-color="#5E5E5E"/>
<stop offset="0.2976" stop-color="#414141"/>
<stop offset="0.3761" stop-color="#292929"/>
<stop offset="0.465" stop-color="#171717"/>
<stop offset="0.5702" stop-color="#0A0A0A"/>
<stop offset="0.7078" stop-color="#020202"/>
<stop offset="1"/>
</radialGradient>
<radialGradient id="paint31_radial_258_2345" cx="0" cy="0" r="1" gradientUnits="userSpaceOnUse" gradientTransform="translate(171.076 61.5269) scale(195.437 198.272)">
<stop stop-color="white"/>
<stop offset="0.043671" stop-color="#D6D6D6"/>
<stop offset="0.099335" stop-color="#AAAAAA"/>
<stop offset="0.1607" stop-color="#818181"/>
<stop offset="0.2264" stop-color="#5E5E5E"/>
<stop offset="0.2976" stop-color="#414141"/>
<stop offset="0.3761" stop-color="#292929"/>
<stop offset="0.465" stop-color="#171717"/>
<stop offset="0.5702" stop-color="#0A0A0A"/>
<stop offset="0.7078" stop-color="#020202"/>
<stop offset="1"/>
</radialGradient>
<radialGradient id="paint32_radial_258_2345" cx="0" cy="0" r="1" gradientUnits="userSpaceOnUse" gradientTransform="translate(171.073 61.5263) scale(195.438 198.274)">
<stop stop-color="white"/>
<stop offset="0.043671" stop-color="#D6D6D6"/>
<stop offset="0.099335" stop-color="#AAAAAA"/>
<stop offset="0.1607" stop-color="#818181"/>
<stop offset="0.2264" stop-color="#5E5E5E"/>
<stop offset="0.2976" stop-color="#414141"/>
<stop offset="0.3761" stop-color="#292929"/>
<stop offset="0.465" stop-color="#171717"/>
<stop offset="0.5702" stop-color="#0A0A0A"/>
<stop offset="0.7078" stop-color="#020202"/>
<stop offset="1"/>
</radialGradient>
<radialGradient id="paint33_radial_258_2345" cx="0" cy="0" r="1" gradientUnits="userSpaceOnUse" gradientTransform="translate(171.075 61.5271) scale(195.442 198.279)">
<stop stop-color="white"/>
<stop offset="0.043671" stop-color="#D6D6D6"/>
<stop offset="0.099335" stop-color="#AAAAAA"/>
<stop offset="0.1607" stop-color="#818181"/>
<stop offset="0.2264" stop-color="#5E5E5E"/>
<stop offset="0.2976" stop-color="#414141"/>
<stop offset="0.3761" stop-color="#292929"/>
<stop offset="0.465" stop-color="#171717"/>
<stop offset="0.5702" stop-color="#0A0A0A"/>
<stop offset="0.7078" stop-color="#020202"/>
<stop offset="1"/>
</radialGradient>
<radialGradient id="paint34_radial_258_2345" cx="0" cy="0" r="1" gradientUnits="userSpaceOnUse" gradientTransform="translate(171.073 61.5278) scale(195.444 198.281)">
<stop stop-color="white"/>
<stop offset="0.043671" stop-color="#D6D6D6"/>
<stop offset="0.099335" stop-color="#AAAAAA"/>
<stop offset="0.1607" stop-color="#818181"/>
<stop offset="0.2264" stop-color="#5E5E5E"/>
<stop offset="0.2976" stop-color="#414141"/>
<stop offset="0.3761" stop-color="#292929"/>
<stop offset="0.465" stop-color="#171717"/>
<stop offset="0.5702" stop-color="#0A0A0A"/>
<stop offset="0.7078" stop-color="#020202"/>
<stop offset="1"/>
</radialGradient>
<radialGradient id="paint35_radial_258_2345" cx="0" cy="0" r="1" gradientUnits="userSpaceOnUse" gradientTransform="translate(171.077 61.5271) scale(195.439 198.275)">
<stop stop-color="white"/>
<stop offset="0.043671" stop-color="#D6D6D6"/>
<stop offset="0.099335" stop-color="#AAAAAA"/>
<stop offset="0.1607" stop-color="#818181"/>
<stop offset="0.2264" stop-color="#5E5E5E"/>
<stop offset="0.2976" stop-color="#414141"/>
<stop offset="0.3761" stop-color="#292929"/>
<stop offset="0.465" stop-color="#171717"/>
<stop offset="0.5702" stop-color="#0A0A0A"/>
<stop offset="0.7078" stop-color="#020202"/>
<stop offset="1"/>
</radialGradient>
<radialGradient id="paint36_radial_258_2345" cx="0" cy="0" r="1" gradientUnits="userSpaceOnUse" gradientTransform="translate(171.07 61.5262) scale(195.447 198.283)">
<stop stop-color="white"/>
<stop offset="0.043671" stop-color="#D6D6D6"/>
<stop offset="0.099335" stop-color="#AAAAAA"/>
<stop offset="0.1607" stop-color="#818181"/>
<stop offset="0.2264" stop-color="#5E5E5E"/>
<stop offset="0.2976" stop-color="#414141"/>
<stop offset="0.3761" stop-color="#292929"/>
<stop offset="0.465" stop-color="#171717"/>
<stop offset="0.5702" stop-color="#0A0A0A"/>
<stop offset="0.7078" stop-color="#020202"/>
<stop offset="1"/>
</radialGradient>
<radialGradient id="paint37_radial_258_2345" cx="0" cy="0" r="1" gradientUnits="userSpaceOnUse" gradientTransform="translate(171.075 61.5264) scale(195.444 198.28)">
<stop stop-color="white"/>
<stop offset="0.043671" stop-color="#D6D6D6"/>
<stop offset="0.099335" stop-color="#AAAAAA"/>
<stop offset="0.1607" stop-color="#818181"/>
<stop offset="0.2264" stop-color="#5E5E5E"/>
<stop offset="0.2976" stop-color="#414141"/>
<stop offset="0.3761" stop-color="#292929"/>
<stop offset="0.465" stop-color="#171717"/>
<stop offset="0.5702" stop-color="#0A0A0A"/>
<stop offset="0.7078" stop-color="#020202"/>
<stop offset="1"/>
</radialGradient>
<radialGradient id="paint38_radial_258_2345" cx="0" cy="0" r="1" gradientUnits="userSpaceOnUse" gradientTransform="translate(171.074 61.5256) scale(195.444 198.28)">
<stop stop-color="white"/>
<stop offset="0.043671" stop-color="#D6D6D6"/>
<stop offset="0.099335" stop-color="#AAAAAA"/>
<stop offset="0.1607" stop-color="#818181"/>
<stop offset="0.2264" stop-color="#5E5E5E"/>
<stop offset="0.2976" stop-color="#414141"/>
<stop offset="0.3761" stop-color="#292929"/>
<stop offset="0.465" stop-color="#171717"/>
<stop offset="0.5702" stop-color="#0A0A0A"/>
<stop offset="0.7078" stop-color="#020202"/>
<stop offset="1"/>
</radialGradient>
<radialGradient id="paint39_radial_258_2345" cx="0" cy="0" r="1" gradientUnits="userSpaceOnUse" gradientTransform="translate(171.075 61.5257) scale(195.432 198.268)">
<stop stop-color="white"/>
<stop offset="0.043671" stop-color="#D6D6D6"/>
<stop offset="0.099335" stop-color="#AAAAAA"/>
<stop offset="0.1607" stop-color="#818181"/>
<stop offset="0.2264" stop-color="#5E5E5E"/>
<stop offset="0.2976" stop-color="#414141"/>
<stop offset="0.3761" stop-color="#292929"/>
<stop offset="0.465" stop-color="#171717"/>
<stop offset="0.5702" stop-color="#0A0A0A"/>
<stop offset="0.7078" stop-color="#020202"/>
<stop offset="1"/>
</radialGradient>
<radialGradient id="paint40_radial_258_2345" cx="0" cy="0" r="1" gradientUnits="userSpaceOnUse" gradientTransform="translate(171.074 61.528) scale(195.444 198.28)">
<stop stop-color="white"/>
<stop offset="0.043671" stop-color="#D6D6D6"/>
<stop offset="0.099335" stop-color="#AAAAAA"/>
<stop offset="0.1607" stop-color="#818181"/>
<stop offset="0.2264" stop-color="#5E5E5E"/>
<stop offset="0.2976" stop-color="#414141"/>
<stop offset="0.3761" stop-color="#292929"/>
<stop offset="0.465" stop-color="#171717"/>
<stop offset="0.5702" stop-color="#0A0A0A"/>
<stop offset="0.7078" stop-color="#020202"/>
<stop offset="1"/>
</radialGradient>
<radialGradient id="paint41_radial_258_2345" cx="0" cy="0" r="1" gradientUnits="userSpaceOnUse" gradientTransform="translate(171.075 61.526) scale(195.44 198.276)">
<stop stop-color="white"/>
<stop offset="0.043671" stop-color="#D6D6D6"/>
<stop offset="0.099335" stop-color="#AAAAAA"/>
<stop offset="0.1607" stop-color="#818181"/>
<stop offset="0.2264" stop-color="#5E5E5E"/>
<stop offset="0.2976" stop-color="#414141"/>
<stop offset="0.3761" stop-color="#292929"/>
<stop offset="0.465" stop-color="#171717"/>
<stop offset="0.5702" stop-color="#0A0A0A"/>
<stop offset="0.7078" stop-color="#020202"/>
<stop offset="1"/>
</radialGradient>
<radialGradient id="paint42_radial_258_2345" cx="0" cy="0" r="1" gradientUnits="userSpaceOnUse" gradientTransform="translate(171.075 61.5276) scale(195.439 198.275)">
<stop stop-color="white"/>
<stop offset="0.043671" stop-color="#D6D6D6"/>
<stop offset="0.099335" stop-color="#AAAAAA"/>
<stop offset="0.1607" stop-color="#818181"/>
<stop offset="0.2264" stop-color="#5E5E5E"/>
<stop offset="0.2976" stop-color="#414141"/>
<stop offset="0.3761" stop-color="#292929"/>
<stop offset="0.465" stop-color="#171717"/>
<stop offset="0.5702" stop-color="#0A0A0A"/>
<stop offset="0.7078" stop-color="#020202"/>
<stop offset="1"/>
</radialGradient>
<radialGradient id="paint43_radial_258_2345" cx="0" cy="0" r="1" gradientUnits="userSpaceOnUse" gradientTransform="translate(171.074 61.5242) scale(195.436 198.273)">
<stop stop-color="white"/>
<stop offset="0.043671" stop-color="#D6D6D6"/>
<stop offset="0.099335" stop-color="#AAAAAA"/>
<stop offset="0.1607" stop-color="#818181"/>
<stop offset="0.2264" stop-color="#5E5E5E"/>
<stop offset="0.2976" stop-color="#414141"/>
<stop offset="0.3761" stop-color="#292929"/>
<stop offset="0.465" stop-color="#171717"/>
<stop offset="0.5702" stop-color="#0A0A0A"/>
<stop offset="0.7078" stop-color="#020202"/>
<stop offset="1"/>
</radialGradient>
<radialGradient id="paint44_radial_258_2345" cx="0" cy="0" r="1" gradientUnits="userSpaceOnUse" gradientTransform="translate(171.076 61.5268) scale(195.448 198.283)">
<stop stop-color="white"/>
<stop offset="0.043671" stop-color="#D6D6D6"/>
<stop offset="0.099335" stop-color="#AAAAAA"/>
<stop offset="0.1607" stop-color="#818181"/>
<stop offset="0.2264" stop-color="#5E5E5E"/>
<stop offset="0.2976" stop-color="#414141"/>
<stop offset="0.3761" stop-color="#292929"/>
<stop offset="0.465" stop-color="#171717"/>
<stop offset="0.5702" stop-color="#0A0A0A"/>
<stop offset="0.7078" stop-color="#020202"/>
<stop offset="1"/>
</radialGradient>
<radialGradient id="paint45_radial_258_2345" cx="0" cy="0" r="1" gradientUnits="userSpaceOnUse" gradientTransform="translate(171.076 61.5268) scale(195.448 198.283)">
<stop stop-color="#009FE3"/>
<stop offset="0.1471" stop-color="#009FE3"/>
<stop offset="1" stop-color="#009FE3"/>
</radialGradient>
<radialGradient id="paint46_radial_258_2345" cx="0" cy="0" r="1" gradientUnits="userSpaceOnUse" gradientTransform="translate(171.073 61.5265) scale(195.439 198.275)">
<stop stop-color="white"/>
<stop offset="0.043671" stop-color="#D6D6D6"/>
<stop offset="0.099335" stop-color="#AAAAAA"/>
<stop offset="0.1607" stop-color="#818181"/>
<stop offset="0.2264" stop-color="#5E5E5E"/>
<stop offset="0.2976" stop-color="#414141"/>
<stop offset="0.3761" stop-color="#292929"/>
<stop offset="0.465" stop-color="#171717"/>
<stop offset="0.5702" stop-color="#0A0A0A"/>
<stop offset="0.7078" stop-color="#020202"/>
<stop offset="1"/>
</radialGradient>
<linearGradient id="paint47_linear_258_2345" x1="216" y1="55.3246" x2="304.5" y2="55.3246" gradientUnits="userSpaceOnUse">
<stop stop-color="white"/>
<stop offset="1" stop-color="white" stop-opacity="0"/>
</linearGradient>
<linearGradient id="paint48_linear_258_2345" x1="224" y1="49.2375" x2="278" y2="49.2375" gradientUnits="userSpaceOnUse">
<stop stop-color="white"/>
<stop offset="1" stop-color="white" stop-opacity="0"/>
</linearGradient>
</defs>
</svg>
