<svg width="375" height="180" viewBox="0 0 375 180" fill="none" xmlns="http://www.w3.org/2000/svg">
<mask id="mask0_191_3867" style="mask-type:alpha" maskUnits="userSpaceOnUse" x="0" y="0" width="375" height="180">
<path d="M0 0H375V180H40C17.9086 180 0 162.091 0 140V0Z" fill="#5F2EEA"/>
</mask>
<g mask="url(#mask0_191_3867)">
<path d="M372.9 250H2.1C0.95 250 0 249.05 0 247.9V2.1C0 0.95 0.95 0 2.1 0H372.9C374.05 0 375 0.95 375 2.1V247.9C375 249.05 374.05 250 372.9 250Z" fill="#E5E7E6"/>
<path d="M309.6 54.85H331.35C332.5 54.85 333.45 55.8 333.45 56.95V78.7C333.45 79.85 332.5 80.8 331.35 80.8H309.6C308.45 80.8 307.5 79.85 307.5 78.7V56.95C307.5 55.8 308.4 54.85 309.6 54.85Z" fill="#EDEFEE"/>
<path d="M315.85 116.4H346.85C348 116.4 348.95 117.35 348.95 118.5V149.5C348.95 150.65 348 151.6 346.85 151.6H315.85C314.7 151.6 313.75 150.65 313.75 149.5V118.5C313.75 117.35 314.7 116.4 315.85 116.4Z" fill="#DEE0DF"/>
<path d="M361.05 127.8H392.05C393.2 127.8 394.15 128.75 394.15 129.9V160.9C394.15 162.05 393.2 163 392.05 163H361.05C359.9 163 358.95 162.05 358.95 160.9V129.9C358.95 128.75 359.9 127.8 361.05 127.8Z" fill="#DEE0DF"/>
<path d="M351.8 2.95001H382.8C383.95 2.95001 384.9 3.90001 384.9 5.05001V36.05C384.9 37.2 383.95 38.15 382.8 38.15H351.8C350.65 38.15 349.7 37.2 349.7 36.05V5.05001C349.7 3.90001 350.65 2.95001 351.8 2.95001Z" fill="#DEE0DF"/>
<path d="M308.7 195.25H280.8C279.65 195.25 278.7 194.3 278.7 193.15V165.25C278.7 164.1 279.65 163.15 280.8 163.15H308.7C309.85 163.15 310.8 164.1 310.8 165.25V193.15C310.8 194.3 309.9 195.25 308.7 195.25ZM307.9 163.95H281.6C280.45 163.95 279.5 164.9 279.5 166.05V192.35C279.5 193.5 280.45 194.45 281.6 194.45H307.9C309.05 194.45 310 193.5 310 192.35V166.05C310 164.9 309.05 163.95 307.9 163.95Z" fill="#DEE0DF"/>
<path d="M357.25 123.6H329.35C328.2 123.6 327.25 122.65 327.25 121.5V93.6C327.25 92.45 328.2 91.5 329.35 91.5H357.25C358.4 91.5 359.35 92.45 359.35 93.6V121.5C359.35 122.65 358.4 123.6 357.25 123.6ZM356.4 92.3H330.1C328.95 92.3 328 93.25 328 94.4V120.7C328 121.85 328.95 122.8 330.1 122.8H356.4C357.55 122.8 358.5 121.85 358.5 120.7V94.4C358.55 93.25 357.6 92.3 356.4 92.3Z" fill="#DEE0DF"/>
<path d="M341.3 15.1H313.4C312.25 15.1 311.3 14.15 311.3 13V-14.9C311.3 -16.05 312.25 -17 313.4 -17H341.3C342.45 -17 343.4 -16.05 343.4 -14.9V13C343.4 14.15 342.45 15.1 341.3 15.1ZM340.5 -16.2H314.2C313.05 -16.2 312.1 -15.25 312.1 -14.1V12.2C312.1 13.35 313.05 14.3 314.2 14.3H340.5C341.65 14.3 342.6 13.35 342.6 12.2V-14.1C342.6 -15.25 341.65 -16.2 340.5 -16.2Z" fill="#DEE0DF"/>
<path d="M168.2 165H41.5998C40.4498 165 39.4998 164.05 39.4998 162.9V36.3C39.4998 35.15 40.4498 34.2 41.5998 34.2H168.2C169.35 34.2 170.3 35.15 170.3 36.3V162.9C170.3 164.1 169.35 165 168.2 165ZM167.4 35H42.3998C41.2498 35 40.2998 35.95 40.2998 37.1V162.1C40.2998 163.25 41.2498 164.2 42.3998 164.2H167.4C168.55 164.2 169.5 163.25 169.5 162.1V37.1C169.5 35.95 168.55 35 167.4 35Z" fill="#EDEFEE"/>
<path d="M301.8 43.8H175.2C174.05 43.8 173.1 42.85 173.1 41.7V-71.95C173.1 -80.3 179.85 -87.05 188.2 -87.05H288.85C297.2 -87.05 303.95 -80.3 303.95 -71.95V41.7C303.9 42.9 302.95 43.8 301.8 43.8ZM188.15 -86.2C180.25 -86.2 173.9 -79.8 173.9 -71.95V40.9C173.9 42.05 174.85 43 176 43H301C302.15 43 303.1 42.05 303.1 40.9V-71.95C303.1 -79.85 296.7 -86.2 288.85 -86.2H188.15V-86.2Z" fill="#EDEFEE"/>
<path d="M316 154.6H320C321.15 154.6 322.1 155.55 322.1 156.7V160.7C322.1 161.85 321.15 162.8 320 162.8H316C314.85 162.8 313.9 161.85 313.9 160.7V156.7C313.9 155.55 314.85 154.6 316 154.6Z" fill="#EDEFEE"/>
<path d="M285.05 126.7H289.05C290.2 126.7 291.15 127.65 291.15 128.8V132.8C291.15 133.95 290.2 134.9 289.05 134.9H285.05C283.9 134.9 282.95 133.95 282.95 132.8V128.8C282.9 127.65 283.85 126.7 285.05 126.7Z" fill="#EDEFEE"/>
<path d="M279.7 133C280.85 133 281.8 133.95 281.8 135.1C281.8 136.25 280.85 137.2 279.7 137.2C278.55 137.2 277.6 136.25 277.6 135.1C277.6 133.95 278.55 133 279.7 133Z" fill="#DEE0DF"/>
<path d="M320.45 105.45C321.6 105.45 322.55 106.4 322.55 107.55C322.55 108.7 321.6 109.65 320.45 109.65C319.3 109.65 318.35 108.7 318.35 107.55C318.35 106.4 319.3 105.45 320.45 105.45Z" fill="#DEE0DF"/>
<path d="M238.35 175.85H233.55C232.4 175.85 231.45 174.9 231.45 173.75V168.95C231.45 167.8 232.4 166.85 233.55 166.85H238.35C239.5 166.85 240.45 167.8 240.45 168.95V173.75C240.45 174.95 239.5 175.85 238.35 175.85ZM237.55 167.65H234.35C233.2 167.65 232.25 168.6 232.25 169.75V172.95C232.25 174.1 233.2 175.05 234.35 175.05H237.55C238.7 175.05 239.65 174.1 239.65 172.95V169.75C239.65 168.6 238.7 167.65 237.55 167.65Z" fill="#DEE0DF"/>
<path d="M229.85 131.75H233.85C235 131.75 235.95 132.7 235.95 133.85V137.85C235.95 139 235 139.95 233.85 139.95H229.85C228.7 139.95 227.75 139 227.75 137.85V133.85C227.7 132.7 228.65 131.75 229.85 131.75Z" fill="#DEE0DF"/>
<path d="M333.45 20.9H337.45C338.6 20.9 339.55 21.85 339.55 23V27C339.55 28.15 338.6 29.1 337.45 29.1H333.45C332.3 29.1 331.35 28.15 331.35 27V23C331.35 21.85 332.3 20.9 333.45 20.9Z" fill="#DEE0DF"/>
<path d="M238.05 154.55H250.65C251.8 154.55 252.75 155.5 252.75 156.65V169.25C252.75 170.4 251.8 171.35 250.65 171.35H238.05C236.9 171.35 235.95 170.4 235.95 169.25V156.65C235.95 155.5 236.9 154.55 238.05 154.55Z" fill="#DEE0DF"/>
<path d="M6.94985 59.95H-14.8001C-15.9501 59.95 -16.9001 59 -16.9001 57.85V36.1C-16.9001 34.95 -15.9501 34 -14.8001 34H6.94985C8.09985 34 9.04985 34.95 9.04985 36.1V57.85C9.04985 59 8.09985 59.95 6.94985 59.95Z" fill="#DEE0DF"/>
<path d="M61.3998 135.25H30.3998C29.2498 135.25 28.2998 134.3 28.2998 133.15V102.15C28.2998 101 29.2498 100.05 30.3998 100.05H61.3998C62.5498 100.05 63.4998 101 63.4998 102.15V133.15C63.4998 134.3 62.5498 135.25 61.3998 135.25Z" fill="#DEE0DF"/>
<path d="M16.2499 125.5H-14.7501C-15.9001 125.5 -16.8501 124.55 -16.8501 123.4V92.4C-16.8501 91.25 -15.9001 90.3 -14.7501 90.3H16.2499C17.3999 90.3 18.3499 91.25 18.3499 92.4V123.4C18.3499 124.55 17.3999 125.5 16.2499 125.5Z" fill="#DEE0DF"/>
<path d="M97.2998 42.2H51.6498C50.4998 42.2 49.5498 41.25 49.5498 40.1V-5.55002C49.5498 -6.70002 50.4998 -7.65002 51.6498 -7.65002H97.2998C98.4498 -7.65002 99.3998 -6.70002 99.3998 -5.55002V40.1C99.3998 41.3 98.4498 42.2 97.2998 42.2ZM96.4498 -6.85002H52.3998C51.2498 -6.85002 50.2998 -5.90002 50.2998 -4.75002V39.3C50.2998 40.45 51.2498 41.4 52.3998 41.4H96.4498C97.5998 41.4 98.5498 40.45 98.5498 39.3V-4.75002C98.5998 -5.90002 97.6498 -6.85002 96.4498 -6.85002Z" fill="#DEE0DF"/>
<path d="M96.4497 88.5499H68.5497C67.3997 88.5499 66.4497 87.5999 66.4497 86.4499V58.5499C66.4497 57.3999 67.3997 56.45 68.5497 56.45H96.4497C97.5997 56.45 98.5497 57.3999 98.5497 58.5499V86.4499C98.5497 87.5999 97.5997 88.5499 96.4497 88.5499ZM95.6497 57.25H69.3497C68.1997 57.25 67.2497 58.1999 67.2497 59.3499V85.6499C67.2497 86.7999 68.1997 87.7499 69.3497 87.7499H95.6497C96.7997 87.7499 97.7497 86.7999 97.7497 85.6499V59.3499C97.7497 58.1499 96.7997 57.25 95.6497 57.25Z" fill="#DEE0DF"/>
<path d="M27.0999 167.7H-0.800146C-1.95015 167.7 -2.90015 166.75 -2.90015 165.6V137.7C-2.90015 136.55 -1.95015 135.6 -0.800146 135.6H27.0999C28.2499 135.6 29.1999 136.55 29.1999 137.7V165.6C29.1999 166.75 28.2499 167.7 27.0999 167.7ZM26.2999 136.4H-0.000146043C-1.15015 136.4 -2.10015 137.35 -2.10015 138.5V164.8C-2.10015 165.95 -1.15015 166.9 -0.000146043 166.9H26.2999C27.4499 166.9 28.3999 165.95 28.3999 164.8V138.5C28.3999 137.3 27.4499 136.4 26.2999 136.4Z" fill="#DEE0DF"/>
<path d="M147.05 6.89996H142.25C141.1 6.89996 140.15 5.94996 140.15 4.79996V-3.67165e-05C140.15 -1.15004 141.1 -2.10004 142.25 -2.10004H147.05C148.2 -2.10004 149.15 -1.15004 149.15 -3.67165e-05V4.79996C149.15 5.94996 148.2 6.89996 147.05 6.89996ZM146.2 -1.35004H143C141.85 -1.35004 140.9 -0.400037 140.9 0.749963V3.94996C140.9 5.09996 141.85 6.04996 143 6.04996H146.2C147.35 6.04996 148.3 5.09996 148.3 3.94996V0.749963C148.35 -0.400037 147.4 -1.35004 146.2 -1.35004Z" fill="#DEE0DF"/>
<path d="M159.5 11.7H155.5C154.35 11.7 153.4 10.75 153.4 9.6V5.6C153.4 4.45 154.35 3.5 155.5 3.5H159.5C160.65 3.5 161.6 4.45 161.6 5.6V9.6C161.6 10.75 160.7 11.7 159.5 11.7Z" fill="#DEE0DF"/>
<path d="M61.2499 97.1H57.2499C56.0999 97.1 55.1499 96.15 55.1499 95V91C55.1499 89.85 56.0999 88.9 57.2499 88.9H61.2499C62.3999 88.9 63.3499 89.85 63.3499 91V95C63.3499 96.15 62.3999 97.1 61.2499 97.1Z" fill="#DEE0DF"/>
<path d="M92.2499 124.95H88.2499C87.0999 124.95 86.1499 124 86.1499 122.85V118.85C86.1499 117.7 87.0999 116.75 88.2499 116.75H92.2499C93.3999 116.75 94.3499 117.7 94.3499 118.85V122.85C94.3499 124 93.3999 124.95 92.2499 124.95Z" fill="#EDEFEE"/>
<path d="M73.9499 37.9H69.9499C68.7999 37.9 67.8499 36.9499 67.8499 35.7999V31.7999C67.8499 30.6499 68.7999 29.7 69.9499 29.7H73.9499C75.0999 29.7 76.0499 30.6499 76.0499 31.7999V35.7999C76.0499 36.9999 75.0999 37.9 73.9499 37.9Z" fill="#DEE0DF"/>
<path d="M97.5497 118.7C96.3997 118.7 95.4497 117.75 95.4497 116.6C95.4497 115.45 96.3997 114.5 97.5497 114.5C98.6997 114.5 99.6497 115.45 99.6497 116.6C99.6497 117.75 98.6997 118.7 97.5497 118.7Z" fill="#DEE0DF"/>
<path d="M81.6498 31.8999C80.4998 31.8999 79.5498 30.9499 79.5498 29.7999C79.5498 28.6499 80.4998 27.7 81.6498 27.7C82.7998 27.7 83.7498 28.6499 83.7498 29.7999C83.7998 30.9499 82.8498 31.8999 81.6498 31.8999Z" fill="#DEE0DF"/>
<path d="M104.2 5.89995C103.05 5.89995 102.1 4.94995 102.1 3.79995C102.1 2.64995 103.05 1.69995 104.2 1.69995C105.35 1.69995 106.3 2.64995 106.3 3.79995C106.3 4.94995 105.35 5.89995 104.2 5.89995Z" fill="#DEE0DF"/>
<path d="M56.7997 146.2C55.6497 146.2 54.6997 145.25 54.6997 144.1C54.6997 142.95 55.6497 142 56.7997 142C57.9497 142 58.8997 142.95 58.8997 144.1C58.9497 145.3 57.9997 146.2 56.7997 146.2Z" fill="#DEE0DF"/>
<path d="M142.5 19.15H129.9C128.75 19.15 127.8 18.2 127.8 17.05V4.44998C127.8 3.29998 128.75 2.34998 129.9 2.34998H142.5C143.65 2.34998 144.6 3.29998 144.6 4.44998V17.05C144.6 18.2 143.7 19.15 142.5 19.15Z" fill="#DEE0DF"/>
<path d="M143.75 84.85H138.95C137.8 84.85 136.85 83.9 136.85 82.75V77.95C136.85 76.8 137.8 75.85 138.95 75.85H143.75C144.9 75.85 145.85 76.8 145.85 77.95V82.75C145.85 83.9 144.9 84.85 143.75 84.85ZM142.95 76.6H139.75C138.6 76.6 137.65 77.55 137.65 78.7V81.9C137.65 83.05 138.6 84 139.75 84H142.95C144.1 84 145.05 83.05 145.05 81.9V78.7C145.05 77.55 144.1 76.6 142.95 76.6Z" fill="#DEE0DF"/>
<path d="M147.45 119.9H143.45C142.3 119.9 141.35 118.95 141.35 117.8V113.8C141.35 112.65 142.3 111.7 143.45 111.7H147.45C148.6 111.7 149.55 112.65 149.55 113.8V117.8C149.55 118.95 148.6 119.9 147.45 119.9Z" fill="#EDEFEE"/>
<path d="M139.25 97.1H126.65C125.5 97.1 124.55 96.15 124.55 95V82.4C124.55 81.25 125.5 80.3 126.65 80.3H139.25C140.4 80.3 141.35 81.25 141.35 82.4V95C141.35 96.15 140.4 97.1 139.25 97.1Z" fill="#DEE0DF"/>
<path d="M75.4499 115.8H69.1999C68.0499 115.8 67.0999 114.85 67.0999 113.7V107.45C67.0999 106.3 68.0499 105.35 69.1999 105.35H75.4499C76.5999 105.35 77.5499 106.3 77.5499 107.45V113.7C77.5499 114.85 76.5999 115.8 75.4499 115.8Z" fill="#EDEFEE"/>
<path d="M75.4499 105.35H69.1999C68.0499 105.35 67.0999 106.3 67.0999 107.45V113.7C67.0999 114.85 68.0499 115.8 69.1999 115.8H75.4499C76.5999 115.8 77.5499 114.85 77.5499 113.7V107.45C77.5499 106.3 76.5999 105.35 75.4499 105.35ZM77.2999 107.65V113.5C77.2999 114.65 76.3499 115.6 75.1999 115.6H69.3499C68.1999 115.6 67.2499 114.65 67.2499 113.5V107.65C67.2499 106.5 68.1999 105.55 69.3499 105.55H75.1999C76.3999 105.55 77.2999 106.5 77.2999 107.65Z" fill="#FBFBFB"/>
<path d="M118.75 62.55H87.2997C86.1497 62.55 85.1997 61.6 85.1997 60.45V29C85.1997 27.85 86.1497 26.9 87.2997 26.9H118.75C119.9 26.9 120.85 27.85 120.85 29V60.45C120.85 61.6 119.9 62.55 118.75 62.55Z" fill="#E5E7E6"/>
<path d="M118.75 26.9H87.2997C86.1497 26.9 85.1997 27.85 85.1997 29V60.45C85.1997 61.6 86.1497 62.55 87.2997 62.55H118.75C119.9 62.55 120.85 61.6 120.85 60.45V29C120.85 27.85 119.9 26.9 118.75 26.9ZM120.65 29.25V60.25C120.65 61.4 119.7 62.35 118.55 62.35H87.5497C86.3997 62.35 85.4497 61.4 85.4497 60.25V29.25C85.4497 28.1 86.3997 27.15 87.5497 27.15H118.55C119.7 27.1 120.65 28.05 120.65 29.25Z" fill="#FBFBFB"/>
<path d="M27.8999 115.55V94.15C27.8999 93 28.8499 92.05 29.9999 92.05H51.3999C52.5499 92.05 53.4999 93 53.4999 94.15V115.55C53.4999 116.7 52.5499 117.65 51.3999 117.65H29.9999C28.8499 117.65 27.8999 116.7 27.8999 115.55Z" fill="#E5E7E6"/>
<path d="M53.5499 115.55V94.15C53.5499 93 52.5999 92.05 51.4499 92.05H29.9999C28.8499 92.05 27.8999 93 27.8999 94.15V115.55C27.8999 116.7 28.8499 117.65 29.9999 117.65H51.3999C52.5999 117.65 53.5499 116.7 53.5499 115.55ZM28.0999 115.35V94.35C28.0999 93.2 29.0499 92.25 30.1999 92.25H51.1999C52.3499 92.25 53.2999 93.2 53.2999 94.35V115.35C53.2999 116.5 52.3499 117.45 51.1999 117.45H30.1999C29.0499 117.45 28.0999 116.5 28.0999 115.35Z" fill="#FBFBFB"/>
<path d="M45.2999 105.3H-1.0001C-2.1501 105.3 -3.1001 104.35 -3.1001 103.2V56.9C-3.1001 55.75 -2.1501 54.8 -1.0001 54.8H45.2999C46.4499 54.8 47.3999 55.75 47.3999 56.9V103.2C47.3999 104.35 46.4999 105.3 45.2999 105.3Z" fill="#E5E7E6"/>
<path d="M45.2999 54.8H-1.0001C-2.1501 54.8 -3.1001 55.75 -3.1001 56.9V103.2C-3.1001 104.35 -2.1501 105.3 -1.0001 105.3H45.2999C46.4499 105.3 47.3999 104.35 47.3999 103.2V56.9C47.3999 55.75 46.4999 54.8 45.2999 54.8ZM47.1999 57.1V103C47.1999 104.15 46.2499 105.1 45.0999 105.1H-0.800098C-1.9501 105.1 -2.9001 104.15 -2.9001 103V57.1C-2.9001 55.95 -1.9501 55 -0.800098 55H45.0999C46.2499 55 47.1999 55.95 47.1999 57.1Z" fill="#FBFBFB"/>
<path d="M78.3499 76.8H54.1999C53.0499 76.8 52.0999 75.85 52.0999 74.7V50.55C52.0999 49.4 53.0499 48.45 54.1999 48.45H78.3499C79.4999 48.45 80.4499 49.4 80.4499 50.55V74.7C80.4999 75.85 79.5499 76.8 78.3499 76.8Z" fill="#E5E7E6"/>
<path d="M78.3499 48.45H54.1999C53.0499 48.45 52.0999 49.4 52.0999 50.55V74.7C52.0999 75.85 53.0499 76.8 54.1999 76.8H78.3499C79.4999 76.8 80.4499 75.85 80.4499 74.7V50.55C80.4999 49.4 79.5499 48.45 78.3499 48.45ZM80.2499 50.75V74.45C80.2499 75.6 79.2999 76.55 78.1499 76.55H54.4499C53.2999 76.55 52.3499 75.6 52.3499 74.45V50.75C52.3499 49.6 53.2999 48.65 54.4499 48.65H78.1499C79.2999 48.65 80.2499 49.6 80.2499 50.75Z" fill="#FBFBFB"/>
<path d="M10.85 3.90002H68C69.15 3.90002 70.1 4.85002 70.1 6.00002V63.15C70.1 64.3 69.15 65.25 68 65.25H10.85C9.7 65.25 8.75 64.3 8.75 63.15V6.00002C8.75 4.85002 9.7 3.90002 10.85 3.90002Z" fill="#E5E7E6"/>
<path d="M68 3.90002H10.85C9.7 3.90002 8.75 4.85002 8.75 6.00002V63.15C8.75 64.3 9.7 65.25 10.85 65.25H68C69.15 65.25 70.1 64.3 70.1 63.15V6.00002C70.1 4.85002 69.15 3.90002 68 3.90002ZM69.9 6.25002V63C69.9 64.15 68.95 65.1 67.8 65.1H11.05C9.9 65.1 8.95 64.15 8.95 63V6.25002C8.95 5.10002 9.9 4.15002 11.05 4.15002H67.8C68.95 4.15002 69.9 5.05002 69.9 6.25002Z" fill="#FBFBFB"/>
<path d="M-8.15015 146.75V131.6C-8.15015 130.45 -7.20015 129.5 -6.05015 129.5H9.09985C10.2499 129.5 11.1999 130.45 11.1999 131.6V146.75C11.1999 147.9 10.2499 148.85 9.09985 148.85H-6.05015C-7.25015 148.85 -8.15015 147.95 -8.15015 146.75Z" fill="#EDEFEE"/>
<path d="M9.0498 129.55H-6.1002C-7.2502 129.55 -8.2002 130.5 -8.2002 131.65V146.8C-8.2002 147.95 -7.2502 148.9 -6.1002 148.9H9.0498C10.1998 148.9 11.1498 147.95 11.1498 146.8V131.65C11.1498 130.5 10.1998 129.55 9.0498 129.55ZM10.9498 131.85V146.55C10.9498 147.7 9.9998 148.65 8.8498 148.65H-5.8502C-7.0002 148.65 -7.9502 147.7 -7.9502 146.55V131.85C-7.9502 130.7 -7.0002 129.75 -5.8502 129.75H8.8498C9.9998 129.75 10.9498 130.7 10.9498 131.85Z" fill="#FBFBFB"/>
<path d="M7.4499 119.7H-1.0001C-2.1501 119.7 -3.1001 118.75 -3.1001 117.6V109.15C-3.1001 108 -2.1501 107.05 -1.0001 107.05H7.4499C8.5999 107.05 9.5499 108 9.5499 109.15V117.6C9.5499 118.8 8.5999 119.7 7.4499 119.7Z" fill="#E5E7E6"/>
<path d="M7.4499 107.1H-1.0001C-2.1501 107.1 -3.1001 108.05 -3.1001 109.2V117.65C-3.1001 118.8 -2.1501 119.75 -1.0001 119.75H7.4499C8.5999 119.75 9.5499 118.8 9.5499 117.65V109.2C9.5499 108 8.5999 107.1 7.4499 107.1ZM9.3499 109.4V117.4C9.3499 118.55 8.3999 119.5 7.2499 119.5H-0.750098C-1.9001 119.5 -2.8501 118.55 -2.8501 117.4V109.4C-2.8501 108.25 -1.9001 107.3 -0.750098 107.3H7.2499C8.3999 107.3 9.3499 108.25 9.3499 109.4Z" fill="#FBFBFB"/>
<path d="M19.6998 174.85H3.6498C2.4998 174.85 1.5498 173.9 1.5498 172.75V156.7C1.5498 155.55 2.4998 154.6 3.6498 154.6H19.6998C20.8498 154.6 21.7998 155.55 21.7998 156.7V172.75C21.7998 173.9 20.8998 174.85 19.6998 174.85Z" fill="#EDEFEE"/>
<path d="M19.6998 154.55H3.6498C2.4998 154.55 1.5498 155.5 1.5498 156.65V172.7C1.5498 173.85 2.4998 174.8 3.6498 174.8H19.6998C20.8498 174.8 21.7998 173.85 21.7998 172.7V156.65C21.7998 155.5 20.8998 154.55 19.6998 154.55ZM21.5998 156.9V172.55C21.5998 173.7 20.6498 174.65 19.4998 174.65H3.8498C2.6998 174.65 1.7498 173.7 1.7498 172.55V156.9C1.7498 155.75 2.6998 154.8 3.8498 154.8H19.4998C20.6498 154.75 21.5998 155.7 21.5998 156.9Z" fill="#FBFBFB"/>
<path d="M195.4 3.04999H197C198.15 3.04999 199.1 3.99999 199.1 5.14999V6.74999C199.1 7.89999 198.15 8.84999 197 8.84999H195.4C194.25 8.84999 193.3 7.89999 193.3 6.74999V5.14999C193.3 3.99999 194.2 3.04999 195.4 3.04999Z" fill="#EDEFEE"/>
<path d="M195.4 8.84999H197C198.15 8.84999 199.1 7.89999 199.1 6.74999V5.14999C199.1 3.99999 198.15 3.04999 197 3.04999H195.4C194.25 3.04999 193.3 3.99999 193.3 5.14999V6.74999C193.3 7.89999 194.2 8.84999 195.4 8.84999ZM193.5 6.54999V5.34999C193.5 4.19999 194.45 3.24999 195.6 3.24999H196.8C197.95 3.24999 198.9 4.19999 198.9 5.34999V6.54999C198.9 7.69999 197.95 8.64999 196.8 8.64999H195.6C194.45 8.64999 193.5 7.69999 193.5 6.54999Z" fill="#FBFBFB"/>
<path d="M146.85 43.2H148.45C149.6 43.2 150.55 44.15 150.55 45.3V46.9C150.55 48.05 149.6 49 148.45 49H146.85C145.7 49 144.75 48.05 144.75 46.9V45.3C144.7 44.15 145.65 43.2 146.85 43.2Z" fill="#EDEFEE"/>
<path d="M146.85 49H148.45C149.6 49 150.55 48.05 150.55 46.9V45.3C150.55 44.15 149.6 43.2 148.45 43.2H146.85C145.7 43.2 144.75 44.15 144.75 45.3V46.9C144.7 48.05 145.65 49 146.85 49ZM144.95 46.7V45.5C144.95 44.35 145.9 43.4 147.05 43.4H148.25C149.4 43.4 150.35 44.35 150.35 45.5V46.7C150.35 47.85 149.4 48.8 148.25 48.8H147.05C145.9 48.8 144.95 47.85 144.95 46.7Z" fill="#FBFBFB"/>
<path d="M166.05 15.95V-4.65C166.05 -5.8 167 -6.75 168.15 -6.75H188.7C189.85 -6.75 190.8 -5.8 190.8 -4.65V15.9C190.8 17.05 189.85 18 188.7 18H168.15C166.95 18.05 166.05 17.1 166.05 15.95Z" fill="#E5E7E6"/>
<path d="M168.15 18.05H188.7C189.85 18.05 190.8 17.1 190.8 15.95V-4.65C190.8 -5.8 189.85 -6.75 188.7 -6.75H168.15C167 -6.75 166.05 -5.8 166.05 -4.65V15.9C166.05 17.1 166.95 18.05 168.15 18.05ZM166.25 15.7V-4.4C166.25 -5.55 167.2 -6.5 168.35 -6.5H188.5C189.65 -6.5 190.6 -5.55 190.6 -4.4V15.75C190.6 16.9 189.65 17.85 188.5 17.85H168.35C167.2 17.8 166.25 16.9 166.25 15.7Z" fill="#FBFBFB"/>
<path d="M105.2 -12.05H118.05C119.2 -12.05 120.15 -11.1 120.15 -9.94999V2.90001C120.15 4.05001 119.2 5.00001 118.05 5.00001H105.2C104.05 5.00001 103.1 4.05001 103.1 2.90001V-9.94999C103.1 -11.1 104 -12.05 105.2 -12.05Z" fill="#EDEFEE"/>
<path d="M105.2 5.00001H118.05C119.2 5.00001 120.15 4.05001 120.15 2.90001V-9.94999C120.15 -11.1 119.2 -12.05 118.05 -12.05H105.2C104.05 -12.05 103.1 -11.1 103.1 -9.94999V2.90001C103.1 4.05001 104 5.00001 105.2 5.00001ZM103.3 2.70001V-9.74999C103.3 -10.9 104.25 -11.85 105.4 -11.85H117.85C119 -11.85 119.95 -10.9 119.95 -9.74999V2.70001C119.95 3.85001 119 4.80001 117.85 4.80001H105.4C104.25 4.80001 103.3 3.85001 103.3 2.70001Z" fill="#FBFBFB"/>
<path d="M110.15 79.85V102.85C110.15 104 109.2 104.95 108.05 104.95H85.0497C83.8997 104.95 82.9497 104 82.9497 102.85V79.85C82.9497 78.7 83.8997 77.75 85.0497 77.75H108.05C109.2 77.75 110.15 78.7 110.15 79.85Z" fill="#EDEFEE"/>
<path d="M108.05 77.75H85.0497C83.8997 77.75 82.9497 78.7 82.9497 79.85V102.85C82.9497 104 83.8997 104.95 85.0497 104.95H108.05C109.2 104.95 110.15 104 110.15 102.85V79.85C110.15 78.7 109.2 77.75 108.05 77.75ZM109.95 80.1V102.65C109.95 103.8 109 104.75 107.85 104.75H85.2997C84.1497 104.75 83.1997 103.8 83.1997 102.65V80.1C83.1997 78.95 84.1497 78 85.2997 78H107.85C109 78 109.95 78.9 109.95 80.1Z" fill="#FBFBFB"/>
<path d="M84.3499 -10.15V12.85C84.3499 14 83.3999 14.95 82.2499 14.95H59.2499C58.0999 14.95 57.1499 14 57.1499 12.85V-10.15C57.1499 -11.3 58.0999 -12.25 59.2499 -12.25H82.2499C83.3999 -12.25 84.3499 -11.35 84.3499 -10.15Z" fill="#EDEFEE"/>
<path d="M82.2499 -12.25H59.2499C58.0999 -12.25 57.1499 -11.3 57.1499 -10.15V12.85C57.1499 14 58.0999 14.95 59.2499 14.95H82.2499C83.3999 14.95 84.3499 14 84.3499 12.85V-10.15C84.3499 -11.35 83.3999 -12.25 82.2499 -12.25ZM84.1499 -9.95V12.6C84.1499 13.75 83.1999 14.7 82.0499 14.7H59.4999C58.3499 14.7 57.3999 13.75 57.3999 12.6V-9.95C57.3999 -11.1 58.3499 -12.05 59.4999 -12.05H82.0499C83.1999 -12.05 84.1499 -11.1 84.1499 -9.95Z" fill="#FBFBFB"/>
<path d="M160.95 24.15H154.4C153.25 24.15 152.3 23.2 152.3 22.05V15.45C152.3 14.3 153.25 13.35 154.4 13.35H160.95C162.1 13.35 163.05 14.3 163.05 15.45V22C163.05 23.2 162.1 24.15 160.95 24.15Z" fill="#E5E7E6"/>
<path d="M160.95 13.35H154.4C153.25 13.35 152.3 14.3 152.3 15.45V22C152.3 23.15 153.25 24.1 154.4 24.1H160.95C162.1 24.1 163.05 23.15 163.05 22V15.45C163.05 14.3 162.1 13.35 160.95 13.35ZM162.85 15.7V21.85C162.85 23 161.9 23.95 160.75 23.95H154.6C153.45 23.95 152.5 23 152.5 21.85V15.7C152.5 14.55 153.45 13.6 154.6 13.6H160.75C161.9 13.6 162.85 14.5 162.85 15.7Z" fill="#FBFBFB"/>
<path d="M137.25 70H126.6C125.45 70 124.5 69.05 124.5 67.9V57.25C124.5 56.1 125.45 55.15 126.6 55.15H137.25C138.4 55.15 139.35 56.1 139.35 57.25V67.9C139.4 69.05 138.45 70 137.25 70Z" fill="#EDEFEE"/>
<path d="M137.25 55.15H126.6C125.45 55.15 124.5 56.1 124.5 57.25V67.9C124.5 69.05 125.45 70 126.6 70H137.25C138.4 70 139.35 69.05 139.35 67.9V57.25C139.4 56.1 138.45 55.15 137.25 55.15ZM139.15 57.45V67.65C139.15 68.8 138.2 69.75 137.05 69.75H126.85C125.7 69.75 124.75 68.8 124.75 67.65V57.45C124.75 56.3 125.7 55.35 126.85 55.35H137.05C138.2 55.35 139.15 56.3 139.15 57.45Z" fill="#FBFBFB"/>
<path d="M7.19985 121.7H9.04985C10.1999 121.7 11.1499 122.65 11.1499 123.8V125.65C11.1499 126.8 10.1999 127.75 9.04985 127.75H7.19985C6.04985 127.75 5.09985 126.8 5.09985 125.65V123.8C5.09985 122.65 6.04985 121.7 7.19985 121.7Z" fill="#E5E7E6"/>
<path d="M9.04985 121.7H7.19985C6.04985 121.7 5.09985 122.65 5.09985 123.8V125.65C5.09985 126.8 6.04985 127.75 7.19985 127.75H9.04985C10.1999 127.75 11.1499 126.8 11.1499 125.65V123.8C11.1499 122.65 10.1999 121.7 9.04985 121.7ZM10.9499 124V125.45C10.9499 126.6 9.99985 127.55 8.84985 127.55H7.39985C6.24985 127.55 5.29985 126.6 5.29985 125.45V124C5.29985 122.85 6.24985 121.9 7.39985 121.9H8.84985C9.99985 121.9 10.9499 122.85 10.9499 124Z" fill="#FBFBFB"/>
<path d="M140.85 41.5H112.05C110.9 41.5 109.95 40.55 109.95 39.4V10.6C109.95 9.45 110.9 8.5 112.05 8.5H140.85C142 8.5 142.95 9.45 142.95 10.6V39.4C142.95 40.55 142 41.5 140.85 41.5Z" fill="#EDEFEE"/>
<path d="M140.85 8.5H112.05C110.9 8.5 109.95 9.45 109.95 10.6V39.4C109.95 40.55 110.9 41.5 112.05 41.5H140.85C142 41.5 142.95 40.55 142.95 39.4V10.6C142.95 9.45 142 8.5 140.85 8.5ZM142.75 10.8V39.2C142.75 40.35 141.8 41.3 140.65 41.3H112.25C111.1 41.3 110.15 40.35 110.15 39.2V10.8C110.15 9.65 111.1 8.7 112.25 8.7H140.65C141.8 8.7 142.75 9.65 142.75 10.8Z" fill="#FBFBFB"/>
<path d="M96.1499 17.2V12.65C96.1499 11.5 97.0999 10.55 98.2499 10.55H102.8C103.95 10.55 104.9 11.5 104.9 12.65V17.2C104.9 18.35 103.95 19.3 102.8 19.3H98.2499C97.0999 19.3 96.1499 18.35 96.1499 17.2Z" fill="#E5E7E6"/>
<path d="M102.8 10.55H98.2499C97.0999 10.55 96.1499 11.5 96.1499 12.65V17.2C96.1499 18.35 97.0999 19.3 98.2499 19.3H102.8C103.95 19.3 104.9 18.35 104.9 17.2V12.65C104.9 11.5 103.95 10.55 102.8 10.55ZM104.7 12.85V17C104.7 18.15 103.75 19.1 102.6 19.1H98.4499C97.2999 19.1 96.3499 18.15 96.3499 17V12.85C96.3499 11.7 97.2999 10.75 98.4499 10.75H102.6C103.75 10.75 104.7 11.7 104.7 12.85Z" fill="#FBFBFB"/>
<path d="M6.94985 69.65H19.7999C20.9499 69.65 21.8999 70.6 21.8999 71.75V84.6C21.8999 85.75 20.9499 86.7 19.7999 86.7H6.94985C5.79985 86.7 4.84985 85.75 4.84985 84.6V71.75C4.84985 70.6 5.79985 69.65 6.94985 69.65Z" fill="#E5E7E6"/>
<path d="M6.94985 86.75H19.7999C20.9499 86.75 21.8999 85.8 21.8999 84.65V71.8C21.8999 70.65 20.9499 69.7 19.7999 69.7H6.94985C5.79985 69.7 4.84985 70.65 4.84985 71.8V84.65C4.84985 85.8 5.79985 86.75 6.94985 86.75ZM5.04985 84.4V72C5.04985 70.85 5.99985 69.9 7.14985 69.9H19.5999C20.7499 69.9 21.6999 70.85 21.6999 72V84.45C21.6999 85.6 20.7499 86.55 19.5999 86.55H7.14985C5.99985 86.5 5.04985 85.6 5.04985 84.4Z" fill="#FBFBFB"/>
<path d="M27.8999 96.95V92.4C27.8999 91.25 28.8499 90.3 29.9999 90.3H34.5499C35.6999 90.3 36.6499 91.25 36.6499 92.4V96.95C36.6499 98.1 35.6999 99.05 34.5499 99.05H29.9999C28.8499 99.05 27.8999 98.1 27.8999 96.95Z" fill="#EDEFEE"/>
<path d="M34.5499 90.3H29.9999C28.8499 90.3 27.8999 91.25 27.8999 92.4V96.95C27.8999 98.1 28.8499 99.05 29.9999 99.05H34.5499C35.6999 99.05 36.6499 98.1 36.6499 96.95V92.4C36.6499 91.2 35.6999 90.3 34.5499 90.3ZM36.4499 92.6V96.75C36.4499 97.9 35.4999 98.85 34.3499 98.85H30.1999C29.0499 98.85 28.0999 97.9 28.0999 96.75V92.6C28.0999 91.45 29.0499 90.5 30.1999 90.5H34.3499C35.4999 90.5 36.4499 91.45 36.4499 92.6Z" fill="#FBFBFB"/>
<path d="M17.5997 23H-11.2003C-12.3503 23 -13.3003 22.05 -13.3003 20.9V-7.9C-13.3003 -9.05 -12.3503 -10 -11.2003 -10H17.5997C18.7497 -10 19.6997 -9.05 19.6997 -7.9V20.9C19.7497 22.05 18.7997 23 17.5997 23Z" fill="#EDEFEE"/>
<path d="M17.5997 -10.05H-11.2003C-12.3503 -10.05 -13.3003 -9.09999 -13.3003 -7.94999V20.85C-13.3003 22 -12.3503 22.95 -11.2003 22.95H17.5997C18.7497 22.95 19.6997 22 19.6997 20.85V-7.94999C19.7497 -9.09999 18.7997 -10.05 17.5997 -10.05ZM19.4997 -7.69999V20.7C19.4997 21.85 18.5497 22.8 17.3997 22.8H-11.0003C-12.1503 22.8 -13.1003 21.85 -13.1003 20.7V-7.69999C-13.1003 -8.84999 -12.1503 -9.79999 -11.0003 -9.79999H17.3997C18.5497 -9.79999 19.4997 -8.89999 19.4997 -7.69999Z" fill="#FBFBFB"/>
<path d="M301.85 135.9H308.1C309.25 135.9 310.2 136.85 310.2 138V144.25C310.2 145.4 309.25 146.35 308.1 146.35H301.85C300.7 146.35 299.75 145.4 299.75 144.25V138C299.75 136.8 300.7 135.9 301.85 135.9Z" fill="#EDEFEE"/>
<path d="M301.85 146.35H308.1C309.25 146.35 310.2 145.4 310.2 144.25V138C310.2 136.85 309.25 135.9 308.1 135.9H301.85C300.7 135.9 299.75 136.85 299.75 138V144.25C299.75 145.4 300.7 146.35 301.85 146.35ZM299.95 144V138.15C299.95 137 300.9 136.05 302.05 136.05H307.9C309.05 136.05 310 137 310 138.15V144C310 145.15 309.05 146.1 307.9 146.1H302.05C300.9 146.1 299.95 145.2 299.95 144Z" fill="#FBFBFB"/>
<path d="M340.3 144.7H386.6C387.75 144.7 388.7 145.65 388.7 146.8V193.1C388.7 194.25 387.75 195.2 386.6 195.2H340.3C339.15 195.2 338.2 194.25 338.2 193.1V146.8C338.2 145.65 339.15 144.7 340.3 144.7Z" fill="#EDEFEE"/>
<path d="M340.3 195.25H386.6C387.75 195.25 388.7 194.3 388.7 193.15V146.85C388.7 145.7 387.75 144.75 386.6 144.75H340.3C339.15 144.75 338.2 145.7 338.2 146.85V193.15C338.2 194.3 339.15 195.25 340.3 195.25ZM338.45 192.95V147.05C338.45 145.9 339.4 144.95 340.55 144.95H386.45C387.6 144.95 388.55 145.9 388.55 147.05V192.95C388.55 194.1 387.6 195.05 386.45 195.05H340.55C339.35 195.05 338.45 194.1 338.45 192.95Z" fill="#FBFBFB"/>
<path d="M304.15 175.1H328.3C329.45 175.1 330.4 176.05 330.4 177.2V201.35C330.4 202.5 329.45 203.45 328.3 203.45H304.15C303 203.45 302.05 202.5 302.05 201.35V177.2C302.05 176.05 302.95 175.1 304.15 175.1Z" fill="#EDEFEE"/>
<path d="M304.15 203.4H328.3C329.45 203.4 330.4 202.45 330.4 201.3V177.15C330.4 176 329.45 175.05 328.3 175.05H304.15C303 175.05 302.05 176 302.05 177.15V201.3C302.05 202.5 302.95 203.4 304.15 203.4ZM302.25 201.1V177.4C302.25 176.25 303.2 175.3 304.35 175.3H328.05C329.2 175.3 330.15 176.25 330.15 177.4V201.1C330.15 202.25 329.2 203.2 328.05 203.2H304.35C303.2 203.2 302.25 202.25 302.25 201.1Z" fill="#FBFBFB"/>
<path d="M406.6 87.5H349.45C348.3 87.5 347.35 86.55 347.35 85.4V28.25C347.35 27.1 348.3 26.15 349.45 26.15H406.6C407.75 26.15 408.7 27.1 408.7 28.25V85.4C408.7 86.55 407.8 87.5 406.6 87.5Z" fill="#E5E7E6"/>
<path d="M349.45 87.5H406.6C407.75 87.5 408.7 86.55 408.7 85.4V28.25C408.7 27.1 407.75 26.15 406.6 26.15H349.45C348.3 26.15 347.35 27.1 347.35 28.25V85.4C347.35 86.55 348.3 87.5 349.45 87.5ZM347.55 85.2V28.45C347.55 27.3 348.5 26.35 349.65 26.35H406.4C407.55 26.35 408.5 27.3 408.5 28.45V85.2C408.5 86.35 407.55 87.3 406.4 87.3H349.65C348.5 87.3 347.55 86.35 347.55 85.2Z" fill="#FBFBFB"/>
<path d="M385.45 104.9V120.05C385.45 121.2 384.5 122.15 383.35 122.15H368.2C367.05 122.15 366.1 121.2 366.1 120.05V104.9C366.1 103.75 367.05 102.8 368.2 102.8H383.35C384.5 102.8 385.45 103.75 385.45 104.9Z" fill="#EDEFEE"/>
<path d="M368.2 122.15H383.35C384.5 122.15 385.45 121.2 385.45 120.05V104.9C385.45 103.75 384.5 102.8 383.35 102.8H368.2C367.05 102.8 366.1 103.75 366.1 104.9V120.05C366.1 121.2 367.05 122.15 368.2 122.15ZM366.3 119.8V105.1C366.3 103.95 367.25 103 368.4 103H383.1C384.25 103 385.2 103.95 385.2 105.1V119.8C385.2 120.95 384.25 121.9 383.1 121.9H368.4C367.25 121.95 366.3 121 366.3 119.8Z" fill="#FBFBFB"/>
<path d="M357.55 76.85H373.6C374.75 76.85 375.7 77.8 375.7 78.95V95C375.7 96.15 374.75 97.1 373.6 97.1H357.55C356.4 97.1 355.45 96.15 355.45 95V78.95C355.45 77.8 356.4 76.85 357.55 76.85Z" fill="#EDEFEE"/>
<path d="M357.55 97.1H373.6C374.75 97.1 375.7 96.15 375.7 95V78.95C375.7 77.8 374.75 76.85 373.6 76.85H357.55C356.4 76.85 355.45 77.8 355.45 78.95V95C355.45 96.15 356.4 97.1 357.55 97.1ZM355.65 94.8V79.15C355.65 78 356.6 77.05 357.75 77.05H373.4C374.55 77.05 375.5 78 375.5 79.15V94.8C375.5 95.95 374.55 96.9 373.4 96.9H357.75C356.6 96.9 355.65 95.95 355.65 94.8Z" fill="#FBFBFB"/>
<path d="M362.3 48.5V69.05C362.3 70.2 361.35 71.15 360.2 71.15H339.65C338.5 71.15 337.55 70.2 337.55 69.05V48.5C337.55 47.35 338.5 46.4 339.65 46.4H360.2C361.35 46.4 362.3 47.3 362.3 48.5Z" fill="#E5E7E6"/>
<path d="M360.2 46.4H339.65C338.5 46.4 337.55 47.35 337.55 48.5V69.05C337.55 70.2 338.5 71.15 339.65 71.15H360.2C361.35 71.15 362.3 70.2 362.3 69.05V48.5C362.3 47.3 361.35 46.4 360.2 46.4ZM362.1 48.7V68.85C362.1 70 361.15 70.95 360 70.95H339.85C338.7 70.95 337.75 70 337.75 68.85V48.7C337.75 47.55 338.7 46.6 339.85 46.6H360C361.15 46.6 362.1 47.55 362.1 48.7Z" fill="#FBFBFB"/>
<path d="M319.1 104.25H317.5C316.35 104.25 315.4 103.3 315.4 102.15V100.55C315.4 99.4 316.35 98.45 317.5 98.45H319.1C320.25 98.45 321.2 99.4 321.2 100.55V102.15C321.2 103.3 320.25 104.25 319.1 104.25Z" fill="#EDEFEE"/>
<path d="M319.1 98.45H317.5C316.35 98.45 315.4 99.4 315.4 100.55V102.15C315.4 103.3 316.35 104.25 317.5 104.25H319.1C320.25 104.25 321.2 103.3 321.2 102.15V100.55C321.2 99.35 320.25 98.45 319.1 98.45ZM321 100.75V101.95C321 103.1 320.05 104.05 318.9 104.05H317.7C316.55 104.05 315.6 103.1 315.6 101.95V100.75C315.6 99.6 316.55 98.65 317.7 98.65H318.9C320.05 98.65 321 99.6 321 100.75Z" fill="#FBFBFB"/>
<path d="M263 178.75V155.75C263 154.6 263.95 153.65 265.1 153.65H288.1C289.25 153.65 290.2 154.6 290.2 155.75V178.75C290.2 179.9 289.25 180.85 288.1 180.85H265.1C263.95 180.85 263 179.9 263 178.75Z" fill="#EDEFEE"/>
<path d="M265.1 180.85H288.1C289.25 180.85 290.2 179.9 290.2 178.75V155.75C290.2 154.6 289.25 153.65 288.1 153.65H265.1C263.95 153.65 263 154.6 263 155.75V178.75C263 179.9 263.95 180.85 265.1 180.85ZM263.25 178.55V156C263.25 154.85 264.2 153.9 265.35 153.9H287.9C289.05 153.9 290 154.85 290 156V178.55C290 179.7 289.05 180.65 287.9 180.65H265.35C264.15 180.65 263.25 179.7 263.25 178.55Z" fill="#FBFBFB"/>
<path d="M370.099 130H368.249C367.099 130 366.149 129.05 366.149 127.9V126C366.149 124.85 367.099 123.9 368.249 123.9H370.099C371.249 123.9 372.199 124.85 372.199 126V127.85C372.199 129.05 371.249 130 370.099 130Z" fill="#E5E7E6"/>
<path d="M368.2 130H370.05C371.2 130 372.15 129.05 372.15 127.9V126C372.15 124.85 371.2 123.9 370.05 123.9H368.2C367.05 123.9 366.1 124.85 366.1 126V127.85C366.1 129.05 367.05 130 368.2 130ZM366.3 127.65V126.2C366.3 125.05 367.25 124.1 368.4 124.1H369.85C371 124.1 371.95 125.05 371.95 126.2V127.65C371.95 128.8 371 129.75 369.85 129.75H368.4C367.25 129.75 366.3 128.8 366.3 127.65Z" fill="#FBFBFB"/>
<path d="M325.05 105.95H353.85C355 105.95 355.95 106.9 355.95 108.05V136.85C355.95 138 355 138.95 353.85 138.95H325.05C323.9 138.95 322.95 138 322.95 136.85V108.05C322.95 106.9 323.9 105.95 325.05 105.95Z" fill="#EDEFEE"/>
<path d="M325.05 138.95H353.85C355 138.95 355.95 138 355.95 136.85V108.05C355.95 106.9 355 105.95 353.85 105.95H325.05C323.9 105.95 322.95 106.9 322.95 108.05V136.85C322.95 138 323.9 138.95 325.05 138.95ZM323.15 136.65V108.25C323.15 107.1 324.1 106.15 325.25 106.15H353.65C354.8 106.15 355.75 107.1 355.75 108.25V136.65C355.75 137.8 354.8 138.75 353.65 138.75H325.25C324.1 138.75 323.15 137.8 323.15 136.65Z" fill="#FBFBFB"/>
</g>
</svg>
