<svg width="6" height="20" viewBox="0 0 6 20" fill="none" xmlns="http://www.w3.org/2000/svg">
<path d="M3 5C3.29598 5.00103 3.58844 4.93613 3.8562 4.81C4.12396 4.68387 4.36028 4.49968 4.54797 4.27081C4.73566 4.04195 4.87002 3.77416 4.94128 3.48688C5.01255 3.1996 5.01892 2.90004 4.95996 2.60999C4.88069 2.22222 4.68954 1.86622 4.41003 1.586C4.13201 1.30607 3.7769 1.11529 3.39001 1.038C3.00241 0.959359 2.60014 0.998361 2.23486 1.15C1.86959 1.30163 1.55793 1.55899 1.33997 1.88901C1.11919 2.21754 1.0009 2.60418 1 3C1.00289 3.52954 1.21454 4.03656 1.58899 4.41101C1.96344 4.78546 2.47046 4.99711 3 5Z" stroke="#0F172A" stroke-width="1.5" stroke-linecap="round" stroke-linejoin="round"/>
<path d="M3 12C3.29598 12.001 3.58844 11.9361 3.8562 11.81C4.12396 11.6839 4.36028 11.4997 4.54797 11.2708C4.73566 11.0419 4.87002 10.7742 4.94128 10.4869C5.01255 10.1996 5.01892 9.90004 4.95996 9.60999C4.88069 9.22222 4.68954 8.86622 4.41003 8.586C4.13201 8.30607 3.7769 8.11529 3.39001 8.038C3.00241 7.95936 2.60014 7.99836 2.23486 8.15C1.86959 8.30163 1.55793 8.55899 1.33997 8.88901C1.11919 9.21754 1.0009 9.60418 1 10C1.00289 10.5295 1.21454 11.0366 1.58899 11.411C1.96344 11.7855 2.47046 11.9971 3 12Z" stroke="#0F172A" stroke-width="1.5" stroke-linecap="round" stroke-linejoin="round"/>
<path d="M3 19C3.29598 19.001 3.58844 18.9361 3.8562 18.81C4.12396 18.6839 4.36028 18.4997 4.54797 18.2708C4.73566 18.0419 4.87002 17.7742 4.94128 17.4869C5.01255 17.1996 5.01892 16.9 4.95996 16.61C4.88069 16.2222 4.68954 15.8662 4.41003 15.586C4.13201 15.3061 3.7769 15.1153 3.39001 15.038C3.00241 14.9594 2.60014 14.9984 2.23486 15.15C1.86959 15.3016 1.55793 15.559 1.33997 15.889C1.11919 16.2175 1.0009 16.6042 1 17C1.00289 17.5295 1.21454 18.0366 1.58899 18.411C1.96344 18.7855 2.47046 18.9971 3 19V19Z" stroke="#0F172A" stroke-width="1.5" stroke-linecap="round" stroke-linejoin="round"/>
</svg>
