<svg width="24" height="24" viewBox="0 0 24 24" fill="none" xmlns="http://www.w3.org/2000/svg">
<path d="M22 4.99982C21.9997 4.40678 21.8236 3.82713 21.494 3.33411C21.1644 2.8411 20.6961 2.45683 20.1482 2.22986C19.6003 2.00289 18.9973 1.94341 18.4156 2.05892C17.8339 2.17443 17.2996 2.45973 16.88 2.87882C16.4606 3.29838 16.1749 3.83289 16.0592 4.41475C15.9435 4.99662 16.0029 5.59972 16.23 6.14782C16.4556 6.69669 16.8395 7.16595 17.3329 7.49578C17.8262 7.82561 18.4065 8.00109 19 7.99982C19.7956 7.99982 20.5587 7.68375 21.1213 7.12115C21.6839 6.55854 22 5.79547 22 4.99982Z" stroke="#5CBA94" stroke-width="1.5" stroke-miterlimit="10" stroke-linecap="square"/>
<path d="M22 18.9998C21.9997 18.4068 21.8236 17.8271 21.494 17.3341C21.1644 16.8411 20.6961 16.4568 20.1482 16.2299C19.6003 16.0029 18.9973 15.9434 18.4156 16.0589C17.8339 16.1744 17.2996 16.4597 16.88 16.8788C16.4606 17.2984 16.1749 17.8329 16.0592 18.4148C15.9435 18.9966 16.0029 19.5997 16.23 20.1478C16.4556 20.6967 16.8395 21.1659 17.3329 21.4958C17.8262 21.8256 18.4065 22.0011 19 21.9998C19.7956 21.9998 20.5587 21.6838 21.1213 21.1211C21.6839 20.5585 22 19.7955 22 18.9998Z" stroke="#5CBA94" stroke-width="1.5" stroke-miterlimit="10" stroke-linecap="square"/>
<path d="M7.99998 11.9998C7.99965 11.4068 7.8236 10.8271 7.494 10.3341C7.16439 9.8411 6.69607 9.45683 6.14817 9.22986C5.60028 9.00289 4.99732 8.94341 4.41563 9.05892C3.83394 9.17443 3.29959 9.45973 2.87998 9.87882C2.46055 10.2984 2.17488 10.8329 2.05918 11.4148C1.94349 11.9966 2.00294 12.5997 2.22996 13.1478C2.45557 13.6967 2.83954 14.1659 3.33286 14.4958C3.82619 14.8256 4.40655 15.0011 4.99998 14.9998C5.79563 14.9998 6.55871 14.6838 7.12132 14.1211C7.68393 13.5585 7.99998 12.7955 7.99998 11.9998Z" stroke="#5CBA94" stroke-width="1.5" stroke-miterlimit="10" stroke-linecap="square"/>
<path d="M16.38 6.44971L7.68005 10.6597" stroke="#5CBA94" stroke-width="1.5" stroke-miterlimit="10" stroke-linecap="square"/>
<path d="M7.56995 13.5298L16.24 17.8198" stroke="#5CBA94" stroke-width="1.5" stroke-miterlimit="10" stroke-linecap="square"/>
</svg>
