<svg width="375" height="375" viewBox="0 0 375 375" fill="none" xmlns="http://www.w3.org/2000/svg">
<path d="M59.145 0H58.395V101.647H59.145V0Z" fill="#C7C7C7"/>
<path d="M94.065 135.675L91.23 141.915H26.3025L23.475 135.675L51.1125 116.542H66.4275L94.065 135.675Z" fill="#EBEBEB"/>
<path d="M68.3475 98.1074L66.4275 116.542H51.1125L49.1925 98.1074H68.3475Z" fill="#DBDBDB"/>
<path d="M94.065 135.675L91.2225 141.915H26.3025L23.4675 135.675H94.065Z" fill="#DBDBDB"/>
<path d="M134.932 0H134.182V81.5175H134.932V0Z" fill="#C7C7C7"/>
<path d="M169.853 115.538L167.018 121.785H102.09L99.2625 115.538L126.9 96.405H142.215L169.853 115.538Z" fill="#EBEBEB"/>
<path d="M144.135 77.9775L142.215 96.405H126.9L124.98 77.9775H144.135Z" fill="#DBDBDB"/>
<path d="M169.853 115.545L167.01 121.785H102.09L99.255 115.545H169.853Z" fill="#DBDBDB"/>
<path d="M36.375 167.505L28.9725 179.438L32.6475 181.688C33.1626 182.023 33.5751 182.493 33.8398 183.048C34.1045 183.602 34.2109 184.219 34.1475 184.83C34.0873 185.511 34.0648 186.194 34.08 186.878C34.101 187.5 33.9496 188.115 33.6425 188.657C33.3355 189.198 32.8847 189.644 32.34 189.945L28.59 191.978L35.25 204.383L39 202.35C39.5335 202.064 40.1355 201.93 40.74 201.963C41.3446 201.996 41.9284 202.195 42.4275 202.538C43.04 202.965 43.676 203.358 44.3325 203.715C44.8657 204.008 45.3067 204.445 45.6061 204.974C45.9054 205.504 46.0514 206.107 46.0275 206.715L45.8925 211.013L59.9325 211.448L60.06 207.135C60.0798 206.526 60.2683 205.934 60.6047 205.425C60.941 204.917 61.412 204.512 61.965 204.255C62.295 204.098 62.6175 203.933 62.94 203.76C63.2625 203.588 63.5775 203.408 63.885 203.22C64.4026 202.902 64.9985 202.733 65.6062 202.733C66.214 202.733 66.8098 202.902 67.3275 203.22L71.01 205.47L78.405 193.538L74.7225 191.25C74.2068 190.916 73.7938 190.445 73.529 189.891C73.2643 189.336 73.1582 188.719 73.2225 188.108C73.2826 187.429 73.3051 186.748 73.29 186.068C73.2697 185.445 73.4222 184.829 73.7307 184.287C74.0391 183.746 74.4914 183.3 75.0375 183L78.7875 180.968L72.15 168.593L68.355 170.625C67.8045 170.913 67.1847 171.043 66.5649 170.999C65.9451 170.955 65.3497 170.74 64.845 170.378C64.2825 169.988 63.6975 169.628 63.105 169.305C62.5587 169.02 62.1028 168.588 61.7888 168.058C61.4747 167.528 61.315 166.921 61.3275 166.305L61.5 162L47.4675 161.558L47.3325 165.87C47.3072 166.486 47.1115 167.082 46.7672 167.594C46.4229 168.105 45.9436 168.51 45.3825 168.765C45.0675 168.908 44.76 169.065 44.4525 169.23C44.145 169.395 43.845 169.568 43.5525 169.748C43.0257 170.071 42.4195 170.243 41.8012 170.243C41.183 170.243 40.5768 170.071 40.05 169.748L36.375 167.505ZM46.98 177.165C48.9331 175.764 51.276 175.01 53.6798 175.008C56.0835 175.007 58.4273 175.758 60.3821 177.157C62.3368 178.556 63.8044 180.532 64.5785 182.808C65.3527 185.083 65.3947 187.544 64.6986 189.845C64.0024 192.146 62.6031 194.171 60.6972 195.635C58.7913 197.1 56.4745 197.931 54.0721 198.012C51.6697 198.092 49.3024 197.418 47.3026 196.085C45.3029 194.751 43.7712 192.824 42.9225 190.575C42.0281 188.205 41.941 185.606 42.6746 183.181C43.4083 180.757 44.9217 178.642 46.98 177.165Z" fill="#EBEBEB"/>
<path d="M344.25 50.9999C343.936 50.8157 343.679 50.5477 343.508 50.2258C343.337 49.904 343.259 49.541 343.283 49.1774C343.283 48.9749 343.283 48.7724 343.283 48.5699C343.283 48.3674 343.283 48.1574 343.283 47.9549C343.259 47.5913 343.337 47.2283 343.508 46.9064C343.679 46.5846 343.936 46.3166 344.25 46.1324L346.448 44.8649L342.323 37.7024L340.095 38.9999C339.779 39.1816 339.418 39.2709 339.053 39.2576C338.688 39.2444 338.335 39.1291 338.033 38.9249C337.688 38.7074 337.335 38.4974 336.968 38.3099C336.643 38.1469 336.37 37.8976 336.178 37.5892C335.986 37.2809 335.883 36.9255 335.88 36.5624V34.0049H327.63V36.5324C327.621 36.8922 327.514 37.2426 327.319 37.5455C327.125 37.8484 326.851 38.092 326.528 38.2499C326.16 38.4374 325.778 38.6474 325.463 38.8649C325.16 39.0691 324.807 39.1844 324.442 39.1976C324.077 39.2109 323.716 39.1216 323.4 38.9399L321.202 37.6724L317.07 44.8349L319.275 46.1099C319.596 46.2935 319.857 46.5644 320.03 46.891C320.203 47.2176 320.279 47.5866 320.25 47.9549C320.25 48.1574 320.25 48.3599 320.25 48.5624C320.25 48.7649 320.25 48.9674 320.25 49.1699C320.274 49.5355 320.196 49.9006 320.024 50.224C319.851 50.5473 319.592 50.8161 319.275 50.9999L317.07 52.2674L321.202 59.4299L323.393 58.1624C323.709 57.9813 324.069 57.8917 324.433 57.9036C324.798 57.9155 325.151 58.0285 325.455 58.2299C325.8 58.4578 326.158 58.6656 326.528 58.8524C326.851 59.0157 327.123 59.2653 327.314 59.5738C327.505 59.8822 327.606 60.2373 327.608 60.5999V63.1274H335.858V60.5924C335.86 60.2292 335.963 59.8739 336.155 59.5655C336.347 59.2572 336.62 59.0078 336.945 58.8449C337.313 58.6564 337.671 58.4486 338.018 58.2224C338.32 58.0208 338.672 57.9077 339.035 57.8958C339.398 57.8839 339.758 57.9736 340.073 58.1549L342.27 59.4224L346.395 52.2599L344.25 50.9999ZM331.77 55.3424C330.435 55.3424 329.13 54.9465 328.02 54.2048C326.91 53.4631 326.045 52.4089 325.534 51.1755C325.023 49.9421 324.889 48.5849 325.15 47.2755C325.41 45.9662 326.053 44.7634 326.997 43.8194C327.941 42.8754 329.144 42.2325 330.453 41.9721C331.763 41.7116 333.12 41.8453 334.353 42.3562C335.587 42.8671 336.641 43.7323 337.382 44.8423C338.124 45.9523 338.52 47.2574 338.52 48.5924C338.519 49.4801 338.343 50.3588 338.002 51.1784C337.661 51.9979 337.161 52.7422 336.532 53.3685C335.903 53.9948 335.157 54.4908 334.336 54.8283C333.515 55.1657 332.635 55.3378 331.747 55.3349L331.77 55.3424Z" fill="#EBEBEB"/>
<path d="M158.19 239.145C157.896 238.973 157.652 238.728 157.481 238.433C157.311 238.139 157.219 237.805 157.215 237.465C157.215 237.128 157.215 236.798 157.215 236.46C157.179 236.122 157.199 235.779 157.275 235.448C157.358 235.116 157.529 234.813 157.77 234.57C158.025 234.347 158.307 234.158 158.61 234.008L160.357 232.988V233.025L156.188 225.885H156.285L153.99 227.235C153.568 227.446 153.085 227.504 152.625 227.4C152.191 227.265 151.78 227.068 151.402 226.815L150.833 226.493C150.622 226.383 150.432 226.238 150.27 226.065C149.938 225.719 149.736 225.268 149.7 224.79V222.128L149.873 222.3L141.623 222.375L141.877 222.128V224.798C141.854 225.181 141.732 225.551 141.525 225.874C141.318 226.197 141.031 226.462 140.692 226.643L140.13 226.98L139.567 227.31C139.35 227.447 139.112 227.548 138.862 227.61C138.357 227.721 137.829 227.66 137.362 227.438L135.038 226.11L135.487 225.99L131.385 233.168L131.25 232.665L133.575 234C133.902 234.225 134.168 234.528 134.347 234.881C134.527 235.235 134.614 235.629 134.603 236.025V236.685V237.338C134.607 237.592 134.571 237.845 134.498 238.088C134.342 238.594 134.016 239.031 133.575 239.325L131.25 240.66L131.377 240.188L135.473 247.365L135.053 247.253L137.385 245.94C137.853 245.721 138.381 245.665 138.885 245.783C139.126 245.846 139.356 245.944 139.567 246.075L140.138 246.413L140.7 246.743C140.918 246.863 141.116 247.017 141.285 247.2C141.623 247.569 141.824 248.043 141.855 248.543V251.22L141.652 251.018L149.902 251.1L149.783 251.22V248.558C149.818 248.091 150.014 247.651 150.337 247.313C150.678 247.014 151.056 246.762 151.462 246.563C151.837 246.317 152.243 246.122 152.67 245.985C153.117 245.878 153.588 245.934 153.998 246.143L156.3 247.478H156.248L160.402 240.33L158.19 239.145ZM158.19 239.145L160.388 240.405L156.285 247.575V247.613L153.975 246.3C153.583 246.11 153.138 246.062 152.715 246.165C152.282 246.296 151.872 246.493 151.5 246.75C151.109 246.948 150.748 247.201 150.428 247.5C150.137 247.814 149.964 248.22 149.94 248.648V251.303V251.423H149.82L141.57 251.505H141.375V251.25V248.603C141.344 248.212 141.18 247.844 140.91 247.56C140.774 247.42 140.617 247.301 140.445 247.208L139.86 246.878L139.275 246.548C139.11 246.448 138.931 246.377 138.743 246.338C138.366 246.253 137.971 246.301 137.625 246.473L135.375 247.815L135.112 247.973L134.955 247.703L130.792 240.563L130.62 240.263L130.92 240.09L133.17 238.763C133.469 238.557 133.689 238.255 133.792 237.908C133.844 237.732 133.869 237.55 133.868 237.368V236.693V236.018C133.869 235.835 133.844 235.653 133.792 235.478C133.688 235.132 133.465 234.835 133.163 234.638L130.913 233.303L130.59 233.123L130.777 232.808L134.933 225.668L135.105 225.375L135.39 225.54L137.64 226.868C137.975 227.033 138.356 227.078 138.72 226.995C138.904 226.957 139.079 226.885 139.237 226.785L139.822 226.455L140.415 226.125C140.582 226.037 140.733 225.923 140.865 225.788C141.13 225.511 141.29 225.15 141.315 224.768V222.135V221.873H141.562L149.812 221.948H150V222.12V224.768C150.028 225.18 150.194 225.572 150.473 225.878C150.788 226.176 151.144 226.429 151.53 226.628C151.883 226.88 152.273 227.077 152.685 227.213C153.095 227.31 153.526 227.265 153.908 227.085L156.225 225.788L156.285 225.75V225.81L160.388 232.988L158.632 233.993C158.331 234.139 158.051 234.325 157.8 234.548C157.56 234.782 157.388 235.078 157.305 235.403C157.226 235.731 157.203 236.071 157.237 236.408C157.237 236.745 157.237 237.083 157.237 237.413C157.23 237.76 157.314 238.103 157.481 238.407C157.648 238.711 157.893 238.966 158.19 239.145Z" fill="#EBEBEB"/>
<path d="M145.71 243.488C144.561 243.483 143.432 243.194 142.422 242.646C141.412 242.099 140.553 241.31 139.922 240.35C139.291 239.39 138.908 238.288 138.806 237.144C138.704 236 138.887 234.848 139.339 233.792C139.791 232.736 140.497 231.807 141.394 231.09C142.291 230.373 143.353 229.889 144.482 229.682C145.612 229.475 146.776 229.55 147.87 229.902C148.963 230.254 149.953 230.87 150.75 231.698C152.039 233.045 152.741 234.85 152.7 236.715C152.64 238.522 151.881 240.236 150.583 241.495C149.284 242.754 147.548 243.46 145.74 243.465L145.71 243.488ZM145.71 243.488C146.588 243.487 147.457 243.31 148.266 242.969C149.075 242.627 149.808 242.127 150.421 241.498C151.034 240.869 151.515 240.124 151.835 239.306C152.156 238.489 152.31 237.615 152.288 236.738C152.237 235.024 151.521 233.398 150.292 232.204C149.062 231.01 147.416 230.341 145.703 230.34C143.956 230.34 142.281 231.034 141.046 232.269C139.811 233.504 139.118 235.179 139.118 236.925C139.118 238.672 139.811 240.346 141.046 241.581C142.281 242.816 143.956 243.51 145.703 243.51L145.71 243.488Z" fill="#EBEBEB"/>
<path d="M23.07 328.32L64.1775 328.14L105.285 328.073L187.5 327.953L269.715 328.073L310.823 328.14L351.93 328.32L310.823 328.508L269.715 328.575L187.5 328.695L105.285 328.575L64.1775 328.508L23.07 328.32Z" fill="#263238"/>
<path d="M345.21 67.5073H220.86V193.192H345.21V67.5073Z" fill="#EBEBEB"/>
<path d="M278.032 59.9249C282.18 55.0574 289.282 53.8874 296.152 55.2749C303.022 56.6624 311.25 60.1274 312 71.6174C312.615 80.9474 309.75 90.0449 309.75 100.455C309.75 110.865 321.532 136.222 302.677 148.597C285.735 159.712 251.407 149.505 250.35 126.622C249.517 108.487 271.027 91.7174 273.292 84.5399C275.557 77.3624 273.487 65.2499 278.032 59.9249Z" fill="#263238"/>
<path d="M274.935 70.1624C274.807 75.3524 274.057 80.6024 271.935 85.4999C271.384 86.7403 270.665 87.8987 269.797 88.9423C268.965 89.9923 268.08 90.9823 267.195 91.9423C265.41 93.8848 263.647 95.8123 261.945 97.8148C258.564 101.738 255.769 106.131 253.65 110.857C251.618 115.605 250.501 120.695 250.357 125.857C250.146 123.252 250.224 120.631 250.59 118.042C250.995 115.441 251.666 112.887 252.592 110.422C254.546 105.484 257.315 100.908 260.782 96.8848C262.485 94.8523 264.292 92.9098 266.092 90.9898C267.892 89.0698 269.715 87.2398 270.832 84.9899C271.979 82.6894 272.852 80.263 273.435 77.7599C274.093 75.2611 274.594 72.7237 274.935 70.1624Z" fill="#263238"/>
<path d="M311.527 79.4548C311.4 84.7498 311.062 90.0373 311.205 95.2948C311.267 97.9133 311.487 100.526 311.865 103.117C312.255 105.667 313.02 108.217 313.657 110.797C314.295 113.377 314.865 115.995 315.285 118.635C315.691 121.287 315.862 123.97 315.795 126.652C315.673 129.348 315.168 132.012 314.295 134.565C313.288 137.074 311.786 139.355 309.878 141.27C311.55 139.214 312.821 136.864 313.628 134.34C314.327 131.83 314.675 129.235 314.662 126.63C314.45 121.385 313.629 116.183 312.218 111.127C311.618 108.555 310.853 106.005 310.485 103.297C310.141 100.645 310.005 97.9688 310.08 95.2948C310.239 89.9902 310.722 84.7003 311.527 79.4548Z" fill="#263238"/>
<path d="M284.25 123.982C267 142.972 252.923 152.092 239.048 152.092C225.855 152.092 197.67 120.06 195.6 115.837C193.815 112.192 216.953 92.2497 220.508 94.7322C226.508 98.8872 245.753 122.94 247.793 123.052C249.833 123.165 257.348 118.2 275.445 109.725C286.44 104.587 296.25 110.82 284.25 123.982Z" fill="#FFC4C0"/>
<path d="M198.285 118.995C195.75 116.25 185.108 102.547 183 98.0774C180.893 93.6074 175.785 80.3024 179.047 78.3449C182.31 76.3874 184.11 80.1599 184.11 80.1599C184.11 80.1599 182.843 74.2049 186.308 72.5324C189.773 70.8599 192.383 76.8224 192.383 76.8224C192.383 76.8224 191.528 70.6124 195.098 69.1874C198.668 67.7624 200.303 74.2124 200.303 74.2124C200.303 74.2124 199.252 68.5649 202.688 68.6324C206.82 68.7149 207.577 79.3424 210.27 84.1049C210.877 85.1849 224.213 105.105 224.213 105.105L198.285 118.995Z" fill="#FFC4C0"/>
<path d="M200.16 73.665C200.738 81.4725 202.343 84.795 206.91 90.9975C207 91.1175 206.843 91.275 206.738 91.1625C201.69 85.4925 199.08 81.6225 199.763 73.6725C199.815 73.2825 200.13 73.29 200.16 73.665Z" fill="#263238"/>
<path d="M192.36 76.2074C193.665 84.2699 195.36 87.8849 199.702 94.7324C199.762 94.8299 199.605 94.9424 199.537 94.8524C194.73 88.4849 192.21 84.5624 191.963 76.3349C191.948 75.9599 192.3 75.8324 192.36 76.2074Z" fill="#263238"/>
<path d="M184.35 80.5048C186.18 88.2223 187.883 92.2649 192.937 98.3699C193.057 98.5199 192.855 98.7073 192.727 98.5723C186.968 92.8423 184.808 87.8099 184.125 80.5724C184.08 80.0924 184.238 80.0173 184.35 80.5048Z" fill="#263238"/>
<path d="M230.16 107.01C230.16 107.01 229.987 97.1924 228.96 92.8949C227.932 88.5974 218.25 74.0024 214.942 75.9224C210.72 78.3974 214.665 87.9224 217.192 92.3474C217.192 92.3474 207.442 98.0774 208.77 105.532C210.097 112.987 230.16 107.01 230.16 107.01Z" fill="#FFC4C0"/>
<path d="M214.005 76.9798C211.755 82.0198 215.505 87.6073 217.643 92.0698C217.677 92.134 217.695 92.2055 217.697 92.2783C217.698 92.3511 217.682 92.4232 217.649 92.4885C217.617 92.5538 217.57 92.6104 217.511 92.6537C217.452 92.697 217.384 92.7256 217.313 92.7373C213.367 95.4148 208.59 100.327 208.53 105.352C208.53 105.382 208.518 105.411 208.497 105.432C208.476 105.453 208.447 105.465 208.417 105.465C208.388 105.465 208.359 105.453 208.338 105.432C208.317 105.411 208.305 105.382 208.305 105.352C207.637 99.9523 211.935 94.7323 216.435 92.0848C214.185 87.5323 210.682 81.7723 213.96 76.9348L214.005 76.9798Z" fill="#263238"/>
<path d="M254.505 117.532L268.365 143.392C268.365 143.392 287.16 125.145 290.16 117.532C293.16 109.92 289.928 104.392 276.555 108.465C268.916 110.729 261.527 113.767 254.505 117.532Z" fill="#5CBA94"/>
<path d="M271.568 138C270.885 136.598 270.285 135.15 269.573 133.755C268.86 132.36 268.148 130.98 267.405 129.615C265.905 126.855 264.405 124.088 262.845 121.365C261.96 119.865 261.03 118.32 260.062 116.865C260.025 116.798 259.897 116.865 259.935 116.918C262.477 122.61 265.56 128.063 268.635 133.478C269.528 135.045 270.54 136.538 271.47 138.083C271.5 138.12 271.605 138.053 271.568 138Z" fill="#263238"/>
<path d="M290.16 117.532C287.16 125.145 268.365 143.392 268.365 143.392L259.027 126L289.83 108.967C291.6 110.812 291.578 113.94 290.16 117.532Z" fill="#263238"/>
<path d="M257.662 161.07C257.662 161.07 250.042 179.31 252.735 193.185H336.75C334.02 155.467 315.217 123.052 304.11 112.56C295.155 104.1 285.727 104.857 279.165 109.185C277.62 110.212 260.572 133.77 258.727 137.497C251.407 152.205 257.662 161.07 257.662 161.07Z" fill="#5CBA94"/>
<path d="M279.75 108.075C279.75 108.075 274.5 123.172 277.545 123.96C285.12 125.91 295.283 113.542 295.89 112.282C296.04 111.96 296.715 103.507 297.218 96.9299C297.54 92.6999 297.788 89.2424 297.788 89.2424L279.097 95.6549L279.697 107.242L279.75 108.075Z" fill="#FFC4C0"/>
<path d="M279.068 95.6549L279.668 107.242C283.47 106.71 291.832 104.647 297.187 96.9299C297.51 92.6999 297.757 89.2424 297.757 89.2424L295.417 89.9924L279.068 95.6549Z" fill="#263238"/>
<path d="M265.147 79.4323C264.922 85.3198 265.507 90.0823 266.94 93.2473C268.167 95.9506 270.12 98.2608 272.581 99.9211C275.043 101.581 277.916 102.527 280.882 102.652C283.132 102.735 289.612 102.142 294.3 98.5723C297.945 95.7973 300.142 90.7948 301.387 81.9973C304.237 61.8823 295.035 55.1173 285.967 54.3073C276.9 53.4973 265.897 59.1373 265.147 79.4323Z" fill="#FFC4C0"/>
<path d="M270.345 74.9473C270.817 74.8798 271.253 74.7448 271.71 74.6398C272.208 74.5951 272.678 74.3928 273.053 74.0623C273.146 73.9339 273.197 73.7789 273.197 73.6198C273.197 73.4607 273.146 73.3058 273.053 73.1773C272.819 72.9603 272.532 72.8091 272.221 72.7393C271.91 72.6695 271.586 72.6834 271.282 72.7798C270.636 72.8827 270.05 73.2221 269.64 73.7323C269.543 73.8504 269.485 73.9953 269.472 74.1475C269.46 74.2998 269.495 74.4521 269.571 74.5842C269.648 74.7163 269.763 74.8219 269.901 74.8868C270.04 74.9517 270.194 74.9728 270.345 74.9473Z" fill="#263238"/>
<path d="M283.598 75.4499C283.137 75.3688 282.682 75.2636 282.232 75.1349C281.735 75.0934 281.265 74.8876 280.897 74.5499C280.804 74.4214 280.753 74.2665 280.753 74.1074C280.753 73.9483 280.804 73.7933 280.897 73.6649C281.133 73.4484 281.422 73.2988 281.734 73.2315C282.047 73.1643 282.372 73.1818 282.675 73.2824C283.327 73.3866 283.916 73.7319 284.325 74.2499C284.419 74.3698 284.474 74.5155 284.483 74.6676C284.492 74.8198 284.455 74.971 284.376 75.1013C284.297 75.2317 284.18 75.3348 284.041 75.3971C283.902 75.4593 283.747 75.4778 283.598 75.4499Z" fill="#263238"/>
<path d="M280.282 80.5198C280.282 80.4673 280.387 80.5873 280.387 80.6473C280.275 82.0198 280.387 83.6473 281.61 84.1423C281.61 84.1423 281.61 84.2248 281.61 84.2173C280.08 83.9323 279.96 81.8023 280.282 80.5198Z" fill="#263238"/>
<path d="M281.587 79.1324C283.838 79.0724 283.777 83.5349 281.707 83.5949C279.637 83.6549 279.75 79.1849 281.587 79.1324Z" fill="#263238"/>
<path d="M282.465 79.3798C282.847 79.6348 283.215 80.0848 283.695 80.1298C284.175 80.1748 284.655 79.7248 285.015 79.2748C285.053 79.2298 285.09 79.2748 285.09 79.3273C285.09 80.1823 284.76 81.0598 283.838 81.1798C282.915 81.2998 282.412 80.5198 282.202 79.6798C282.165 79.4998 282.307 79.2748 282.465 79.3798Z" fill="#263238"/>
<path d="M272.895 79.9349C272.895 79.8824 272.79 80.0024 272.79 80.0549C272.79 81.4424 272.647 83.0549 271.395 83.4899C271.357 83.4899 271.357 83.5724 271.395 83.5649C272.932 83.3549 273.157 81.2399 272.895 79.9349Z" fill="#263238"/>
<path d="M271.665 78.4873C269.415 78.3148 269.257 82.7773 271.32 82.9348C273.383 83.0923 273.525 78.6373 271.665 78.4873Z" fill="#263238"/>
<path d="M270.75 78.7499C270.39 78.9749 270 79.3874 269.603 79.4024C269.205 79.4174 268.77 78.9148 268.478 78.4423C268.478 78.3898 268.41 78.4424 268.403 78.4874C268.35 79.3424 268.59 80.2349 269.408 80.4374C270.225 80.6399 270.728 79.9049 270.96 79.0649C270.975 78.8999 270.863 78.6599 270.75 78.7499Z" fill="#263238"/>
<path d="M280.148 91.2599C279.825 91.5974 279.51 92.0549 279.015 92.1149C278.5 92.1187 277.99 92.0193 277.515 91.8224C277.506 91.8145 277.494 91.8104 277.482 91.8111C277.47 91.8118 277.459 91.8172 277.451 91.8262C277.443 91.8351 277.439 91.8469 277.44 91.8588C277.441 91.8708 277.446 91.882 277.455 91.8899C277.663 92.1546 277.939 92.3584 278.253 92.4798C278.567 92.6012 278.908 92.6358 279.24 92.5799C279.517 92.4933 279.763 92.3281 279.948 92.1045C280.133 91.8808 280.249 91.6083 280.283 91.3199C280.287 91.3028 280.285 91.2848 280.277 91.2689C280.269 91.2531 280.256 91.2404 280.24 91.2333C280.224 91.2261 280.206 91.2249 280.189 91.2297C280.172 91.2346 280.157 91.2453 280.148 91.2599Z" fill="#263238"/>
<path d="M274.5 86.1373C274.5 86.1373 274.17 88.1998 274.155 89.1748C274.155 89.2648 274.388 89.3098 274.718 89.3398C274.718 89.3398 274.718 89.3398 274.755 89.3398C275.583 89.5035 276.44 89.4377 277.233 89.1495C278.026 88.8613 278.725 88.3617 279.255 87.7048C279.323 87.6148 279.203 87.5098 279.113 87.5698C277.852 88.3907 276.361 88.785 274.86 88.6948C274.8 88.4173 275.543 85.1848 275.385 85.1698C274.617 85.2174 273.86 85.3714 273.135 85.6273C273.698 81.3148 274.943 77.1298 275.43 72.8323C275.43 72.6823 275.228 72.6298 275.183 72.7648C273.563 77.0548 272.813 82.0048 272.115 86.4373C272.055 86.9998 274.08 86.3023 274.5 86.1373Z" fill="#263238"/>
<path d="M275.34 88.8299C275.82 89.5651 276.481 90.1643 277.26 90.5699C277.689 90.7745 278.171 90.8426 278.64 90.7649C279.667 90.5774 279.765 89.6549 279.645 88.8524C279.572 88.4253 279.451 88.0077 279.285 87.6074C278.134 88.4255 276.752 88.8539 275.34 88.8299Z" fill="#263238"/>
<path d="M277.26 90.57C277.689 90.7746 278.171 90.8426 278.64 90.765C279.667 90.5775 279.765 89.655 279.645 88.8525C279.112 88.8286 278.587 88.9852 278.154 89.2969C277.721 89.6085 277.406 90.0571 277.26 90.57Z" fill="#FF98B9"/>
<path d="M301.02 80.1899C298.807 80.2574 292.53 74.7374 291.39 64.1324C291.39 64.1324 293.078 73.5824 293.918 74.9099C294.758 76.2374 290.408 71.7974 289.365 63.2624C289.365 63.2624 284.94 67.1174 280.995 68.6174C277.05 70.1174 274.583 70.3124 274.245 70.0424C273.908 69.7724 279.705 67.3574 281.145 65.3624C281.145 65.3624 270.848 71.3624 265.928 72.1724C265.358 72.2624 266.318 63.4049 273.525 57.7049C280.733 52.0049 290.64 53.4299 294.195 56.2799C294.195 56.2799 298.08 56.4824 302.76 61.7699C307.44 67.0574 303.397 80.1149 301.02 80.1899Z" fill="#263238"/>
<path d="M298.103 83.4299C298.103 83.4299 302.22 76.8824 305.167 78.3224C308.115 79.7624 305.242 89.0999 301.935 90.5174C301.523 90.7301 301.073 90.8572 300.611 90.8909C300.149 90.9246 299.685 90.8643 299.246 90.7136C298.808 90.5629 298.405 90.3249 298.062 90.014C297.718 89.7031 297.441 89.3258 297.247 88.9049L298.103 83.4299Z" fill="#FFC4C0"/>
<path d="M304.275 81C304.335 81 304.342 81.0675 304.275 81.09C301.957 82.1625 300.825 84.42 300.06 86.7375C300.727 85.8225 301.657 85.2975 302.872 86.0775C302.932 86.115 302.872 86.22 302.812 86.205C302.395 86.1029 301.956 86.1301 301.555 86.2827C301.153 86.4354 300.807 86.7064 300.562 87.06C300.158 87.6663 299.816 88.3121 299.543 88.9875C299.445 89.205 299.055 89.115 299.13 88.8675C299.127 88.8476 299.127 88.8274 299.13 88.8075C298.92 85.7775 301.057 81.4425 304.275 81Z" fill="#263238"/>
<path d="M310.612 116.677C318.923 126.27 342.218 160.995 336.818 170.377C331.635 179.377 319.882 181.912 313.117 169.822C308.25 161.175 300.068 135.375 298.035 123C296.385 112.98 302.932 107.805 310.612 116.677Z" fill="#FFC4C0"/>
<path d="M302.85 147.42L330.39 137.302C330.39 137.302 314.933 116.145 307.815 112.117C300.697 108.09 294.772 110.52 296.947 124.327C298.118 132.207 300.096 139.945 302.85 147.42Z" fill="#5CBA94"/>
<path d="M325.5 133.372C324 133.86 322.5 134.25 321 134.76C319.5 135.27 318.06 135.787 316.605 136.335C313.657 137.43 310.717 138.525 307.8 139.702C306.165 140.362 304.53 141.075 302.932 141.825C302.857 141.825 302.887 141.982 302.932 141.96C308.932 140.235 314.752 137.94 320.542 135.652C322.222 134.985 323.835 134.152 325.492 133.485C325.605 133.455 325.552 133.35 325.5 133.372Z" fill="#263238"/>
<path d="M304.402 146.775C303.857 146.895 303.323 147.061 302.805 147.27C302.055 145.642 300.277 138.487 299.865 136.65C299.04 132.99 298.365 129.292 297.503 125.632C297.503 125.527 297.3 125.557 297.315 125.632C297.57 127.665 297.885 129.69 298.237 131.7C297.862 130.74 297.487 129.772 297.195 128.79C297.198 128.783 297.199 128.776 297.199 128.768C297.198 128.761 297.195 128.754 297.191 128.747C297.187 128.741 297.182 128.736 297.175 128.732C297.169 128.729 297.161 128.727 297.154 128.727C297.146 128.727 297.139 128.729 297.132 128.732C297.126 128.736 297.12 128.741 297.116 128.747C297.112 128.754 297.11 128.761 297.109 128.768C297.108 128.776 297.11 128.783 297.112 128.79C297.453 130.01 297.872 131.208 298.365 132.375C298.657 136.125 302.07 148.042 302.167 147.997C302.939 147.648 303.69 147.254 304.417 146.82C304.5 146.842 304.5 146.767 304.402 146.775Z" fill="#263238"/>
<path d="M290.782 76.1773L282.945 109.635C282.608 110.617 283.11 111.405 284.07 111.39L299.032 114.435C299.557 114.387 300.057 114.191 300.474 113.869C300.891 113.548 301.208 113.115 301.387 112.62L309.225 79.1623C309.562 78.1798 309.06 77.3923 308.1 77.4148L293.137 74.3623C292.613 74.4103 292.113 74.6064 291.696 74.9278C291.279 75.2492 290.962 75.6825 290.782 76.1773Z" fill="#A6A6A6"/>
<path d="M292.065 76.3648L284.25 109.822C283.912 110.805 284.415 111.592 285.375 111.577L300.337 114.622C300.861 114.575 301.36 114.38 301.777 114.06C302.194 113.74 302.511 113.308 302.692 112.815L310.5 79.3573C310.837 78.3673 310.335 77.5873 309.375 77.6023L294.42 74.5498C293.897 74.6004 293.398 74.7975 292.981 75.1185C292.565 75.4396 292.247 75.8715 292.065 76.3648Z" fill="#DBDBDB"/>
<path d="M296.805 77.805C296.812 78.105 296.73 78.4004 296.567 78.6529C296.405 78.9053 296.171 79.1033 295.895 79.2212C295.619 79.3391 295.314 79.3715 295.019 79.3142C294.724 79.2569 294.454 79.1125 294.242 78.8997C294.03 78.687 293.887 78.4156 293.832 78.1207C293.776 77.8258 293.81 77.5209 293.929 77.2455C294.048 76.9701 294.248 76.7368 294.501 76.5758C294.754 76.4148 295.05 76.3335 295.35 76.3425C295.737 76.3444 296.107 76.4994 296.379 76.7735C296.652 77.0475 296.805 77.4184 296.805 77.805Z" fill="#263238"/>
<path d="M317.115 172.852C321.982 181.852 334.867 176.722 336.817 170.377C341.392 155.49 338.557 130.74 335.827 116.917C334.95 112.47 304.74 116.917 304.92 121.725C305.13 127.537 307.575 155.152 317.115 172.852Z" fill="#FFC4C0"/>
<path d="M335.49 123.525C337.012 116.966 337.104 110.157 335.76 103.56C334.17 96.3675 328.972 81.1125 308.078 74.31C303.12 72.69 294.908 73.8975 302.078 79.4775C307.148 83.445 311.557 84.4275 314.077 87.2775C314.077 87.2775 303.818 90.0525 302.393 95.0775C301.145 99.4759 300.21 103.957 299.595 108.487C300.399 108.789 301.22 109.039 302.055 109.237C301.614 113.613 302.632 118.011 304.95 121.747L335.49 123.525Z" fill="#FFC4C0"/>
<path d="M333.142 96.9375C330.037 94.6875 323.392 89.9025 316.575 87.9375C309.015 85.6875 293.872 83.5125 292.297 89.1C291.142 93.2025 296.85 94.56 296.85 94.56C296.85 94.56 290.4 94.965 290.168 98.895C289.958 102.48 294.435 103.267 294.435 103.267C294.435 103.267 290.565 104.182 291.022 107.677C291.577 111.87 299.61 109.26 303.847 113.025C304.8 113.85 333.142 96.9375 333.142 96.9375Z" fill="#FFC4C0"/>
<path d="M315.57 96.2849C312.3 94.6049 303.885 92.7074 296.97 94.4249C296.812 94.4249 296.76 94.5974 296.91 94.5974C303.173 94.4284 309.434 95.0177 315.555 96.3524C315.593 96.3674 315.608 96.2999 315.57 96.2849Z" fill="#263238"/>
<path d="M313.125 103.845C310.125 102.69 301.387 101.115 294.442 103.095C294.285 103.14 294.24 103.282 294.39 103.275C300.644 102.775 306.935 102.992 313.14 103.92C313.15 103.918 313.159 103.912 313.164 103.904C313.17 103.895 313.172 103.885 313.17 103.875C313.168 103.865 313.162 103.856 313.154 103.851C313.145 103.845 313.135 103.843 313.125 103.845Z" fill="#263238"/>
<path d="M314.355 166.582C314.13 165.832 313.912 165.082 313.672 164.4C313.177 162.9 312.75 161.4 312.315 159.9C311.43 156.9 310.582 153.855 309.84 150.795C308.358 144.696 307.234 138.515 306.472 132.285C306.262 130.56 306.082 128.835 305.895 127.11C305.707 125.385 305.647 123.592 305.317 121.86C305.317 121.77 304.44 120.45 304.095 119.797C303.737 119.118 303.424 118.417 303.157 117.697C302.597 116.229 302.217 114.697 302.025 113.137C302.021 113.128 302.014 113.119 302.006 113.113C301.997 113.107 301.987 113.104 301.976 113.104C301.966 113.104 301.955 113.107 301.947 113.113C301.938 113.119 301.931 113.128 301.927 113.137C301.83 114.913 302.054 116.691 302.588 118.387C303.05 119.806 303.847 121.092 304.912 122.137C304.912 122.362 304.965 125.137 305.055 126.69C305.145 128.242 305.287 129.795 305.46 131.34C305.812 134.445 306.247 137.542 306.795 140.625C307.865 146.86 309.353 153.017 311.25 159.052C311.25 159.15 311.317 159.247 311.347 159.345C311.347 159.57 311.347 159.795 311.347 160.02C311.359 160.574 311.404 161.128 311.482 161.677C311.636 162.77 311.905 163.844 312.285 164.88C312.282 164.889 312.28 164.899 312.282 164.908C312.283 164.918 312.286 164.927 312.292 164.935C312.297 164.943 312.305 164.949 312.313 164.954C312.322 164.958 312.332 164.961 312.341 164.961C312.351 164.961 312.36 164.958 312.369 164.954C312.378 164.949 312.385 164.943 312.39 164.935C312.396 164.927 312.4 164.918 312.401 164.908C312.402 164.899 312.401 164.889 312.397 164.88C312.131 163.796 311.951 162.692 311.857 161.58L311.722 160.44C312.135 161.655 312.57 162.87 312.997 164.077C313.297 164.917 313.605 165.735 313.95 166.552C314.295 167.37 314.565 168.165 314.97 168.922C314.97 168.982 315.09 168.922 315.075 168.877C314.887 168.075 314.587 167.34 314.355 166.582Z" fill="#263238"/>
<path d="M220.86 193.185V173.025L197.948 193.185H220.86Z" fill="#EBEBEB"/>
<path d="M103.102 235.927C109.702 264.645 123.352 299.07 129.18 304.657C136.552 311.722 185.325 324.682 187.755 324.945C193.755 325.552 205.852 282.195 199.432 281.257C189.682 279.847 154.162 277.92 152.04 275.737C149.917 273.555 134.842 254.55 119.437 233.197C108.802 218.445 99 218.107 103.102 235.927Z" fill="#D3766A"/>
<path d="M182.925 322.605C183.637 322.965 193.83 328.095 200.13 329.917C204.832 331.282 218.467 334.845 220.485 329.812C221.865 326.392 214.087 323.355 208.642 321.082C205.77 319.882 202.23 316.882 203.077 315.037C204.577 311.812 211.95 315.037 216.81 317.872C226.207 323.332 238.725 333.165 244.462 328.372C246.63 326.572 244.11 323.287 240.427 320.07C246.427 323.82 252.787 326.895 255.27 324.99C256.702 323.902 256.77 322.41 255.975 320.715C257.82 321.315 259.447 321.195 260.587 319.965C262.53 317.925 261.585 314.925 259.455 311.842C259.821 311.805 260.172 311.68 260.48 311.479C260.788 311.278 261.043 311.007 261.225 310.687C265.342 304.41 244.725 286.387 237.607 284.7C216.645 279.712 194.55 280.642 194.55 280.642C186.315 287.25 182.902 322.59 182.925 322.605Z" fill="#D3766A"/>
<path d="M213.75 303.307C218.741 304.087 223.509 305.92 227.737 308.685C233.055 312.195 236.58 316.305 241.035 320.437C241.053 320.461 241.062 320.49 241.061 320.519C241.06 320.548 241.048 320.576 241.029 320.598C241.01 320.62 240.983 320.635 240.954 320.64C240.925 320.645 240.895 320.639 240.87 320.625C238.747 318.66 229.942 311.265 227.67 309.585C223.559 306.492 218.799 304.373 213.75 303.39C213.683 303.382 213.698 303.292 213.75 303.307Z" fill="#263238"/>
<path d="M217.658 294.405C223.17 295.905 228.818 297.405 233.933 300.045C239.528 302.895 243.908 307.545 248.183 312.045C250.773 314.73 253.3 317.48 255.765 320.295C255.863 320.415 255.705 320.602 255.6 320.482C251.23 315.862 246.73 311.362 242.1 306.982C237.815 302.915 232.768 299.734 227.25 297.622C224.1 296.415 220.86 295.462 217.62 294.502C217.575 294.487 217.598 294.39 217.658 294.405Z" fill="#263238"/>
<path d="M223.545 286.627C228.9 287.73 233.572 288.667 238.312 291.532C244.59 295.335 250.65 301.732 252.772 304.005C255.12 306.51 257.385 309.09 259.605 311.707C259.695 311.812 259.515 311.977 259.417 311.872C254.33 306.133 248.876 300.729 243.09 295.695C240.368 293.257 237.287 291.254 233.955 289.755C230.577 288.429 227.092 287.395 223.537 286.665C223.537 286.665 223.5 286.62 223.545 286.627Z" fill="#263238"/>
<path d="M191.175 278.918L176.175 326.438C176.175 326.438 135.562 314.842 128.175 306.84C120.787 298.837 107.055 257.513 103.027 237.48C99 217.448 109.125 217.98 118.433 230.572C127.74 243.165 150.915 273.81 152.182 274.477C153.45 275.145 191.175 278.918 191.175 278.918Z" fill="#5CBA94"/>
<path opacity="0.1" d="M191.175 278.918L176.175 326.438C176.175 326.438 135.562 314.842 128.175 306.84C120.787 298.837 107.055 257.513 103.027 237.48C99 217.448 109.125 217.98 118.433 230.572C127.74 243.165 150.915 273.81 152.182 274.477C153.45 275.145 191.175 278.918 191.175 278.918Z" fill="black"/>
<path d="M172.275 305.325C174.098 299.722 175.958 294.135 177.563 288.465C178.478 285.247 179.408 282.022 180.292 278.797C180.33 278.67 180.128 278.602 180.083 278.722C178.035 284.272 175.995 289.845 174.203 295.485C172.41 301.125 170.588 306.735 168.878 312.337C167.91 315.547 167.033 318.772 166.26 322.035C166.26 322.095 166.35 322.132 166.373 322.072C168.608 316.59 170.445 310.965 172.275 305.325Z" fill="#263238"/>
<path d="M155.692 319.905L153.893 319.275C150.51 318.068 147.06 316.77 143.813 315.443C143.393 315.278 142.98 315.105 142.575 314.933C141.923 314.663 141.27 314.385 140.64 314.108L139.695 313.695L139.358 313.545L138.382 313.095C137.092 312.503 135.87 311.91 134.73 311.31L133.98 310.89C132.198 309.973 130.519 308.87 128.97 307.598C128.828 307.47 128.685 307.343 128.558 307.215C128.43 307.088 128.295 306.96 128.183 306.84C120.758 298.838 107.063 257.513 103.035 237.48L102.9 236.79V236.64C102.63 235.14 102.39 233.235 102.195 231.195C101.632 221.228 106.35 219.6 112.178 223.98C126.705 255.158 148.957 306.675 155.692 319.905Z" fill="#263238"/>
<path d="M134.625 327.885L46.125 328.35C46.2 326.445 58.8 270.72 68.82 250.155C81.6675 223.785 88.32 221.655 92.2425 220.245C97.305 218.43 106.32 219.33 108.458 220.343C110.888 221.475 118.613 234.96 121.38 244.853C126.915 264.75 135.87 326.67 134.625 327.885Z" fill="#EBEBEB"/>
<path d="M87.705 222.33C87.705 222.33 98.955 263.993 99.5175 266.76C100.365 270.78 105.975 328.14 105.975 328.14L44.2875 328.35C44.2875 328.35 57.75 275.25 67.77 252C78.705 226.5 87.705 222.33 87.705 222.33Z" fill="#5CBA94"/>
<g opacity="0.1">
<path opacity="0.1" d="M87.705 222.33C87.705 222.33 98.955 263.993 99.5175 266.76C100.365 270.78 105.975 328.14 105.975 328.14L44.2875 328.35C44.2875 328.35 57.75 275.25 67.77 252C78.705 226.5 87.705 222.33 87.705 222.33Z" fill="black"/>
</g>
<path d="M109.268 220.988C109.598 222.315 119.97 256.163 120.69 264.6C121.492 273.96 128.587 328.35 128.587 328.35H137.587C137.587 328.35 124.56 250.208 120.982 241.95C113.662 225.098 109.268 220.988 109.268 220.988Z" fill="#5CBA94"/>
<path opacity="0.1" d="M109.268 220.988C109.598 222.315 119.97 256.163 120.69 264.6C121.492 273.96 128.587 328.35 128.587 328.35H137.587C137.587 328.35 124.56 250.208 120.982 241.95C113.662 225.098 109.268 220.988 109.268 220.988Z" fill="black"/>
<path d="M76.0575 232.073C61.2375 247.95 25.2075 308.19 36.6375 319.178C48.0675 330.165 111.525 315.375 129.345 306.878C134.648 304.358 114.503 271.298 108.27 270.525C103.08 269.888 76.56 282.015 75.7875 280.493C74.925 278.768 79.14 266.04 85.5375 242.993C92.88 216.428 82.6125 225.053 76.0575 232.073Z" fill="#D3766A"/>
<path d="M134.61 259.86C147.495 258.06 151.11 259.583 161.153 252.293C167.76 247.508 173.655 249.675 169.883 257.273C163.718 269.708 147.578 275.513 141.383 275.918L134.61 259.86Z" fill="#D3766A"/>
<path d="M100.38 272.25C100.38 272.25 114.862 264.21 128.407 260.94C137.768 258.69 158.692 256.028 178.717 276.69C183.465 281.588 186.757 291.938 176.1 286.755C168.525 283.073 164.85 278.453 160.042 277.11C160.042 277.11 162.668 290.768 157.575 295.335C153.124 299.326 148.395 302.996 143.422 306.315C142.605 305.546 141.838 304.724 141.127 303.855C141.127 303.855 135.967 307.672 126.262 306.742L100.38 272.25Z" fill="#D3766A"/>
<path d="M137.692 260.25C142.192 262.582 151.575 267.69 157.815 274.545C164.752 282.165 176.055 298.695 170.377 303.795C166.222 307.507 161.377 301.545 161.377 301.545C161.377 301.545 164.61 309.367 160.118 311.895C156.03 314.205 152.535 309.39 152.535 309.39C152.535 309.39 153.682 314.467 149.31 315.93C144.06 317.685 142.515 306.75 135.652 303.93C134.085 303.255 137.692 260.25 137.692 260.25Z" fill="#D3766A"/>
<path d="M148.553 280.5C152.4 283.387 159.465 292.185 161.415 301.297C161.46 301.507 161.332 301.65 161.25 301.47C157.862 294.012 153.581 286.993 148.5 280.567C148.44 280.5 148.5 280.5 148.553 280.5Z" fill="#263238"/>
<path d="M141.067 287.723C144.135 290.558 151.012 299.948 152.67 309.255C152.707 309.465 152.565 309.6 152.497 309.413C149.494 301.792 145.637 294.535 141 287.783C140.955 287.738 141 287.685 141.067 287.723Z" fill="#263238"/>
<path d="M160.043 277.02C164.243 278.258 166.973 280.32 170.543 282.78C172.28 284.022 174.085 285.166 175.95 286.208C177.66 287.13 180.188 288.525 182.003 287.078C183.023 286.275 183.008 284.828 182.753 283.65C182.24 281.946 181.46 280.333 180.443 278.873C180.443 278.813 180.495 278.745 180.54 278.798C181.522 280.129 182.367 281.556 183.06 283.058C183.514 284.087 183.647 285.229 183.443 286.335C182.82 288.645 180.09 288.953 178.193 288.315C177.043 287.893 175.937 287.358 174.893 286.718C173.873 286.133 172.883 285.503 171.893 284.843C169.898 283.493 167.985 282.03 166.005 280.658C164.081 279.366 162.077 278.199 160.005 277.163C159.989 277.155 159.977 277.142 159.969 277.127C159.962 277.111 159.96 277.093 159.965 277.076C159.969 277.059 159.979 277.044 159.994 277.034C160.008 277.024 160.025 277.019 160.043 277.02Z" fill="#263238"/>
<path d="M168.84 291.795C167.752 289.403 161.865 279.428 159.96 277.118C159.953 277.106 159.95 277.093 159.952 277.079C159.953 277.066 159.959 277.053 159.969 277.044C159.978 277.034 159.991 277.028 160.004 277.027C160.017 277.025 160.031 277.028 160.043 277.035C163.32 280.14 168.578 288.383 169.792 291.023C171.007 293.663 172.402 296.97 172.402 299.873C172.402 304.26 169.492 305.123 168.42 305.31C167.136 305.543 165.812 305.325 164.67 304.695C163.334 303.879 162.18 302.796 161.28 301.515C161.235 301.455 161.318 301.373 161.37 301.433C162.87 303.165 165.42 304.868 167.797 304.553C168.325 304.503 168.837 304.348 169.303 304.097C169.77 303.845 170.181 303.503 170.513 303.09C171.162 302.035 171.412 300.782 171.217 299.558C170.867 296.855 170.063 294.231 168.84 291.795Z" fill="#263238"/>
<path d="M100.38 272.25L120.69 315C120.69 315 41.25 332.835 34.395 319.005C27.54 305.175 58.395 251.055 72.2925 235.29C88.41 217.02 90.465 223.238 86.9175 239.43C83.1675 256.38 76.02 280.89 76.02 280.89L100.38 272.25Z" fill="#5CBA94"/>
<path opacity="0.1" d="M100.38 272.25L120.69 315C120.69 315 41.25 332.835 34.395 319.005C27.54 305.175 58.395 251.055 72.2925 235.29C88.41 217.02 90.465 223.238 86.9175 239.43C83.1675 256.38 76.02 280.89 76.02 280.89L100.38 272.25Z" fill="black"/>
<path d="M51.8775 292.267C59.2049 287.178 67.2511 283.212 75.75 280.5C78.1575 279.75 80.5875 279.037 83.0175 278.34C83.0925 278.34 83.1225 278.437 83.0175 278.46C78.7793 279.831 74.6247 281.449 70.575 283.305C66.53 285.105 62.53 286.977 58.575 288.922C56.325 290.025 54.135 291.232 51.93 292.41C51.9152 292.407 51.9015 292.4 51.89 292.39C51.8786 292.38 51.8699 292.367 51.8646 292.353C51.8594 292.339 51.8578 292.323 51.8601 292.309C51.8623 292.294 51.8683 292.279 51.8775 292.267Z" fill="#263238"/>
<path d="M100.17 272.138C99.7725 272.243 78.045 279.42 77.3325 279.75C77.4225 279.42 81.3225 267.87 81.9075 266.175C81.96 266.01 82.0125 265.838 82.0725 265.673C82.4625 264.923 82.8675 264.173 83.235 263.423C83.7 262.44 84.165 261.443 84.6225 260.423H84.5775L83.0775 263.325C82.845 263.768 82.6275 264.225 82.41 264.683C82.7925 263.49 83.16 262.29 83.5275 261.083C84.1125 259.17 84.6375 257.235 85.155 255.3C85.155 255.233 85.08 255.218 85.0575 255.3C83.9025 258.668 82.6425 261.998 81.48 265.365C80.3175 268.733 75.8475 281.115 75.885 281.115C75.9225 281.115 99.81 272.67 100.275 272.483C100.298 272.476 100.319 272.464 100.337 272.449C100.355 272.434 100.37 272.416 100.382 272.395C100.393 272.374 100.4 272.351 100.402 272.328C100.404 272.304 100.402 272.28 100.395 272.258C100.388 272.235 100.377 272.214 100.362 272.196C100.347 272.177 100.328 272.162 100.307 272.151C100.286 272.14 100.264 272.133 100.24 272.131C100.216 272.128 100.193 272.131 100.17 272.138Z" fill="#263238"/>
<path d="M101.632 300C99.3825 295.238 97.2 290.445 94.7925 285.75C93.42 283.088 92.0625 280.418 90.6675 277.77C90.615 277.673 90.435 277.77 90.48 277.853C92.535 282.728 94.605 287.603 96.885 292.395C99.165 297.188 101.385 301.92 103.702 306.645C105.022 309.33 106.425 311.973 107.91 314.573C107.91 314.625 108.03 314.573 108.007 314.573C106.117 309.608 103.89 304.815 101.632 300Z" fill="#263238"/>
<path d="M121.717 315.66C120.922 314.34 119.917 312.45 119.07 311.16C118.845 310.822 118.582 310.89 118.762 311.242C119.37 312.442 119.872 313.785 120.465 314.992C119.355 315.217 118.215 315.412 117.12 315.645C115.83 315.915 114.547 316.192 113.257 316.455C110.727 316.955 108.197 317.455 105.667 317.955C100.537 318.91 95.3875 319.75 90.2175 320.475C79.8602 321.992 69.4312 322.97 58.9725 323.407C56.0475 323.512 53.115 323.565 50.19 323.527C47.3047 323.535 44.4209 323.395 41.55 323.107C41.4675 323.107 41.4525 323.235 41.55 323.25C44.0204 323.772 46.5282 324.098 49.05 324.225C51.6975 324.352 54.3525 324.413 57.0075 324.382C62.2575 324.323 67.56 323.977 72.8175 323.497C83.2425 322.537 93.6375 321.127 103.942 319.305C106.832 318.805 109.715 318.262 112.59 317.677C114.045 317.385 115.492 317.092 116.94 316.77C118.387 316.447 121.852 315.885 121.717 315.66Z" fill="#263238"/>
<path d="M109.283 236.535C104.033 237.983 94.635 230.22 90.795 223.785C90.5325 223.343 91.05 218.573 91.4025 212.745C91.605 209.213 91.74 205.245 91.605 201.66C91.605 200.91 114.428 206.325 114.428 206.325C114.428 206.325 112.478 213.96 112.748 220.245C112.771 220.751 112.842 221.253 112.958 221.745C112.978 221.824 112.993 221.904 113.002 221.985C113.565 224.768 114.36 235.133 109.283 236.535Z" fill="#D3766A"/>
<path d="M93 201.75C94.275 207.81 98.61 222.397 110.685 222.225C111.459 222.217 112.232 222.147 112.995 222.015C113.004 221.933 113.004 221.85 112.995 221.767C112.884 221.274 112.811 220.772 112.778 220.267C112.515 213.975 114.458 206.332 114.458 206.332C114.458 206.332 97.9425 202.432 93 201.75Z" fill="#263238"/>
<path d="M117.15 190.837C116.895 196.372 120.63 201.037 125.49 201.262C130.35 201.487 134.49 197.167 134.737 191.632C134.985 186.097 131.25 181.432 126.397 181.215C121.545 180.997 117.397 185.302 117.15 190.837Z" fill="#455A64"/>
<path d="M133.846 191.938C134.124 185.781 129.969 180.592 124.565 180.347C119.161 180.103 114.554 184.896 114.276 191.053C113.997 197.21 118.152 202.4 123.556 202.644C128.96 202.889 133.567 198.096 133.846 191.938Z" fill="#C7C7C7"/>
<path d="M94.5825 172.943C90.6525 180.353 90.405 203.91 95.025 210.075C101.722 219 114.885 222.278 123 213.75C130.897 205.455 130.672 174.75 125.31 168.923C117.427 160.32 100.387 162 94.5825 172.943Z" fill="#D3766A"/>
<path d="M114.172 191.153C114.172 191.093 114.045 191.235 114.052 191.303C114.135 192.885 113.97 194.715 112.553 195.27C112.508 195.27 112.515 195.368 112.553 195.36C114.307 195.075 114.502 192.645 114.172 191.153Z" fill="#263238"/>
<path d="M112.718 189.532C110.16 189.397 110.077 194.52 112.44 194.64C114.803 194.76 114.863 189.645 112.718 189.532Z" fill="#263238"/>
<path d="M123.053 191.347C123.053 191.287 123.172 191.43 123.172 191.49C123.097 193.08 123.277 194.91 124.672 195.457C124.717 195.457 124.672 195.555 124.672 195.547C122.94 195.27 122.723 192.84 123.053 191.347Z" fill="#263238"/>
<path d="M124.5 189.75C127.05 189.593 127.17 194.715 124.8 194.858C122.43 195 122.355 189.84 124.5 189.75Z" fill="#263238"/>
<path d="M110.422 185.437C111.172 185.4 111.795 185.242 112.507 185.137C113.259 185.123 113.985 184.859 114.57 184.387C114.727 184.207 114.82 183.979 114.833 183.74C114.847 183.501 114.781 183.265 114.645 183.067C114.317 182.722 113.903 182.471 113.446 182.339C112.988 182.207 112.504 182.2 112.042 182.317C111.065 182.395 110.152 182.837 109.485 183.555C109.345 183.727 109.258 183.936 109.233 184.156C109.209 184.377 109.249 184.599 109.348 184.798C109.446 184.997 109.6 185.162 109.791 185.276C109.982 185.389 110.201 185.445 110.422 185.437Z" fill="#263238"/>
<path d="M126.907 186C126.223 185.849 125.547 185.662 124.882 185.438C124.145 185.349 123.457 185.019 122.925 184.5C122.79 184.302 122.726 184.065 122.741 183.826C122.755 183.587 122.849 183.36 123.007 183.18C123.374 182.873 123.816 182.668 124.288 182.588C124.76 182.508 125.245 182.554 125.692 182.723C126.652 182.924 127.502 183.475 128.077 184.268C128.19 184.456 128.246 184.672 128.24 184.891C128.234 185.111 128.165 185.324 128.042 185.505C127.92 185.687 127.748 185.83 127.547 185.918C127.346 186.005 127.124 186.034 126.907 186Z" fill="#263238"/>
<path d="M111.278 205.86C111.653 206.235 112.028 206.752 112.598 206.812C113.187 206.807 113.77 206.679 114.308 206.437C114.318 206.435 114.329 206.436 114.34 206.44C114.35 206.443 114.359 206.45 114.366 206.458C114.373 206.467 114.378 206.477 114.379 206.488C114.381 206.499 114.379 206.51 114.375 206.52C114.145 206.83 113.835 207.071 113.478 207.217C113.121 207.364 112.731 207.411 112.35 207.352C112.028 207.262 111.739 207.079 111.52 206.825C111.301 206.572 111.162 206.26 111.12 205.927C111.098 205.837 111.218 205.8 111.278 205.86Z" fill="#263238"/>
<path d="M113.025 201.135C113.417 201.769 113.935 202.315 114.549 202.738C115.162 203.162 115.856 203.453 116.587 203.595C117.225 203.731 117.88 203.774 118.53 203.723C118.656 203.718 118.781 203.705 118.905 203.685L119.25 203.633C119.335 203.619 119.413 203.577 119.473 203.515C119.532 203.453 119.57 203.373 119.58 203.288C119.584 203.233 119.584 203.178 119.58 203.123V202.98C119.632 201.758 119.58 199.898 119.58 199.898C120.022 200.13 122.287 201.195 122.257 200.558C122.032 195.263 121.777 189.383 120.435 184.17C120.427 184.137 120.409 184.107 120.382 184.086C120.356 184.065 120.323 184.053 120.289 184.053C120.255 184.053 120.222 184.065 120.195 184.086C120.169 184.107 120.15 184.137 120.142 184.17C120.142 189.263 121.072 194.318 121.17 199.433C120.367 199.044 119.514 198.769 118.635 198.615C118.462 198.668 118.867 202.208 118.8 202.755C118.802 202.775 118.802 202.795 118.8 202.815C116.737 203.04 115.2 202.395 113.235 200.985C113.055 200.903 112.927 201 113.025 201.135Z" fill="#263238"/>
<path d="M117.817 203.085C117.135 203.948 116.241 204.62 115.223 205.035C114.66 205.243 114.047 205.272 113.467 205.117C112.207 204.757 112.193 203.617 112.44 202.605C112.578 202.084 112.777 201.58 113.033 201.105C114.376 202.258 116.052 202.951 117.817 203.085Z" fill="#263238"/>
<path d="M115.223 205.035C114.66 205.243 114.047 205.272 113.467 205.117C112.207 204.757 112.193 203.617 112.44 202.605C113.798 202.77 115.125 203.715 115.223 205.035Z" fill="#FF98B9"/>
<path opacity="0.2" d="M91.635 189.578C93.18 189.33 96.885 184.103 98.4525 182.025C100.02 179.948 100.927 168.81 101.07 166.275C98.3195 167.831 96.0672 170.135 94.575 172.92C92.82 176.25 91.8075 182.798 91.635 189.578Z" fill="#263238"/>
<path d="M120.232 175.5C119.317 176.505 118.159 177.259 116.87 177.69C115.582 178.122 114.204 178.218 112.867 177.968C111.504 177.717 110.227 177.121 109.159 176.238C108.09 175.354 107.265 174.212 106.762 172.92C106.762 172.838 106.612 172.883 106.642 172.958C107.048 174.365 107.83 175.635 108.905 176.63C109.98 177.626 111.306 178.309 112.74 178.605C114.165 178.82 115.622 178.656 116.963 178.13C118.305 177.603 119.484 176.732 120.382 175.605C120.388 175.586 120.387 175.565 120.38 175.547C120.373 175.528 120.361 175.512 120.344 175.5C120.328 175.489 120.308 175.483 120.288 175.483C120.268 175.483 120.249 175.489 120.232 175.5Z" fill="#263238"/>
<path d="M112.612 155.535C107.985 155.49 103.665 157.913 101.872 161.003C100.877 162.763 100.507 164.809 100.822 166.808C100.822 166.89 100.995 166.875 100.987 166.808C100.949 165.047 101.384 163.308 102.248 161.773C103.113 160.238 104.374 158.965 105.9 158.085C107.571 157.061 109.456 156.439 111.409 156.267C113.361 156.095 115.326 156.379 117.15 157.095C118.928 157.753 120.412 159.024 121.335 160.68C121.425 160.853 121.77 160.755 121.702 160.583C120.532 157.643 116.79 155.573 112.612 155.535Z" fill="#263238"/>
<path d="M139.125 166.403C138.439 164.098 136.962 162.109 134.955 160.785C132.173 158.94 128.955 159.098 125.775 159.323C125.757 159.323 125.74 159.33 125.727 159.342C125.715 159.355 125.708 159.372 125.708 159.39C125.708 159.408 125.715 159.425 125.727 159.438C125.74 159.45 125.757 159.458 125.775 159.458C128.49 159.278 131.258 159.248 133.703 160.605C135.738 161.707 137.328 163.48 138.203 165.623C139.035 167.82 139.046 170.245 138.233 172.45C137.419 174.654 135.837 176.491 133.778 177.623C132.576 178.243 131.261 178.612 129.912 178.706C128.563 178.8 127.209 178.618 125.933 178.17C125.828 178.133 125.753 178.275 125.85 178.32C127.574 178.999 129.452 179.186 131.276 178.858C133.099 178.53 134.795 177.702 136.175 176.465C137.554 175.228 138.562 173.632 139.086 171.855C139.609 170.078 139.628 168.19 139.14 166.403H139.125Z" fill="#263238"/>
<path d="M92.91 177.48C92.91 177.48 88.815 169.058 92.655 164.408C94.83 161.775 101.715 162.375 101.715 162.375C101.715 162.375 104.077 158.498 109.837 157.395C115.597 156.293 122.393 159.9 122.393 159.9C122.393 159.9 127.988 156.968 133.013 160.088C140.025 164.438 138.735 175.305 131.4 178.545C126.255 180.795 119.55 176.1 119.55 176.1C118.882 176.168 111.968 179.993 107.078 173.775C107.078 173.775 102.787 177.315 99.15 174.593C98.5312 175.655 97.6007 176.502 96.4846 177.019C95.3685 177.535 94.1207 177.696 92.91 177.48Z" fill="#263238"/>
<path d="M95.8575 192.428C95.8575 192.428 91.965 184.178 88.2975 185.408C84.63 186.638 86.6625 198.052 90.3375 200.197C90.7909 200.505 91.3019 200.718 91.8397 200.823C92.3774 200.928 92.9309 200.924 93.4669 200.809C94.0028 200.695 94.5101 200.474 94.9583 200.159C95.4065 199.843 95.7863 199.441 96.075 198.975L95.8575 192.428Z" fill="#D3766A"/>
<path d="M88.9575 188.655C88.8975 188.655 88.8675 188.73 88.9575 188.76C91.5225 190.35 92.535 193.163 93.09 195.99C92.4525 194.828 91.425 194.078 89.895 194.813C89.8792 194.823 89.867 194.838 89.8604 194.856C89.8537 194.874 89.8528 194.893 89.8577 194.911C89.8627 194.93 89.8734 194.946 89.8881 194.958C89.9029 194.97 89.9211 194.977 89.94 194.978C90.4522 194.908 90.9733 194.998 91.4323 195.236C91.8913 195.473 92.2659 195.847 92.505 196.305C92.8937 197.076 93.2004 197.885 93.42 198.72C93.51 198.99 93.975 198.93 93.93 198.63C93.9335 198.608 93.9335 198.585 93.93 198.563C94.56 195.06 92.6775 189.668 88.9575 188.655Z" fill="#263238"/>
<path d="M104.34 209.04L96.9525 205.853L91.0125 198.458L92.1525 197.535L97.8675 204.653L104.925 207.698L104.34 209.04Z" fill="#C7C7C7"/>
<path d="M103.552 207.863C104.302 205.71 110.302 206.505 109.215 209.76C108.127 213.015 102.825 210 103.552 207.863Z" fill="#37474F"/>
<path d="M88.185 185.182C88.185 185.182 87.3825 173.085 90.9225 166.432C94.8675 159 111.217 151.927 122.423 159.915C122.423 159.915 104.22 156.66 95.7375 166.965C92.1675 171.3 92.2575 185.52 92.2575 185.52L88.185 185.182Z" fill="#C7C7C7"/>
<path d="M89.8357 202.557C95.245 202.504 99.5805 197.464 99.5192 191.3C99.4579 185.137 95.023 180.185 89.6136 180.238C84.2043 180.292 79.8688 185.332 79.9301 191.495C79.9914 197.659 84.4263 202.611 89.8357 202.557Z" fill="#C7C7C7"/>
<path d="M96.66 190.98C96.7125 196.522 92.82 201.053 87.96 201.098C83.1 201.143 79.11 196.695 79.0575 191.152C79.005 185.61 82.8975 181.08 87.7575 181.035C92.6175 180.99 96.6075 185.438 96.66 190.98Z" fill="#455A64"/>
<path d="M112.912 221.61L107.625 234.96L90.99 218.175L86.325 223.605C86.325 223.605 102.637 250.313 102.735 249.105L108.172 237.593L116.137 245.55L115.387 225.495L112.912 221.61Z" fill="#EBEBEB"/>
<path d="M116.332 235.613C116.1 232.305 115.965 228.968 115.582 225.675C115.582 225.563 115.387 225.51 115.357 225.675C114.712 228.878 115.665 241.515 115.665 244.553H115.627C115.297 244.208 108.248 237.555 108.18 237.66C107.003 239.49 103.005 247.868 102.735 248.633C100.155 244.388 89.235 227.67 86.16 223.658C86.1451 223.632 86.1205 223.613 86.0917 223.605C86.0628 223.597 86.0321 223.601 86.0063 223.616C85.9804 223.631 85.9615 223.656 85.9538 223.685C85.946 223.714 85.9501 223.744 85.965 223.77C88.215 228.27 102.39 250.328 102.585 250.268C104.689 246.313 106.589 242.252 108.277 238.103C109.47 239.55 116.58 247.065 116.602 246.57C116.706 242.915 116.616 239.258 116.332 235.613Z" fill="#263238"/>
<path d="M294.63 186.51H271.433C269.183 186.508 267.027 185.614 265.437 184.023C263.846 182.433 262.952 180.277 262.95 178.027C262.95 175.778 263.844 173.62 265.434 172.029C267.025 170.439 269.183 169.545 271.433 169.545H294.63C296.88 169.545 299.037 170.439 300.628 172.029C302.219 173.62 303.112 175.778 303.112 178.027C303.112 179.141 302.893 180.244 302.467 181.274C302.041 182.303 301.416 183.238 300.628 184.025C299.84 184.813 298.905 185.438 297.876 185.864C296.847 186.291 295.744 186.51 294.63 186.51Z" fill="#455A64"/>
<path d="M276.503 177.877C276.519 177.609 276.607 177.35 276.757 177.127L276.967 176.82L277.41 176.377L277.927 176.002C278.64 175.549 279.435 175.241 280.267 175.095C282.186 174.712 284.161 174.712 286.08 175.095C286.902 175.236 287.687 175.539 288.39 175.987C288.57 176.107 288.75 176.242 288.922 176.37L289.357 176.805C289.471 176.969 289.576 177.14 289.672 177.315C289.746 177.495 289.806 177.681 289.852 177.87H286.05C286.02 177.874 285.99 177.868 285.965 177.853C285.939 177.838 285.919 177.815 285.907 177.787C285.804 177.586 285.648 177.415 285.457 177.293C285.266 177.17 285.047 177.1 284.82 177.09C283.714 177.019 282.604 177.019 281.497 177.09C281.273 177.099 281.054 177.168 280.864 177.289C280.675 177.411 280.521 177.58 280.417 177.78C280.417 177.832 280.365 177.87 280.29 177.87H276.503V177.877Z" fill="white"/>
<path d="M276.502 180V178.613H280.252C280.252 178.695 280.252 178.785 280.252 178.883V180C280.263 180.065 280.257 180.132 280.237 180.195C280.216 180.258 280.181 180.315 280.135 180.362C280.088 180.409 280.031 180.444 279.968 180.464C279.905 180.485 279.838 180.49 279.772 180.48H276.975C276.91 180.491 276.843 180.486 276.78 180.465C276.718 180.445 276.661 180.409 276.615 180.362C276.568 180.315 276.534 180.258 276.514 180.195C276.495 180.132 276.491 180.065 276.502 180Z" fill="white"/>
<path d="M286.08 180.045C286.08 179.573 286.08 179.1 286.08 178.635H289.793V178.718C289.793 179.153 289.793 179.595 289.793 180.03C289.8 180.093 289.793 180.156 289.772 180.216C289.751 180.276 289.717 180.33 289.672 180.375C289.628 180.419 289.573 180.453 289.514 180.474C289.454 180.495 289.39 180.502 289.327 180.495H286.5C286.442 180.498 286.383 180.487 286.329 180.465C286.275 180.443 286.226 180.409 286.186 180.367C286.146 180.324 286.116 180.273 286.098 180.218C286.08 180.162 286.073 180.103 286.08 180.045Z" fill="white"/>
<path d="M199.455 329.25H194.31V332.61H199.455V329.25Z" fill="#455A64"/>
<path d="M206.122 329.025H200.977V332.385H206.122V329.025Z" fill="#455A64"/>
<path d="M212.797 328.8H207.652V332.16H212.797V328.8Z" fill="#455A64"/>
<path d="M219.473 328.583H214.328V331.943H219.473V328.583Z" fill="#455A64"/>
<path d="M226.147 328.357H221.003V331.717H226.147V328.357Z" fill="#455A64"/>
<path d="M232.822 328.14H227.677V331.5H232.822V328.14Z" fill="#455A64"/>
<path d="M239.497 327.915H234.352V331.275H239.497V327.915Z" fill="#455A64"/>
<path d="M246.173 327.69H241.028V331.05H246.173V327.69Z" fill="#455A64"/>
<path d="M252.84 327.473H247.695V330.833H252.84V327.473Z" fill="#455A64"/>
<path d="M254.107 334.538H193.043V330.45L254.107 328.748V334.538Z" fill="#37474F"/>
<path d="M313.702 318.42H212.902L228.93 243.375H329.73L313.702 318.42Z" fill="#455A64"/>
<path d="M317.43 318.42H216.63L232.658 243.375H333.458L317.43 318.42Z" fill="#37474F"/>
<path d="M281.433 280.764C284.168 278.237 284.635 274.294 282.476 271.957C280.317 269.621 276.35 269.776 273.615 272.303C270.88 274.83 270.413 278.773 272.572 281.109C274.731 283.446 278.698 283.291 281.433 280.764Z" fill="#263238"/>
<path d="M288.923 338.017H239.348V334.162L288.923 332.565V338.017Z" fill="#455A64"/>
<path d="M302.4 338.01H275.782L259.747 295.958H286.365L302.4 338.01Z" fill="#455A64"/>
<path d="M306.78 338.01H280.162L264.135 295.958H290.753L306.78 338.01Z" fill="#263238"/>
<path d="M191.16 339.038H140.048C135.69 339.038 141.998 326.618 157.92 321.855C173.842 317.093 196.185 334.38 191.16 339.038Z" fill="#37474F"/>
<path d="M171.105 339.038C171.146 337.622 171.381 336.219 171.802 334.868C172.214 333.505 172.791 332.198 173.52 330.975C174.253 329.747 175.169 328.637 176.235 327.683C177.289 326.725 178.506 325.963 179.827 325.433C179.28 325.883 178.657 326.183 178.155 326.685L177.405 327.353L176.655 328.103C175.707 329.091 174.877 330.186 174.18 331.365C173.472 332.544 172.865 333.781 172.365 335.063C171.856 336.358 171.435 337.686 171.105 339.038Z" fill="#263238"/>
<path d="M177.158 327.217C180.193 328.222 183.066 329.665 185.685 331.5C187.008 332.414 188.206 333.499 189.248 334.725C189.759 335.352 190.199 336.033 190.56 336.757C190.916 337.481 191.121 338.269 191.16 339.075C190.981 338.311 190.669 337.585 190.237 336.93C189.829 336.273 189.352 335.662 188.812 335.107C187.72 334 186.527 332.996 185.25 332.107C183.982 331.192 182.64 330.375 181.297 329.565C180.622 329.16 179.933 328.77 179.243 328.395C178.553 328.02 177.855 327.6 177.158 327.217Z" fill="#263238"/>
<path d="M194.82 168.668C194.379 172.851 192.785 176.829 190.215 180.159C187.644 183.488 184.2 186.039 180.265 187.525C176.33 189.011 172.06 189.375 167.93 188.576C163.8 187.777 159.974 185.847 156.878 183L145.5 184.695L151.185 174.878C149.764 171.419 149.228 167.661 149.625 163.943C149.916 160.961 150.794 158.067 152.209 155.427C153.623 152.787 155.546 150.452 157.867 148.558C160.187 146.664 162.859 145.247 165.729 144.39C168.6 143.533 171.611 143.253 174.59 143.564C177.569 143.876 180.457 144.774 183.088 146.206C185.718 147.639 188.04 149.577 189.918 151.91C191.796 154.244 193.194 156.926 194.032 159.802C194.869 162.677 195.129 165.691 194.798 168.668H194.82Z" fill="white"/>
<path d="M194.82 168.668C194.383 172.854 192.797 176.839 190.237 180.18C189.601 181.011 188.915 181.803 188.183 182.55C187.423 183.271 186.621 183.948 185.783 184.575C184.111 185.847 182.268 186.875 180.308 187.628C178.348 188.395 176.29 188.885 174.195 189.083C173.145 189.181 172.09 189.201 171.038 189.143C169.983 189.118 168.932 189.01 167.895 188.82C163.702 188.051 159.807 186.129 156.645 183.27L156.915 183.353L145.567 185.1L144.75 185.25L145.163 184.5L150.817 174.653V175.043C149.491 171.817 148.917 168.33 149.14 164.849C149.364 161.368 150.378 157.984 152.106 154.954C153.835 151.924 156.231 149.328 159.114 147.364C161.997 145.4 165.289 144.119 168.741 143.62C172.194 143.12 175.714 143.414 179.036 144.48C182.357 145.545 185.392 147.355 187.908 149.77C190.425 152.185 192.358 155.143 193.559 158.417C194.761 161.692 195.2 165.198 194.843 168.668H194.82ZM194.82 168.668C195.176 165.25 194.744 161.795 193.558 158.57C192.372 155.345 190.463 152.434 187.977 150.061C185.491 147.688 182.495 145.916 179.218 144.881C175.941 143.846 172.47 143.576 169.072 144.09C165.703 144.593 162.494 145.86 159.69 147.795C156.917 149.746 154.599 152.274 152.895 155.205C151.218 158.151 150.228 161.438 150 164.82C149.79 168.209 150.341 171.602 151.612 174.75L151.695 174.953L151.583 175.133L145.868 184.935L145.462 184.335L156.833 182.745H156.99L157.103 182.85C160.137 185.691 163.903 187.631 167.978 188.453C168.994 188.657 170.024 188.782 171.06 188.828C172.094 188.899 173.131 188.899 174.165 188.828C176.24 188.669 178.283 188.22 180.232 187.493C182.192 186.784 184.037 185.791 185.708 184.545C186.544 183.923 187.346 183.254 188.107 182.543C188.842 181.803 189.531 181.019 190.17 180.195C192.758 176.858 194.368 172.867 194.82 168.668Z" fill="#263238"/>
<path d="M184.898 166.995C184.899 167.54 184.739 168.073 184.437 168.526C184.136 168.98 183.706 169.334 183.204 169.543C182.701 169.753 182.147 169.808 181.613 169.703C181.078 169.598 180.587 169.336 180.201 168.951C179.816 168.567 179.553 168.076 179.446 167.542C179.339 167.008 179.393 166.454 179.601 165.951C179.809 165.448 180.162 165.017 180.615 164.714C181.068 164.412 181.6 164.25 182.145 164.25C182.506 164.249 182.864 164.319 183.198 164.457C183.532 164.594 183.835 164.796 184.091 165.051C184.347 165.306 184.549 165.609 184.688 165.943C184.826 166.276 184.898 166.634 184.898 166.995Z" fill="#263238"/>
<path d="M175.043 166.995C175.044 167.54 174.884 168.073 174.582 168.527C174.28 168.981 173.85 169.335 173.347 169.544C172.844 169.753 172.29 169.808 171.755 169.702C171.22 169.596 170.729 169.334 170.344 168.949C169.958 168.563 169.696 168.072 169.59 167.538C169.484 167.003 169.539 166.449 169.748 165.946C169.958 165.442 170.312 165.013 170.765 164.711C171.219 164.409 171.752 164.249 172.298 164.25C173.026 164.25 173.724 164.539 174.239 165.054C174.753 165.569 175.043 166.267 175.043 166.995Z" fill="#263238"/>
<path d="M165.195 166.995C165.196 167.54 165.036 168.073 164.735 168.526C164.433 168.98 164.004 169.334 163.501 169.543C162.998 169.753 162.445 169.808 161.91 169.703C161.376 169.598 160.885 169.336 160.499 168.951C160.113 168.567 159.85 168.076 159.743 167.542C159.637 167.008 159.691 166.454 159.899 165.951C160.107 165.448 160.46 165.017 160.913 164.714C161.365 164.412 161.898 164.25 162.442 164.25C163.171 164.25 163.87 164.539 164.386 165.054C164.902 165.568 165.193 166.266 165.195 166.995Z" fill="#263238"/>
<path d="M204.442 50.9025C204.884 55.0854 206.478 59.0636 209.047 62.3936C211.617 65.7237 215.061 68.2747 218.995 69.7624C222.929 71.2501 227.199 71.6159 231.329 70.8192C235.459 70.0225 239.287 68.0944 242.385 65.25L253.74 66.915L248.062 57.0975C249.365 53.9006 249.921 50.449 249.689 47.0049C249.457 43.5608 248.442 40.2149 246.723 37.2216C245.004 34.2282 242.625 31.6661 239.768 29.73C236.91 27.7939 233.648 26.5348 230.231 26.0482C226.813 25.5617 223.33 25.8606 220.045 26.9223C216.761 27.9839 213.762 29.7803 211.275 32.175C208.789 34.5697 206.882 37.4996 205.698 40.7421C204.514 43.9846 204.084 47.4543 204.442 50.8875V50.9025Z" fill="white"/>
<path d="M211.237 32.1451C213.711 29.7059 216.712 27.8679 220.008 26.7729C223.305 25.6779 226.809 25.3554 230.25 25.8301C233.715 26.2871 237.03 27.5314 239.94 29.4676C244.348 32.4103 247.604 36.7864 249.155 41.8546C250.707 46.9228 250.458 52.3715 248.452 57.2776V56.8876L254.092 66.7501L254.505 67.5001L253.687 67.3726L242.332 65.6326L242.602 65.5501C239.441 68.409 235.545 70.3308 231.352 71.1001C230.315 71.2902 229.264 71.398 228.21 71.4226C227.16 71.4776 226.107 71.4575 225.06 71.3626C220.854 70.9615 216.841 69.404 213.465 66.8626C212.626 66.2351 211.825 65.559 211.065 64.8376C210.334 64.0885 209.648 63.2971 209.01 62.4676C205.61 58.0256 203.958 52.491 204.365 46.9123C204.773 41.3335 207.213 36.098 211.222 32.1976L211.237 32.1451ZM209.092 62.3626C209.731 63.1841 210.42 63.9655 211.155 64.7026C211.913 65.4188 212.715 66.0876 213.555 66.7051C215.225 67.9578 217.073 68.9538 219.037 69.6601C220.986 70.3838 223.025 70.8331 225.097 70.9951C226.134 71.0663 227.174 71.0663 228.21 70.9951C229.243 70.9492 230.271 70.8239 231.285 70.6201C235.36 69.7984 239.125 67.8585 242.16 65.0176L242.272 64.9126H242.43L253.8 66.5026L253.395 67.1026L247.68 57.3001L247.567 57.1126L247.65 56.9101C248.923 53.774 249.469 50.3902 249.247 47.0129C249.025 43.6355 248.04 40.3524 246.367 37.4101C244.665 34.4775 242.347 31.9493 239.572 30.0001C236.771 28.0663 233.564 26.799 230.197 26.2951C225.747 25.608 221.194 26.2746 217.127 28.2084C213.061 30.1422 209.67 33.2539 207.394 37.1394C205.119 41.0249 204.064 45.5047 204.367 49.9973C204.67 54.4898 206.316 58.7876 209.092 62.3326V62.3626Z" fill="#263238"/>
<path d="M229.05 51.3152V54.1502C229.056 54.4326 229.005 54.7133 228.9 54.9754C228.795 55.2375 228.637 55.4756 228.438 55.6753C228.238 55.875 228 56.0322 227.738 56.1375C227.476 56.2427 227.195 56.2938 226.912 56.2877C226.346 56.2857 225.804 56.0599 225.403 55.6594C225.003 55.259 224.777 54.7165 224.775 54.1502V49.6502C224.775 49.6052 224.82 49.6052 224.82 49.5602C224.82 49.5152 224.775 49.5152 224.775 49.4777C224.79 48.9156 225.02 48.3806 225.418 47.983C225.815 47.5854 226.35 47.3553 226.912 47.3402C227.585 47.393 228.261 47.3061 228.898 47.085C229.535 46.864 230.12 46.5135 230.615 46.0557C231.11 45.5979 231.505 45.0425 231.775 44.4246C232.046 43.8067 232.185 43.1396 232.185 42.4652C232.185 41.7908 232.046 41.1236 231.775 40.5057C231.505 39.8878 231.11 39.3325 230.615 38.8747C230.12 38.4168 229.535 38.0664 228.898 37.8453C228.261 37.6243 227.585 37.5374 226.912 37.5902C226.065 37.5868 225.233 37.8069 224.498 38.2282C223.763 38.6496 223.152 39.2574 222.727 39.9902C222.582 40.2383 222.388 40.4549 222.157 40.6273C221.927 40.7997 221.664 40.9245 221.385 40.9943C221.106 41.0641 220.815 41.0776 220.531 41.034C220.246 40.9903 219.973 40.8905 219.727 40.7402C219.486 40.5979 219.274 40.4092 219.106 40.1849C218.937 39.9607 218.814 39.7053 218.745 39.4336C218.675 39.1618 218.66 38.8789 218.7 38.6011C218.74 38.3234 218.834 38.0563 218.977 37.8152C219.736 36.4982 220.811 35.3906 222.104 34.5922C223.398 33.7937 224.869 33.3295 226.387 33.2413C227.904 33.1531 229.42 33.4437 230.797 34.0869C232.174 34.7301 233.37 35.7057 234.276 36.9259C235.182 38.1461 235.771 39.5726 235.989 41.0769C236.207 42.5811 236.047 44.116 235.524 45.5433C235.002 46.9705 234.132 48.2453 232.994 49.2529C231.856 50.2604 230.485 50.9692 229.005 51.3152H229.05ZM229.05 60.8627V61.6127C229.057 61.8953 229.007 62.1765 228.902 62.4391C228.797 62.7017 228.64 62.9402 228.44 63.1402C228.24 63.3401 228.002 63.4973 227.739 63.6022C227.476 63.707 227.195 63.7574 226.912 63.7502C226.346 63.7502 225.802 63.525 225.401 63.1241C225 62.7233 224.775 62.1796 224.775 61.6127V60.8627C224.783 60.2982 225.01 59.759 225.41 59.3598C225.809 58.9606 226.348 58.7329 226.912 58.7252C227.194 58.7222 227.473 58.7754 227.734 58.8818C227.995 58.9881 228.232 59.1454 228.431 59.3445C228.63 59.5436 228.787 59.7805 228.893 60.0411C229 60.3018 229.053 60.5811 229.05 60.8627Z" fill="#5CBA94"/>
</svg>
