<svg width="22" height="16" viewBox="0 0 22 16" fill="none" xmlns="http://www.w3.org/2000/svg">
<path d="M18 4.96801H20C20.1309 4.96651 20.2608 4.99102 20.3822 5.04012C20.5035 5.08921 20.614 5.16191 20.707 5.254C20.8001 5.34504 20.8739 5.45387 20.924 5.57401C20.9739 5.69451 20.9997 5.82359 21 5.954V9.9C20.9981 10.1628 20.8928 10.4142 20.707 10.6C20.5163 10.7818 20.2635 10.884 20 10.886H18C17.2065 10.8851 16.445 10.5731 15.879 10.017C15.6009 9.74397 15.3799 9.41829 15.2289 9.05893C15.078 8.69958 15.0002 8.31376 15 7.924V7.924C14.9996 7.53415 15.0771 7.14815 15.2281 6.78872C15.379 6.42928 15.6004 6.10365 15.879 5.831C16.1579 5.55368 16.4889 5.33416 16.8529 5.18503C17.2168 5.03591 17.6067 4.96013 18 4.96201V4.96801Z" stroke="#64748B" stroke-width="1.5" stroke-miterlimit="10"/>
<path d="M20 10.871V12.845C20.0002 13.1044 19.9485 13.3612 19.8479 13.6003C19.7472 13.8394 19.5997 14.0559 19.414 14.237C19.0385 14.611 18.53 14.8207 18 14.82H3C2.47004 14.8207 1.96148 14.611 1.586 14.237C1.40031 14.0559 1.25278 13.8394 1.15213 13.6003C1.05148 13.3612 0.999759 13.1044 1 12.845V2.974C0.999759 2.7146 1.05148 2.45779 1.15213 2.21871C1.25278 1.97963 1.40031 1.76313 1.586 1.582C1.96164 1.20837 2.47018 0.999055 3 1H18C18.5298 0.999055 19.0384 1.20837 19.414 1.582C19.5997 1.76313 19.7472 1.97963 19.8479 2.21871C19.9485 2.45779 20.0002 2.7146 20 2.974V4.948" stroke="#64748B" stroke-width="1.5" stroke-miterlimit="10"/>
<path d="M4 11.858H8" stroke="#64748B" stroke-width="1.5" stroke-miterlimit="10" stroke-linecap="round"/>
<path d="M17.6172 7.929H18.6172" stroke="#64748B" stroke-width="1.5" stroke-miterlimit="10" stroke-linecap="round"/>
</svg>
