<svg width="85" height="25" viewBox="0 0 85 25" fill="none" xmlns="http://www.w3.org/2000/svg">
<path d="M1.20799 0.446254C0.945589 0.6309 0.534958 0.929848 0.257019 1.5805C0.0531971 2.0577 0.00956348 2.51652 0 2.7835C0.00956348 3.05047 0.0531971 3.51009 0.257019 3.98649C0.534958 4.63714 0.945589 4.93609 1.20799 5.12074C1.91748 5.62032 2.61083 5.59155 2.96468 5.53879V2.7827V0.0266058C2.61083 -0.0245514 1.91748 -0.0533273 1.20799 0.446254Z" fill="#FF6F00"/>
<path d="M85 8.20847C85 6.55161 83.6569 5.20847 82 5.20847H7.34354C6.46705 5.26215 4.75109 5.29143 2.9922 4.78308C2.34223 4.59519 1.32509 4.29099 0.636638 3.62891C0.13177 3.14414 0.0236888 2.67645 0 2.40479V21.5726C0.0236888 21.8443 0.13177 22.312 0.636638 22.7968C1.32509 23.4588 2.34223 23.763 2.9922 23.9509C4.54363 24.3998 6.05968 24.4299 6.99732 24.3936C7.00048 24.3935 7.00301 24.396 7.00301 24.3992C7.00301 24.4023 7.00551 24.4048 7.0086 24.4048H82C83.6569 24.4048 85 23.0616 85 21.4048V15V8.20847Z" fill="url(#paint0_linear_171_1750)"/>
<defs>
<linearGradient id="paint0_linear_171_1750" x1="59.6557" y1="5.36093" x2="-5.69773" y2="106.892" gradientUnits="userSpaceOnUse">
<stop stop-color="#FFC107"/>
<stop offset="1" stop-color="#FFA000"/>
</linearGradient>
</defs>
</svg>
