<?xml version="1.0" encoding="utf-8"?>
<!-- Generator: Adobe Illustrator 16.0.0, SVG Export Plug-In . SVG Version: 6.00 Build 0)  -->
<!DOCTYPE svg PUBLIC "-//W3C//DTD SVG 1.1//EN" "http://www.w3.org/Graphics/SVG/1.1/DTD/svg11.dtd">
<svg version="1.1" id="done" xmlns="http://www.w3.org/2000/svg" xmlns:xlink="http://www.w3.org/1999/xlink" x="0px" y="0px"
	 width="841.89px" height="595.28px" viewBox="0 0 841.89 595.28" enable-background="new 0 0 841.89 595.28" xml:space="preserve">
<g>
	<g>
		<path fill="#EBEBEB" d="M389.389,92.325c0.737-5.36-6.827-9.769-12.511-10.227c-2.71-0.218-5.526,0.196-8.093-0.699
			c-5.564-1.939-7.786-9.126-13.214-11.417c-4.059-1.711-8.731-0.188-12.666,1.792c-3.935,1.98-7.824,4.472-12.219,4.754
			c-3.824,0.244-7.976-1.173-11.321,0.694c-2.492,1.392-3.798,4.264-6.096,5.958c-2.248,1.658-5.179,2.009-7.969,2.161
			c-2.789,0.152-5.676,0.18-8.216,1.343s-4.64,3.848-4.113,6.591L389.389,92.325z"/>
	</g>
</g>
<g>
	<g>
		<path fill="#F5F5F5" d="M232.733,168.633c0.662-4.805-6.119-8.756-11.215-9.167c-2.43-0.196-4.954,0.176-7.255-0.626
			c-4.988-1.738-6.98-8.181-11.847-10.234c-3.638-1.534-7.826-0.168-11.353,1.606c-3.527,1.775-7.013,4.009-10.954,4.262
			c-3.427,0.219-7.149-1.052-10.148,0.622c-2.234,1.248-3.406,3.823-5.465,5.342c-2.015,1.487-4.644,1.801-7.144,1.937
			c-2.5,0.136-5.088,0.162-7.365,1.204c-2.276,1.042-4.16,3.45-3.688,5.908L232.733,168.633z"/>
	</g>
</g>
<g>
	<g>
		<path fill="#F5F5F5" d="M720.182,158.563c0.708-5.144-6.553-9.376-12.008-9.816c-2.603-0.209-5.304,0.188-7.769-0.671
			c-5.34-1.861-7.474-8.76-12.685-10.958c-3.895-1.644-8.38-0.181-12.157,1.72c-3.775,1.9-7.51,4.292-11.728,4.563
			c-3.67,0.234-7.655-1.126-10.867,0.666c-2.393,1.336-3.646,4.094-5.851,5.72c-2.159,1.591-4.973,1.928-7.649,2.074
			s-5.448,0.173-7.886,1.289c-2.438,1.116-4.455,3.694-3.949,6.326L720.182,158.563z"/>
	</g>
</g>
<g>
	<g>
		<path fill="#263238" d="M687.252,565.959c0,0.176-122.786,0.317-274.211,0.317c-151.48,0-274.238-0.142-274.238-0.317
			c0-0.177,122.757-0.318,274.238-0.318C564.466,565.641,687.252,565.782,687.252,565.959z"/>
	</g>
</g>
<g>
	<g>
		<g>
			<g>
				<path fill="#5FB894" d="M621.564,512.217c2.448,1.062,4.247,3.323,5.151,5.834c0.901,2.51,0.983,5.252,0.683,7.902
					c-0.58,5.129-3.496,10.306-6.633,14.404c-4.318-3.77-5.312-10.344-5.606-13.712
					C614.694,521.324,617.084,511.423,621.564,512.217"/>
			</g>
		</g>
	</g>
	<g>
		<g>
			<g>
				<path fill="#5FB894" d="M625.785,548.822c-0.689-2.899,0.516-6.079,2.741-8.062c2.225-1.982,5.333-2.82,8.304-2.594
					c1.375,0.104,2.859,0.506,3.646,1.637c0.734,1.058,0.653,2.532,0.055,3.675c-0.597,1.142-1.627,1.996-2.72,2.68
					C634.069,548.507,630.019,550.092,625.785,548.822"/>
			</g>
		</g>
	</g>
	<g>
		<g>
			<g>
				<g>
					<path fill="#263238" d="M620.248,564.548c-0.026-0.006,0.033-0.381,0.153-1.054c0.136-0.741,0.312-1.697,0.522-2.848
						c0.478-2.38,1.089-5.789,2.94-9.099c1.823-3.301,4.379-5.732,6.528-6.938c1.069-0.618,2.002-0.986,2.663-1.178
						c0.324-0.109,0.592-0.151,0.766-0.195c0.177-0.037,0.272-0.051,0.274-0.038c0.031,0.084-1.496,0.358-3.567,1.638
						c-2.075,1.242-4.543,3.648-6.34,6.894c-1.813,3.241-2.463,6.604-3.006,8.971c-0.261,1.192-0.474,2.16-0.639,2.825
						C620.379,564.189,620.271,564.553,620.248,564.548z"/>
				</g>
			</g>
		</g>
	</g>
	<g>
		<g>
			<g>
				<g>
					<path fill="#263238" d="M620.41,519.916c0.013,0,0.03,0.158,0.054,0.461c0.02,0.341,0.045,0.779,0.077,1.322
						c0.063,1.147,0.129,2.81,0.195,4.865c0.133,4.108,0.238,9.789,0.212,16.063c-0.029,6.275-0.183,11.955-0.352,16.063
						c-0.083,2.055-0.165,3.716-0.237,4.863c-0.036,0.542-0.066,0.98-0.089,1.322c-0.025,0.302-0.044,0.459-0.058,0.459
						c-0.012-0.001-0.018-0.16-0.018-0.463c0.005-0.343,0.012-0.78,0.021-1.324c0.028-1.195,0.067-2.846,0.118-4.865
						c0.1-4.109,0.212-9.785,0.239-16.058c0.026-6.27-0.036-11.946-0.102-16.055c-0.031-2.02-0.057-3.671-0.076-4.866
						c-0.002-0.544-0.006-0.983-0.007-1.325C620.39,520.076,620.397,519.916,620.41,519.916z"/>
				</g>
			</g>
		</g>
	</g>
	<g>
		<g>
			<g>
				<path fill="#5FB894" d="M618.313,551.944c-0.981-6.205-5.165-11.816-10.83-14.53c-1.442-0.691-3.328-1.144-4.514-0.069
					c-1.188,1.075-0.922,3.005-0.341,4.499c2.418,6.213,8.915,10.601,15.583,10.521"/>
			</g>
		</g>
	</g>
	<g>
		<g>
			<g>
				<g>
					<path fill="#263238" d="M608.184,542.279c0.011-0.024,0.335,0.119,0.916,0.399c0.291,0.138,0.646,0.308,1.035,0.552
						c0.389,0.242,0.857,0.479,1.318,0.826c0.472,0.333,0.997,0.688,1.509,1.136c0.536,0.418,1.058,0.924,1.604,1.458
						c1.064,1.097,2.136,2.405,3.051,3.919c0.9,1.521,1.553,3.085,2.009,4.544c0.205,0.737,0.403,1.436,0.507,2.109
						c0.147,0.664,0.201,1.297,0.261,1.87c0.078,0.573,0.052,1.098,0.071,1.555c0.021,0.458-0.01,0.852-0.035,1.174
						c-0.047,0.642-0.086,0.995-0.111,0.993c-0.084-0.003,0.063-1.426-0.188-3.694c-0.075-0.565-0.144-1.186-0.301-1.838
						c-0.116-0.66-0.321-1.346-0.532-2.068c-0.467-1.429-1.117-2.957-2.001-4.452c-0.898-1.486-1.942-2.778-2.977-3.87
						c-0.531-0.533-1.037-1.039-1.557-1.462c-0.497-0.453-1.006-0.813-1.462-1.157C609.445,542.943,608.146,542.351,608.184,542.279
						z"/>
				</g>
			</g>
		</g>
	</g>
</g>
<g>
	<g>
		<g>
			<path fill="#263238" d="M293.37,565.976c-0.098,0.014-0.346-1.331-0.836-3.479c-0.488-2.147-1.256-5.093-2.356-8.263
				c-1.107-3.17-2.333-5.955-3.283-7.941c-0.95-1.988-1.588-3.196-1.503-3.245c0.067-0.041,0.845,1.091,1.904,3.041
				c1.061,1.948,2.365,4.735,3.482,7.938c1.112,3.202,1.819,6.196,2.196,8.381C293.354,564.594,293.446,565.965,293.37,565.976z"/>
		</g>
	</g>
	<g>
		<g>
			<path fill="#263238" d="M304.21,513.105c0.043,0.01-0.067,0.747-0.302,2.071c-0.241,1.323-0.574,3.24-0.96,5.612
				c-0.778,4.742-1.68,11.323-2.244,18.632c-0.555,7.312-0.665,13.954-0.618,18.76c0.021,2.402,0.059,4.349,0.097,5.692
				c0.031,1.345,0.026,2.091-0.017,2.093c-0.044,0.003-0.124-0.738-0.231-2.08c-0.113-1.343-0.22-3.288-0.298-5.696
				c-0.162-4.813-0.124-11.48,0.433-18.816c0.565-7.334,1.542-13.928,2.435-18.662c0.445-2.367,0.845-4.274,1.162-5.583
				C303.976,513.816,304.167,513.097,304.21,513.105z"/>
		</g>
	</g>
	<g>
		<g>
			<path fill="#263238" d="M321.603,543.538c0.079,0.065-0.785,1.138-2.029,2.968c-1.246,1.827-2.822,4.451-4.18,7.537
				c-1.348,3.089-2.21,6.027-2.71,8.181c-0.502,2.154-0.704,3.516-0.807,3.504c-0.073-0.007-0.028-1.394,0.368-3.596
				c0.391-2.2,1.198-5.208,2.567-8.346c1.378-3.132,3.042-5.764,4.395-7.542C320.56,544.461,321.547,543.489,321.603,543.538z"/>
		</g>
	</g>
</g>
<g>
	<g>
		<g>
			<path fill="#263238" d="M534.595,547.518c0.073-0.043,0.702,0.88,1.61,2.436c0.908,1.555,2.082,3.751,3.245,6.24
				c1.162,2.493,2.093,4.804,2.701,6.498c0.609,1.695,0.912,2.769,0.833,2.798c-0.086,0.03-0.537-0.985-1.251-2.632
				c-0.715-1.646-1.703-3.916-2.859-6.394c-1.157-2.478-2.263-4.692-3.065-6.298C535.006,548.562,534.516,547.563,534.595,547.518z"
				/>
		</g>
	</g>
	<g>
		<g>
			<path fill="#263238" d="M557.073,525.262c0.041,0.012-0.071,0.576-0.31,1.584c-0.263,1.132-0.596,2.565-0.991,4.273
				c-0.813,3.611-1.804,8.631-2.547,14.228c-0.737,5.599-1.086,10.704-1.24,14.402c-0.061,1.753-0.113,3.223-0.153,4.384
				c-0.032,1.036-0.07,1.61-0.113,1.61c-0.045,0.001-0.09-0.571-0.134-1.609c-0.051-1.037-0.069-2.54-0.049-4.396
				c0.039-3.714,0.317-8.849,1.058-14.475c0.747-5.622,1.813-10.652,2.742-14.248c0.462-1.8,0.872-3.245,1.189-4.234
				C556.838,525.79,557.03,525.248,557.073,525.262z"/>
		</g>
	</g>
</g>
<g>
	<g>
		<g>
			<path fill="#263238" d="M394.462,535.198c0.029-0.032,0.42,0.273,1.105,0.856c0.692,0.575,1.637,1.474,2.746,2.64
				c2.225,2.322,5.009,5.845,7.362,10.173c2.342,4.337,3.775,8.593,4.508,11.725c0.369,1.566,0.607,2.848,0.712,3.741
				c0.114,0.893,0.157,1.386,0.113,1.394c-0.11,0.018-0.419-1.945-1.261-5.023c-0.838-3.076-2.318-7.25-4.631-11.531
				c-2.326-4.275-5.014-7.793-7.135-10.175C395.863,536.611,394.386,535.283,394.462,535.198z"/>
		</g>
	</g>
	<g>
		<g>
			<path fill="#263238" d="M415.626,522.201c0.044,0.002,0.062,0.62,0.053,1.734c-0.003,1.236-0.01,2.82-0.015,4.719
				c0.012,3.982,0.164,9.482,0.688,15.534c0.532,6.052,1.332,11.496,2.012,15.42c0.334,1.869,0.613,3.429,0.83,4.645
				c0.201,1.097,0.293,1.708,0.25,1.718s-0.217-0.583-0.492-1.665c-0.28-1.081-0.636-2.657-1.031-4.615
				c-0.793-3.913-1.668-9.371-2.202-15.447c-0.526-6.075-0.608-11.602-0.505-15.594c0.052-1.996,0.128-3.61,0.218-4.723
				C415.516,522.813,415.582,522.199,415.626,522.201z"/>
		</g>
	</g>
	<g>
		<g>
			<path fill="#263238" d="M434.325,548.104c0.178,0.096-1.925,3.762-3.367,8.718c-1.479,4.946-1.702,9.166-1.903,9.149
				c-0.08-0.003-0.125-1.063,0.025-2.768c0.148-1.704,0.529-4.051,1.268-6.562c0.743-2.51,1.696-4.688,2.496-6.198
				C433.644,548.93,434.257,548.064,434.325,548.104z"/>
		</g>
	</g>
</g>
<g>
	<g>
		<g>
			<g>
				<rect x="170.294" y="449.728" fill="#455A64" width="14.189" height="112.6"/>
			</g>
			<g>
				<g>
					<path fill="#263238" d="M184.483,562.327c0,0-0.014-0.206-0.021-0.589c-0.005-0.404-0.012-0.967-0.021-1.689
						c-0.01-1.504-0.025-3.678-0.044-6.473c-0.022-5.635-0.054-13.768-0.093-23.874c-0.035-20.216-0.083-48.315-0.137-79.975
						l0.316,0.316c-4.53,0-9.325,0.001-14.184,0.001h-0.003h-0.001h-0.001h0l0,0l0.318-0.317
						c-0.076,49.322-0.143,92.034-0.174,112.6l-0.144-0.145c4.583,0.036,8.11,0.063,10.519,0.083
						c1.183,0.014,2.09,0.025,2.728,0.033C184.156,562.309,184.483,562.327,184.483,562.327s-0.291,0.019-0.892,0.028
						c-0.63,0.008-1.526,0.02-2.694,0.034c-2.429,0.019-5.984,0.046-10.604,0.082h-0.145v-0.145
						c-0.031-20.565-0.098-63.277-0.174-112.6l0.318-0.318h0h0.001h0.001h0.003c4.858,0.001,9.653,0.001,14.184,0.002h0.317l0,0.316
						c-0.054,31.75-0.102,59.93-0.137,80.202c-0.039,10.075-0.071,18.184-0.093,23.802c-0.019,2.765-0.034,4.914-0.044,6.4
						c-0.009,0.706-0.016,1.254-0.021,1.649C184.498,562.149,184.483,562.327,184.483,562.327z"/>
				</g>
			</g>
		</g>
		<g opacity="0.3">
			<rect x="170.294" y="452.463" width="14.189" height="4.688"/>
		</g>
		<g>
			<g>
				<rect x="472.055" y="449.728" fill="#455A64" width="14.189" height="112.6"/>
			</g>
			<g>
				<g>
					<path fill="#263238" d="M486.244,562.327c0,0-0.014-0.206-0.021-0.589c-0.006-0.404-0.012-0.967-0.021-1.689
						c-0.01-1.504-0.025-3.678-0.044-6.473c-0.021-5.635-0.054-13.768-0.093-23.874c-0.035-20.216-0.082-48.315-0.137-79.975
						l0.316,0.316c-4.531,0-9.324,0.001-14.184,0.001h-0.003h-0.002l0,0h-0.001l0,0l0.318-0.317
						c-0.076,49.322-0.144,92.034-0.174,112.6l-0.145-0.145c4.584,0.036,8.109,0.063,10.519,0.083
						c1.183,0.014,2.091,0.025,2.728,0.033C485.916,562.309,486.244,562.327,486.244,562.327s-0.291,0.019-0.891,0.028
						c-0.631,0.008-1.527,0.02-2.695,0.034c-2.43,0.019-5.984,0.046-10.604,0.082h-0.145v-0.145
						c-0.031-20.565-0.098-63.277-0.174-112.6l0.318-0.318h0.001l0,0h0.002h0.003c4.859,0.001,9.652,0.001,14.184,0.002h0.316v0.316
						c-0.055,31.75-0.103,59.93-0.137,80.202c-0.039,10.075-0.07,18.184-0.094,23.802c-0.019,2.765-0.033,4.914-0.043,6.4
						c-0.01,0.706-0.017,1.254-0.021,1.649C486.259,562.149,486.244,562.327,486.244,562.327z"/>
				</g>
			</g>
		</g>
		<g>
			<g>
				<rect x="449.826" y="351.089" fill="#455A64" width="14.189" height="93.862"/>
			</g>
			<g>
				<g>
					<path fill="#263238" d="M464.016,444.951c-0.006-0.008-0.014-0.174-0.021-0.492c-0.006-0.345-0.013-0.81-0.021-1.406
						c-0.01-1.26-0.024-3.066-0.043-5.386c-0.021-4.694-0.054-11.459-0.092-19.869c-0.036-16.834-0.083-40.249-0.139-66.709
						l0.315,0.315c-4.542,0.001-9.325,0.002-14.185,0.004c0.625-0.637,0.173-0.16,0.313-0.294v0.028v0.06v0.12v0.235v0.474v0.947
						v1.887c0,1.255,0,2.504,0,3.747c-0.001,2.488-0.003,4.953-0.003,7.39c-0.003,4.877-0.006,9.647-0.009,14.291
						c-0.011,9.283-0.022,18.055-0.032,26.129c-0.051,16.122-0.091,29.454-0.118,38.529l-0.155-0.155
						c4.552,0.038,8.076,0.067,10.496,0.088c1.184,0.016,2.094,0.027,2.741,0.036C463.684,444.932,464.016,444.951,464.016,444.951
						s-0.293,0.02-0.896,0.03c-0.639,0.009-1.539,0.021-2.707,0.037c-2.439,0.021-5.994,0.05-10.586,0.089l-0.154,0.001
						l-0.002-0.157c-0.027-9.075-0.068-22.407-0.117-38.529c-0.01-8.074-0.021-16.846-0.033-26.129
						c-0.002-4.644-0.006-9.414-0.008-14.291c-0.002-2.437-0.003-4.901-0.003-7.39c0-1.243-0.001-2.492-0.001-3.747v-1.887v-0.947
						v-0.474v-0.235v-0.12v-0.06v-0.028c0.145-0.15-0.322,0.292,0.323-0.343c4.859,0,9.643,0.002,14.185,0.003h0.316v0.314
						c-0.055,26.55-0.104,50.043-0.139,66.935c-0.039,8.379-0.07,15.119-0.092,19.796c-0.02,2.29-0.033,4.072-0.043,5.315
						c-0.01,0.579-0.016,1.032-0.021,1.366C464.029,444.807,464.022,444.958,464.016,444.951z"/>
				</g>
			</g>
		</g>
		<g>
			<g>
				<rect x="197.45" y="351.089" fill="#455A64" width="14.19" height="93.862"/>
			</g>
			<g>
				<g>
					<path fill="#263238" d="M211.64,444.951c-0.007-0.008-0.014-0.174-0.021-0.492c-0.005-0.345-0.013-0.81-0.021-1.406
						c-0.01-1.26-0.024-3.066-0.043-5.386c-0.021-4.694-0.053-11.459-0.092-19.869c-0.035-16.834-0.083-40.249-0.138-66.709
						l0.315,0.315c-4.542,0.001-9.326,0.002-14.185,0.004c0.625-0.637,0.173-0.16,0.313-0.294v0.028v0.06v0.12v0.235v0.474v0.947
						v1.887c0,1.255-0.001,2.504-0.001,3.747c0,2.488-0.001,4.953-0.002,7.39c-0.003,4.877-0.006,9.647-0.008,14.291
						c-0.012,9.283-0.023,18.055-0.033,26.129c-0.049,16.122-0.09,29.454-0.118,38.529l-0.156-0.155
						c4.552,0.038,8.076,0.067,10.496,0.088c1.184,0.016,2.096,0.027,2.742,0.036C211.308,444.932,211.64,444.951,211.64,444.951
						s-0.292,0.02-0.896,0.03c-0.639,0.009-1.539,0.021-2.707,0.037c-2.44,0.021-5.996,0.05-10.587,0.089l-0.155,0.001l0-0.157
						c-0.028-9.075-0.068-22.407-0.118-38.529c-0.01-8.074-0.021-16.846-0.034-26.129c-0.002-4.644-0.005-9.414-0.008-14.291
						c0-2.437-0.001-4.901-0.002-7.39c0-1.243,0-2.492,0-3.747v-1.887v-0.947v-0.474v-0.235v-0.12v-0.06v-0.028
						c0.144-0.15-0.323,0.292,0.323-0.343c4.859,0,9.643,0.002,14.185,0.003h0.316l0,0.314c-0.055,26.55-0.103,50.043-0.138,66.935
						c-0.039,8.379-0.07,15.119-0.093,19.796c-0.018,2.29-0.033,4.072-0.042,5.315c-0.009,0.579-0.016,1.032-0.021,1.366
						C211.654,444.807,211.647,444.958,211.64,444.951z"/>
				</g>
			</g>
		</g>
		<g>
			<g>
				<rect x="169.459" y="340.38" fill="#455A64" width="321.929" height="15.024"/>
			</g>
			<g>
				<g>
					<path fill="#263238" d="M491.388,355.404c0,0-0.011-0.307-0.017-0.915c-0.005-0.616-0.012-1.53-0.021-2.762
						c-0.012-2.475-0.028-6.22-0.052-11.348l0.089,0.09c-39.588,0.028-168.821,0.119-321.913,0.229h-0.016l0.318-0.319
						c0,5.147,0,10.267,0,15.024l-0.318-0.317c89.613,0.053,170.049,0.098,228.094,0.132c29.043,0.041,52.481,0.073,68.671,0.097
						c8.095,0.019,14.374,0.034,18.644,0.045c2.127,0.01,3.749,0.017,4.854,0.022C490.816,355.391,491.388,355.404,491.388,355.404
						s-0.542,0.016-1.622,0.022c-1.094,0.007-2.704,0.014-4.813,0.023c-4.252,0.011-10.506,0.024-18.568,0.045
						c-16.173,0.022-39.586,0.055-68.596,0.096c-58.106,0.033-138.624,0.08-228.33,0.132h-0.317v-0.318c0-4.758,0-9.877,0-15.024
						v-0.318h0.318h0.016c153.091,0.108,282.325,0.2,321.913,0.229h0.091l-0.002,0.089c-0.021,5.152-0.04,8.914-0.051,11.398
						c-0.01,1.224-0.017,2.13-0.02,2.742C491.4,355.12,491.388,355.404,491.388,355.404z"/>
				</g>
			</g>
		</g>
		<g>
			<g>
				<rect x="170.294" y="362.917" fill="#455A64" width="321.929" height="15.025"/>
			</g>
			<g>
				<g>
					<path fill="#263238" d="M492.223,377.942c0,0-0.011-0.308-0.017-0.916c-0.005-0.617-0.012-1.531-0.021-2.762
						c-0.011-2.475-0.027-6.22-0.052-11.348l0.09,0.09c-39.589,0.027-168.821,0.119-321.913,0.229h-0.016l0.318-0.318
						c0,5.147,0,10.267,0,15.024l-0.317-0.317c89.613,0.052,170.048,0.098,228.094,0.133c29.042,0.04,52.481,0.072,68.671,0.095
						c8.094,0.02,14.374,0.035,18.643,0.046c2.127,0.009,3.75,0.017,4.854,0.022C491.65,377.927,492.223,377.942,492.223,377.942
						s-0.541,0.015-1.622,0.021c-1.096,0.005-2.704,0.014-4.812,0.022c-4.252,0.011-10.508,0.025-18.569,0.046
						c-16.173,0.022-39.585,0.055-68.596,0.096c-58.107,0.033-138.625,0.079-228.33,0.132h-0.318v-0.318c0-4.758,0-9.877,0-15.024
						v-0.318h0.318h0.016c153.091,0.108,282.325,0.2,321.913,0.229h0.09v0.089c-0.023,5.151-0.041,8.913-0.051,11.398
						c-0.01,1.223-0.018,2.13-0.021,2.742C492.233,377.657,492.223,377.942,492.223,377.942z"/>
				</g>
			</g>
		</g>
		<g>
			<g>
				<rect x="170.294" y="386.289" fill="#455A64" width="321.929" height="15.025"/>
			</g>
			<g>
				<g>
					<path fill="#263238" d="M492.223,401.314c0,0-0.011-0.307-0.017-0.916c-0.005-0.617-0.012-1.529-0.021-2.762
						c-0.011-2.475-0.027-6.219-0.052-11.347l0.09,0.09c-39.589,0.027-168.821,0.119-321.913,0.228h-0.016l0.318-0.317
						c0,5.147,0,10.267,0,15.024l-0.317-0.317c89.613,0.052,170.048,0.098,228.094,0.132c29.042,0.04,52.481,0.073,68.671,0.095
						c8.094,0.021,14.374,0.036,18.643,0.046c2.127,0.011,3.75,0.018,4.854,0.022C491.65,401.299,492.223,401.314,492.223,401.314
						s-0.541,0.015-1.622,0.022c-1.096,0.005-2.704,0.013-4.812,0.021c-4.252,0.011-10.508,0.026-18.569,0.046
						c-16.173,0.022-39.585,0.056-68.596,0.097c-58.107,0.033-138.625,0.08-228.33,0.131h-0.318v-0.317c0-4.758,0-9.877,0-15.024
						v-0.318h0.318h0.016c153.091,0.108,282.325,0.2,321.913,0.228h0.09v0.091c-0.023,5.15-0.041,8.912-0.051,11.398
						c-0.01,1.222-0.018,2.129-0.021,2.742C492.233,401.029,492.223,401.314,492.223,401.314z"/>
				</g>
			</g>
		</g>
		<g>
			<g>
				<rect x="170.294" y="409.662" fill="#455A64" width="321.929" height="15.024"/>
			</g>
			<g>
				<g>
					<path fill="#263238" d="M492.223,424.687c0,0-0.011-0.307-0.017-0.915c-0.005-0.617-0.012-1.53-0.021-2.762
						c-0.011-2.475-0.027-6.22-0.052-11.348l0.09,0.09c-39.589,0.028-168.821,0.119-321.913,0.229h-0.016l0.318-0.318
						c0,5.147,0,10.267,0,15.024l-0.317-0.317c89.613,0.052,170.048,0.098,228.094,0.131c29.042,0.041,52.481,0.074,68.671,0.097
						c8.094,0.021,14.374,0.035,18.643,0.046c2.127,0.01,3.75,0.017,4.854,0.022C491.65,424.672,492.223,424.687,492.223,424.687
						s-0.541,0.016-1.622,0.022c-1.096,0.006-2.704,0.014-4.812,0.023c-4.252,0.01-10.508,0.024-18.569,0.045
						c-16.173,0.022-39.585,0.055-68.596,0.096c-58.107,0.033-138.625,0.08-228.33,0.132h-0.318v-0.318c0-4.758,0-9.877,0-15.024
						v-0.318h0.318h0.016c153.091,0.108,282.325,0.2,321.913,0.229h0.09v0.089c-0.023,5.152-0.041,8.914-0.051,11.398
						c-0.01,1.224-0.018,2.13-0.021,2.742C492.233,424.402,492.223,424.687,492.223,424.687z"/>
				</g>
			</g>
		</g>
		<g>
			<g>
				<rect x="156.31" y="437.439" fill="#455A64" width="341.767" height="15.023"/>
			</g>
			<g>
				<g>
					<path fill="#263238" d="M498.076,452.463c0,0-0.011-0.305-0.017-0.912c-0.005-0.615-0.013-1.527-0.021-2.757
						c-0.011-2.473-0.027-6.218-0.051-11.354l0.088,0.087c-41.031,0.027-178.595,0.12-341.75,0.23h-0.017l0.318-0.317
						c0,5.146,0,10.268,0,15.023l-0.317-0.316c95.095,0.051,180.49,0.098,242.123,0.131c30.838,0.04,55.727,0.074,72.92,0.097
						c8.596,0.019,15.266,0.034,19.798,0.044c2.26,0.011,3.983,0.018,5.154,0.022C497.469,452.449,498.076,452.463,498.076,452.463
						s-0.578,0.016-1.725,0.023c-1.162,0.005-2.873,0.012-5.113,0.022c-4.516,0.01-11.16,0.025-19.723,0.045
						c-17.176,0.023-42.041,0.056-72.846,0.096c-61.694,0.033-147.172,0.08-242.359,0.131l-0.318,0.002v-0.319
						c0-4.756,0-9.877,0-15.023v-0.318h0.318h0.017c163.154,0.109,300.718,0.202,341.75,0.23h0.087v0.088
						c-0.022,5.16-0.04,8.922-0.052,11.404c-0.008,1.222-0.016,2.127-0.019,2.738C498.087,452.18,498.076,452.463,498.076,452.463z"
						/>
				</g>
			</g>
		</g>
		<g opacity="0.3">
			<rect x="472.055" y="452.463" width="14.189" height="4.688"/>
		</g>
	</g>
	<g>
		<g>
			<g>
				<g>
					<g>
						<g>
							<g>
								<g>
									<g>
										<g>
											<path fill="#FFBE9D" d="M313.222,264.522l-3.066,19.783l-7.89,18.008l-11.693-7.467l-4.156-10.51l-3.487-8.814
												c0,0-12.352,2.971-17.271-8.577c-2.375-5.577-6.332-17.456-9.789-28.25c-3.717-11.609,2.101-24.125,13.374-28.764
												l1.12-0.461c12.366-4.263,22.895,3.856,26.814,16.336L313.222,264.522"/>
										</g>
									</g>
								</g>
							</g>
						</g>
					</g>
				</g>
			</g>
			<g>
				<g>
					<g>
						<g>
							<g>
								<g>
									<g>
										<g>
											<path fill="#EB996E" d="M282.913,275.52c0,0,7.581-2.422,13.362-10.527c0,0-0.14,9.826-12.151,13.546L282.913,275.52z"/>
										</g>
									</g>
								</g>
							</g>
						</g>
					</g>
				</g>
			</g>
			<g>
				<g>
					<g>
						<g>
							<g>
								<g>
									<g>
										<g>
											<g>
												<g>
													<g>
														<path fill="#263238" d="M263.414,247.552c0.329,0.888,1.352,1.342,2.287,1.015c0.932-0.327,1.422-1.31,1.093-2.198
															c-0.329-0.888-1.353-1.343-2.285-1.017C263.576,245.68,263.085,246.664,263.414,247.552z"/>
													</g>
												</g>
											</g>
										</g>
									</g>
								</g>
							</g>
						</g>
					</g>
				</g>
			</g>
			<g>
				<g>
					<g>
						<g>
							<g>
								<g>
									<g>
										<g>
											<g>
												<g>
													<g>
														<path fill="#263238" d="M278.972,240.616c0.329,0.888,1.353,1.341,2.286,1.015c0.932-0.327,1.423-1.31,1.094-2.198
															c-0.329-0.888-1.354-1.342-2.285-1.017C279.132,238.743,278.643,239.728,278.972,240.616z"/>
													</g>
												</g>
											</g>
										</g>
									</g>
								</g>
							</g>
						</g>
					</g>
				</g>
			</g>
			<g>
				<g>
					<g>
						<g>
							<g>
								<g>
									<g>
										<g>
											<g>
												<g>
													<g>
														<path fill="#263238" d="M277.34,252.352c-0.035-0.105-1.222,0.16-3.113,0.669c-0.475,0.14-0.943,0.227-1.147-0.052
															c-0.243-0.285-0.255-0.854-0.252-1.476c-0.025-1.278-0.052-2.618-0.08-4.022c-0.161-5.708-0.479-10.325-0.708-10.316
															c-0.23,0.009-0.286,4.642-0.125,10.349c0.051,1.403,0.098,2.741,0.146,4.02c0.041,0.588-0.015,1.298,0.499,1.885
															c0.263,0.29,0.699,0.4,1.023,0.358c0.328-0.031,0.587-0.131,0.818-0.21
															C276.25,252.909,277.374,252.456,277.34,252.352z"/>
													</g>
												</g>
											</g>
										</g>
									</g>
								</g>
							</g>
						</g>
					</g>
				</g>
			</g>
			<g>
				<g>
					<g>
						<g>
							<g>
								<g>
									<g>
										<path fill="#263238" d="M274.882,231.582c0.375,0.412,2.061-0.55,4.259-1.16c2.184-0.652,4.123-0.734,4.221-1.283
											c0.038-0.26-0.444-0.595-1.32-0.784c-0.868-0.19-2.13-0.192-3.444,0.185c-1.313,0.38-2.38,1.052-3.015,1.676
											C274.941,230.842,274.711,231.382,274.882,231.582z"/>
									</g>
								</g>
							</g>
						</g>
					</g>
				</g>
			</g>
			<g>
				<g>
					<g>
						<g>
							<g>
								<g>
									<g>
										<path fill="#263238" d="M258.179,239.973c0.481,0.276,1.536-0.65,3.006-1.278c1.447-0.679,2.841-0.851,2.954-1.393
											c0.042-0.257-0.322-0.582-1.027-0.741c-0.695-0.161-1.726-0.102-2.729,0.347c-1.001,0.45-1.73,1.179-2.074,1.806
											C257.959,239.345,257.959,239.833,258.179,239.973z"/>
									</g>
								</g>
							</g>
						</g>
					</g>
				</g>
			</g>
			<g>
				<g>
					<g>
						<g>
							<g>
								<g>
									<g>
										<g>
											<g>
												<g>
													<g>
														<g>
															<g>
																<g>
																	<g>
																		<g>
																			<g>
																				<g>
																					<g>
																						<g>
																							<g>
																								<g>
																									<path fill="#FFBE9D" d="M299.767,234.791c0.162-0.167,7.004-5.64,10.016,2.399
																										c3.013,8.039-5.68,9.405-5.78,9.179S299.767,234.791,299.767,234.791z"/>
																								</g>
																							</g>
																						</g>
																					</g>
																				</g>
																			</g>
																		</g>
																	</g>
																</g>
															</g>
														</g>
													</g>
												</g>
											</g>
										</g>
									</g>
								</g>
							</g>
						</g>
					</g>
				</g>
				<g>
					<g>
						<g>
							<g>
								<g>
									<g>
										<g>
											<g>
												<g>
													<g>
														<g>
															<g>
																<g>
																	<g>
																		<g>
																			<g>
																				<g>
																					<g>
																						<g>
																							<g>
																								<g>
																									<g>
																										<path fill="#EB996E" d="M305.317,242.404c0.025-0.039,0.176,0.045,0.453,0.066
																											c0.27,0.019,0.694-0.058,1.055-0.371c0.732-0.63,0.942-2.246,0.439-3.71
																											c-0.253-0.739-0.668-1.378-1.143-1.858c-0.465-0.497-1-0.764-1.455-0.68
																											c-0.463,0.061-0.671,0.43-0.684,0.693c-0.022,0.265,0.087,0.407,0.051,0.437
																											c-0.017,0.028-0.224-0.07-0.284-0.427c-0.026-0.172-0.002-0.397,0.127-0.622
																											c0.135-0.229,0.388-0.416,0.698-0.495c0.636-0.189,1.408,0.172,1.93,0.699
																											c0.557,0.517,1.041,1.229,1.324,2.059c0.556,1.639,0.295,3.466-0.742,4.237
																											c-0.511,0.36-1.045,0.366-1.36,0.268C305.403,242.592,305.293,242.429,305.317,242.404z"/>
																									</g>
																								</g>
																							</g>
																						</g>
																					</g>
																				</g>
																			</g>
																		</g>
																	</g>
																</g>
															</g>
														</g>
													</g>
												</g>
											</g>
										</g>
									</g>
								</g>
							</g>
						</g>
					</g>
				</g>
			</g>
			<g>
				<g>
					<g>
						<g>
							<g>
								<g>
									<g>
										<path fill="#263238" d="M249.01,225.682c-0.285-1.68,0.249-3.619,1.712-4.493c-1.265-1.213-1.547-3.324-0.645-4.827
											c0.902-1.502,2.897-2.247,4.563-1.702c-1.094-2.379,1.076-5.553,3.69-5.396c-0.663-1.368-0.255-3.17,0.933-4.118
											c1.188-0.949,3.035-0.949,4.222,0c0.487-3.53,4.978-5.82,8.122-4.143c2.7-2.435,7.315-2.317,9.887,0.253
											c2.647-0.929,5.833-0.041,7.616,2.125c1.721-0.547,3.719-0.11,5.053,1.105c1.336,1.215,1.958,3.164,1.575,4.928
											c2.407,0.14,4.13,3.147,3.035,5.295c1.414,0.094,2.734,1.057,3.255,2.375c0.52,1.318,0.213,2.924-0.756,3.958
											c1.228-0.336,2.331,1.015,2.446,2.282c0.114,1.268-0.358,2.519-0.375,3.792c-0.014,1.048,0.283,2.078,0.333,3.125
											c0.094,1.969-0.743,3.956-2.201,5.279c0.102,0.051,0.203,0.102,0.306,0.153c0.625,0.931-0.504,2.214-1.626,2.205
											c-1.123-0.01-2.072-0.772-2.986-1.425c-1.047-0.746-2.193-1.416-2.954-2.45c-0.764-1.035-1.025-2.587-0.196-3.569
											c-1.556,0.112-3.016-0.921-3.861-2.235c-0.843-1.313-1.19-2.875-1.522-4.401c-0.489-2.25-0.978-4.502-1.467-6.753
											c-2.906,1.114-6.417,0.437-8.7-1.677c-1.401,2.432-5.193,3.007-7.252,1.098c0.251,3.223-2.462,6.38-5.686,6.616
											c0.99,1.513-1.329,4.252-2.766,5.35c-1.437,1.099-3.931,0.792-3.931,0.792s-2.101,2.787-3.872,2.806
											c-1.738,0.02-4.537-1.065-4.203-3.04C250.757,228.992,249.293,227.361,249.01,225.682z"/>
									</g>
								</g>
							</g>
						</g>
					</g>
				</g>
			</g>
			<g>
				<g>
					<g>
						<g>
							<g>
								<g>
									<g>
										<g>
											<path fill="#455A64" d="M299.166,214.52c-0.088,0.004,0.101,0.598-0.364,1.349c-0.23,0.357-0.644,0.714-1.203,0.769
												c-0.547,0.063-1.231-0.179-1.589-0.717l-0.291-0.436l-0.233,0.477c-0.335,0.686-1.152,1.251-2.038,1.241
												c-0.995-0.01-1.871-0.775-2.102-1.598l-0.136-0.49l-0.357,0.356c-0.452,0.452-1.072,0.657-1.61,0.65
												c-0.543-0.003-1.001-0.215-1.328-0.456c-0.658-0.502-0.806-1.03-0.883-0.996c-0.047-0.004-0.032,0.601,0.651,1.271
												c0.336,0.318,0.866,0.628,1.537,0.677c0.659,0.05,1.439-0.155,2.047-0.721l-0.493-0.133
												c0.273,1.078,1.335,2.059,2.668,2.085c1.166,0.005,2.172-0.719,2.59-1.627l-0.522,0.041
												c0.547,0.755,1.447,1.003,2.16,0.882c0.744-0.121,1.237-0.642,1.455-1.092
												C299.571,215.089,299.198,214.475,299.166,214.52z"/>
										</g>
									</g>
								</g>
							</g>
						</g>
					</g>
				</g>
			</g>
			<g>
				<g>
					<g>
						<g>
							<g>
								<g>
									<g>
										<g>
											<path fill="#455A64" d="M303.494,221.628c-0.06-0.031-0.191,0.339-0.711,0.684c-0.475,0.327-1.525,0.616-2.343-0.025
												l-0.27-0.212l-0.124,0.324c-0.249,0.654-0.93,1.284-1.789,1.4c-0.836,0.13-1.843-0.371-2.248-1.241l-0.237-0.512
												l-0.325,0.469c-0.076,0.112-0.177,0.222-0.293,0.316c-0.527,0.429-1.32,0.479-1.823,0.125
												c-0.527-0.344-0.799-1.008-0.717-1.552l0.092-0.614l-0.525,0.317c-0.645,0.39-1.404,0.455-2.013,0.308
												c-0.614-0.145-1.082-0.495-1.392-0.843c-0.623-0.717-0.672-1.332-0.752-1.309c-0.041-0.013-0.129,0.648,0.483,1.526
												c0.304,0.42,0.815,0.875,1.537,1.089c0.71,0.213,1.613,0.186,2.43-0.272l-0.432-0.297
												c-0.133,0.778,0.203,1.661,0.936,2.168c0.75,0.526,1.841,0.457,2.581-0.142c0.167-0.134,0.314-0.295,0.426-0.462
												l-0.561-0.042c0.551,1.152,1.821,1.75,2.923,1.564c1.105-0.184,1.899-0.991,2.174-1.827l-0.394,0.113
												c0.544,0.401,1.176,0.465,1.668,0.382c0.501-0.076,0.89-0.3,1.157-0.524
												C303.492,222.063,303.528,221.627,303.494,221.628z"/>
										</g>
									</g>
								</g>
							</g>
						</g>
					</g>
				</g>
			</g>
			<g>
				<g>
					<g>
						<g>
							<g>
								<g>
									<g>
										<g>
											<path fill="#455A64" d="M259.276,208.608c0.051,0.025,0.124-0.421,0.682-0.884c0.275-0.221,0.687-0.427,1.186-0.411
												c0.49,0.01,1.075,0.247,1.437,0.75l0.293,0.409l0.071-0.504c0.126-0.901,0.785-1.927,1.879-2.38
												c1.062-0.46,2.588-0.157,3.44,0.914l0.367,0.459l0.153-0.569c0.281-1.042,1.109-1.997,2.199-2.449
												c1.08-0.471,2.434-0.301,3.463,0.417c0.42,0.286,0.77,0.659,1.03,1.076l0.186,0.299l0.282-0.208
												c1.374-1.014,3.405-0.84,4.512,0.21c1.145,1.05,1.425,2.734,0.968,3.938l-0.17,0.452l0.467-0.103
												c1.124-0.248,2.227,0.039,3.007,0.538c0.794,0.499,1.269,1.213,1.529,1.83c0.513,1.27,0.289,2.099,0.376,2.095
												c0.021,0.004,0.092-0.187,0.125-0.565c0.029-0.376,0.016-0.95-0.224-1.636c-0.235-0.676-0.713-1.485-1.575-2.074
												c-0.844-0.584-2.055-0.947-3.346-0.698l0.296,0.349c0.559-1.393,0.288-3.305-1.042-4.569
												c-1.323-1.262-3.645-1.488-5.308-0.285l0.467,0.091c-0.308-0.499-0.722-0.938-1.212-1.273
												c-1.194-0.837-2.797-1.035-4.075-0.47c-1.273,0.54-2.212,1.647-2.531,2.88l0.52-0.11
												c-1.065-1.284-2.845-1.588-4.107-1.016c-1.275,0.57-1.974,1.762-2.08,2.804l0.364-0.096
												c-0.481-0.609-1.185-0.845-1.764-0.825c-0.594,0.017-1.048,0.293-1.328,0.563c-0.287,0.276-0.423,0.556-0.489,0.745
												C259.26,208.498,259.26,208.604,259.276,208.608z"/>
										</g>
									</g>
								</g>
							</g>
						</g>
					</g>
				</g>
			</g>
		</g>
		<g>
			<g>
				<g>
					<g>
						<g>
							<g>
								<g>
									<g>
										<g>
											<g>
												<g>
													<path fill="#263238" d="M282.642,250.406c-0.297,0.103,0.496,2.04-0.597,4.097c-1.086,2.059-3.24,2.691-3.144,2.968
														c0.022,0.131,0.614,0.186,1.495-0.148c0.868-0.322,2.002-1.111,2.67-2.368c0.664-1.259,0.637-2.563,0.375-3.384
														C283.184,250.731,282.77,250.341,282.642,250.406z"/>
												</g>
											</g>
										</g>
									</g>
								</g>
							</g>
						</g>
					</g>
				</g>
			</g>
		</g>
	</g>
	<g>
		<g>
			<path fill="#F7B521" d="M270.74,285.593l-9.683,27.266l2.237,29.809l6.167,51.495c0,0,22.685-7.66,23.705-6.897
				c1.019,0.766-10.036-52.207-10.036-52.207l7.997-43.094l-5.709-10.727L270.74,285.593z"/>
		</g>
		<g>
			<path fill="#F7B521" d="M270.74,285.593l-10.65,24.449l-21.941,8.632l-23.102,7.104l3.289,16.556
				c0.673,3.393,4.076,5.508,7.416,4.611l19.465-5.222l18.134-0.834l9.428-21.914L270.74,285.593z"/>
		</g>
		<g>
			<path fill="#FFBE9D" d="M222.625,318.975l1.613-2.002c0,0,2.984-0.015,4.596,1.001c1.613,1.014,4.112,4.724,4.435,6.658
				c0.323,1.937,0,5.646,0,5.646l-11.047-11.303"/>
		</g>
		<g>
			<path fill="#263238" d="M201.186,307.099c0,0.334,20.734,22.338,20.734,22.338l3.903,3.854h12.541l-24.193-26.856l-10.432-1.775
				L201.186,307.099z"/>
		</g>
		<g>
			<g>
				<path fill="#263238" d="M285.417,355.979c-0.019,0.011-0.184-0.254-0.475-0.77c-0.313-0.574-0.723-1.329-1.235-2.272
					c-1.05-1.985-2.538-4.876-4.268-8.503c-1.718-3.631-3.739-7.975-5.504-13.008c-0.421-1.265-0.844-2.567-1.137-3.948
					c-0.196-0.673-0.217-1.411-0.325-2.128c-0.024-0.713-0.053-1.431-0.055-2.155c-0.034-2.896,0.04-5.89,0.152-8.952
					c0.143-3.878,0.344-7.634,0.575-11.202l0.012-0.186l0.171-0.076c2.229-0.978,4.378-1.922,6.433-2.822l0.081,0.554
					c-1.715-0.222-3.365-0.436-4.945-0.641l-0.406-0.052l0.204-0.351c3.17-5.458,5.815-10.012,7.707-13.27
					c0.917-1.544,1.651-2.778,2.19-3.687c0.239-0.384,0.434-0.7,0.594-0.959c0.138-0.215,0.217-0.322,0.229-0.315
					s-0.041,0.129-0.155,0.357c-0.141,0.27-0.313,0.598-0.525,1c-0.507,0.927-1.198,2.186-2.062,3.761
					c-1.842,3.284-4.42,7.877-7.509,13.382l-0.201-0.403c1.58,0.192,3.231,0.393,4.949,0.602l1.041,0.126l-0.959,0.428
					c-2.048,0.911-4.193,1.864-6.418,2.854l0.183-0.261c-0.217,3.56-0.411,7.314-0.553,11.185c-0.112,3.057-0.189,6.043-0.165,8.922
					c0,0.721,0.026,1.432,0.047,2.136c0.105,0.682,0.113,1.363,0.304,2.03c0.278,1.34,0.689,2.632,1.098,3.885
					c1.717,4.999,3.694,9.358,5.356,13.005c1.675,3.645,3.1,6.563,4.081,8.581c0.467,0.965,0.842,1.738,1.128,2.326
					C285.31,355.685,285.436,355.969,285.417,355.979z"/>
			</g>
		</g>
		<g>
			<path fill="#FFBE9D" d="M213.433,318.975c0,0-3.144,2.271-3.063,3.562s0.805,2.661,1.531,2.902
				c0.727,0.242,2.903,1.371,2.903,1.371s-1.936,1.854-1.371,3.79c0.565,1.936,1.854,2.42,1.854,2.42s0.082,2.499,0.807,3.95
				c0.726,1.451,3.064,1.935,3.064,1.935s1.29,2.631,2.419,3.937c1.128,1.305,3.386,1.708,3.386,1.708s2.903,0.323,4.436-0.726
				c1.532-1.047,3.225-2.096,3.306-5.645c0,0,6.935-3.467,7.016-5.241c0.08-1.773-0.726-2.338-0.726-2.338l-3.467,0.646
				c0,0-0.484-1.855-1.532-2.017c-1.049-0.161-13.708,2.903-13.708,2.903s8.628-1.371,8.87-3.064
				c0.242-1.693,0.323-3.145-0.968-3.467c-1.29-0.323-10.48,0.661-10.48,0.661l-0.481-1.63c0,0,2.496,0.081,2.496-2.096
				c0-2.178-1.371-2.661-1.371-2.661L213.433,318.975z"/>
		</g>
		<g>
			<polygon fill="#FAFAFA" points="285.417,281.237 286.479,289.655 279.958,326.261 286.567,357.875 320.822,367.997 
				334.296,362.19 329.701,273.46 317.458,264.861 312.755,261.702 295.107,288.407 			"/>
		</g>
		<g>
			<path fill="#F7B521" d="M316.456,264.188l8.562,3.823l30.323,4.077l16.358,86.032l2.056,9.878l31.356,46.925
				c1.438,2.151,0.749,5.072-1.499,6.357l-25.689,14.677c-1.973,1.007-4.388,0.374-5.612-1.471l-32.64-49.188l-16.183-20.712
				c0,0-9.683-29.304-10.957-41.79c-1.274-12.485-0.728-25.861,0-32.871C313.308,282.423,316.456,264.188,316.456,264.188z"/>
		</g>
		<g>
			<path fill="#F7B521" d="M355.34,272.087c4,2.1,6.822,5.91,7.659,10.35c1.931,10.211,7.75,28.025,9.931,47.044
				c3.052,26.609-4.098,34.819-7.476,39.408c-3.305,4.49-24.291,14.35-24.291,14.35l-15.722-20.949l17.411-14.267l-1.528-36.949
				c0,0-6.115-8.408-3.058-20.896C341.325,277.693,350.243,271.322,355.34,272.087L355.34,272.087z"/>
		</g>
		<g opacity="0.3">
			<g>
				<path d="M371.563,357.415c-2.383,6.459-5.104,11.903-10.656,14.977c-5.906,3.268-14.131,7.887-19.743,10.848l4.111,6.373
					c6.438-0.986,18.309-8.492,22.183-13.728C371.332,370.649,372.502,363.859,371.563,357.415z"/>
			</g>
		</g>
		<g>
			<g>
				<path fill="#263238" d="M340.899,313.035c0.012-0.001,0.05,0.186,0.115,0.552c0.065,0.396,0.155,0.937,0.27,1.63
					c0.228,1.466,0.556,3.575,0.976,6.278c0.823,5.491,2.006,13.39,3.472,23.154l0.018,0.122l-0.094,0.084
					c-5.79,5.104-12.572,11.082-20.023,17.65l0.04-0.388c4.841,6.438,10.162,13.514,15.742,20.935l-0.389-0.094
					c5.229-2.635,10.634-5.49,15.992-8.659c1.521-0.913,3.027-1.835,4.474-2.816c1.455-0.964,2.868-2.001,4.054-3.182
					c2.155-2.594,3.787-5.667,4.974-8.753c2.384-6.238,2.985-12.771,2.933-18.895c-0.087-6.147-0.816-11.965-1.666-17.375
					c-0.843-5.412-1.818-10.425-2.782-14.985c-1.925-9.12-3.774-16.439-5.075-21.488c-0.656-2.499-1.169-4.449-1.527-5.808
					c-0.168-0.642-0.3-1.143-0.396-1.51c-0.087-0.341-0.127-0.518-0.117-0.52c0,0,0.072,0.167,0.179,0.501
					c0.112,0.365,0.264,0.86,0.458,1.495c0.393,1.316,0.952,3.263,1.642,5.778c1.375,5.032,3.292,12.338,5.277,21.458
					c0.993,4.561,1.995,9.576,2.865,14.997c0.871,5.418,1.625,11.259,1.729,17.451c0.067,6.167-0.521,12.776-2.937,19.125
					c-1.222,3.16-2.825,6.227-5.093,8.961c-1.266,1.264-2.693,2.299-4.161,3.277c-1.462,0.991-2.975,1.917-4.504,2.836
					c-5.383,3.183-10.792,6.037-16.04,8.674l-0.233,0.116l-0.156-0.209c-5.565-7.431-10.872-14.518-15.701-20.965l-0.16-0.214
					l0.201-0.174c7.478-6.536,14.287-12.487,20.098-17.564l-0.077,0.205c-1.378-9.778-2.493-17.686-3.269-23.185
					c-0.368-2.711-0.654-4.825-0.853-6.296c-0.087-0.696-0.157-1.241-0.207-1.64C340.904,313.228,340.888,313.036,340.899,313.035z"
					/>
			</g>
		</g>
		<g>
			<g>
				<path fill="#263238" d="M318.751,344.604c-0.021-0.003,0.001-0.297,0.067-0.852c0.08-0.617,0.184-1.421,0.314-2.421
					c0.311-2.173,0.743-5.188,1.273-8.885c1.07-7.503,2.742-17.836,4.365-29.283c0.755-5.542,1.475-10.827,2.131-15.64l0.187,0.314
					c-1.805-0.692-3.532-1.355-5.18-1.988l-0.502-0.193l0.45-0.292c1.861-1.204,3.601-2.33,5.207-3.371l-0.105,0.236
					c-0.619-4.321-1.124-7.854-1.487-10.384c-0.154-1.179-0.277-2.123-0.371-2.837c-0.078-0.651-0.106-0.995-0.082-0.997
					c0.024-0.005,0.098,0.332,0.219,0.976c0.125,0.711,0.291,1.646,0.497,2.818c0.414,2.522,0.99,6.044,1.696,10.352l0.024,0.15
					l-0.129,0.086c-1.594,1.058-3.321,2.204-5.168,3.427l-0.054-0.484c1.652,0.621,3.384,1.272,5.195,1.951l0.217,0.083
					l-0.031,0.232c-0.641,4.815-1.346,10.103-2.083,15.646c-1.625,11.449-3.367,21.78-4.552,29.267
					c-0.612,3.684-1.113,6.691-1.474,8.855c-0.179,0.993-0.322,1.79-0.432,2.402C318.838,344.321,318.772,344.607,318.751,344.604z"
					/>
			</g>
		</g>
		<g>
			<g>
				<path fill="#263238" d="M350.747,273.241c0.076,0.103-1.479,1.172-3.567,3.341c-1.052,1.076-2.181,2.471-3.305,4.106
					c-1.09,1.658-2.155,3.57-3.035,5.684c-0.852,2.128-1.432,4.239-1.813,6.186c-0.344,1.956-0.513,3.742-0.516,5.246
					c-0.028,3.01,0.334,4.862,0.208,4.882c-0.043,0.008-0.152-0.449-0.311-1.286c-0.086-0.419-0.174-0.933-0.216-1.538
					c-0.049-0.604-0.145-1.291-0.131-2.055c-0.056-1.528,0.07-3.353,0.388-5.351c0.358-1.991,0.931-4.152,1.803-6.323
					c0.898-2.159,2.001-4.103,3.139-5.775c1.174-1.649,2.36-3.04,3.469-4.091c0.525-0.556,1.075-0.979,1.533-1.375
					c0.455-0.402,0.877-0.708,1.231-0.947C350.324,273.456,350.72,273.205,350.747,273.241z"/>
			</g>
		</g>
		<g>
			<g>
				
					<ellipse transform="matrix(0.0705 0.9975 -0.9975 0.0705 570.5714 42.9791)" fill="#263238" cx="262.225" cy="327.639" rx="13.298" ry="0.319"/>
			</g>
		</g>
		<g>
			<g>
				<polygon fill="#F7B521" points="366.445,394.835 371.151,404.446 392.936,390.504 385.391,381.966 				"/>
			</g>
			<g>
				<g>
					<path fill="#263238" d="M366.445,394.835c-0.034-0.008,0.426-0.35,1.306-0.979c0.959-0.677,2.248-1.584,3.841-2.707
						c3.417-2.364,8.129-5.623,13.632-9.429l0.214-0.147l0.176,0.196c2.337,2.636,4.891,5.517,7.56,8.525l0.246,0.278l-0.313,0.2
						c-0.302,0.192-0.628,0.401-0.955,0.61c-8.102,5.144-15.445,9.807-20.878,13.254l-0.22,0.14l-0.107-0.229
						c-1.394-2.958-2.534-5.377-3.364-7.142c-0.357-0.782-0.647-1.417-0.876-1.918C366.514,395.054,366.423,394.829,366.445,394.835
						s0.155,0.241,0.39,0.68c0.261,0.5,0.59,1.132,0.999,1.908c0.87,1.711,2.064,4.057,3.522,6.923l-0.327-0.092
						c5.407-3.488,12.717-8.204,20.782-13.407c0.326-0.209,0.652-0.418,0.953-0.609l-0.067,0.479
						c-2.658-3.019-5.202-5.909-7.528-8.552l0.389,0.049c-5.505,3.671-10.219,6.814-13.639,9.096
						c-1.651,1.081-2.987,1.955-3.981,2.605c-0.432,0.274-0.789,0.502-1.084,0.69C366.6,394.761,366.461,394.84,366.445,394.835z"/>
				</g>
			</g>
		</g>
		<g opacity="0.3">
			<path d="M366.655,395.266c0.092,0.186,4.834,14.754,4.834,14.754l20.317-14.425l-1.746-3.251l-18.909,12.103L366.655,395.266z"/>
		</g>
		<g opacity="0.3">
			<path d="M325.633,272.025l3.607,11.908l-3.607,1.66l4.82,2.371c0,0-7.598,41.537-8.554,45.327
				c-0.958,3.791-2.122,5.009-2.122,5.009l7.416-50.736l-5.187-1.97l5.187-3.399L325.633,272.025z"/>
		</g>
		<g>
			<g>
				<path fill="#263238" d="M245.252,336.932c-0.21,0.006,0.178-3.934-1.379-8.425c-1.499-4.512-4.205-7.4-4.035-7.523
					c0.053-0.051,0.796,0.593,1.759,1.854c0.963,1.254,2.093,3.165,2.878,5.465c0.777,2.302,1.044,4.505,1.044,6.086
					C245.522,335.976,245.325,336.939,245.252,336.932z"/>
			</g>
		</g>
		<g opacity="0.3">
			<g>
				<path d="M261.149,313.199c-3.622,9.031-2.316,18.944,1.924,27.704C262.419,330.824,262.032,322.969,261.149,313.199z"/>
			</g>
		</g>
		<g>
			<g>
				<path fill="#263238" d="M313.864,271.714c0.037,0.024-0.194,0.45-0.643,1.198c-0.517,0.866-1.149,1.923-1.891,3.169
					c-1.581,2.682-3.693,6.428-5.778,10.694c-1.412,2.871-2.624,5.611-3.609,7.94l-0.142,0.336l-0.28-0.223
					c-2.002-1.602-3.529-3.101-4.543-4.192c-1.013-1.095-1.527-1.774-1.486-1.81c0.045-0.042,0.642,0.564,1.714,1.584
					c1.075,1.019,2.638,2.446,4.653,3.986l-0.421,0.112c0.935-2.361,2.124-5.127,3.543-8.014c2.095-4.287,4.282-8.02,5.966-10.65
					c0.843-1.315,1.557-2.36,2.067-3.069C313.528,272.068,313.829,271.689,313.864,271.714z"/>
			</g>
		</g>
		<g>
			<g>
				<path fill="#263238" d="M293.803,288.593c0.161,0.062-0.746,2.825-2.036,6.217l-0.163,0.427l-0.342-0.299
					c-0.05-0.044-0.104-0.092-0.159-0.14c-2.834-2.47-4.655-4.933-4.524-5.034c0.142-0.119,2.152,2.125,4.944,4.555
					c0.053,0.046,0.106,0.094,0.155,0.137l-0.505,0.126C292.474,291.195,293.642,288.532,293.803,288.593z"/>
			</g>
		</g>
		<g>
			<g>
				<path fill="#263238" d="M297.388,351.084c-0.021,0.002-0.054-0.203-0.096-0.598c-0.041-0.466-0.09-1.034-0.15-1.72
					c-0.107-1.595-0.251-3.734-0.425-6.334c-0.325-5.35-0.711-12.744-1.033-20.917c-0.315-8.176-0.499-15.581-0.5-20.944
					c-0.005-2.682,0.032-4.852,0.084-6.351c0.036-0.688,0.064-1.257,0.088-1.725c0.026-0.395,0.051-0.601,0.073-0.6
					c0.023,0,0.041,0.208,0.055,0.603c0.008,0.468,0.019,1.038,0.032,1.725c0.028,1.596,0.069,3.739,0.117,6.342
					c0.116,5.356,0.372,12.753,0.686,20.925c0.328,8.124,0.626,15.475,0.847,20.92c0.092,2.604,0.166,4.747,0.223,6.343
					c0.012,0.688,0.021,1.259,0.031,1.727C297.421,350.876,297.41,351.083,297.388,351.084z"/>
			</g>
		</g>
	</g>
	<g>
		<g>
			<path fill="none" stroke="#839198" stroke-width="0.05" stroke-miterlimit="10" d="M204.436,396.029"/>
		</g>
	</g>
	<g>
		<g>
			<g>
				<g>
					<g>
						<g>
							<g>
								<g>
									<g>
										<g>
											<g>
												<g>
													<g>
														<g>
															<g>
																<g>
																	<g>
																		<path fill="#5FB894" d="M225.865,516.064l3.162,29.831c0,0-29.26,13.232-29.212,18.803l58.062-4.055l-3.02-46.683
																			L225.865,516.064z"/>
																	</g>
																</g>
															</g>
														</g>
													</g>
												</g>
											</g>
										</g>
									</g>
								</g>
							</g>
						</g>
					</g>
				</g>
			</g>
			<g>
				<g>
					<g>
						<g>
							<g>
								<g>
									<g>
										<g>
											<g>
												<g>
													<g>
														<g>
															<g>
																<g>
																	<g>
																		<g>
																			<path fill="#E0E0E0" d="M246.805,542.127c1.146,0.228,2.01,1.438,1.829,2.591
																				c-0.182,1.152-1.404,2.043-2.553,1.834c-1.149-0.208-2.231-1.628-1.922-2.754s1.802-2.093,2.867-1.614"/>
																		</g>
																	</g>
																</g>
															</g>
														</g>
													</g>
												</g>
											</g>
										</g>
									</g>
								</g>
							</g>
						</g>
					</g>
				</g>
			</g>
			<g>
				<g>
					<g>
						<g>
							<g>
								<g>
									<g>
										<g>
											<g>
												<g>
													<g>
														<g>
															<g>
																<g>
																	<g>
																		<path fill="#E0E0E0" d="M258.003,561.863l-0.288-4.524l-55.813,4.254c0,0-2.507,1.305-2.087,3.105
																			L258.003,561.863z"/>
																	</g>
																</g>
															</g>
														</g>
													</g>
												</g>
											</g>
										</g>
									</g>
								</g>
							</g>
						</g>
					</g>
				</g>
			</g>
			<g>
				<g>
					<g>
						<g>
							<g>
								<g>
									<g>
										<g>
											<g>
												<g>
													<g>
														<g>
															<g>
																<g>
																	<g>
																		<g>
																			<path fill="#263238" d="M228.065,545.665c0.029,0.283,1.456,0.313,2.914,1.128
																				c1.48,0.775,2.285,1.952,2.538,1.822c0.258-0.072-0.284-1.738-2.067-2.693
																				C229.676,544.951,227.985,545.41,228.065,545.665z"/>
																		</g>
																	</g>
																</g>
															</g>
														</g>
													</g>
												</g>
											</g>
										</g>
									</g>
								</g>
							</g>
						</g>
					</g>
				</g>
			</g>
			<g>
				<g>
					<g>
						<g>
							<g>
								<g>
									<g>
										<g>
											<g>
												<g>
													<g>
														<g>
															<g>
																<g>
																	<g>
																		<g>
																			<path fill="#263238" d="M222.151,548.609c-0.046,0.279,1.216,0.676,2.263,1.808
																				c1.08,1.102,1.413,2.38,1.695,2.35c0.27,0.024,0.35-1.649-0.979-3.032
																				C223.815,548.341,222.139,548.339,222.151,548.609z"/>
																		</g>
																	</g>
																</g>
															</g>
														</g>
													</g>
												</g>
											</g>
										</g>
									</g>
								</g>
							</g>
						</g>
					</g>
				</g>
			</g>
			<g>
				<g>
					<g>
						<g>
							<g>
								<g>
									<g>
										<g>
											<g>
												<g>
													<g>
														<g>
															<g>
																<g>
																	<g>
																		<g>
																			<path fill="#263238" d="M219.202,556.139c0.261,0.043,0.557-1.401-0.279-2.902
																				c-0.826-1.508-2.205-2.028-2.309-1.784c-0.144,0.245,0.775,1.019,1.443,2.262
																				C218.753,554.941,218.917,556.131,219.202,556.139z"/>
																		</g>
																	</g>
																</g>
															</g>
														</g>
													</g>
												</g>
											</g>
										</g>
									</g>
								</g>
							</g>
						</g>
					</g>
				</g>
			</g>
			<g>
				<g>
					<g>
						<g>
							<g>
								<g>
									<g>
										<g>
											<g>
												<g>
													<g>
														<g>
															<g>
																<g>
																	<g>
																		<g>
																			<path fill="#263238" d="M228.1,538.787c0.136,0.251,1.41-0.232,3.02-0.235c1.61-0.035,2.895,0.415,3.025,0.162
																				c0.15-0.217-1.141-1.181-3.038-1.151C229.211,537.578,227.944,538.573,228.1,538.787z"/>
																		</g>
																	</g>
																</g>
															</g>
														</g>
													</g>
												</g>
											</g>
										</g>
									</g>
								</g>
							</g>
						</g>
					</g>
				</g>
			</g>
		</g>
		<g>
			<g>
				<g>
					<g>
						<g>
							<g>
								<g>
									<g>
										<g>
											<g>
												<g>
													<g>
														<g>
															<g>
																<g>
																	<g>
																		<path fill="#5FB894" d="M215.526,395.69l-26.891,13.298c0,0-22.547-22.866-27.755-20.893l23.911,53.064l42.748-19
																			L215.526,395.69z"/>
																	</g>
																</g>
															</g>
														</g>
													</g>
												</g>
											</g>
										</g>
									</g>
								</g>
							</g>
						</g>
					</g>
				</g>
			</g>
			<g>
				<g>
					<g>
						<g>
							<g>
								<g>
									<g>
										<g>
											<g>
												<g>
													<g>
														<g>
															<g>
																<g>
																	<g>
																		<g>
																			<path fill="#E0E0E0" d="M198.329,424.361c0.182,1.153-0.653,2.382-1.798,2.612
																				c-1.145,0.229-2.404-0.609-2.605-1.76c-0.202-1.15,0.755-2.657,1.918-2.757s2.587,0.966,2.507,2.131"/>
																		</g>
																	</g>
																</g>
															</g>
														</g>
													</g>
												</g>
											</g>
										</g>
									</g>
								</g>
							</g>
						</g>
					</g>
				</g>
			</g>
			<g>
				<g>
					<g>
						<g>
							<g>
								<g>
									<g>
										<g>
											<g>
												<g>
													<g>
														<g>
															<g>
																<g>
																	<g>
																		<path fill="#E0E0E0" d="M183.691,441.701l4.144-1.837l-23.319-50.887c0,0-2.093-1.899-3.636-0.882
																			L183.691,441.701z"/>
																	</g>
																</g>
															</g>
														</g>
													</g>
												</g>
											</g>
										</g>
									</g>
								</g>
							</g>
						</g>
					</g>
				</g>
			</g>
			<g>
				<g>
					<g>
						<g>
							<g>
								<g>
									<g>
										<g>
											<g>
												<g>
													<g>
														<g>
															<g>
																<g>
																	<g>
																		<g>
																			<path fill="#263238" d="M188.518,408.007c-0.255,0.125,0.211,1.473-0.048,3.124
																				c-0.215,1.657-1.042,2.82-0.832,3.012c0.158,0.217,1.533-0.867,1.811-2.872
																				C189.746,409.27,188.73,407.843,188.518,408.007z"/>
																		</g>
																	</g>
																</g>
															</g>
														</g>
													</g>
												</g>
											</g>
										</g>
									</g>
								</g>
							</g>
						</g>
					</g>
				</g>
			</g>
			<g>
				<g>
					<g>
						<g>
							<g>
								<g>
									<g>
										<g>
											<g>
												<g>
													<g>
														<g>
															<g>
																<g>
																	<g>
																		<g>
																			<path fill="#263238" d="M183.708,403.478c-0.277,0.054-0.212,1.376-0.912,2.749
																				c-0.658,1.395-1.744,2.15-1.616,2.404c0.069,0.261,1.667-0.244,2.504-1.969
																				C184.536,404.946,183.958,403.373,183.708,403.478z"/>
																		</g>
																	</g>
																</g>
															</g>
														</g>
													</g>
												</g>
											</g>
										</g>
									</g>
								</g>
							</g>
						</g>
					</g>
				</g>
			</g>
			<g>
				<g>
					<g>
						<g>
							<g>
								<g>
									<g>
										<g>
											<g>
												<g>
													<g>
														<g>
															<g>
																<g>
																	<g>
																		<g>
																			<path fill="#263238" d="M175.623,403.319c0.051,0.26,1.508,0.036,2.627-1.268
																				c1.128-1.298,1.138-2.771,0.873-2.784c-0.279-0.051-0.686,1.079-1.621,2.137
																				C176.592,402.482,175.532,403.049,175.623,403.319z"/>
																		</g>
																	</g>
																</g>
															</g>
														</g>
													</g>
												</g>
											</g>
										</g>
									</g>
								</g>
							</g>
						</g>
					</g>
				</g>
			</g>
			<g>
				<g>
					<g>
						<g>
							<g>
								<g>
									<g>
										<g>
											<g>
												<g>
													<g>
														<g>
															<g>
																<g>
																	<g>
																		<g>
																			<path fill="#263238" d="M194.982,405.656c-0.187,0.215,0.707,1.242,1.267,2.752
																				c0.591,1.498,0.613,2.858,0.896,2.895c0.255,0.064,0.713-1.48,0.027-3.249
																				C196.501,406.281,195.129,405.437,194.982,405.656z"/>
																		</g>
																	</g>
																</g>
															</g>
														</g>
													</g>
												</g>
											</g>
										</g>
									</g>
								</g>
							</g>
						</g>
					</g>
				</g>
			</g>
		</g>
		<g>
			<path fill="#263238" d="M228.654,412.604c0,0-9.629,1.961-11.591,12.304c-1.962,10.343,5.159,114.423,5.159,114.423l36.525-2.928
				l-2.231-70.136l-0.9-14.136l3.131-2.399l64.2-11.296l-9.77-26.546l-10.736-18.683l-49.179,12.263L228.654,412.604z"/>
		</g>
		<g>
			<path fill="#263238" d="M349.533,395.067c0,0-26.561-38.396-34.326-43.983c-6.405-4.608-16.03-4.603-21.977-1.925
				c-5.948,2.676-99.021,48.813-99.021,48.813l13.645,34.158l88.529-30.681l13.196,20.709l12.281,16.277l34.497,0.27
				c1.635,0,9.041-14.633,9.041-14.633L349.533,395.067z"/>
		</g>
		<g>
			<g>
				<path fill="#455A64" d="M216.722,432.936c-0.011,0-0.017-0.122-0.018-0.359c0.003-0.273,0.007-0.62,0.012-1.055
					c0.011-0.479,0.025-1.05,0.041-1.717c0.06-0.675,0.167-1.452,0.269-2.329c0.063-0.885,0.368-1.827,0.574-2.883
					c0.102-0.53,0.33-1.049,0.5-1.608c0.178-0.558,0.373-1.133,0.66-1.697c1.007-2.291,2.647-4.782,5.22-6.695
					c1.283-0.947,2.777-1.752,4.49-2.199c1.698-0.288,3.462-0.588,5.289-0.896c3.65-0.611,7.546-1.262,11.645-1.948
					c8.208-1.358,17.224-2.853,26.689-4.42c8.568-1.403,16.765-2.747,24.245-3.972l0.193-0.032l0.105,0.164
					c7.099,11.085,12.866,20.726,17.712,27.029c2.353,3.156,4.228,5.673,5.545,7.44c0.626,0.836,1.119,1.494,1.482,1.978
					c0.15,0.207,0.272,0.374,0.375,0.515c0.081,0.117,0.119,0.18,0.113,0.186c-0.006,0.005-0.059-0.047-0.154-0.154
					c-0.112-0.132-0.246-0.29-0.413-0.485c-0.38-0.469-0.898-1.107-1.557-1.919c-1.347-1.687-3.294-4.166-5.685-7.343
					c-4.939-6.253-10.795-15.883-17.92-26.924l0.3,0.133c-7.477,1.237-15.672,2.595-24.236,4.012
					c-9.468,1.55-18.486,3.027-26.696,4.372c-4.102,0.664-8.001,1.297-11.654,1.89c-1.82,0.294-3.578,0.579-5.268,0.854
					c-1.616,0.409-3.088,1.179-4.334,2.085c-2.511,1.831-4.142,4.241-5.161,6.479c-0.29,0.55-0.489,1.113-0.672,1.66
					c-0.177,0.548-0.41,1.056-0.52,1.577c-0.22,1.039-0.541,1.968-0.622,2.842c-0.121,0.861-0.229,1.631-0.324,2.308
					c-0.039,0.661-0.073,1.23-0.101,1.705c-0.031,0.433-0.056,0.779-0.075,1.051C216.749,432.813,216.732,432.936,216.722,432.936z"
					/>
			</g>
		</g>
		<g>
			<g>
				<path fill="#455A64" d="M309.059,377.759c0.045-0.001,0.092,0.389,0.141,1.102c0.062,0.711,0.047,1.749-0.064,3.021
					c-0.103,1.276-0.375,2.782-0.818,4.418c-0.472,1.626-1.133,3.378-2.033,5.117c-0.921,1.729-1.985,3.269-3.054,4.582
					c-1.095,1.295-2.179,2.376-3.171,3.185c-0.983,0.816-1.829,1.418-2.449,1.771c-0.613,0.365-0.96,0.549-0.984,0.511
					c-0.064-0.101,1.275-0.93,3.138-2.62c0.938-0.837,1.965-1.929,3.011-3.215c1.021-1.307,2.047-2.818,2.947-4.509
					c0.878-1.7,1.539-3.402,2.033-4.985c0.463-1.592,0.778-3.059,0.933-4.305C309.021,379.337,308.939,377.764,309.059,377.759z"/>
			</g>
		</g>
	</g>
</g>
<g>
	<g>
		<g>
			<g>
				<g>
					<path fill="#263238" d="M616.934,499.532l-159.865-0.095c-19.228-0.011-34.808-15.603-34.805-34.83l0.08-400.787
						c0.003-19.238,15.604-34.828,34.843-34.817l159.866,0.094c19.227,0.012,34.806,15.604,34.803,34.831l-0.078,400.788
						C651.774,483.954,636.172,499.544,616.934,499.532z"/>
				</g>
			</g>
		</g>
	</g>
</g>
<g>
	<g>
		<g>
			<g>
				<g>
					<path fill="#FFFFFF" d="M641.26,67.67l-0.05,261.53l-0.03,129.66c0,13.479-10.93,24.399-24.399,24.39l-159.55-0.1
						c-13.461,0-24.37-10.92-24.37-24.391l0.02-129.05v-0.05l0.05-262.1c0.011-13.47,10.931-24.39,24.41-24.38l27.13,0.01l10.9,0.01
						c4.149,0,7.52,3.53,7.52,7.87v5.63c0,4.34,3.37,7.87,7.521,7.87l60.42,0.03c4.16,0.01,7.53-3.51,7.53-7.86v-5.62
						c0-4.35,3.37-7.87,7.529-7.87l30.99,0.02C630.35,43.28,641.26,54.2,641.26,67.67z"/>
				</g>
			</g>
		</g>
	</g>
</g>
<g>
	<g>
		<g>
			<g>
				<g>
					<g>
						<path fill="#F5F5F5" d="M641.257,67.666c0.002-13.465-10.907-24.385-24.374-24.393l-30.994-0.018
							c-4.156-0.001-7.528,3.519-7.528,7.864l-0.002,5.622c0.001,4.346-3.371,7.867-7.527,7.864l-60.417-0.036
							c-4.154-0.001-7.525-3.527-7.523-7.872v-5.623c0.002-4.345-3.369-7.871-7.525-7.872l-10.899-0.007l-27.129-0.016
							c-13.474-0.007-24.399,10.911-24.403,24.384l-0.076,37.409h208.396L641.257,67.666z"/>
					</g>
				</g>
			</g>
		</g>
	</g>
</g>
<path fill="#F5F5F5" d="M641.21,329.2l-0.03,129.66c0,13.479-10.93,24.399-24.399,24.39l-159.55-0.1
	c-13.461,0-24.37-10.92-24.37-24.391V330.33c0-0.21,0.01-0.41,0.02-0.62v-0.05c0.34-6.311,5.57-11.33,11.98-11.33H629.26
	C635.5,318.33,640.64,323.11,641.21,329.2z"/>
<g>
	<g>
		<g>
			<g>
				
					<ellipse transform="matrix(1 -0.0083 0.0083 1 -0.657 3.7524)" fill="#263238" cx="454.304" cy="81.481" rx="8.342" ry="0.211"/>
			</g>
		</g>
	</g>
	<g>
		<g>
			<g>
				
					<ellipse transform="matrix(1 -0.0083 0.0083 1 -0.6946 3.7657)" fill="#263238" cx="454.339" cy="85.75" rx="8.343" ry="0.211"/>
			</g>
		</g>
	</g>
	<g>
		<g>
			<g>
				<path fill="#263238" d="M462.718,89.949c0,0.117-3.735,0.242-8.342,0.28c-4.607,0.038-8.342-0.026-8.343-0.143
					c-0.001-0.116,3.731-0.242,8.341-0.28C458.979,89.769,462.715,89.833,462.718,89.949z"/>
			</g>
		</g>
	</g>
</g>
<g display="none">
	<path display="inline" fill-rule="evenodd" clip-rule="evenodd" fill="#F7B521" d="M674.725,97.026
		c-8.617-0.07-15.577-5.762-17.326-14.037c-0.563-2.664-0.467-5.33,0.239-7.963c0.421-1.574,1.997-2.482,3.551-2.082
		c1.54,0.396,2.489,1.926,2.099,3.5c-0.787,3.186-0.43,6.211,1.24,9.041c3.824,6.48,12.775,7.666,18.156,2.402
		c2.387-2.336,4.729-4.717,7.095-7.072c0.827-0.822,1.827-1.088,2.935-0.764c1.063,0.311,1.762,1.039,1.999,2.131
		c0.208,0.963,0.047,1.887-0.664,2.602c-2.646,2.652-5.202,5.402-7.987,7.906C682.805,95.622,678.896,96.979,674.725,97.026z"/>
	<path display="inline" fill-rule="evenodd" clip-rule="evenodd" fill="#5FB894" d="M660.855,61.383
		c0.917,0.004,1.605,0.309,2.182,0.885c1.244,1.248,2.5,2.484,3.732,3.744c0.269,0.275,0.405,0.301,0.697,0.01
		c5.32-5.336,10.653-10.66,15.985-15.984c1.128-1.126,2.835-1.239,4.003-0.273c1.357,1.121,1.443,3.08,0.172,4.355
		c-2.486,2.498-4.984,4.985-7.477,7.477c-3.61,3.605-7.249,7.184-10.817,10.83c-1.55,1.584-3.896,1.254-4.843-0.422
		c-0.068-0.121-0.184-0.221-0.286-0.322c-1.767-1.766-3.538-3.529-5.299-5.301c-0.819-0.824-1.093-1.814-0.755-2.932
		c0.332-1.102,1.1-1.762,2.217-2.014C660.557,61.393,660.758,61.393,660.855,61.383z"/>
	<path display="inline" fill-rule="evenodd" clip-rule="evenodd" fill="#F7B521" d="M675.187,77.508
		c-1.04-0.049-1.948-0.602-2.47-1.719c-0.502-1.072-0.301-2.342,0.532-3.18c2.788-2.809,5.583-5.611,8.399-8.391
		c1.117-1.102,2.953-1.033,4.057,0.082c1.121,1.133,1.146,2.928,0.01,4.082c-2.096,2.125-4.218,4.225-6.328,6.334
		c-0.643,0.641-1.285,1.281-1.927,1.922C676.883,77.213,676.188,77.506,675.187,77.508z"/>
	<path display="inline" fill-rule="evenodd" clip-rule="evenodd" fill="#F7B521" d="M678.654,80.78
		c-0.004-0.801,0.277-1.492,0.842-2.057c2.08-2.086,4.155-4.176,6.256-6.24c1.137-1.117,2.971-1.064,4.084,0.066
		c1.104,1.121,1.137,2.928,0.024,4.057c-2.077,2.107-4.167,4.201-6.279,6.271c-0.905,0.885-2.009,1.041-3.177,0.574
		C679.334,83.024,678.653,81.952,678.654,80.78z"/>
</g>
<g>
	<path fill="#5FB894" d="M623.992,285.418c0,6.627-5.373,12-12,12H463.469c-6.627,0-12-5.373-12-12V139.104c0-6.627,5.373-12,12-12
		h148.523c6.627,0,12,5.373,12,12V285.418z"/>
	<g>
		<path fill="#FFFFFF" d="M537.73,260.527c-22.631,0-42.482-16.039-47.201-38.138c-0.088-0.405,0.172-0.804,0.576-0.891
			c0.402-0.085,0.803,0.172,0.891,0.577c4.572,21.413,23.807,36.952,45.734,36.952c4.953,0,9.828-0.77,14.492-2.289
			c0.395-0.127,0.816,0.088,0.945,0.482c0.127,0.393-0.088,0.816-0.48,0.945C547.873,259.732,542.84,260.527,537.73,260.527z
			 M569.545,248.304c-0.205,0-0.408-0.082-0.557-0.246c-0.277-0.309-0.254-0.783,0.053-1.061
			c9.822-8.857,15.455-21.519,15.455-34.737v-0.192c-0.004-0.414,0.33-0.753,0.744-0.756c0.002,0,0.004,0,0.006,0
			c0.412,0,0.746,0.332,0.75,0.744v0.204c0,13.642-5.813,26.709-15.949,35.852C569.904,248.242,569.725,248.304,569.545,248.304z
			 M490.215,213.061c-0.414,0-0.75-0.287-0.75-0.701v-0.099c0-13.604,5.785-26.646,15.875-35.784
			c0.307-0.277,0.781-0.254,1.059,0.053s0.254,0.781-0.053,1.059c-9.775,8.854-15.381,21.492-15.381,34.673
			C490.965,212.675,490.629,213.061,490.215,213.061z M584.176,202.943c-0.344,0-0.654-0.24-0.73-0.592
			c-4.607-21.356-23.832-36.857-45.715-36.857c-4.984,0-9.893,0.78-14.584,2.319c-0.396,0.129-0.818-0.085-0.947-0.479
			c-0.129-0.393,0.086-0.816,0.479-0.946c4.844-1.588,9.908-2.394,15.053-2.394c22.584,0,42.426,15.998,47.18,38.041
			c0.088,0.404-0.17,0.805-0.574,0.891C584.283,202.938,584.23,202.943,584.176,202.943z"/>
	</g>
	<polygon fill="#FFFFFF" points="560.579,186.882 527.843,219.619 514.882,206.658 505.872,215.668 527.843,237.639 
		569.589,195.893 	"/>
</g>
<g>
	<g>
		<circle fill="#EBEBEB" cx="517.205" cy="400.916" r="4.237"/>
	</g>
	<g>
		<circle fill="#E0E0E0" cx="531.373" cy="400.916" r="4.237"/>
	</g>
	<g>
		<circle fill="#E0E0E0" cx="545.541" cy="400.916" r="4.237"/>
	</g>
	<g>
		<circle fill="#E0E0E0" cx="559.709" cy="400.916" r="4.237"/>
	</g>
	<g opacity="0.5">
		<path fill="none" stroke="#455A64" stroke-width="2" stroke-miterlimit="10" d="M481.88,456.149h-16.008
			c-5.011,0-9.072-4.062-9.072-9.072V431.07c0-5.011,4.062-9.072,9.072-9.072h16.008c5.01,0,9.071,4.062,9.071,9.072v16.007
			C490.951,452.088,486.89,456.149,481.88,456.149z"/>
	</g>
	<g opacity="0.5">
		<path fill="none" stroke="#455A64" stroke-width="2" stroke-miterlimit="10" d="M523.907,455.831h-14.923
			c-5.31,0-9.614-4.304-9.614-9.614v-14.922c0-5.311,4.305-9.615,9.614-9.615h14.923c5.31,0,9.614,4.305,9.614,9.615v14.922
			C533.521,451.527,529.217,455.831,523.907,455.831z"/>
	</g>
	<g opacity="0.5">
		<path fill="none" stroke="#455A64" stroke-width="2" stroke-miterlimit="10" d="M565.935,455.514h-13.838
			c-5.609,0-10.157-4.547-10.157-10.157V431.52c0-5.609,4.548-10.157,10.157-10.157h13.838c5.609,0,10.156,4.548,10.156,10.157
			v13.837C576.091,450.967,571.544,455.514,565.935,455.514z"/>
	</g>
	<g opacity="0.5">
		<path fill="none" stroke="#455A64" stroke-width="2" stroke-miterlimit="10" d="M608.386,456.149h-13.6
			c-5.676,0-10.276-4.601-10.276-10.276v-13.6c0-5.675,4.601-10.275,10.276-10.275h13.6c5.675,0,10.275,4.601,10.275,10.275v13.6
			C618.661,451.549,614.061,456.149,608.386,456.149z"/>
	</g>
	<g opacity="0.5">
		<path fill="none" stroke="#455A64" stroke-width="2" stroke-miterlimit="10" d="M481.962,382.218H465.79
			c-4.965,0-8.99-4.025-8.99-8.99v-16.172c0-4.965,4.025-8.989,8.99-8.989h16.172c4.965,0,8.989,4.024,8.989,8.989v16.172
			C490.951,378.192,486.927,382.218,481.962,382.218z"/>
	</g>
	<g opacity="0.5">
		<path fill="none" stroke="#455A64" stroke-width="2" stroke-miterlimit="10" d="M522.981,381.899h-13.07
			c-5.822,0-10.541-4.719-10.541-10.54v-13.07c0-5.821,4.719-10.541,10.541-10.541h13.07c5.82,0,10.54,4.72,10.54,10.541v13.07
			C533.521,377.181,528.802,381.899,522.981,381.899z"/>
	</g>
	<g>
		<path fill="none" stroke="#455A64" stroke-width="2" stroke-miterlimit="10" d="M566.765,381.582h-15.498
			c-5.15,0-9.326-4.176-9.326-9.327v-15.497c0-5.151,4.176-9.327,9.326-9.327h15.498c5.151,0,9.327,4.176,9.327,9.327v15.497
			C576.092,377.406,571.916,381.582,566.765,381.582z"/>
	</g>
	<g opacity="0.5">
		<path fill="none" stroke="#455A64" stroke-width="2" stroke-miterlimit="10" d="M608.463,381.265h-13.754
			c-5.633,0-10.199-4.566-10.199-10.199v-13.754c0-5.633,4.566-10.198,10.199-10.198h13.754c5.633,0,10.198,4.565,10.198,10.198
			v13.754C618.661,376.698,614.096,381.265,608.463,381.265z"/>
	</g>
	<g opacity="0.5">
		<g>
			<g>
				<g>
					<g>
						<g>
							<path fill="#455A64" d="M470.206,359.06c0.545-0.329,1.125-0.579,1.723-0.749l0.355-1.706l2.883-0.051l0.414,1.692
								c0.604,0.149,1.193,0.378,1.75,0.688l1.456-0.955l2.073,2.002l-0.902,1.489c0.33,0.546,0.579,1.126,0.749,1.725l1.706,0.354
								l0.051,2.883l-1.693,0.415c-0.148,0.604-0.377,1.192-0.688,1.748l0.955,1.457l-2.002,2.074l-1.49-0.903
								c-0.545,0.33-1.125,0.579-1.723,0.749l-0.355,1.706l-2.883,0.051l-0.414-1.692c-0.604-0.148-1.193-0.378-1.75-0.688
								l-1.457,0.955l-2.073-2.002l0.903-1.489c-0.33-0.545-0.58-1.126-0.75-1.725l-1.705-0.354l-0.051-2.883l1.692-0.415
								c0.149-0.604,0.378-1.192,0.688-1.748l-0.955-1.457l2.002-2.074L470.206,359.06L470.206,359.06z M471.173,362.532
								c-1.44,1.493-1.398,3.871,0.094,5.313c1.492,1.44,3.871,1.398,5.312-0.094c1.44-1.493,1.399-3.871-0.093-5.312
								C474.992,360.998,472.614,361.04,471.173,362.532z"/>
						</g>
					</g>
				</g>
			</g>
		</g>
	</g>
	<g opacity="0.5">
		<g>
			<path fill="#455A64" d="M551.053,446.725l1.244-4.642c-0.704-1.271-1.074-2.695-1.074-4.142c0-4.726,3.845-8.571,8.571-8.571
				c4.726,0,8.571,3.846,8.571,8.571c0,4.727-3.846,8.572-8.571,8.572c-1.419,0-2.82-0.358-4.074-1.039L551.053,446.725z
				 M555.951,443.735l0.294,0.175c1.079,0.643,2.306,0.983,3.549,0.983c3.832,0,6.951-3.118,6.951-6.952
				c0-3.833-3.119-6.951-6.951-6.951c-3.833,0-6.951,3.118-6.951,6.951c0,1.266,0.352,2.512,1.017,3.604l0.18,0.296l-0.694,2.592
				L555.951,443.735z"/>
		</g>
		<g>
			<path fill-rule="evenodd" clip-rule="evenodd" fill="#455A64" d="M562.884,439.185c-0.354-0.211-0.813-0.447-1.228-0.276
				c-0.319,0.13-0.522,0.629-0.729,0.884c-0.106,0.131-0.232,0.151-0.396,0.086c-1.197-0.477-2.114-1.276-2.774-2.377
				c-0.112-0.171-0.092-0.306,0.043-0.465c0.199-0.234,0.45-0.501,0.504-0.818c0.054-0.316-0.095-0.687-0.226-0.968
				c-0.167-0.36-0.354-0.874-0.715-1.078c-0.332-0.188-0.769-0.082-1.063,0.158c-0.511,0.415-0.757,1.066-0.749,1.711
				c0.002,0.184,0.024,0.366,0.067,0.543c0.103,0.426,0.3,0.823,0.521,1.201c0.167,0.285,0.349,0.562,0.544,0.827
				c0.641,0.869,1.437,1.625,2.359,2.19c0.461,0.282,0.957,0.529,1.471,0.699c0.576,0.19,1.09,0.389,1.712,0.271
				c0.652-0.124,1.295-0.527,1.554-1.155c0.076-0.186,0.114-0.393,0.071-0.589C563.762,439.622,563.212,439.381,562.884,439.185z"/>
		</g>
	</g>
	<g opacity="0.5">
		<path fill-rule="evenodd" clip-rule="evenodd" fill="#455A64" d="M479.905,441.127c-0.67-0.401-1.541-0.849-2.331-0.525
			c-0.606,0.248-0.993,1.195-1.386,1.68c-0.201,0.249-0.441,0.287-0.75,0.163c-2.274-0.905-4.017-2.424-5.271-4.515
			c-0.213-0.325-0.174-0.582,0.082-0.883c0.379-0.446,0.855-0.953,0.957-1.555c0.104-0.602-0.18-1.305-0.428-1.84
			c-0.318-0.685-0.673-1.66-1.358-2.048c-0.63-0.355-1.46-0.156-2.021,0.301c-0.969,0.789-1.437,2.025-1.423,3.251
			c0.004,0.349,0.047,0.695,0.129,1.031c0.195,0.809,0.568,1.563,0.989,2.281c0.317,0.541,0.661,1.066,1.033,1.571
			c1.216,1.651,2.729,3.088,4.481,4.16c0.875,0.536,1.818,1.007,2.794,1.329c1.095,0.362,2.071,0.738,3.253,0.514
			c1.238-0.234,2.459-1.001,2.949-2.193c0.146-0.354,0.219-0.747,0.137-1.12C481.573,441.958,480.53,441.5,479.905,441.127z"/>
	</g>
	<g opacity="0.5">
		<g>
			<circle fill="#455A64" cx="605.929" cy="434.601" r="0.998"/>
		</g>
		<g>
			<path fill="#455A64" d="M601.493,434.596c-2.311,0-4.191,1.88-4.191,4.191c0,2.311,1.881,4.19,4.191,4.19s4.191-1.88,4.191-4.19
				C605.685,436.476,603.804,434.596,601.493,434.596z M601.493,441.472c-1.48,0-2.685-1.205-2.685-2.685
				c0-1.48,1.204-2.685,2.685-2.685s2.685,1.204,2.685,2.685C604.178,440.267,602.974,441.472,601.493,441.472z"/>
		</g>
		<g>
			<path fill="#455A64" d="M604.82,447.583h-6.794c-2.819,0-5.112-2.294-5.112-5.112v-6.795c0-2.818,2.293-5.111,5.112-5.111h6.794
				c2.818,0,5.112,2.293,5.112,5.111v6.795C609.933,445.289,607.639,447.583,604.82,447.583z M598.026,432.165
				c-1.937,0-3.512,1.575-3.512,3.511v6.795c0,1.936,1.575,3.511,3.512,3.511h6.794c1.936,0,3.511-1.575,3.511-3.511v-6.795
				c0-1.936-1.575-3.511-3.511-3.511H598.026z"/>
		</g>
	</g>
	<g opacity="0.5">
		<path fill="#455A64" d="M508.89,447.072c-0.203,0-0.395-0.079-0.537-0.222c-0.295-0.296-0.295-0.777,0-1.073l4.058-4.058
			c-2.188-2.728-1.976-6.767,0.505-9.248c1.313-1.311,3.055-2.032,4.908-2.032s3.597,0.722,4.908,2.032
			c2.705,2.707,2.705,7.109,0,9.815c-1.312,1.311-3.055,2.033-4.908,2.033c-1.602,0-3.102-0.528-4.341-1.527l-4.058,4.058
			C509.282,446.993,509.092,447.072,508.89,447.072z M517.823,431.956c-1.449,0-2.811,0.564-3.835,1.589
			c-1.022,1.022-1.587,2.385-1.587,3.835s0.564,2.813,1.587,3.835c1.024,1.024,2.386,1.588,3.835,1.588s2.811-0.563,3.834-1.588
			c1.023-1.022,1.587-2.385,1.587-3.835s-0.563-2.813-1.587-3.835C520.634,432.521,519.272,431.956,517.823,431.956z"/>
	</g>
	<g opacity="0.5">
		<g>
			<g>
				<g>
					<g>
						<path fill="#455A64" d="M517.928,364.647c1.456-0.61,2.491-2.111,2.499-3.88c0.01-2.317-1.744-4.203-3.916-4.214
							c-2.172-0.01-3.941,1.86-3.951,4.177c-0.007,1.785,1.035,3.305,2.507,3.917c-6.054,0.912-5.778,7.491-5.778,7.491
							l14.314,0.066C523.603,372.205,523.929,365.554,517.928,364.647z"/>
					</g>
				</g>
			</g>
		</g>
	</g>
	<g opacity="0.5">
		<g>
			<g>
				<g>
					<g>
						<circle fill="#455A64" cx="602.136" cy="370.092" r="1.393"/>
					</g>
				</g>
				<g>
					<g>
						<g>
							<path fill="#455A64" d="M599.353,368.31c1.529-1.605,4.015-1.654,5.583-0.073c0.71,0.716,1.823-0.386,1.112-1.103
								c-2.151-2.169-5.684-2.156-7.797,0.063C597.556,367.927,598.656,369.041,599.353,368.31L599.353,368.31z"/>
						</g>
					</g>
				</g>
				<g>
					<g>
						<g>
							<path fill="#455A64" d="M594.624,361.829c2.117-1.83,4.645-2.982,7.475-2.989c2.805-0.007,5.571,0.988,7.626,2.918
								c0.733,0.689,1.849-0.41,1.112-1.103c-2.354-2.21-5.51-3.39-8.731-3.382c-3.256,0.008-6.15,1.34-8.584,3.443
								C592.758,361.377,593.864,362.485,594.624,361.829L594.624,361.829z"/>
						</g>
					</g>
				</g>
				<g>
					<g>
						<g>
							<path fill="#455A64" d="M596.49,365.42c1.42-1.534,3.408-2.495,5.511-2.543c2.159-0.049,4.244,0.84,5.745,2.383
								c0.704,0.724,1.816-0.379,1.113-1.103c-1.777-1.825-4.294-2.904-6.852-2.847c-2.5,0.058-4.924,1.163-6.62,2.997
								C594.705,365.047,595.804,366.162,596.49,365.42L596.49,365.42z"/>
						</g>
					</g>
				</g>
			</g>
		</g>
	</g>
	<g>
		<path fill-rule="evenodd" clip-rule="evenodd" fill="#F7B521" d="M558.148,377.417c-4.759-0.039-8.601-3.181-9.566-7.751
			c-0.312-1.47-0.258-2.942,0.132-4.396c0.231-0.868,1.103-1.37,1.961-1.149c0.85,0.219,1.374,1.063,1.158,1.933
			c-0.435,1.76-0.236,3.43,0.685,4.992c2.112,3.578,7.054,4.232,10.025,1.326c1.318-1.289,2.61-2.604,3.917-3.905
			c0.457-0.454,1.009-0.601,1.62-0.421c0.587,0.171,0.973,0.573,1.104,1.176c0.114,0.532,0.025,1.042-0.366,1.437
			c-1.462,1.465-2.874,2.983-4.41,4.366C562.609,376.642,560.452,377.391,558.148,377.417z"/>
		<path fill-rule="evenodd" clip-rule="evenodd" fill="#5FB894" d="M550.491,357.737c0.506,0.002,0.886,0.171,1.204,0.488
			c0.687,0.689,1.381,1.372,2.061,2.067c0.148,0.152,0.224,0.167,0.385,0.005c2.938-2.945,5.882-5.886,8.826-8.825
			c0.623-0.621,1.565-0.684,2.21-0.15c0.75,0.619,0.798,1.7,0.096,2.404c-1.373,1.38-2.752,2.754-4.128,4.128
			c-1.994,1.99-4.003,3.967-5.974,5.979c-0.855,0.875-2.15,0.693-2.674-0.232c-0.038-0.067-0.101-0.122-0.157-0.178
			c-0.976-0.975-1.954-1.949-2.927-2.928c-0.452-0.455-0.603-1.002-0.416-1.618c0.183-0.607,0.607-0.973,1.224-1.111
			C550.326,357.742,550.437,357.742,550.491,357.737z"/>
		<path fill-rule="evenodd" clip-rule="evenodd" fill="#F7B521" d="M558.403,366.641c-0.574-0.026-1.075-0.332-1.363-0.949
			c-0.277-0.592-0.166-1.293,0.294-1.755c1.539-1.552,3.083-3.099,4.638-4.634c0.616-0.608,1.631-0.57,2.239,0.046
			c0.619,0.625,0.633,1.616,0.006,2.253c-1.158,1.174-2.329,2.333-3.494,3.498c-0.354,0.354-0.71,0.707-1.063,1.062
			C559.34,366.478,558.957,366.639,558.403,366.641z"/>
		<path fill-rule="evenodd" clip-rule="evenodd" fill="#F7B521" d="M560.318,368.447c-0.003-0.442,0.153-0.824,0.465-1.136
			c1.147-1.151,2.294-2.306,3.453-3.445c0.628-0.617,1.641-0.589,2.255,0.037c0.61,0.618,0.628,1.616,0.014,2.239
			c-1.146,1.163-2.3,2.319-3.467,3.463c-0.5,0.488-1.108,0.574-1.754,0.316C560.693,369.687,560.317,369.094,560.318,368.447z"/>
	</g>
</g>
<g>
	<path fill-rule="evenodd" clip-rule="evenodd" fill="#5FB894" d="M559.44,89.434c-1.194,0-2.389,0.005-3.583-0.002
		c-0.882-0.005-1.584-0.603-1.743-1.46c-0.149-0.812,0.326-1.644,1.112-1.945c0.243-0.094,0.495-0.121,0.753-0.121
		c2.196,0.002,4.393,0.001,6.589,0c1.257,0,2.163-0.898,2.18-2.158c0.014-1.106-0.039-2.213,0.025-3.317
		c0.145-2.448,2.036-4.595,4.44-5.056c3.059-0.586,5.882,1.289,6.508,4.322c0.066,0.323,0.096,0.65,0.099,0.979
		c0.005,1.066,0.011,2.132-0.001,3.198c-0.008,0.89-0.655,1.634-1.49,1.743c-0.912,0.118-1.713-0.388-1.969-1.246
		c-0.055-0.186-0.077-0.375-0.076-0.569c0.002-1.002,0.002-2.004,0-3.006c-0.002-1.128-0.838-1.998-1.925-2.006
		c-1.119-0.008-2.057,0.891-2.069,2.003c-0.012,0.969-0.003,1.939-0.004,2.909c-0.004,2.82-1.878,5.1-4.644,5.645
		c-0.363,0.072-0.731,0.087-1.101,0.087C561.509,89.433,560.474,89.434,559.44,89.434z"/>
	<path fill-rule="evenodd" clip-rule="evenodd" fill="#F7B521" d="M611.815,89.441c-5.252-0.043-9.495-3.512-10.561-8.556
		c-0.343-1.625-0.284-3.249,0.146-4.854c0.257-0.96,1.218-1.514,2.164-1.27c0.939,0.242,1.517,1.175,1.28,2.133
		c-0.48,1.942-0.263,3.786,0.756,5.511c2.331,3.95,7.786,4.672,11.066,1.464c1.455-1.424,2.883-2.875,4.324-4.311
		c0.504-0.501,1.114-0.663,1.789-0.466c0.647,0.189,1.073,0.634,1.218,1.3c0.127,0.586,0.029,1.15-0.404,1.585
		c-1.613,1.617-3.171,3.293-4.868,4.82C616.74,88.584,614.358,89.412,611.815,89.441z"/>
	<path fill-rule="evenodd" clip-rule="evenodd" fill="#5FB894" d="M603.362,67.715c0.559,0.003,0.978,0.188,1.329,0.54
		c0.759,0.76,1.524,1.513,2.275,2.282c0.164,0.167,0.247,0.185,0.425,0.006c3.243-3.252,6.493-6.497,9.743-9.743
		c0.688-0.686,1.729-0.755,2.44-0.167c0.827,0.684,0.88,1.877,0.104,2.655c-1.516,1.522-3.037,3.039-4.557,4.557
		c-2.201,2.198-4.419,4.378-6.594,6.602c-0.944,0.966-2.375,0.765-2.951-0.257c-0.042-0.074-0.113-0.134-0.175-0.196
		c-1.076-1.077-2.157-2.151-3.23-3.231c-0.499-0.502-0.666-1.106-0.46-1.787c0.202-0.671,0.671-1.074,1.352-1.227
		C603.181,67.722,603.302,67.721,603.362,67.715z"/>
	<path fill-rule="evenodd" clip-rule="evenodd" fill="#5FB894" d="M583.351,80.612c0,1.13,0.016,2.26-0.004,3.39
		c-0.046,2.705-2.097,5-4.779,5.376c-0.248,0.035-0.495,0.053-0.743,0.053c-1.258,0.004-2.516,0.008-3.774,0
		c-0.896-0.006-1.584-0.604-1.739-1.488c-0.142-0.803,0.333-1.622,1.112-1.919c0.234-0.089,0.479-0.121,0.729-0.12
		c1.154,0.002,2.31-0.032,3.462,0.01c1.201,0.043,2.241-0.89,2.222-2.235c-0.033-2.203-0.012-4.407-0.008-6.611
		c0.002-0.887,0.536-1.563,1.375-1.762c1.059-0.25,2.122,0.541,2.143,1.628C583.368,78.16,583.351,79.386,583.351,80.612z"/>
	<path fill-rule="evenodd" clip-rule="evenodd" fill="#5FB894" d="M591.565,82.346c-0.025,1.518-0.547,2.834-1.611,3.92
		c-0.87,0.887-1.753,1.761-2.636,2.634c-0.721,0.712-1.83,0.713-2.523,0.014c-0.686-0.691-0.683-1.788,0.022-2.504
		c0.839-0.85,1.689-1.688,2.533-2.533c0.909-0.911,0.909-2.143,0.002-3.052c-0.851-0.851-1.704-1.697-2.549-2.552
		c-0.487-0.493-0.632-1.093-0.441-1.75c0.191-0.661,0.649-1.078,1.325-1.219c0.594-0.125,1.138,0.014,1.574,0.443
		c0.932,0.916,1.864,1.831,2.771,2.771C591.056,79.582,591.539,80.876,591.565,82.346z"/>
	<path fill-rule="evenodd" clip-rule="evenodd" fill="#5FB894" d="M597.815,80.565c0,1.074,0.001,2.148-0.001,3.222
		c-0.002,2.905-2.083,5.264-4.963,5.613c-0.356,0.043-0.719,0.072-1.075-0.022c-0.865-0.229-1.407-1.023-1.312-1.927
		c0.089-0.839,0.83-1.514,1.697-1.545c1.296-0.046,2.112-0.887,2.112-2.178c0.002-2.204,0-4.409,0.002-6.613
		c0-0.897,0.521-1.595,1.335-1.799c1.112-0.279,2.192,0.542,2.201,1.689C597.822,78.192,597.814,79.379,597.815,80.565z"/>
	<path fill-rule="evenodd" clip-rule="evenodd" fill="#5FB894" d="M542.106,89.42c-1.193,0-2.389,0.038-3.581-0.008
		c-2.457-0.094-4.641-2.015-5.108-4.432c-0.096-0.492-0.159-0.992-0.071-1.48c0.229-1.284,1.8-1.851,2.819-1.035
		c0.431,0.345,0.657,0.798,0.67,1.352c0.031,1.229,0.907,2.088,2.133,2.088c2.243,0.001,4.487-0.003,6.731,0.002
		c0.945,0.002,1.66,0.642,1.784,1.578c0.124,0.928-0.597,1.861-1.531,1.927c-0.598,0.042-1.201,0.018-1.802,0.02
		c-0.681,0.002-1.362,0.001-2.044,0.001C542.106,89.429,542.106,89.424,542.106,89.42z"/>
	<path fill-rule="evenodd" clip-rule="evenodd" fill="#5FB894" d="M552.332,81.294c0,2.116,0.006,4.231-0.002,6.347
		c-0.005,1.383-1.429,2.24-2.614,1.574c-0.581-0.327-0.905-0.838-0.906-1.51c-0.006-4.271-0.006-8.542-0.001-12.813
		c0.001-0.962,0.791-1.732,1.753-1.734c0.978-0.002,1.763,0.756,1.768,1.742C552.339,77.032,552.332,79.164,552.332,81.294z"/>
	<path fill-rule="evenodd" clip-rule="evenodd" fill="#F7B521" d="M612.098,77.544c-0.634-0.029-1.188-0.366-1.506-1.047
		c-0.306-0.655-0.184-1.428,0.324-1.939c1.7-1.711,3.403-3.419,5.12-5.113c0.681-0.672,1.8-0.63,2.472,0.049
		c0.685,0.69,0.7,1.785,0.006,2.488c-1.276,1.295-2.57,2.574-3.856,3.86c-0.392,0.391-0.782,0.782-1.174,1.172
		C613.131,77.365,612.707,77.542,612.098,77.544z"/>
	<path fill-rule="evenodd" clip-rule="evenodd" fill="#5FB894" d="M576.773,95.499c-1.076,0.001-2.465-0.465-3.731-1.29
		c-0.787-0.513-0.984-1.59-0.479-2.384c0.505-0.798,1.534-1.061,2.36-0.589c0.523,0.3,1.056,0.57,1.655,0.68
		c1,0.182,1.901-0.093,2.748-0.605c0.308-0.186,0.632-0.306,0.995-0.307c0.783-0.002,1.472,0.501,1.701,1.243
		c0.232,0.754-0.054,1.573-0.726,1.997C580.054,95.026,578.708,95.489,576.773,95.499z"/>
	<path fill-rule="evenodd" clip-rule="evenodd" fill="#5FB894" d="M542.661,93.557c-1.01,0-2.019,0.003-3.028-0.001
		c-0.944-0.004-1.664-0.668-1.768-1.621c-0.094-0.859,0.527-1.679,1.419-1.868c0.102-0.021,0.206-0.031,0.311-0.031
		c2.059-0.001,4.117-0.006,6.177,0.001c0.726,0.002,1.348,0.453,1.606,1.13c0.254,0.664,0.09,1.411-0.424,1.899
		c-0.34,0.322-0.745,0.49-1.216,0.49C544.713,93.556,543.687,93.557,542.661,93.557z"/>
	<path fill-rule="evenodd" clip-rule="evenodd" fill="#F7B521" d="M614.211,79.538c-0.003-0.489,0.169-0.911,0.513-1.254
		c1.269-1.271,2.533-2.544,3.813-3.802c0.692-0.681,1.811-0.649,2.49,0.041c0.672,0.683,0.692,1.784,0.014,2.472
		c-1.266,1.284-2.54,2.561-3.828,3.822c-0.551,0.54-1.225,0.635-1.935,0.351C614.625,80.906,614.21,80.252,614.211,79.538z"/>
	<path fill-rule="evenodd" clip-rule="evenodd" fill="#5FB894" d="M570.267,74.369c-1.183,0.003-2.123-0.93-2.125-2.109
		c-0.002-1.173,0.948-2.125,2.119-2.124c1.16,0.002,2.111,0.949,2.116,2.105C572.383,73.419,571.444,74.365,570.267,74.369z"/>
	<path fill-rule="evenodd" clip-rule="evenodd" fill="#5FB894" d="M543.604,93.738c1.179-0.003,2.126,0.937,2.127,2.111
		c0.001,1.177-0.94,2.111-2.125,2.108c-1.179-0.003-2.107-0.924-2.11-2.093C541.492,94.681,542.425,93.741,543.604,93.738z"/>
</g>
</svg>
