<?xml version="1.0" encoding="utf-8"?>
<!-- Generator: Adobe Illustrator 16.0.0, SVG Export Plug-In . SVG Version: 6.00 Build 0)  -->
<!DOCTYPE svg PUBLIC "-//W3C//DTD SVG 1.1//EN" "http://www.w3.org/Graphics/SVG/1.1/DTD/svg11.dtd">
<svg version="1.1" id="wallet" xmlns="http://www.w3.org/2000/svg" xmlns:xlink="http://www.w3.org/1999/xlink" x="0px" y="0px"
	 width="841.89px" height="595.28px" viewBox="0 0 841.89 595.28" enable-background="new 0 0 841.89 595.28" xml:space="preserve">
<g>
	<g>
		<g>
			
				<ellipse transform="matrix(0.9896 -0.1438 0.1438 0.9896 -15.706 66.1435)" fill="#F5F5F5" cx="449.667" cy="141.712" rx="51.659" ry="51.541"/>
		</g>
	</g>
</g>
<g>
	<g>
		<g>
			
				<ellipse transform="matrix(0.9896 -0.1438 0.1438 0.9896 -14.2164 42.4191)" fill="#F5F5F5" cx="286.296" cy="119.542" rx="25.714" ry="25.655"/>
		</g>
	</g>
</g>
<g>
	<g>
		<g>
			
				<ellipse transform="matrix(0.9896 -0.1438 0.1438 0.9896 -15.7063 66.1444)" fill="#EBEBEB" cx="449.667" cy="141.713" rx="39.368" ry="39.276"/>
		</g>
	</g>
</g>
<g>
	<g>
		<g>
			
				<ellipse transform="matrix(0.9896 -0.1438 0.1438 0.9896 -14.1452 42.4135)" fill="#EBEBEB" cx="286.296" cy="119.047" rx="19.596" ry="19.55"/>
		</g>
	</g>
</g>
<g>
	<g>
		<g>
			<g>
				<path fill="#E0E0E0" d="M488.439,134.831c-0.235,0.043-0.65-1.643-1.711-4.535c-1.073-2.874-2.876-6.992-6.229-11.288
					c-1.674-2.138-3.723-4.312-6.187-6.33c-2.478-1.994-5.344-3.861-8.602-5.317c-1.625-0.734-3.335-1.391-5.13-1.896
					c-1.79-0.516-3.65-0.943-5.572-1.184c-1.918-0.248-3.889-0.396-5.888-0.344c-2,0.047-4.022,0.24-6.049,0.585
					c-2.021,0.374-3.988,0.889-5.88,1.531c-1.896,0.641-3.694,1.456-5.412,2.349c-1.722,0.89-3.321,1.931-4.826,3.031
					c-1.51,1.093-2.889,2.299-4.162,3.546c-2.556,2.489-4.606,5.23-6.244,7.955c-1.616,2.742-2.793,5.488-3.629,8.073
					c-1.667,5.188-1.94,9.673-1.959,12.739c0.001,3.081,0.193,4.807-0.044,4.846c-0.174,0.034-0.76-1.627-1.129-4.783
					c-0.346-3.137-0.406-7.841,1.085-13.4c0.748-2.769,1.875-5.732,3.502-8.708c1.646-2.959,3.76-5.948,6.448-8.677
					c1.338-1.368,2.798-2.688,4.404-3.891c1.601-1.208,3.312-2.35,5.157-3.33c1.843-0.983,3.779-1.876,5.822-2.579
					c2.039-0.706,4.161-1.266,6.34-1.667c2.185-0.374,4.368-0.577,6.525-0.617c2.159-0.043,4.285,0.13,6.354,0.418
					c2.069,0.283,4.07,0.767,5.987,1.352c1.922,0.574,3.748,1.313,5.476,2.135c3.462,1.637,6.476,3.715,9.042,5.927
					c2.549,2.234,4.632,4.628,6.287,6.97c3.313,4.705,4.878,9.143,5.635,12.207C488.594,133.041,488.612,134.802,488.439,134.831z"
					/>
			</g>
		</g>
	</g>
</g>
<g>
	<g>
		<g>
			<g>
				<g>
					<path fill="#E0E0E0" d="M457.452,164.309l1.085,6.771l-6.046,0.966l-1.055-6.588c-6.044,0.594-12.087-0.358-15.827-2.426
						l2.143-7.909c3.381,1.754,7.994,2.689,12.417,2.415l-1.618-10.097c-6.972-0.556-14.826-1.593-16.21-10.239
						c-1.025-6.408,2.748-12.655,12.126-15.271l-1.076-6.712l6.047-0.968l1.056,6.591c4.592-0.364,9.197,0.138,12.861,1.721
						l-1.83,7.921c-3.364-1.259-6.673-1.783-9.755-1.664l1.646,10.278c6.963,0.497,14.697,1.554,16.061,10.077
						C470.482,155.464,466.759,161.641,457.452,164.309z M447.128,138.554l-1.376-8.583c-3.087,1.238-4.074,3.195-3.756,5.19
						C442.335,137.276,444.333,138.136,447.128,138.554z M459.861,151.46c-0.34-2.117-2.277-2.984-5.021-3.477l1.335,8.344
						C459.092,155.18,460.17,153.395,459.861,151.46z"/>
				</g>
			</g>
		</g>
	</g>
</g>
<g>
	<g>
		<g>
			<path fill="#EBEBEB" d="M735.119,349.854c0,0-11.452-6.619-23.296,20.535c-11.843,27.154-16.016,42.654-16.016,42.654
				s-3.217,5.732-7.226,2.354c-4.01-3.381-9.819-13.303-16.153-11.072c-6.569,2.313-8.321,9.904-6.388,20.789
				c1.935,10.887,5.295,34.891,5.591,37.063c0.291,2.131-0.746,5.361-3.846,3.496s-21.373-19.908-29.415-10.725
				s2.328,38.623,3.4,41.865c1.072,3.238,0.512,4.684-1.004,5.594c-1.515,0.908-7.085-5.734-12.492-10.654
				s-12.539-9.674-16.736-3.986c-4.195,5.686-4.291,28.25,19.296,63.471l11.997,15.605l19.64-2.277
				c41.733-7.439,57.921-23.156,59.108-30.123c1.186-6.967-7.187-8.807-14.48-9.291s-15.942,0.111-16.34-1.611
				c-0.396-1.721,0.258-3.127,3.335-4.602s31.479-14.424,32.517-26.586c1.037-12.162-24.635-12.813-28.128-13.752
				s-1.887-3.926-0.149-5.197c1.77-1.293,21.394-15.52,30.577-21.676s13.438-12.686,10.547-19.023
				c-2.786-6.109-13.965-3.412-19.18-3.955c-5.216-0.543-3.315-6.838-3.315-6.838s8.271-13.758,19.618-41.121
				c11.348-27.367-1.704-31.053-1.704-31.053"/>
		</g>
	</g>
	<g>
		<g>
			<g>
				<path fill="#E0E0E0" d="M643.579,562.772c8.408-20.068,20.26-47.691,33.453-78.162c13.189-30.459,25.109-58.047,33.628-78.064
					c4.242-9.992,7.678-18.088,10.067-23.717c1.183-2.775,2.104-4.941,2.745-6.443c0.311-0.713,0.554-1.268,0.729-1.67
					c0.168-0.375,0.271-0.561,0.271-0.561s-0.061,0.203-0.207,0.586c-0.161,0.408-0.383,0.973-0.668,1.695
					c-0.613,1.514-1.496,3.697-2.629,6.494c-2.289,5.637-5.662,13.77-9.87,23.801c-8.407,20.066-20.258,47.688-33.447,78.146
					c-13.193,30.473-25.114,58.063-33.633,78.08"/>
			</g>
		</g>
	</g>
	<g>
		<g>
			<g>
				<path fill="#E0E0E0" d="M679.997,418.532c0.043-0.016,0.25,0.449,0.586,1.299c0.342,0.85,0.795,2.094,1.34,3.637
					c1.084,3.086,2.47,7.389,3.908,12.164c1.394,4.701,2.654,8.953,3.629,12.24c0.438,1.453,0.81,2.688,1.115,3.703
					c0.267,0.873,0.393,1.363,0.35,1.381c-0.044,0.016-0.253-0.445-0.597-1.295c-0.338-0.852-0.794-2.096-1.322-3.645
					c-1.054-3.098-2.383-7.416-3.82-12.189c-1.426-4.689-2.717-8.93-3.716-12.209c-0.444-1.453-0.823-2.688-1.134-3.701
					C680.075,419.042,679.952,418.548,679.997,418.532z"/>
			</g>
		</g>
	</g>
	<g>
		<g>
			<g>
				
					<ellipse transform="matrix(-0.9428 0.3335 -0.3335 -0.9428 1532.8069 629.381)" fill="#E0E0E0" cx="712.384" cy="446.251" rx="20.826" ry="0.336"/>
			</g>
		</g>
	</g>
	<g>
		<g>
			<g>
				<path fill="#E0E0E0" d="M670.382,499.067c0-0.047,0.515-0.104,1.446-0.166c1.076-0.064,2.393-0.143,3.942-0.232
					c3.329-0.201,7.924-0.49,12.983-0.992c5.061-0.49,9.626-1.09,12.929-1.547c1.539-0.213,2.845-0.391,3.913-0.537
					c0.926-0.119,1.442-0.164,1.449-0.119c0.009,0.047-0.491,0.178-1.404,0.377c-0.913,0.201-2.238,0.463-3.884,0.75
					c-3.29,0.578-7.86,1.256-12.938,1.748c-5.073,0.504-9.689,0.719-13.027,0.795c-1.67,0.033-3.022,0.043-3.956,0.02
					C670.9,499.146,670.384,499.114,670.382,499.067z"/>
			</g>
		</g>
	</g>
	<g>
		<g>
			<g>
				<path fill="#E0E0E0" d="M651.946,470.253c0.038-0.025,0.337,0.35,0.846,1.047c0.507,0.697,1.224,1.721,2.096,2.99
					c1.746,2.543,4.118,6.08,6.704,10.01c2.587,3.93,4.896,7.51,6.541,10.117c0.822,1.307,1.477,2.367,1.916,3.111
					c0.441,0.74,0.666,1.164,0.628,1.189c-0.04,0.025-0.339-0.35-0.847-1.047c-0.507-0.697-1.223-1.721-2.097-2.99
					c-1.744-2.543-4.118-6.08-6.705-10.012c-2.585-3.93-4.896-7.508-6.538-10.115c-0.822-1.305-1.479-2.367-1.918-3.109
					S651.906,470.28,651.946,470.253z"/>
			</g>
		</g>
	</g>
	<g>
		<g>
			<g>
				<path fill="#E0E0E0" d="M627.055,508.241c0.038-0.027,0.416,0.457,1.065,1.35c0.714,1.014,1.619,2.295,2.699,3.826
					c2.254,3.244,5.329,7.756,8.691,12.76c3.362,5.006,6.376,9.559,8.53,12.873c1.008,1.578,1.853,2.9,2.52,3.945
					c0.583,0.939,0.887,1.471,0.848,1.496c-0.038,0.027-0.416-0.457-1.065-1.35c-0.715-1.014-1.62-2.295-2.698-3.826
					c-2.255-3.244-5.33-7.756-8.693-12.762c-3.362-5.004-6.375-9.559-8.528-12.871c-1.009-1.578-1.853-2.9-2.521-3.945
					C627.32,508.798,627.016,508.267,627.055,508.241z"/>
			</g>
		</g>
	</g>
	<g>
		<g>
			<g>
				<path fill="#E0E0E0" d="M651.07,543.46c-0.003-0.045,0.647-0.133,1.825-0.252c1.306-0.125,2.981-0.283,4.989-0.475
					c4.212-0.4,10.026-0.975,16.428-1.785c6.405-0.799,12.185-1.672,16.363-2.332c1.993-0.309,3.656-0.568,4.951-0.771
					c1.171-0.178,1.822-0.254,1.831-0.207c0.009,0.045-0.627,0.209-1.783,0.465c-1.157,0.256-2.837,0.598-4.918,0.984
					c-4.164,0.779-9.942,1.73-16.36,2.531c-6.413,0.811-12.247,1.311-16.474,1.592c-2.113,0.135-3.826,0.225-5.01,0.26
					C651.729,543.509,651.073,543.507,651.07,543.46z"/>
			</g>
		</g>
	</g>
</g>
<path fill="#E0E0E0" d="M322.169,433.151L87.641,360.149c-6.025-1.875-9.389-8.279-7.514-14.305l45.097-144.877
	c1.876-6.025,8.281-9.39,14.306-7.514l234.529,73.005c6.024,1.875,9.388,8.28,7.513,14.304l-45.097,144.875
	C334.6,431.663,328.194,435.026,322.169,433.151z"/>
<circle fill="#FFFFFF" cx="317.438" cy="291.368" r="18.53"/>
<path fill="#FFFFFF" d="M336.386,317.151c-1.129-0.143-2.253-0.385-3.362-0.73c-10.153-3.163-15.842-13.997-12.681-24.149
	c3.159-10.154,13.989-15.848,24.148-12.686c10.153,3.163,15.843,13.997,12.683,24.15c-1.531,4.92-4.885,8.947-9.445,11.343
	C344.193,316.937,340.264,317.64,336.386,317.151z M340.973,280.367c-8.377-1.056-16.588,4.016-19.184,12.356
	c-2.913,9.354,2.328,19.337,11.686,22.251c4.535,1.412,9.346,0.971,13.549-1.234c4.203-2.208,7.293-5.92,8.704-10.454l0,0
	c2.911-9.355-2.33-19.337-11.687-22.252C343.023,280.716,341.996,280.496,340.973,280.367z"/>
<path fill="#FFFFFF" d="M242.883,342.612l-0.324,1.037l-10.063,11.34l-1.586-0.494l9.88-11.107l-7.32-2.277l-0.829,2.662
	l-1.441-0.449l1.234-3.963L242.883,342.612z"/>
<path fill="#FFFFFF" d="M263.227,348.944l-0.322,1.037l-10.063,11.34l-1.585-0.492l9.879-11.107l-7.319-2.277l-0.829,2.662
	l-1.441-0.449l1.234-3.965L263.227,348.944z"/>
<path fill="#FFFFFF" d="M274.033,363.571c-0.784,2.52-3.404,3.422-6.799,2.363c-3.416-1.061-5.002-3.273-4.219-5.793
	c0.532-1.709,1.881-2.604,3.833-2.643c-1.265-1.018-1.722-2.342-1.261-3.826c0.721-2.318,3.143-3.148,6.151-2.211
	c3.009,0.936,4.571,3.006,3.851,5.324c-0.462,1.484-1.611,2.307-3.25,2.422C273.942,360.354,274.56,361.884,274.033,363.571z
	 M272.538,363.083c0.544-1.748-0.62-3.314-3.142-4.1c-2.52-0.785-4.346-0.148-4.89,1.6c-0.55,1.768,0.593,3.328,3.112,4.111
	C270.141,365.481,271.987,364.851,272.538,363.083z M269.758,357.823c2.217,0.691,3.848,0.107,4.328-1.439
	c0.5-1.605-0.6-3.018-2.732-3.682c-2.154-0.67-3.82-0.119-4.313,1.467C266.553,355.735,267.542,357.136,269.758,357.823z"/>
<path fill="#FFFFFF" d="M288.874,364.601c-1.506,4.838-4.935,6.535-8.795,5.334c-1.282-0.4-2.413-0.996-3.134-1.824l0.954-0.994
	c0.581,0.715,1.501,1.201,2.557,1.529c3.069,0.957,5.656-0.402,6.857-4.264c0.103-0.326,0.209-0.738,0.3-1.178
	c-1.199,1.344-3.14,1.697-5.111,1.086c-2.823-0.881-4.277-3.162-3.467-5.764c0.829-2.662,3.454-3.719,6.218-2.857
	C289.035,356.847,290.271,360.106,288.874,364.601z M287.74,361.147c0.486-1.564-0.351-3.455-2.811-4.219
	c-2.055-0.641-3.85,0.115-4.438,2.008c-0.583,1.871,0.426,3.498,2.624,4.182C285.287,363.796,287.189,362.915,287.74,361.147z"/>
<path fill="#FFFFFF" d="M305.48,362.097l-4.43,14.232l-1.464-0.455l4.024-12.932l-3.354-1.043l0.406-1.301L305.48,362.097z"/>
<path fill="#FFFFFF" d="M316.09,379.583l-0.404,1.301l-9.981-3.107l0.323-1.037l7.719-3.951c2.099-1.086,2.702-1.945,3.006-2.924
	c0.513-1.646-0.332-3.023-2.506-3.699c-1.666-0.518-3.105-0.41-4.377,0.377l-0.758-1.219c1.502-0.957,3.5-1.141,5.675-0.463
	c2.886,0.898,4.261,2.934,3.521,5.311c-0.425,1.361-1.231,2.449-3.725,3.725l-6.318,3.25L316.09,379.583z"/>
<path fill="#FFFFFF" d="M329.721,380.771c-0.739,2.377-3.036,3.67-6.475,2.602c-2.051-0.639-3.801-1.965-4.55-3.426l1.071-0.936
	c0.617,1.24,2.048,2.443,3.897,3.02c2.358,0.734,4.001,0.041,4.552-1.729c0.532-1.707-0.32-3.199-2.961-4.021l-1.016-0.316
	l0.334-1.076l5.48-3.713l-7.277-2.266l0.406-1.301l9.148,2.848l-0.323,1.037l-5.603,3.809
	C329.407,376.415,330.43,378.495,329.721,380.771z"/>
<rect x="268.682" y="322.509" transform="matrix(0.2972 -0.9548 0.9548 0.2972 -173.8311 528.2203)" fill="#FFFFFF" width="6.472" height="119.378"/>
<rect x="292.604" y="372.567" transform="matrix(0.2971 -0.9549 0.9549 0.2971 -177.0217 565.8983)" fill="#FFFFFF" width="6.47" height="61.226"/>
<path fill="#EBEBEB" d="M155.263,301.881l-36.166-11.257c-3.221-1.003-5.019-4.427-4.016-7.647l7.492-24.065
	c1.003-3.221,4.427-5.019,7.647-4.017l36.162,11.257c3.221,1.002,5.019,4.426,4.017,7.646l-7.488,24.065
	C161.909,301.085,158.484,302.884,155.263,301.881z"/>
<path fill="#E0E0E0" d="M116.343,278.917l0.716-2.292l24.624,7.666c2.84,0.883,5.873-0.708,6.759-3.552
	c0.883-2.842-0.732-5.915-3.55-6.756l-24.626-7.667l0.716-2.292l24.624,7.666c4.104,1.278,6.405,5.657,5.129,9.761
	c-1.28,4.106-5.66,6.407-9.765,5.131L116.343,278.917z"/>
<rect x="156.838" y="274.877" transform="matrix(-0.2982 0.9545 -0.9545 -0.2982 475.9832 217.4779)" fill="#E0E0E0" width="2.401" height="17.702"/>
<rect x="134.632" y="244.336" transform="matrix(0.9548 0.2973 -0.2973 0.9548 83.2723 -47.8729)" fill="#FFFFFF" width="128.821" height="11.055"/>
<g>
	<g>
		<g>
			<g>
				<g>
					
						<ellipse transform="matrix(0.9896 -0.1438 0.1438 0.9896 -71.347 26.1273)" fill="#F5F5F5" cx="145.04" cy="506.546" rx="32.673" ry="32.597"/>
				</g>
			</g>
		</g>
		<g>
			<g>
				<g>
					
						<ellipse transform="matrix(0.9896 -0.1438 0.1438 0.9896 -71.3453 26.1264)" fill="#EBEBEB" cx="145.04" cy="506.547" rx="24.899" ry="24.841"/>
				</g>
			</g>
		</g>
		<g>
			<g>
				<g>
					<g>
						<path fill="#E0E0E0" d="M169.561,502.194c-0.148,0.027-0.41-1.039-1.082-2.869c-0.678-1.816-1.818-4.42-3.939-7.139
							c-1.059-1.352-2.354-2.727-3.913-4.004c-1.567-1.26-3.38-2.441-5.44-3.363c-1.027-0.463-2.11-0.877-3.245-1.199
							c-1.132-0.324-2.309-0.596-3.524-0.748c-1.213-0.158-2.459-0.25-3.724-0.217c-1.264,0.029-2.543,0.15-3.824,0.369
							c-1.279,0.236-2.523,0.563-3.72,0.969c-1.2,0.404-2.337,0.92-3.422,1.484c-1.089,0.564-2.102,1.223-3.052,1.918
							c-0.956,0.691-1.828,1.453-2.633,2.242c-1.617,1.574-2.913,3.309-3.949,5.033c-1.022,1.732-1.767,3.469-2.295,5.104
							c-1.055,3.281-1.228,6.117-1.239,8.059c0,1.947,0.122,3.039-0.027,3.063c-0.109,0.023-0.481-1.027-0.714-3.023
							c-0.219-1.984-0.257-4.959,0.686-8.475c0.473-1.75,1.186-3.625,2.215-5.508c1.041-1.871,2.378-3.762,4.078-5.488
							c0.846-0.865,1.769-1.699,2.786-2.461c1.012-0.764,2.095-1.486,3.262-2.105c1.165-0.621,2.39-1.186,3.682-1.631
							c1.29-0.445,2.632-0.801,4.01-1.055c1.381-0.236,2.763-0.363,4.127-0.391c1.365-0.025,2.71,0.084,4.018,0.266
							c1.309,0.178,2.574,0.484,3.787,0.855c1.215,0.363,2.371,0.83,3.462,1.35c2.189,1.035,4.096,2.35,5.719,3.748
							c1.612,1.414,2.929,2.928,3.976,4.408c2.097,2.977,3.086,5.783,3.564,7.721C169.658,501.062,169.671,502.175,169.561,502.194z
							"/>
					</g>
				</g>
			</g>
		</g>
	</g>
	<g>
		<g>
			<g>
				<g>
					<g>
						<path fill="#E0E0E0" d="M149.963,520.837l0.686,4.283l-3.824,0.611l-0.667-4.166c-3.822,0.375-7.644-0.229-10.01-1.535
							l1.355-5.002c2.139,1.109,5.056,1.699,7.853,1.527l-1.023-6.387c-4.409-0.352-9.377-1.006-10.252-6.475
							c-0.648-4.055,1.738-8.004,7.669-9.66l-0.68-4.244l3.824-0.613l0.667,4.17c2.904-0.23,5.817,0.086,8.134,1.088l-1.158,5.01
							c-2.128-0.795-4.221-1.129-6.169-1.053l1.041,6.502c4.402,0.313,9.294,0.982,10.157,6.373
							C158.205,515.243,155.849,519.149,149.963,520.837z M143.434,504.55l-0.871-5.43c-1.953,0.783-2.578,2.021-2.376,3.283
							C140.402,503.741,141.665,504.284,143.434,504.55z M151.486,512.712c-0.214-1.34-1.439-1.887-3.176-2.199l0.846,5.277
							C151,515.063,151.682,513.935,151.486,512.712z"/>
					</g>
				</g>
			</g>
		</g>
	</g>
</g>
<g>
	<g>
		<g>
			<path fill="#E8505B" d="M641.285,515.45c-2.386,3.406-7.021,2.277-9.172,0.199c-2.149-2.08-3.058-5.094-3.885-7.969
				c-1.891-6.566-3.795-13.457-2.391-20.145c0.421-1.998,1.168-3.992,2.573-5.475c1.405-1.484,3.565-2.367,5.541-1.846
				c2.337,0.617,3.79,2.908,4.841,5.086c3.087,6.402,4.721,13.5,4.745,20.607C643.549,509.228,643.158,512.708,641.285,515.45"/>
		</g>
	</g>
	<g>
		<g>
			<path fill="#5FB894" d="M641.285,515.45c-2.386,3.406-7.021,2.277-9.172,0.199c-2.149-2.08-3.058-5.094-3.885-7.969
				c-1.891-6.566-3.795-13.457-2.391-20.145c0.421-1.998,1.168-3.992,2.573-5.475c1.405-1.484,3.565-2.367,5.541-1.846
				c2.337,0.617,3.79,2.908,4.841,5.086c3.087,6.402,4.721,13.5,4.745,20.607C643.549,509.228,643.158,512.708,641.285,515.45"/>
		</g>
	</g>
	<g>
		<g>
			<path fill="#5FB894" d="M632.348,532.704c-3.9-2.014-8.494-2.275-12.825-1.559c-2.326,0.383-4.753,1.08-6.337,2.826
				c-1.582,1.748-1.883,4.824-0.064,6.326c1.083,0.895,2.591,1.029,3.994,1.014c3.392-0.039,7.152-0.637,9.861,1.402
				c1.545,1.164,2.574,3.1,4.422,3.672c1.808,0.561,3.847-0.506,4.806-2.139c0.959-1.631,0.99-3.67,0.544-5.51
				C636.748,538.737,636.277,534.731,632.348,532.704z"/>
		</g>
	</g>
	<g>
		<g>
			<path fill="#5FB894" d="M647.836,520.339c-2.591-3.074-3.082-7.559-1.93-11.41c1.152-3.85,3.757-7.125,6.757-9.801
				c3.519-3.135,7.653-5.576,12.101-7.139c1.749-0.615,3.595-1.102,5.441-0.924c1.846,0.176,3.705,1.119,4.565,2.762
				c1.274,2.43,0.053,5.375-1.268,7.777c-2.325,4.234-4.985,8.285-7.946,12.104c-2.382,3.07-5.111,6.1-8.741,7.486
				c-3.631,1.389-7.401,1.225-9.325-1.293"/>
		</g>
	</g>
	<g>
		<g>
			<g>
				<path fill="#263238" d="M641.447,566.843c-0.045,0.002-0.118-0.549-0.217-1.547c-0.109-1.127-0.246-2.543-0.411-4.227
					c-0.196-1.777-0.456-3.893-0.95-6.195c-0.491-2.299-1.263-4.789-2.252-7.316c-1.025-2.51-2.274-4.791-3.734-6.617
					c-1.451-1.834-3.138-3.16-4.723-3.926c-1.58-0.779-2.997-1.098-3.977-1.238c-0.988-0.102-1.541-0.18-1.542-0.223
					c0-0.045,0.554-0.051,1.569-0.023c1.005,0.066,2.48,0.32,4.146,1.078c1.672,0.74,3.46,2.088,4.981,3.959
					c1.533,1.865,2.829,4.197,3.872,6.752c1.007,2.57,1.767,5.086,2.236,7.434c0.469,2.344,0.684,4.484,0.824,6.275
					c0.133,1.795,0.185,3.248,0.209,4.252C641.502,566.284,641.49,566.841,641.447,566.843z"/>
			</g>
		</g>
	</g>
	<g>
		<g>
			<g>
				<path fill="#263238" d="M641.155,563.593c-0.022-0.002-0.035-0.25-0.041-0.719c0.001-0.539,0.003-1.221,0.005-2.055
					c0.006-1.783,0.005-4.363-0.092-7.549c-0.157-6.371-0.705-15.166-1.765-24.834c-1.068-9.67-2.481-18.367-3.772-24.609
					c-0.304-1.564-0.611-2.973-0.9-4.203c-0.275-1.236-0.511-2.303-0.737-3.164c-0.196-0.811-0.354-1.471-0.48-1.996
					c-0.103-0.459-0.147-0.703-0.125-0.709c0.021-0.006,0.105,0.225,0.25,0.674c0.155,0.516,0.353,1.168,0.596,1.969
					c0.265,0.854,0.536,1.912,0.845,3.143c0.323,1.227,0.661,2.633,0.995,4.193c1.405,6.232,2.895,14.943,3.966,24.635
					c1.061,9.686,1.539,18.508,1.581,24.895c0.038,3.193-0.03,5.779-0.112,7.563c-0.05,0.834-0.091,1.514-0.125,2.053
					C641.207,563.347,641.178,563.593,641.155,563.593z"/>
			</g>
		</g>
	</g>
	<g>
		<g>
			<g>
				<path fill="#263238" d="M641.113,546.579c-0.045-0.002-0.037-0.764,0.016-2.145c0.078-1.381,0.268-3.373,0.656-5.814
					c0.412-2.436,0.987-5.328,1.891-8.471c0.859-3.154,2.041-6.561,3.542-10.023c2.938-6.969,6.93-12.668,10.402-16.197
					c0.813-0.936,1.721-1.611,2.447-2.275c0.374-0.316,0.707-0.633,1.045-0.883c0.34-0.234,0.656-0.453,0.949-0.654
					c1.144-0.783,1.783-1.195,1.807-1.158c0.103,0.141-2.56,1.707-5.921,5.283c-3.348,3.568-7.229,9.229-10.144,16.139
					c-1.487,3.434-2.677,6.809-3.562,9.932c-0.929,3.111-1.546,5.975-2.012,8.385c-0.443,2.418-0.699,4.391-0.854,5.758
					C641.249,545.821,641.157,546.581,641.113,546.579z"/>
			</g>
		</g>
	</g>
</g>
<g>
	<g>
		<path fill="#E0E0E0" d="M397.985,448.976l-190.47-201.47c-2.008-2.124-1.914-5.472,0.21-7.479l125.003-118.178
			c2.124-2.007,5.473-1.914,7.48,0.209l190.469,201.468c2.007,2.125,1.913,5.473-0.211,7.48L405.464,449.185
			C403.341,451.192,399.992,451.099,397.985,448.976z"/>
	</g>
</g>
<g opacity="0.2">
	<g>
		<path d="M398.012,449.079L207.543,247.608c-2.008-2.123-1.914-5.472,0.209-7.479l125.004-118.178
			c2.123-2.007,5.472-1.914,7.479,0.21l190.47,201.469c2.007,2.125,1.913,5.473-0.211,7.48L405.49,449.288
			C403.367,451.294,400.019,451.2,398.012,449.079z"/>
	</g>
</g>
<g>
	<g>
		<g>
			<path fill="#F7B521" d="M529.286,322.056L341.601,123.531c-2.776-2.936-7.407-3.066-10.344-0.29l-35.517,33.577
				c-0.709,0.67-1.053,1.653-0.881,2.614c3.544,19.856,17.754,37.614,34.676,49.375c20.462,14.221,44.697,21.703,67.738,31.193
				s46.151,21.993,59.966,42.732c13.034,19.57,16.117,43.847,22.744,66.407c1.769,6.021,3.984,12.107,6.698,17.938
				c0.846,1.816,3.217,2.285,4.672,0.908l37.642-35.586C531.932,329.624,532.062,324.991,529.286,322.056z"/>
		</g>
	</g>
</g>
<g display="none">
	<g display="inline">
		<path fill="#FFFFFF" d="M338.826,181.313c-1.697,1.605-3.953,1.186-6.393-1.395l-4.801-5.078l9.818-9.283l4.536,4.798
			c2.32,2.455,2.489,4.684,0.961,6.13c-0.981,0.928-2.216,1.14-3.393,0.738C340.24,178.649,340.061,180.146,338.826,181.313z
			 M337.877,169.434l-2.314,2.188l2.135,2.258c1.047,1.107,2.01,1.341,2.781,0.612c0.772-0.73,0.58-1.692-0.467-2.8L337.877,169.434
			z M336.903,178.8c0.827-0.782,0.624-1.784-0.491-2.963l-2.506-2.65l-2.426,2.294l2.505,2.649
			C335.101,179.311,336.061,179.596,336.903,178.8z"/>
	</g>
	<g display="inline">
		<path fill="#FFFFFF" d="M345.988,190.04l-4.311-4.56l-2.928,1.12l-2.199-2.328l13.955-4.906l2.123,2.245l-5.669,13.673
			l-2.255-2.385L345.988,190.04z M347.037,187.693l2.287-5.111l-5.231,1.998L347.037,187.693z"/>
	</g>
	<g display="inline">
		<path fill="#FFFFFF" d="M366.253,196.021l-9.819,9.283l-1.764-1.866l1.334-10.532l-5.962,5.637l-2.122-2.245l9.818-9.283
			l1.777,1.881l-1.347,10.515l5.961-5.635L366.253,196.021z"/>
	</g>
	<g display="inline">
		<path fill="#FFFFFF" d="M365.867,207.554l-2.622-0.019l-2.483,2.347l-2.135-2.26l9.818-9.282l2.136,2.259l-4.586,4.336
			l8.696,0.012l2.386,2.524l-8.22,0.07l-1.373,9.451l-2.506-2.651L365.867,207.554z"/>
	</g>
</g>
<g>
	<path fill="#FFFFFF" d="M296.262,218.072l-1.705-1.803l-2.369,2.241l-0.876-0.927l2.369-2.24l-4.808-5.085l0.669-0.633
		l10.489-0.872l0.975,1.031l-10.176,0.893l3.699,3.913l2.085-1.971l0.852,0.9l-2.085,1.972l1.704,1.802L296.262,218.072z"/>
</g>
<g>
	<path fill="#FFFFFF" d="M302.736,224.483c-1.507,1.424-3.7,1.425-5.757-0.75c-1.229-1.301-1.96-2.977-1.909-4.341l1.16-0.243
		c-0.057,1.152,0.49,2.608,1.599,3.781c1.412,1.493,2.887,1.66,4.006,0.601c1.082-1.022,1.071-2.452-0.511-4.126l-0.609-0.643
		l0.683-0.646l5.491-0.46l-4.358-4.609l0.823-0.779l5.479,5.794l-0.658,0.621l-5.614,0.482
		C304.282,221.193,304.178,223.12,302.736,224.483z"/>
</g>
<g>
	<path fill="#FFFFFF" d="M309.689,231.71c-1.531,1.447-3.74,1.51-5.822-0.692c-1.229-1.299-1.945-2.962-1.896-4.327l1.161-0.243
		c-0.06,1.151,0.478,2.595,1.572,3.753c1.449,1.532,2.963,1.637,4.057,0.603c1.158-1.096,1.199-2.498-0.969-4.79l-1.813-1.918
		l4.957-3.808l4.662,4.931l-0.824,0.779l-3.895-4.121l-3.164,2.405l1.097,1.16C311.381,228.159,311.286,230.2,309.689,231.71z"/>
</g>
<g>
	<path fill="#FFFFFF" d="M317.238,239.616c-1.688,1.594-4.023,1.29-5.679-0.461c-2.263-2.394-1.833-5.265,1.013-7.956
		c3.064-2.896,6.244-2.732,8.557-0.286c0.767,0.811,1.344,1.705,1.531,2.6l-1.1,0.332c-0.129-0.754-0.6-1.482-1.231-2.152
		c-1.838-1.944-4.268-2.013-6.714,0.3c-0.206,0.195-0.451,0.451-0.697,0.732c1.419-0.486,2.969,0.046,4.149,1.295
		C318.76,235.811,318.886,238.057,317.238,239.616z M316.346,238.725c1.186-1.12,1.117-2.713-0.197-4.103
		c-1.302-1.378-3.041-1.514-4.16-0.456c-0.992,0.938-1.152,2.65,0.32,4.207C313.538,239.674,315.148,239.856,316.346,238.725z"/>
</g>
<g>
	<path fill="#FFFFFF" d="M332.959,261.636l0.801-4.828l-4.877,0.516l-0.976-1.031l6.009-0.607l0.885-5.666l0.975,1.03l-0.729,4.542
		l4.575-0.473l0.95,1.005l-5.707,0.566l-0.92,5.991L332.959,261.636z"/>
</g>
<g>
	<path fill="#FFFFFF" d="M339.459,268.51l0.801-4.827l-4.878,0.515l-0.974-1.03l6.008-0.607l0.885-5.666l0.975,1.03l-0.729,4.542
		l4.574-0.474l0.95,1.005l-5.706,0.566l-0.92,5.991L339.459,268.51z"/>
</g>
<g>
	<path fill="#FFFFFF" d="M345.957,275.385l0.801-4.828l-4.877,0.515l-0.975-1.031l6.009-0.607l0.885-5.666l0.975,1.031l-0.729,4.541
		l4.576-0.473l0.949,1.005l-5.707,0.566l-0.919,5.991L345.957,275.385z"/>
</g>
<g>
	<path fill="#FFFFFF" d="M118.013,331.247l-2.2-6.105l-5.311,3.754l-1.794-0.563l6.56-4.592l-2.644-7.131l1.796,0.563l2.095,5.729
		l4.989-3.51l1.75,0.547l-6.238,4.35l2.815,7.527L118.013,331.247z"/>
</g>
<g>
	<path fill="#FFFFFF" d="M131.189,335.386l-2.2-6.107l-5.312,3.756l-1.794-0.564l6.56-4.592l-2.643-7.131l1.795,0.563l2.095,5.727
		l4.989-3.51l1.75,0.549l-6.239,4.35l2.815,7.529L131.189,335.386z"/>
</g>
<g>
	<path fill="#FFFFFF" d="M144.592,339.69l-2.199-6.105l-5.311,3.754l-1.795-0.563l6.561-4.592l-2.643-7.131l1.796,0.563l2.094,5.727
		l4.989-3.51l1.75,0.547l-6.238,4.352l2.815,7.527L144.592,339.69z"/>
</g>
<g>
	<path fill="#FFFFFF" d="M157.853,343.866l-2.2-6.104l-5.312,3.754l-1.795-0.563l6.562-4.592l-2.645-7.133l1.796,0.563l2.095,5.729
		l4.989-3.51l1.75,0.549l-6.238,4.348l2.814,7.529L157.853,343.866z"/>
</g>
<g>
	<path fill="#FFFFFF" d="M185.769,354.231l-2.2-6.105l-5.311,3.754l-1.794-0.563l6.56-4.594l-2.643-7.131l1.795,0.564l2.095,5.727
		l4.989-3.51l1.75,0.549l-6.238,4.348l2.815,7.529L185.769,354.231z"/>
</g>
<g>
	<path fill="#FFFFFF" d="M198.945,358.368l-2.2-6.107l-5.312,3.758l-1.794-0.564l6.56-4.592l-2.643-7.131l1.795,0.563l2.095,5.727
		l4.989-3.51l1.75,0.547l-6.238,4.352l2.815,7.529L198.945,358.368z"/>
</g>
<g>
	<path fill="#FFFFFF" d="M212.348,362.673l-2.199-6.105l-5.311,3.756l-1.795-0.563l6.561-4.594l-2.644-7.131l1.797,0.563
		l2.094,5.727l4.989-3.51l1.749,0.549l-6.237,4.352l2.814,7.527L212.348,362.673z"/>
</g>
<g>
	<path fill="#FFFFFF" d="M225.608,366.851l-2.2-6.104l-5.311,3.752l-1.795-0.563l6.561-4.592l-2.645-7.131l1.797,0.563l2.095,5.727
		l4.989-3.508l1.75,0.547l-6.238,4.35l2.814,7.529L225.608,366.851z"/>
</g>
<g>
	<path fill="#FFFFFF" d="M352.457,282.26l0.801-4.828l-4.877,0.516l-0.975-1.031l6.008-0.607l0.886-5.666l0.975,1.03l-0.729,4.542
		l4.575-0.474l0.95,1.004l-5.707,0.566l-0.919,5.991L352.457,282.26z"/>
</g>
<g>
	<path fill="#FFFFFF" d="M374.899,305.998l0.801-4.827l-4.877,0.516l-0.975-1.031l6.008-0.607l0.886-5.666l0.975,1.031l-0.729,4.54
		l4.575-0.473l0.949,1.005l-5.706,0.565l-0.919,5.992L374.899,305.998z"/>
</g>
<g>
	<path fill="#FFFFFF" d="M381.398,312.873l0.801-4.828l-4.878,0.516l-0.975-1.031l6.009-0.607l0.886-5.666l0.974,1.031l-0.729,4.541
		l4.574-0.474l0.95,1.005l-5.707,0.565l-0.918,5.991L381.398,312.873z"/>
</g>
<g>
	<path fill="#FFFFFF" d="M387.898,319.747l0.801-4.826l-4.878,0.514l-0.975-1.029l6.009-0.608l0.886-5.666l0.975,1.031l-0.729,4.541
		l4.574-0.473l0.95,1.005l-5.707,0.564l-0.918,5.992L387.898,319.747z"/>
</g>
<g>
	<path fill="#FFFFFF" d="M394.396,326.622l0.801-4.828l-4.877,0.516l-0.975-1.031l6.008-0.607l0.886-5.666l0.975,1.031l-0.729,4.541
		l4.575-0.473l0.95,1.004l-5.707,0.566l-0.919,5.99L394.396,326.622z"/>
</g>
<g>
	<path fill="#FFFFFF" d="M423.565,339.421l-9.013,8.521l-0.876-0.928l8.188-7.74l-2.009-2.127l0.824-0.777L423.565,339.421z"/>
</g>
<g>
	<path fill="#FFFFFF" d="M424.807,353.604c-1.505,1.424-3.698,1.426-5.756-0.75c-1.229-1.301-1.96-2.977-1.909-4.342l1.161-0.242
		c-0.058,1.152,0.49,2.607,1.599,3.781c1.411,1.494,2.886,1.658,4.006,0.6c1.081-1.021,1.07-2.451-0.512-4.125l-0.608-0.645
		l0.683-0.645l5.49-0.461l-4.358-4.609l0.824-0.777l5.478,5.793l-0.657,0.621l-5.614,0.482
		C426.354,350.315,426.249,352.243,424.807,353.604z"/>
</g>
<g>
	<path fill="#FFFFFF" d="M433.061,362.771l-1.704-1.801l-2.37,2.238l-0.876-0.926l2.37-2.24l-4.809-5.086l0.67-0.633l10.489-0.871
		l0.974,1.031l-10.176,0.893l3.699,3.912l2.085-1.971l0.853,0.9l-2.086,1.973l1.705,1.803L433.061,362.771z"/>
</g>
<g>
	<path fill="#FFFFFF" d="M438.087,371.185l-0.823,0.779l-5.978-6.322l0.656-0.621l7.213,0.277c1.966,0.068,2.753-0.311,3.372-0.895
		c1.042-0.986,0.992-2.328-0.311-3.705c-0.998-1.057-2.087-1.563-3.328-1.51l-0.056-1.193c1.481-0.084,3.004,0.598,4.307,1.977
		c1.729,1.828,1.896,3.863,0.391,5.287c-0.862,0.814-1.892,1.275-4.22,1.186l-5.91-0.217L438.087,371.185z"/>
</g>
<g>
	<g>
		<path fill="#FFFFFF" d="M373.159,369.636c2.734-2.586,5.718-2.535,7.643-0.5c1.936,2.049,1.807,5.018-0.928,7.604
			c-2.733,2.582-5.706,2.545-7.641,0.5C370.308,375.202,370.426,372.22,373.159,369.636z M378.05,374.81
			c1.882-1.781,2.037-3.182,1.132-4.139c-0.896-0.947-2.305-0.873-4.187,0.906s-2.036,3.182-1.141,4.129
			C374.761,376.663,376.168,376.587,378.05,374.81z"/>
	</g>
	<g>
		<path fill="#FFFFFF" d="M385.691,385.95c-1.692,1.6-4.066,1.223-5.723-0.529c-2.159-2.285-2.071-5.059,0.604-7.588
			c2.864-2.709,6.097-2.49,8.457,0.006c0.829,0.877,1.434,1.92,1.614,2.846l-2.079,0.623c-0.129-0.754-0.525-1.387-1.052-1.943
			c-1.31-1.385-2.965-1.5-4.607-0.061c0.944,0.027,1.854,0.49,2.669,1.354C387.086,382.255,387.254,384.474,385.691,385.95z
			 M383.84,384.181c0.757-0.717,0.717-1.73-0.089-2.582c-0.794-0.84-1.874-0.941-2.597-0.26c-0.711,0.672-0.727,1.699,0.146,2.621
			C382.072,384.776,383.082,384.897,383.84,384.181z"/>
	</g>
	<g>
		<path fill="#FFFFFF" d="M396.693,382.864l1.556,1.645l-14.843,6.635l-1.555-1.645L396.693,382.864z"/>
	</g>
	<g>
		<path fill="#FFFFFF" d="M395.638,398.581l-1.563,1.477l-5.919-6.262l1.242-1.174l6.04,0.342c1.392,0.072,1.942-0.199,2.344-0.578
			c0.651-0.615,0.604-1.424-0.225-2.301c-0.67-0.709-1.513-1.055-2.45-0.934l-0.421-2.246c1.539-0.244,3.24,0.346,4.649,1.836
			c1.746,1.846,1.963,3.973,0.459,5.395c-0.804,0.76-1.751,1.229-3.925,1.088l-3.6-0.205L395.638,398.581z"/>
	</g>
	<g>
		<path fill="#FFFFFF" d="M403.619,406.667l-1.275-1.35l-1.739,1.646l-1.768-1.869l1.739-1.645l-4.219-4.463l1.291-1.221
			l8.947-1.061l1.902,2.012l-8.407,1.088l2.104,2.225l1.551-1.467l1.712,1.813l-1.551,1.465l1.275,1.35L403.619,406.667z"/>
	</g>
</g>
<g>
	<g>
		<g>
			<path fill="#F7B521" d="M442.494,304.177c4.667-7.182,2.836-16.731-3.436-22.564c-1.961-1.824-4.191-3.314-6.532-4.289
				c-5.997-2.501-13.936-0.676-17.083,5.009c-2.57,4.641-1.532,10.432,0.266,15.424c1.882,5.229,4.939,10.572,10.111,12.602
				c4.982,1.955,10.968,0.162,14.69-3.684C441.256,305.904,441.915,305.068,442.494,304.177z"/>
		</g>
	</g>
</g>
<g>
	<g>
		<g>
			<path fill="#5FB894" d="M578.079,328.601V545.21c0,11.854-9.608,21.461-21.461,21.461H241.943
				c-11.852,0-21.461-9.607-21.461-21.461V328.601c0-11.854,9.609-21.462,21.461-21.462h314.675
				C568.471,307.139,578.079,316.747,578.079,328.601z"/>
		</g>
		<g>
			<g>
				<path fill="#263238" d="M578.079,328.601c0,0-0.024-0.262-0.056-0.777c-0.048-0.514-0.025-1.293-0.223-2.297
					c-0.282-2.004-1.013-5.035-3.148-8.406c-1.085-1.66-2.496-3.409-4.39-4.978c-1.895-1.552-4.239-2.941-7.003-3.842
					c-0.686-0.238-1.414-0.379-2.141-0.578c-0.736-0.152-1.5-0.238-2.271-0.363c-0.78-0.037-1.573-0.076-2.381-0.113
					c-0.813,0-1.638,0.002-2.478,0.003c-3.357,0.005-6.933,0.01-10.721,0.015c-30.301,0.024-74.139,0.059-128.306,0.102
					c-27.085,0.012-56.753,0.025-88.603,0.039c-15.924,0.006-32.394,0.012-49.359,0.017c-8.482,0.003-17.089,0.005-25.813,0.007
					c-2.181,0-4.369,0.001-6.564,0.002c-2.201,0.023-4.393-0.078-6.533,0.369c-2.138,0.415-4.227,1.123-6.167,2.154
					c-1.921,1.063-3.687,2.406-5.227,3.988c-1.56,1.567-2.798,3.44-3.776,5.427c-0.975,1.99-1.658,4.145-1.924,6.365
					c-0.299,2.203-0.201,4.484-0.216,6.766c0,2.277,0.001,4.564,0.001,6.857c0.002,9.168,0.004,18.441,0.006,27.814
					c0.002,18.744,0.005,37.885,0.008,57.369c0.002,38.969,0.004,79.316,0.006,120.641c0.008,5.1,1.9,10.139,5.248,13.939
					c3.313,3.826,8.037,6.389,13.03,7.016c2.479,0.32,5.047,0.188,7.587,0.215c2.543,0,5.082,0,7.616,0
					c5.068,0.002,10.119,0.002,15.151,0.002c20.13,0.002,39.964,0.004,59.453,0.006c38.979,0.006,76.576,0.012,112.393,0.018
					c35.815,0.01,69.85,0.02,101.701,0.029c3.981,0.002,7.929,0.004,11.842,0.006c1.965,0.016,3.88-0.027,5.769-0.385
					c1.868-0.396,3.719-0.934,5.402-1.82c0.876-0.371,1.646-0.934,2.466-1.402c0.742-0.584,1.55-1.084,2.218-1.75
					c1.441-1.215,2.615-2.695,3.671-4.223c2.02-3.127,3.257-6.732,3.42-10.389c0.132-14.754,0.049-28.965,0.083-42.5
					c0.044-54.166,0.078-98,0.103-128.299c0.025-15.143,0.046-26.9,0.061-34.881c0.013-3.984,0.023-7.021,0.031-9.072
					C578.058,329.647,578.079,328.601,578.079,328.601s0.022,1.047,0.033,3.09c0.007,2.051,0.017,5.088,0.031,9.072
					c0.015,7.98,0.034,19.738,0.061,34.881c0.023,30.299,0.059,74.133,0.102,128.299c-0.021,13.549,0.077,27.719-0.043,42.529
					c-0.163,3.74-1.427,7.434-3.492,10.635c-1.079,1.564-2.28,3.082-3.754,4.328c-0.684,0.682-1.51,1.197-2.271,1.791
					c-0.836,0.484-1.627,1.059-2.523,1.441c-1.725,0.906-3.618,1.461-5.531,1.869c-1.926,0.367-3.923,0.412-5.866,0.396
					c-3.913,0.002-7.86,0.002-11.842,0.004c-31.852,0.01-65.886,0.02-101.701,0.029c-35.816,0.008-73.414,0.014-112.393,0.02
					c-19.489,0.002-39.323,0.004-59.453,0.004c-5.032,0.002-10.083,0.002-15.151,0.002c-2.534,0-5.073,0-7.616,0
					c-2.539-0.031-5.088,0.109-7.674-0.223c-5.145-0.646-10.014-3.285-13.425-7.227c-3.448-3.914-5.401-9.111-5.407-14.361
					c0.002-41.324,0.004-81.672,0.006-120.641c0.004-19.484,0.006-38.625,0.009-57.369c0.001-9.373,0.003-18.646,0.005-27.814
					c0-2.293,0-4.58,0.001-6.857c0.017-2.271-0.083-4.557,0.224-6.846c0.275-2.283,0.979-4.498,1.981-6.543
					c1.007-2.043,2.282-3.969,3.886-5.579c1.582-1.625,3.398-3.006,5.373-4.096c1.994-1.059,4.143-1.786,6.34-2.212l1.66-0.253
					l1.672-0.092c1.117-0.063,2.205-0.017,3.307-0.031c2.195,0.002,4.384,0.002,6.564,0.002c8.724,0.003,17.33,0.006,25.813,0.008
					c16.966,0.006,33.436,0.011,49.359,0.016c31.85,0.014,61.518,0.027,88.603,0.039c54.167,0.043,98.005,0.078,128.306,0.102
					c3.788,0.006,7.363,0.011,10.721,0.016c0.84,0.001,1.665,0.002,2.478,0.004c0.814,0.041,1.615,0.081,2.402,0.121
					c0.777,0.129,1.548,0.219,2.292,0.375c0.731,0.203,1.467,0.348,2.158,0.59c2.784,0.92,5.143,2.33,7.046,3.9
					c1.9,1.586,3.312,3.354,4.396,5.03c2.13,3.402,2.843,6.455,3.104,8.469c0.188,1.008,0.152,1.787,0.189,2.303
					C578.078,328.339,578.079,328.601,578.079,328.601z"/>
			</g>
		</g>
	</g>
	<g>
		<g>
			<g>
				<ellipse fill="#263238" cx="569.243" cy="323.14" rx="3.692" ry="0.318"/>
			</g>
		</g>
		<g>
			<g>
				<ellipse fill="#263238" cx="542.963" cy="323.14" rx="7.53" ry="0.318"/>
			</g>
		</g>
		<g>
			<g>
				<ellipse fill="#263238" cx="512.846" cy="323.14" rx="7.529" ry="0.318"/>
			</g>
		</g>
		<g>
			<g>
				<ellipse fill="#263238" cx="482.729" cy="323.14" rx="7.529" ry="0.318"/>
			</g>
		</g>
		<g>
			<g>
				<ellipse fill="#263238" cx="452.612" cy="323.14" rx="7.53" ry="0.318"/>
			</g>
		</g>
		<g>
			<g>
				<ellipse fill="#263238" cx="422.494" cy="323.14" rx="7.53" ry="0.318"/>
			</g>
		</g>
		<g>
			<g>
				<ellipse fill="#263238" cx="392.376" cy="323.14" rx="7.53" ry="0.318"/>
			</g>
		</g>
		<g>
			<g>
				<ellipse fill="#263238" cx="362.26" cy="323.14" rx="7.529" ry="0.318"/>
			</g>
		</g>
		<g>
			<g>
				<ellipse fill="#263238" cx="332.142" cy="323.14" rx="7.529" ry="0.318"/>
			</g>
		</g>
		<g>
			<g>
				<ellipse fill="#263238" cx="302.025" cy="323.14" rx="7.53" ry="0.318"/>
			</g>
		</g>
		<g>
			<g>
				<ellipse fill="#263238" cx="271.907" cy="323.14" rx="7.529" ry="0.318"/>
			</g>
		</g>
		<g>
			<g>
				<path fill="#263238" d="M241.936,330.522c-0.177,0-0.32-3.305-0.32-7.381c0.641-0.641,0.18-0.178,0.323-0.32h0.003h0.006h0.012
					h0.025h0.047h0.095h0.19h0.375c0.246,0.002,0.49,0.004,0.732,0.006c0.472,0.006,0.932,0.012,1.387,0.018
					c0.807,0.023,1.587,0.047,2.346,0.07c1.337,0.057,2.163,0.137,2.163,0.225c0,0.09-0.826,0.17-2.163,0.227
					c-0.759,0.023-1.539,0.045-2.346,0.07c-0.455,0.006-0.915,0.012-1.387,0.018c-0.242,0.002-0.486,0.004-0.732,0.006h-0.375h-0.19
					h-0.095h-0.047h-0.025h-0.012h-0.006h-0.003c0.143-0.143-0.321,0.32,0.317-0.318
					C242.256,327.218,242.113,330.522,241.936,330.522z"/>
			</g>
		</g>
		<g>
			<g>
				<ellipse fill="#263238" cx="241.936" cy="351.223" rx="0.32" ry="6.899"/>
			</g>
		</g>
		<g>
			<g>
				<ellipse fill="#263238" cx="241.936" cy="378.821" rx="0.32" ry="6.9"/>
			</g>
		</g>
		<g>
			<g>
				<ellipse fill="#263238" cx="241.936" cy="406.42" rx="0.32" ry="6.899"/>
			</g>
		</g>
		<g>
			<g>
				<ellipse fill="#263238" cx="241.936" cy="434.018" rx="0.32" ry="6.899"/>
			</g>
		</g>
		<g>
			<g>
				<ellipse fill="#263238" cx="241.936" cy="461.617" rx="0.32" ry="6.899"/>
			</g>
		</g>
		<g>
			<g>
				<ellipse fill="#263238" cx="241.936" cy="489.216" rx="0.32" ry="6.9"/>
			</g>
		</g>
		<g>
			<g>
				<ellipse fill="#263238" cx="241.936" cy="516.814" rx="0.32" ry="6.899"/>
			</g>
		</g>
		<g>
			<g>
				<path fill="#263238" d="M249.319,544.897c0,0.176-3.306,0.318-7.384,0.318c-0.64-0.641-0.177-0.178-0.32-0.322v-0.002v-0.008
					v-0.012v-0.023v-0.047v-0.096v-0.189l0.002-0.375c0.002-0.248,0.004-0.49,0.005-0.732c0.007-0.473,0.013-0.934,0.019-1.387
					c0.023-0.809,0.047-1.588,0.068-2.348c0.059-1.336,0.139-2.162,0.227-2.162c0.089,0,0.169,0.826,0.227,2.162
					c0.023,0.76,0.046,1.539,0.069,2.348c0.006,0.453,0.013,0.914,0.019,1.387c0.002,0.242,0.004,0.484,0.005,0.732l0.001,0.375
					v0.189v0.096v0.047v0.023v0.012v0.008v0.002c-0.143-0.143,0.32,0.322-0.32-0.318
					C246.014,544.575,249.319,544.72,249.319,544.897z"/>
			</g>
		</g>
		<g>
			<g>
				<ellipse fill="#263238" cx="271.58" cy="544.897" rx="7.42" ry="0.318"/>
			</g>
		</g>
		<g>
			<g>
				<ellipse fill="#263238" cx="301.261" cy="544.897" rx="7.42" ry="0.318"/>
			</g>
		</g>
		<g>
			<g>
				<ellipse fill="#263238" cx="330.943" cy="544.897" rx="7.42" ry="0.318"/>
			</g>
		</g>
		<g>
			<g>
				<ellipse fill="#263238" cx="360.624" cy="544.897" rx="7.42" ry="0.318"/>
			</g>
		</g>
		<g>
			<g>
				<ellipse fill="#263238" cx="390.305" cy="544.897" rx="7.42" ry="0.318"/>
			</g>
		</g>
		<g>
			<g>
				<ellipse fill="#263238" cx="419.986" cy="544.897" rx="7.42" ry="0.318"/>
			</g>
		</g>
		<g>
			<g>
				<ellipse fill="#263238" cx="449.667" cy="544.897" rx="7.42" ry="0.318"/>
			</g>
		</g>
		<g>
			<g>
				<ellipse fill="#263238" cx="479.349" cy="544.897" rx="7.42" ry="0.318"/>
			</g>
		</g>
		<g>
			<g>
				<ellipse fill="#263238" cx="509.031" cy="544.897" rx="7.42" ry="0.318"/>
			</g>
		</g>
		<g>
			<g>
				<ellipse fill="#263238" cx="538.711" cy="544.897" rx="7.42" ry="0.318"/>
			</g>
		</g>
		<g>
			<g>
				<ellipse fill="#263238" cx="564.665" cy="544.897" rx="3.692" ry="0.318"/>
			</g>
		</g>
	</g>
	<g opacity="0.3">
		<path d="M343.875,451.083c0,0,0.078,12.307-3.643,19.748s-4.972,10.303-12.789,13.166c-7.818,2.861-106.961,13.736-106.961,13.736
			v-33.484L343.875,451.083z"/>
	</g>
	<g opacity="0.3">
		<path d="M342.098,404.692c0,0,1.133-12.555-30.385-17.219c-36.047-5.336-91.23-11.883-91.23-11.883v23.76L342.098,404.692z"/>
	</g>
	<g>
		<g>
			<g>
				<path fill="#5FB894" d="M223.756,474.409H326.26c9.729,0,17.615-7.887,17.615-17.615v-45.883
					c0-9.729-7.887-17.615-17.615-17.615H223.756c-9.729,0-17.615,7.887-17.615,17.615v45.883
					C206.141,466.522,214.027,474.409,223.756,474.409z"/>
			</g>
			<g>
				<g>
					<path fill="#263238" d="M223.756,474.409c0,0-0.355,0.004-1.053-0.021c-0.696-0.006-1.734-0.119-3.061-0.416
						c-1.336-0.273-2.935-0.865-4.682-1.82c-1.736-0.973-3.588-2.42-5.188-4.467c-1.575-2.043-2.98-4.676-3.499-7.809
						c-0.32-1.553-0.283-3.223-0.298-4.914c-0.005-1.701-0.009-3.469-0.014-5.299c-0.014-7.324-0.03-15.66-0.048-24.875
						c0.007-4.611-0.043-9.428,0.01-14.473c0.133-5.082,2.619-10.367,7.067-13.656c2.19-1.652,4.798-2.873,7.608-3.342
						c1.393-0.26,2.854-0.309,4.264-0.299c1.421,0,2.854-0.002,4.297-0.004c5.772-0.004,11.714-0.008,17.807-0.012
						c24.371-0.01,51.162-0.018,79.284-0.025c1.79,0.035,3.569,0.281,5.276,0.789c1.695,0.547,3.306,1.318,4.783,2.291
						c1.453,1.01,2.754,2.215,3.877,3.564c1.107,1.367,1.981,2.898,2.667,4.5c0.666,1.613,1.045,3.322,1.249,5.041
						c0.127,1.738,0.079,3.416,0.088,5.105c-0.001,3.373-0.002,6.717-0.002,10.033c-0.004,6.631-0.006,13.146-0.008,19.525
						c-0.002,3.189-0.004,6.346-0.006,9.465c-0.027,1.568,0.057,3.094-0.062,4.672c-0.003,0.787-0.19,1.553-0.289,2.324
						c-0.189,0.754-0.341,1.521-0.612,2.246c-1.955,5.918-7.104,10.369-12.824,11.658c-0.704,0.215-1.441,0.25-2.156,0.383
						c-0.723,0.059-1.452,0.09-2.168,0.111c-1.422-0.002-2.833-0.002-4.232-0.004c-2.801-0.004-5.557-0.006-8.266-0.008
						c-10.837-0.016-20.932-0.027-30.148-0.041c-18.422-0.043-33.33-0.078-43.656-0.102c-5.141-0.025-9.137-0.045-11.868-0.061
						c-1.345-0.012-2.374-0.023-3.087-0.031C224.111,474.431,223.756,474.409,223.756,474.409s0.355-0.023,1.051-0.035
						c0.713-0.006,1.742-0.018,3.087-0.031c2.731-0.014,6.728-0.033,11.868-0.059c10.326-0.025,25.234-0.059,43.656-0.104
						c9.217-0.012,19.312-0.025,30.148-0.037c2.709-0.004,5.465-0.006,8.266-0.01c2.799-0.068,5.672,0.232,8.427-0.49
						c5.536-1.258,10.513-5.576,12.396-11.297c1.066-2.84,0.918-5.932,0.92-9.055c-0.002-3.119-0.004-6.275-0.006-9.465
						c-0.002-6.379-0.005-12.895-0.008-19.525c-0.001-3.316-0.002-6.66-0.002-10.033c-0.009-1.684,0.034-3.393-0.087-5.045
						c-0.2-1.656-0.563-3.303-1.208-4.859c-0.662-1.545-1.504-3.021-2.572-4.34c-1.084-1.301-2.338-2.463-3.74-3.438
						c-1.426-0.938-2.978-1.68-4.611-2.209c-1.646-0.488-3.361-0.725-5.089-0.76c-28.122-0.01-54.913-0.018-79.284-0.025
						c-6.093-0.006-12.034-0.01-17.807-0.014c-1.443-0.002-2.876-0.002-4.297-0.004c-1.432-0.014-2.805,0.033-4.168,0.283
						c-2.725,0.445-5.255,1.625-7.383,3.223c-4.324,3.186-6.752,8.309-6.895,13.25c-0.065,5.012-0.029,9.854-0.051,14.457
						c-0.018,9.215-0.033,17.551-0.047,24.875c-0.004,1.83-0.008,3.598-0.013,5.299c0.006,1.703-0.039,3.332,0.267,4.861
						c0.491,3.082,1.857,5.682,3.395,7.707c1.563,2.031,3.38,3.477,5.086,4.455c1.72,0.963,3.297,1.57,4.617,1.861
						c1.313,0.313,2.343,0.449,3.035,0.475C223.4,474.368,223.756,474.409,223.756,474.409z"/>
				</g>
			</g>
		</g>
		<g>
			<g>
				<circle fill="#263238" cx="302.383" cy="436.905" r="29.488"/>
			</g>
			<g>
				<g>
					<path fill="#FAFAFA" d="M309.943,460.991c-0.074-0.16,3.036-0.785,7.031-3.682c1.986-1.434,4.121-3.48,5.955-6.148
						c1.836-2.656,3.306-5.977,3.918-9.654c0.559-3.688,0.189-7.301-0.732-10.396c-0.916-3.105-2.311-5.713-3.756-7.689
						c-2.9-3.994-5.662-5.553-5.542-5.682c0.013-0.02,0.179,0.076,0.485,0.275c0.299,0.211,0.775,0.475,1.308,0.924
						c1.108,0.838,2.599,2.227,4.114,4.213c1.518,1.979,2.987,4.619,3.957,7.791c0.975,3.158,1.375,6.869,0.799,10.666
						c-0.629,3.785-2.16,7.189-4.065,9.889c-1.904,2.713-4.12,4.77-6.177,6.18c-2.057,1.42-3.904,2.277-5.219,2.73
						c-0.645,0.262-1.18,0.365-1.529,0.475C310.138,460.976,309.949,461.013,309.943,460.991z"/>
				</g>
			</g>
		</g>
	</g>
</g>
<g>
	<g>
		<g>
			<g>
				<g>
					<g>
						
							<ellipse transform="matrix(0.996 -0.0891 0.0891 0.996 -21.7758 62.716)" fill="#F7B521" cx="691.646" cy="275.286" rx="54.466" ry="54.341"/>
					</g>
				</g>
			</g>
			<g>
				<g>
					<g>
						<g opacity="0.3">
							<path d="M732.861,270.294c-0.25,0.032-0.589-1.767-1.537-4.874c-0.963-3.087-2.621-7.527-5.902-12.245
								c-1.639-2.348-3.669-4.755-6.146-7.022c-2.492-2.243-5.401-4.375-8.747-6.098c-1.667-0.867-3.43-1.657-5.29-2.294
								c-1.854-0.646-3.788-1.204-5.798-1.57c-2.005-0.373-4.07-0.643-6.178-0.704c-2.108-0.066-4.248,0.019-6.4,0.265
								c-2.15,0.276-4.252,0.704-6.28,1.27c-2.033,0.564-3.975,1.319-5.834,2.159c-1.864,0.837-3.608,1.84-5.256,2.91
								c-1.653,1.063-3.177,2.253-4.588,3.492c-2.836,2.472-5.153,5.238-7.036,8.011c-1.861,2.792-3.259,5.615-4.289,8.288
								c-2.057,5.364-2.605,10.07-2.802,13.297c-0.179,3.243-0.076,5.071-0.327,5.098c-0.186,0.026-0.707-1.756-0.911-5.1
								c-0.183-3.322,0.028-8.279,1.919-14.044c0.948-2.871,2.308-5.925,4.193-8.964c1.905-3.02,4.304-6.043,7.293-8.76
								c1.487-1.361,3.1-2.667,4.861-3.839c1.756-1.18,3.623-2.283,5.624-3.206c1.996-0.928,4.087-1.756,6.277-2.377
								c2.188-0.624,4.456-1.09,6.773-1.385c2.32-0.267,4.631-0.354,6.904-0.271c2.274,0.079,4.504,0.385,6.663,0.809
								c2.162,0.418,4.241,1.043,6.225,1.771c1.992,0.717,3.871,1.6,5.64,2.566c3.55,1.924,6.604,4.287,9.177,6.764
								c2.553,2.5,4.606,5.142,6.214,7.703c3.216,5.146,4.604,9.909,5.224,13.18C733.128,268.418,733.046,270.274,732.861,270.294z"
								/>
						</g>
					</g>
				</g>
			</g>
		</g>
		<g opacity="0.3">
			<g>
				<g>
					<g>
						<g>
							<path d="M698.528,299.526l0.748,7.192l-6.421,0.666l-0.728-6.998c-6.396,0.275-12.703-1.079-16.521-3.473l2.714-8.202
								c3.459,2.043,8.261,3.295,12.932,3.263l-1.116-10.724c-7.308-0.99-15.515-2.538-16.471-11.721
								c-0.707-6.806,3.628-13.162,13.652-15.372l-0.741-7.129l6.421-0.668l0.728,7c4.856-0.116,9.675,0.68,13.441,2.56
								l-2.388,8.232c-3.47-1.521-6.922-2.266-10.173-2.318l1.138,10.917c7.299,0.927,15.38,2.489,16.32,11.541
								C712.76,290.972,708.481,297.258,698.528,299.526z M689.156,271.814l-0.951-9.117c-3.321,1.125-4.476,3.127-4.256,5.247
								C684.184,270.19,686.237,271.211,689.156,271.814z M701.81,286.141c-0.234-2.249-2.223-3.273-5.084-3.952l0.922,8.861
								C700.785,290.011,702.023,288.195,701.81,286.141z"/>
						</g>
					</g>
				</g>
			</g>
		</g>
	</g>
	<g>
		<g>
			<g>
				<g>
					<path fill="#263238" d="M650.313,279.089c0.012,0,0.039,0.111,0.081,0.33c0.044,0.255,0.101,0.575,0.171,0.971
						c0.073,0.443,0.158,0.969,0.258,1.581c0.102,0.624,0.187,1.351,0.426,2.139c0.705,3.198,2.2,7.781,5.281,12.771
						c1.502,2.518,3.559,5.004,5.937,7.485c0.637,0.579,1.285,1.166,1.942,1.764c0.334,0.294,0.651,0.612,1.006,0.892
						c0.362,0.27,0.727,0.542,1.093,0.816c0.742,0.535,1.458,1.135,2.252,1.641c0.805,0.49,1.62,0.986,2.445,1.49
						c3.385,1.847,7.144,3.483,11.265,4.372c4.109,0.889,8.485,1.213,12.938,0.863c4.441-0.469,8.687-1.584,12.565-3.208
						c3.892-1.628,7.288-3.922,10.28-6.356c0.72-0.645,1.432-1.282,2.133-1.911c0.689-0.642,1.283-1.361,1.916-2.023
						c0.31-0.338,0.619-0.672,0.926-1.003c0.298-0.339,0.55-0.71,0.825-1.06c0.538-0.707,1.068-1.404,1.589-2.089
						c1.885-2.875,3.454-5.693,4.471-8.443c2.12-5.468,2.752-10.248,2.862-13.52c0.092-0.819,0.042-1.548,0.029-2.181
						c-0.015-0.619-0.026-1.152-0.036-1.601c-0.004-0.403-0.006-0.728-0.009-0.987c0.002-0.222,0.009-0.337,0.02-0.338
						c0.011-0.001,0.026,0.111,0.046,0.333c0.02,0.259,0.043,0.583,0.073,0.985c0.026,0.45,0.059,0.983,0.096,1.604
						c0.034,0.635,0.104,1.368,0.031,2.192c-0.034,3.293-0.601,8.125-2.69,13.676c-1.001,2.79-2.564,5.657-4.455,8.581
						c-0.523,0.697-1.056,1.406-1.597,2.125c-0.274,0.356-0.529,0.734-0.83,1.079c-0.309,0.339-0.619,0.679-0.933,1.021
						c-0.637,0.675-1.236,1.407-1.931,2.062c-0.709,0.641-1.428,1.291-2.155,1.947c-3.023,2.482-6.466,4.822-10.412,6.481
						c-3.935,1.66-8.246,2.797-12.756,3.271c-4.52,0.355-8.966,0.023-13.136-0.891c-4.182-0.912-7.992-2.583-11.417-4.471
						c-0.835-0.515-1.659-1.021-2.475-1.522c-0.801-0.518-1.524-1.127-2.274-1.675c-0.37-0.28-0.737-0.558-1.102-0.834
						c-0.358-0.284-0.678-0.608-1.015-0.908c-0.662-0.61-1.314-1.21-1.956-1.8c-2.394-2.529-4.452-5.063-5.947-7.623
						c-3.065-5.076-4.504-9.724-5.14-12.956c-0.221-0.798-0.287-1.531-0.37-2.162c-0.075-0.618-0.142-1.148-0.197-1.595
						c-0.044-0.401-0.08-0.724-0.109-0.981C650.307,279.204,650.302,279.09,650.313,279.089z"/>
				</g>
			</g>
		</g>
	</g>
</g>
<g>
	<g>
		<g>
			<g>
				<g>
					<g>
						
							<ellipse transform="matrix(0.9008 0.4341 -0.4341 0.9008 234.399 -232.8876)" fill="#F7B521" cx="627.042" cy="396.707" rx="31.647" ry="31.575"/>
					</g>
				</g>
			</g>
			<g>
				<g>
					<g>
						<g opacity="0.3">
							<path d="M649.091,406.493c-0.135-0.059,0.233-1.057,0.685-2.889c0.439-1.826,0.936-4.537,0.703-7.867
								c-0.117-1.66-0.414-3.465-0.973-5.334c-0.576-1.861-1.392-3.791-2.548-5.646c-0.573-0.932-1.218-1.85-1.955-2.721
								c-0.733-0.877-1.532-1.73-2.425-2.512c-0.89-0.783-1.84-1.533-2.874-2.191c-1.03-0.66-2.124-1.256-3.271-1.775
								c-1.155-0.502-2.331-0.914-3.512-1.236c-1.182-0.324-2.375-0.525-3.553-0.66c-1.181-0.139-2.35-0.158-3.49-0.115
								c-1.142,0.039-2.255,0.18-3.328,0.375c-2.152,0.391-4.132,1.08-5.896,1.902c-1.761,0.838-3.299,1.83-4.608,2.855
								c-2.625,2.064-4.3,4.248-5.36,5.801c-1.055,1.564-1.549,2.506-1.682,2.445c-0.1-0.041,0.172-1.088,1.065-2.816
								c0.897-1.711,2.479-4.121,5.141-6.434c1.328-1.15,2.916-2.27,4.763-3.223c1.85-0.939,3.946-1.732,6.247-2.199
								c1.147-0.234,2.341-0.406,3.569-0.465c1.227-0.066,2.487-0.061,3.76,0.074c1.272,0.133,2.563,0.342,3.841,0.686
								c1.277,0.34,2.548,0.783,3.791,1.324c1.238,0.559,2.416,1.205,3.526,1.924c1.11,0.717,2.132,1.533,3.082,2.389
								c0.955,0.852,1.805,1.783,2.579,2.736c0.778,0.951,1.454,1.953,2.049,2.961c1.198,2.018,2.017,4.104,2.562,6.107
								c0.53,2.008,0.767,3.938,0.807,5.693c0.07,3.525-0.655,6.314-1.32,8.131C649.782,405.638,649.189,406.538,649.091,406.493z"
								/>
						</g>
					</g>
				</g>
			</g>
		</g>
		<g opacity="0.3">
			<g>
				<g>
					<g>
						<g>
							<path d="M623.255,410.849l-1.769,3.811l-3.402-1.58l1.722-3.707c-3.273-1.768-6.017-4.322-7.207-6.654l3.797-3.281
								c1.116,2.049,3.139,4.104,5.479,5.479l2.637-5.682c-3.351-2.67-6.984-5.887-4.725-10.754
								c1.675-3.605,5.73-5.484,11.389-3.602l1.755-3.777l3.402,1.578l-1.723,3.711c2.458,1.387,4.624,3.221,5.942,5.279
								l-3.644,3.396c-1.277-1.791-2.776-3.191-4.384-4.188l-2.685,5.785c3.366,2.637,6.932,5.824,4.705,10.619
								C632.903,410.821,628.896,412.683,623.255,410.849z M626.835,394.233l2.241-4.832c-1.992-0.428-3.164,0.227-3.686,1.35
								C624.838,391.94,625.557,393.062,626.835,394.233z M628.88,405.149c0.553-1.191-0.135-2.295-1.36-3.486l-2.18,4.695
								C627.214,406.774,628.374,406.237,628.88,405.149z"/>
						</g>
					</g>
				</g>
			</g>
		</g>
	</g>
	<g>
		<g>
			<g>
				<g>
					<path fill="#263238" d="M605.29,386.29c0.061,0.027-0.379,0.996-0.981,2.801c-0.584,1.807-1.187,4.533-1.123,7.926
						c0.005,1.697,0.296,3.541,0.745,5.477c0.552,1.91,1.264,3.928,2.393,5.863c1.136,1.918,2.518,3.842,4.3,5.504
						c1.775,1.656,3.853,3.113,6.164,4.258c2.342,1.084,4.778,1.789,7.184,2.133c2.412,0.348,4.778,0.219,6.984-0.1
						c2.216-0.334,4.234-1.045,6.068-1.813c1.791-0.863,3.409-1.793,4.733-2.854c2.684-2.078,4.43-4.258,5.47-5.846
						c1.029-1.598,1.508-2.549,1.567-2.518c0.021,0.01-0.087,0.252-0.309,0.705c-0.243,0.441-0.517,1.146-1.048,1.947
						c-0.986,1.646-2.703,3.904-5.401,6.068c-1.333,1.104-2.97,2.076-4.792,2.98c-1.863,0.805-3.924,1.553-6.193,1.912
						c-2.258,0.342-4.685,0.486-7.161,0.139c-2.471-0.346-4.976-1.064-7.38-2.178c-2.373-1.176-4.503-2.674-6.321-4.383
						c-1.822-1.711-3.231-3.693-4.38-5.666c-1.142-1.992-1.853-4.064-2.394-6.021c-0.438-1.986-0.705-3.873-0.683-5.602
						c-0.006-3.461,0.678-6.211,1.34-8.014c0.292-0.916,0.67-1.57,0.861-2.037C605.147,386.517,605.27,386.28,605.29,386.29z"/>
				</g>
			</g>
		</g>
	</g>
</g>
<g>
	<g>
		<g>
			<g>
				<g>
					<g>
						
							<ellipse transform="matrix(0.9896 -0.1438 0.1438 0.9896 -58.3428 23.5234)" fill="#F7B521" cx="133.56" cy="415.367" rx="51.659" ry="51.541"/>
					</g>
				</g>
			</g>
			<g>
				<g>
					<g>
						<g opacity="0.3">
							<path d="M172.33,408.487c-0.234,0.041-0.649-1.645-1.711-4.537c-1.072-2.871-2.875-6.99-6.229-11.287
								c-1.674-2.139-3.723-4.313-6.187-6.33c-2.478-1.992-5.344-3.859-8.602-5.316c-1.625-0.734-3.334-1.391-5.129-1.896
								c-1.791-0.516-3.651-0.943-5.573-1.186c-1.918-0.246-3.888-0.395-5.888-0.344c-1.999,0.049-4.021,0.242-6.047,0.586
								c-2.022,0.373-3.989,0.889-5.881,1.531c-1.896,0.641-3.695,1.457-5.412,2.35c-1.722,0.891-3.321,1.93-4.825,3.029
								c-1.51,1.094-2.89,2.299-4.163,3.549c-2.557,2.488-4.606,5.229-6.244,7.953c-1.617,2.742-2.793,5.488-3.629,8.072
								c-1.667,5.188-1.941,9.674-1.959,12.74c0.001,3.08,0.192,4.807-0.043,4.846c-0.174,0.033-0.761-1.627-1.129-4.783
								c-0.346-3.137-0.406-7.842,1.083-13.4c0.748-2.77,1.876-5.732,3.502-8.709c1.647-2.959,3.761-5.947,6.449-8.676
								c1.338-1.367,2.797-2.688,4.404-3.891c1.601-1.207,3.312-2.352,5.158-3.328c1.842-0.984,3.779-1.877,5.821-2.58
								c2.04-0.705,4.163-1.266,6.341-1.666c2.185-0.373,4.368-0.576,6.525-0.617c2.16-0.043,4.286,0.131,6.353,0.418
								c2.07,0.283,4.07,0.766,5.988,1.352c1.923,0.574,3.749,1.313,5.475,2.135c3.462,1.637,6.477,3.715,9.043,5.928
								c2.55,2.232,4.631,4.629,6.287,6.969c3.314,4.707,4.879,9.145,5.636,12.209C172.484,406.696,172.504,408.458,172.33,408.487z
								"/>
						</g>
					</g>
				</g>
			</g>
		</g>
		<g opacity="0.3">
			<g>
				<g>
					<g>
						<g>
							<path d="M141.342,437.964l1.085,6.771l-6.046,0.967l-1.055-6.59c-6.043,0.596-12.085-0.357-15.827-2.426l2.143-7.908
								c3.382,1.754,7.995,2.688,12.417,2.414l-1.618-10.096c-6.971-0.557-14.826-1.594-16.21-10.24
								c-1.025-6.408,2.749-12.654,12.125-15.271l-1.074-6.711l6.046-0.969l1.055,6.592c4.591-0.363,9.198,0.139,12.861,1.721
								l-1.831,7.922c-3.365-1.258-6.673-1.783-9.754-1.664l1.646,10.279c6.961,0.496,14.696,1.553,16.061,10.076
								C154.374,429.12,150.651,435.296,141.342,437.964z M131.02,412.21l-1.376-8.584c-3.087,1.238-4.075,3.195-3.756,5.189
								C126.227,410.931,128.224,411.79,131.02,412.21z M143.752,425.116c-0.34-2.117-2.276-2.984-5.022-3.477l1.335,8.344
								C142.983,428.835,144.061,427.05,143.752,425.116z"/>
						</g>
					</g>
				</g>
			</g>
		</g>
	</g>
	<g>
		<g>
			<g>
				<g>
					<path fill="#263238" d="M94.615,421.128c0.011-0.002,0.042,0.104,0.094,0.307c0.057,0.242,0.128,0.543,0.215,0.912
						c0.092,0.418,0.201,0.91,0.328,1.482c0.129,0.586,0.249,1.27,0.516,2.004c0.837,2.99,2.493,7.252,5.673,11.813
						c1.554,2.305,3.631,4.549,6.012,6.775c0.634,0.514,1.278,1.037,1.933,1.568c0.331,0.26,0.647,0.545,0.998,0.791
						c0.356,0.236,0.715,0.475,1.077,0.715c0.731,0.469,1.439,0.998,2.218,1.436c0.788,0.422,1.585,0.85,2.393,1.281
						c3.302,1.572,6.944,2.924,10.892,3.551c3.937,0.629,8.096,0.705,12.292,0.143c4.18-0.676,8.141-1.953,11.729-3.695
						c3.597-1.742,6.694-4.092,9.399-6.551c0.647-0.648,1.288-1.289,1.919-1.92c0.618-0.645,1.144-1.357,1.708-2.018
						c0.276-0.334,0.552-0.666,0.823-0.996c0.266-0.336,0.485-0.701,0.727-1.047c0.474-0.697,0.938-1.383,1.396-2.061
						c1.635-2.818,2.973-5.57,3.793-8.225c1.723-5.287,2.074-9.846,2.01-12.949c0.044-0.781-0.039-1.469-0.086-2.066
						c-0.044-0.586-0.082-1.088-0.115-1.514c-0.023-0.381-0.043-0.688-0.058-0.934c-0.01-0.213-0.009-0.322,0.001-0.322
						c0.012-0.002,0.032,0.104,0.063,0.313c0.032,0.246,0.072,0.551,0.122,0.928c0.049,0.426,0.108,0.93,0.177,1.516
						c0.065,0.6,0.169,1.289,0.146,2.074c0.141,3.121-0.141,7.727-1.828,13.096c-0.803,2.695-2.133,5.492-3.771,8.361
						c-0.459,0.688-0.926,1.387-1.4,2.098c-0.242,0.352-0.465,0.723-0.73,1.066c-0.273,0.336-0.551,0.674-0.829,1.016
						c-0.568,0.674-1.099,1.398-1.722,2.055c-0.638,0.645-1.285,1.297-1.939,1.957c-2.734,2.512-5.874,4.906-9.525,6.686
						c-3.641,1.777-7.667,3.08-11.915,3.766c-4.263,0.574-8.492,0.49-12.491-0.156c-4.009-0.646-7.707-2.029-11.05-3.641
						c-0.818-0.443-1.626-0.881-2.423-1.313c-0.787-0.447-1.504-0.988-2.243-1.469c-0.365-0.246-0.728-0.49-1.087-0.732
						c-0.354-0.25-0.674-0.541-1.008-0.807c-0.66-0.543-1.309-1.078-1.948-1.604c-2.399-2.273-4.481-4.564-6.03-6.912
						c-3.169-4.648-4.772-8.979-5.541-12.006c-0.251-0.744-0.352-1.436-0.462-2.029c-0.104-0.58-0.193-1.078-0.269-1.5
						c-0.062-0.375-0.112-0.68-0.152-0.924C94.615,421.237,94.604,421.13,94.615,421.128z"/>
				</g>
			</g>
		</g>
	</g>
</g>
<g>
	<g>
		<path fill="#263238" d="M831.694,566.712c0,0.178-183.731,0.32-410.324,0.32c-226.671,0-410.364-0.143-410.364-0.32
			c0-0.176,183.693-0.32,410.364-0.32C647.963,566.392,831.694,566.536,831.694,566.712z"/>
	</g>
</g>
<g>
	<g>
		<g>
			<g>
				<g>
					<path fill="#FFBE9D" d="M622.853,336.058c0,0-0.097-8.189-0.443-8.256l-16.829,3.746c-0.176,1.064-2.3,14.498-1.936,15.807
						l18.932,5.25C622.576,352.604,622.853,336.534,622.853,336.058z"/>
				</g>
			</g>
			<g>
				<g>
					<g>
						<g>
							<g>
								<g>
									<g>
										<path fill="#FFBE9D" d="M622.869,351.358c0.032-0.018,0.06-0.146,0.083-0.371c0.193-1.834,0.075-9.834-0.9-10.178
											c-1.095-0.383-3.829,0.242-4.017,1.297c-0.19,1.057,0.451,10.064,0.451,10.064s0.192,1.418,2.578,1.762
											C622.539,354.144,622.869,351.358,622.869,351.358z"/>
									</g>
								</g>
							</g>
							<g>
								<g>
									<g>
										<path fill="#FFBE9D" d="M618.069,354.237c0.031-0.018,0.06-0.148,0.083-0.371c0.193-1.832,0.076-9.836-0.901-10.178
											c-1.094-0.383-3.828,0.242-4.017,1.299c-0.189,1.053,0.453,10.061,0.453,10.061s0.191,1.418,2.577,1.762
											C617.739,357.022,618.069,354.237,618.069,354.237z"/>
									</g>
								</g>
							</g>
							<g>
								<g>
									<g>
										<path fill="#FFBE9D" d="M613.373,355.675c0.031-0.018,0.06-0.15,0.083-0.371c0.193-1.834,0.076-9.836-0.899-10.178
											c-1.096-0.385-3.83,0.242-4.019,1.295c-0.188,1.055,0.453,10.063,0.453,10.063s0.19,1.418,2.577,1.762
											C613.043,358.46,613.373,355.675,613.373,355.675z"/>
									</g>
								</g>
							</g>
							<g>
								<g>
									<g>
										<path fill="#FFBE9D" d="M608.702,357.022c0.031-0.014,0.061-0.146,0.083-0.367c0.193-1.834,0.076-9.838-0.9-10.178
											c-1.094-0.385-3.829,0.24-4.018,1.295c-0.189,1.055,0.453,10.063,0.453,10.063s0.19,1.418,2.577,1.762
											C608.372,359.81,608.702,357.022,608.702,357.022z"/>
									</g>
								</g>
							</g>
							<g>
								<g>
									<g>
										<g>
											<path fill="#EB996E" d="M617.997,344.448c0.139,0.01,0.307,1.754,0.375,3.893c0.068,2.143,0.014,3.867-0.124,3.855
												s-0.306-1.754-0.374-3.895C617.804,346.161,617.86,344.437,617.997,344.448z"/>
										</g>
									</g>
								</g>
							</g>
							<g>
								<g>
									<g>
										<g>
											
												<ellipse transform="matrix(-0.0354 -0.9994 0.9994 -0.0354 285.473 975.4646)" fill="#EB996E" cx="613.476" cy="349.969" rx="5.551" ry="0.252"/>
										</g>
									</g>
								</g>
							</g>
							<g opacity="0.78">
								<g>
									<g>
										<g>
											
												<ellipse transform="matrix(-0.0354 -0.9994 0.9994 -0.0354 280.0589 971.0558)" fill="#EB996E" cx="608.683" cy="350.365" rx="5.551" ry="0.252"/>
										</g>
									</g>
								</g>
							</g>
						</g>
					</g>
					<g>
						<g>
							<path fill="#FFBE9D" d="M605.473,331.985c0,0-6.661,15.133-5.688,16.072c0.973,0.939,4.099,2.383,4.099,2.383
								L605.473,331.985z"/>
						</g>
					</g>
				</g>
			</g>
		</g>
	</g>
	<g>
		<g>
			<g>
				<g>
					<g>
						<g>
							<g>
								<g>
									<g>
										<g>
											<g>
												<g>
													<g>
														<g>
															<g>
																<g>
																	<g>
																		<path fill="#FFBE9D" d="M568.643,129.011l-4.881,56.596l-28.346-2.264c-0.177-3.31,0.06-16.113,0.06-16.113
																			s-11.793-1.834-11.938-13.625c-0.071-5.727,0.747-17.563,1.609-28.224c0.955-11.829,11.179-20.724,23.026-20.032
																			l0,0C560.44,106.066,569.698,116.767,568.643,129.011z"/>
																	</g>
																</g>
															</g>
														</g>
													</g>
												</g>
											</g>
										</g>
									</g>
								</g>
							</g>
						</g>
						<g>
							<g>
								<g>
									<g>
										<g>
											<g>
												<g>
													<g>
														<g>
															<g>
																<g>
																	<g>
																		<path fill="#EB996E" d="M535.456,167.061c0,0,7.453,0.605,15.374-4.369c0,0-3.635,8.486-15.401,7.424
																			L535.456,167.061z"/>
																	</g>
																</g>
															</g>
														</g>
													</g>
												</g>
											</g>
										</g>
									</g>
								</g>
							</g>
						</g>
					</g>
				</g>
			</g>
			<g>
				<g>
					<g>
						<g>
							<g>
								<g>
									<g>
										<g>
											<g>
												<g>
													<g>
														<g>
															<g>
																<g>
																	<g>
																		<g>
																			<g>
																				<g>
																					<path fill="#263238" d="M528.287,133.644c-0.031,0.89,0.696,1.649,1.624,1.699
																						c0.926,0.05,1.705-0.629,1.736-1.518c0.031-0.889-0.696-1.65-1.622-1.7
																						C529.098,132.075,528.318,132.755,528.287,133.644z"/>
																				</g>
																			</g>
																		</g>
																	</g>
																</g>
															</g>
														</g>
													</g>
												</g>
											</g>
										</g>
									</g>
								</g>
								<g>
									<g>
										<g>
											<g>
												<g>
													<g>
														<g>
															<g>
																<g>
																	<g>
																		<g>
																			<g>
																				<g>
																					<path fill="#263238" d="M546.13,133.645c-0.031,0.889,0.695,1.648,1.623,1.698
																						c0.927,0.05,1.704-0.629,1.735-1.518c0.032-0.889-0.694-1.65-1.622-1.7
																						C546.938,132.075,546.161,132.755,546.13,133.645z"/>
																				</g>
																			</g>
																		</g>
																	</g>
																</g>
															</g>
														</g>
													</g>
												</g>
											</g>
										</g>
									</g>
								</g>
								<g>
									<g>
										<g>
											<g>
												<g>
													<g>
														<g>
															<g>
																<g>
																	<g>
																		<g>
																			<g>
																				<g>
																					<path fill="#263238" d="M538.903,145.101c0.008-0.103-1.119-0.297-2.944-0.531
																						c-0.463-0.048-0.9-0.14-0.979-0.455c-0.109-0.335,0.084-0.833,0.309-1.372c0.436-1.12,0.891-2.293,1.369-3.523
																						c1.899-5.017,3.275-9.142,3.072-9.217c-0.201-0.074-1.906,3.931-3.808,8.948
																						c-0.457,1.237-0.895,2.416-1.31,3.545c-0.176,0.525-0.478,1.122-0.24,1.816
																						c0.125,0.345,0.463,0.597,0.76,0.676c0.297,0.091,0.558,0.096,0.786,0.109
																						C537.757,145.195,538.896,145.204,538.903,145.101z"/>
																				</g>
																			</g>
																		</g>
																	</g>
																</g>
															</g>
														</g>
													</g>
												</g>
											</g>
										</g>
									</g>
								</g>
								<g>
									<g>
										<g>
											<g>
												<g>
													<g>
														<g>
															<g>
																<g>
																	<g>
																		<g>
																			<g>
																				<g>
																					<path fill="#263238" d="M544.236,146.354c-0.296-0.018-0.3,1.95-1.983,3.345
																						c-1.68,1.401-3.776,1.18-3.792,1.456c-0.028,0.123,0.467,0.381,1.352,0.406
																						c0.867,0.029,2.136-0.25,3.166-1.104c1.026-0.856,1.469-1.999,1.536-2.806
																						C544.589,146.83,544.37,146.343,544.236,146.354z"/>
																				</g>
																			</g>
																		</g>
																	</g>
																</g>
															</g>
														</g>
													</g>
												</g>
											</g>
										</g>
									</g>
								</g>
							</g>
						</g>
					</g>
					<g>
						<g>
							<g>
								<g>
									<g>
										<g>
											<g>
												<g>
													<g>
														<g>
															<g>
																<g>
																	<path fill="#263238" d="M545.011,124.56c0.18,0.493,1.988,0.26,4.115,0.516c2.13,0.214,3.845,0.836,4.127,0.394
																		c0.125-0.211-0.174-0.675-0.866-1.152c-0.688-0.476-1.783-0.929-3.06-1.071c-1.276-0.139-2.445,0.064-3.219,0.379
																		C545.327,123.939,544.934,124.327,545.011,124.56z"/>
																</g>
															</g>
														</g>
													</g>
												</g>
											</g>
										</g>
									</g>
								</g>
							</g>
						</g>
					</g>
					<g>
						<g>
							<g>
								<g>
									<g>
										<g>
											<g>
												<g>
													<g>
														<g>
															<g>
																<g>
																	<path fill="#263238" d="M528.333,126.08c0.318,0.411,1.567-0.016,3.067-0.036c1.501-0.072,2.772,0.276,3.066-0.154
																		c0.127-0.209-0.072-0.621-0.628-1.01c-0.548-0.389-1.462-0.706-2.494-0.675c-1.031,0.033-1.926,0.405-2.448,0.827
																		C528.366,125.455,528.192,125.878,528.333,126.08z"/>
																</g>
															</g>
														</g>
													</g>
												</g>
											</g>
										</g>
									</g>
								</g>
							</g>
						</g>
					</g>
				</g>
			</g>
		</g>
		<g>
			<g>
				<g>
					<path fill="#263238" d="M571.173,121.718c-0.672,5.731-2.234,12.976-2.687,18.834c-0.043,0.538-0.096,1.11-0.421,1.541
						c-0.84,1.115-2.837,3.522-3.858,2.57c-2.484-2.314-3.456-8.793-3.95-12.152c-0.494-3.359-0.411-6.78-0.871-10.144
						c-0.011-0.075-0.021-0.154-0.034-0.238c-0.326-2.36-1.562-4.496-3.427-5.979c-0.438-0.293-0.895-0.561-1.387-0.734
						c-3.464-1.221-9.241,1.036-12.691,2.293c-1.782,0.649-3.505,1.451-5.234,2.235c-3.959,1.795-8.649,1.526-12.172-1.021
						c-2.101-1.519-2.284-6.329-1.365-9.37c2.483-8.215,12.816-11.042,26.066-7.903
						C562.294,104.766,572.518,109.937,571.173,121.718z"/>
				</g>
			</g>
		</g>
		<g>
			<g>
				<g>
					<g>
						<g>
							<g>
								<g>
									<g>
										<g>
											<g>
												<g>
													<g>
														<g>
															<path fill="#FFBE9D" d="M564.667,134.347c0.2-0.087,8.103-2.397,7.845,5.666c-0.258,8.061-8.298,6.14-8.305,5.908
																C564.201,145.688,564.667,134.347,564.667,134.347z"/>
														</g>
													</g>
												</g>
											</g>
										</g>
									</g>
								</g>
							</g>
						</g>
					</g>
				</g>
			</g>
			<g>
				<g>
					<g>
						<g>
							<g>
								<g>
									<g>
										<g>
											<g>
												<g>
													<g>
														<g>
															<g>
																<path fill="#EB996E" d="M566.768,142.945c0.036-0.025,0.137,0.103,0.371,0.219c0.228,0.113,0.624,0.199,1.049,0.055
																	c0.862-0.285,1.621-1.615,1.707-3.067c0.044-0.733-0.087-1.437-0.328-2.023c-0.228-0.598-0.597-1.022-1.021-1.111
																	c-0.425-0.112-0.735,0.135-0.843,0.358c-0.114,0.223-0.068,0.385-0.111,0.397c-0.023,0.019-0.169-0.141-0.094-0.472
																	c0.039-0.159,0.14-0.346,0.334-0.495c0.198-0.151,0.485-0.222,0.783-0.18c0.62,0.063,1.161,0.652,1.427,1.296
																	c0.299,0.648,0.465,1.439,0.416,2.263c-0.105,1.623-0.984,3.117-2.161,3.416c-0.57,0.129-1.039-0.057-1.277-0.254
																	C566.775,143.14,566.738,142.958,566.768,142.945z"/>
															</g>
														</g>
													</g>
												</g>
											</g>
										</g>
									</g>
								</g>
							</g>
						</g>
					</g>
				</g>
			</g>
		</g>
		<g>
			<g>
				<path fill="#455A64" d="M571.047,122.266c0.094,0.128-2.376,1.495-5.765,1.537c-3.388,0.079-5.905-1.196-5.816-1.329
					c0.063-0.188,2.571,0.768,5.806,0.688C568.504,123.127,570.977,122.081,571.047,122.266z"/>
			</g>
		</g>
		<g>
			<g>
				<path fill="#455A64" d="M570.766,124.572c0.098,0.126-2.26,1.493-5.523,1.537c-3.265,0.078-5.669-1.199-5.576-1.329
					c0.064-0.188,2.463,0.767,5.564,0.688C568.331,125.432,570.692,124.387,570.766,124.572z"/>
			</g>
		</g>
	</g>
	<g>
		<g>
			<g>
				<g>
					<g>
						<g>
							<g>
								<g>
									<path fill="#263238" d="M514.665,526.188l5.237,24.119c0,0-22.759,13.426-22.226,17.977l47.135-8.473l-6.618-37.922
										L514.665,526.188z"/>
								</g>
							</g>
						</g>
					</g>
				</g>
			</g>
			<g>
				<g>
					<g>
						<g>
							<g>
								<g>
									<path fill="#455A64" d="M544.812,559.812l-0.817-3.799l-44.886,9.547c0,0-1.934,1.291-1.432,2.725L544.812,559.812z"/>
								</g>
							</g>
						</g>
					</g>
				</g>
			</g>
		</g>
	</g>
	<g>
		<g>
			<g>
				<g>
					<g>
						<g>
							<g>
								<g>
									<path fill="#263238" d="M568.273,528.841l0.777,24.67c0,0-24.814,9.078-25.115,13.652l47.89,0.209l0.365-38.49
										L568.273,528.841z"/>
								</g>
							</g>
						</g>
					</g>
				</g>
			</g>
			<g opacity="0.6">
				<g>
					<g>
						<g>
							<g>
								<g>
									<path fill="#455A64" d="M591.825,567.372l-0.116-3.881l-45.872,1.252c0,0-2.136,0.918-1.901,2.42L591.825,567.372z"/>
								</g>
							</g>
						</g>
					</g>
				</g>
			</g>
		</g>
	</g>
	<g>
		<g>
			<g>
				<g>
					<path fill="#263238" d="M512.084,546.876c0,0-24.548-120.426-24.568-122.836l43.852-23.186l16.982,141.33L512.084,546.876z"/>
				</g>
			</g>
		</g>
		<g>
			<g>
				<g>
					<path fill="#263238" d="M567.306,550.911l-33.91-208.723V297.17l46.327,4.301c0.584,1.754,15.75,249.716,15.75,249.716
						l-4.781-0.275H567.306"/>
				</g>
			</g>
		</g>
		<g>
			<g>
				<g>
					<polygon fill="#263238" points="506.738,293.986 487.516,424.04 530.492,413.616 548.012,298.215 					"/>
				</g>
			</g>
		</g>
		<g>
			<g>
				<g>
					<g>
						<path fill="#455A64" d="M546.498,305.012c0,0,0.006,0.218,0.048,0.639c0.047,0.443,0.111,1.063,0.196,1.865
							c0.19,1.662,0.465,4.074,0.817,7.169c0.734,6.221,1.84,15.219,3.286,26.326c2.868,22.219,7.222,52.859,11.896,86.713
							c2.33,16.938,4.47,33.078,6.297,47.777c0.472,3.674,0.847,7.264,1.367,10.74c0.531,3.469,1.048,6.834,1.547,10.09
							c0.986,6.508,1.905,12.574,2.745,18.111c1.663,11.078,2.978,20.045,3.84,26.248c0.431,3.102,0.748,5.512,0.938,7.148
							c0.095,0.818,0.157,1.443,0.185,1.863c0.014,0.211,0.019,0.371,0.007,0.473c-0.014,0.135-0.077-0.008-0.072,0.02
							c0,0,0.002,0.012,0.016,0.039c0.016,0.049,0.091,0.01,0.086-0.051c0.023-0.107,0.026-0.27,0.024-0.482
							c-0.007-0.424-0.051-1.053-0.128-1.873c-0.151-1.643-0.433-4.059-0.827-7.166c-0.792-6.215-2.044-15.195-3.656-26.279
							c-0.816-5.541-1.712-11.609-2.674-18.125c-0.49-3.258-0.996-6.625-1.519-10.094c-0.508-3.461-0.876-7.059-1.34-10.732
							c-1.797-14.701-3.921-30.85-6.251-47.785c-4.676-33.859-9.096-64.486-12.067-86.689c-1.464-11.086-2.649-20.068-3.473-26.301
							c-0.399-3.087-0.712-5.495-0.927-7.153c-0.109-0.801-0.194-1.418-0.256-1.859
							C546.544,305.225,546.498,305.012,546.498,305.012z"/>
					</g>
				</g>
			</g>
		</g>
		<g>
			<g>
				<g>
					<g>
						<path fill="#455A64" d="M520.646,545.759c0,0-0.017-0.209-0.079-0.617c-0.069-0.43-0.167-1.029-0.293-1.803
							c-0.275-1.609-0.673-3.939-1.184-6.93c-1.059-6.035-2.582-14.729-4.463-25.459c-3.829-21.506-9.11-51.18-14.943-83.953
							c-0.427-2.02-0.575-4.064-0.361-6.084c0.257-2.012,0.594-4.047,0.89-6.047c0.619-4.006,1.23-7.953,1.831-11.834
							c1.221-7.754,2.426-15.23,3.613-22.346c2.366-14.23,4.65-27.021,6.69-37.74c2.046-10.715,3.839-19.361,5.203-25.307
							c0.645-2.982,1.229-5.277,1.591-6.843c0.177-0.765,0.313-1.357,0.412-1.78c0.089-0.401,0.12-0.612,0.12-0.612
							s-0.07,0.2-0.18,0.598c-0.111,0.42-0.267,1.007-0.469,1.766c-0.398,1.557-1.019,3.845-1.698,6.821
							c-1.434,5.932-3.291,14.568-5.389,25.281c-2.094,10.709-4.421,23.496-6.817,37.727c-1.203,7.115-2.419,14.592-3.649,22.348
							c-0.604,3.879-1.216,7.826-1.84,11.836c-0.299,2.012-0.631,4.006-0.896,6.072c-0.221,2.074-0.064,4.207,0.369,6.262
							c5.899,32.758,11.24,62.414,15.111,83.912c1.959,10.717,3.546,19.396,4.646,25.424c0.56,2.98,0.994,5.305,1.293,6.906
							c0.152,0.771,0.269,1.369,0.352,1.797C520.591,545.556,520.646,545.759,520.646,545.759z"/>
					</g>
				</g>
			</g>
		</g>
		<g>
			<g>
				<g>
					<g>
						<path fill="#455A64" d="M533.396,340.716c-0.161,0.027,1.843,13.51,4.474,30.113c2.633,16.613,4.897,30.053,5.059,30.025
							c0.16-0.023-1.843-13.506-4.476-30.115C535.82,354.134,533.557,340.692,533.396,340.716z"/>
					</g>
				</g>
			</g>
		</g>
		<g>
			<g>
				<g>
					<g>
						<path fill="#455A64" d="M566.899,550.536c-0.003,0.041,0.394,0.107,1.11,0.195c0.719,0.086,1.76,0.184,3.048,0.283
							c2.577,0.201,6.144,0.391,10.088,0.459c3.945,0.063,7.517-0.01,10.099-0.125c1.291-0.059,2.335-0.123,3.055-0.186
							c0.722-0.063,1.118-0.115,1.116-0.156c-0.003-0.084-1.602-0.084-4.182-0.074s-6.143,0.014-10.078-0.051
							c-3.935-0.064-7.495-0.188-10.074-0.283C568.503,550.505,566.905,550.452,566.899,550.536z"/>
					</g>
				</g>
			</g>
		</g>
		<g>
			<g>
				<g>
					<g>
						<path fill="#455A64" d="M512.084,546.876c0.006,0.041,0.518,0.012,1.439-0.072c1.039-0.111,2.346-0.248,3.898-0.414
							c3.287-0.375,7.824-0.932,12.83-1.584c5.008-0.65,9.537-1.27,12.812-1.746c1.543-0.236,2.841-0.434,3.874-0.59
							c0.913-0.15,1.415-0.252,1.412-0.285c-0.005-0.049-0.52-0.023-1.441,0.059c-0.923,0.08-2.254,0.217-3.898,0.402
							c-3.289,0.371-7.826,0.926-12.834,1.574c-5.006,0.652-9.535,1.277-12.809,1.758c-1.543,0.238-2.84,0.439-3.873,0.598
							C512.581,546.731,512.079,546.835,512.084,546.876z"/>
					</g>
				</g>
			</g>
		</g>
	</g>
	<g>
		<g>
			<g>
				<g>
					<path fill="#5FB894" d="M447.542,217.11l27.651,21.026c0,0,25.727-43.874,28-46.602c2.272-2.728,8.052-5.647,8.052-5.647
						l-3.194,56.253c0,0-13.915,35.511-33.01,33.583c-14.623-1.477-39.897-40.055-39.897-40.055L447.542,217.11z"/>
				</g>
			</g>
			<g opacity="0.2">
				<g>
					<g>
						<path d="M474.681,237.474c-3.845,5.89-4.898,13.518-2.797,20.229c0.216,0.686,0.503,1.415,1.119,1.782
							c0.925,0.551,2.189-0.015,2.769-0.923c0.58-0.908,0.655-2.037,0.714-3.112c0.537,0.999,1.108,2.035,2.043,2.675
							c0.936,0.639,2.352,0.731,3.112-0.107c0.919-1.013,0.413-2.611-0.139-3.862c-2.355-5.337-4.711-10.675-7.068-16.012"/>
					</g>
				</g>
			</g>
			<g>
				<g>
					<g>
						
							<ellipse transform="matrix(0.5383 -0.8427 0.8427 0.5383 9.7139 485.3656)" fill="#263238" cx="447.852" cy="233.817" rx="12.346" ry="0.375"/>
					</g>
				</g>
			</g>
			<g>
				<g>
					<g>
						<path fill="#263238" d="M447.461,222.641c-0.075-0.063,0.281-0.43,0.915-0.193c0.284,0.117,0.633,0.38,0.737,0.866
							c0.114,0.498-0.211,1.048-0.669,1.273c-0.445,0.249-1.083,0.205-1.428-0.171c-0.342-0.362-0.36-0.798-0.295-1.099
							c0.165-0.655,0.669-0.741,0.678-0.644c0.054,0.095-0.178,0.306-0.151,0.706c0.013,0.421,0.35,0.81,0.848,0.544
							c0.5-0.259,0.372-0.757,0.032-1.006C447.813,222.667,447.509,222.738,447.461,222.641z"/>
					</g>
				</g>
			</g>
			<g>
				<g>
					<g>
						<path fill="#263238" d="M475.228,251.465c-0.179,0.065-1.21-2.854-1.257-6.63c-0.07-3.777,0.871-6.726,1.05-6.667
							c0.221,0.049-0.371,2.992-0.301,6.655C474.764,248.486,475.445,251.41,475.228,251.465z"/>
					</g>
				</g>
			</g>
			<g>
				<g>
					<g>
						<path fill="#263238" d="M480.586,251.277c-0.168,0.104-1.98-2.569-3.546-6.217c-1.577-3.644-2.274-6.797-2.085-6.846
							c0.21-0.06,1.219,2.959,2.773,6.55C479.271,248.358,480.772,251.166,480.586,251.277z"/>
					</g>
				</g>
			</g>
		</g>
		<g>
			<g>
				<g>
					<path fill="#5FB894" d="M569.093,180.543l-4.182-8.265h-30.232l-4.754,9.384l-18.68,4.226l-8.048,120.46
						c-0.049,1.526,0.32,3.037,1.069,4.369l0,0l73.449,2.822l2.99,1.22c2.636-1.622,0.991-8.335,1.022-11.487l0.94-59.659
						l14.532-47.668L569.093,180.543z"/>
				</g>
			</g>
			<g opacity="0.2">
				<g>
					<g>
						<path d="M537.754,184.719c1.781-1.781,3.563-3.561,5.343-5.342c2.002,4.827,4.003,9.654,6.005,14.48
							c6.904-4.061,13.488-8.669,19.668-13.768c-6.782,2.177-13.564,4.353-20.347,6.529c-1.719-4.562-3.437-9.124-5.155-13.686
							c-1.207,4.14-2.928,8.129-5.113,11.847"/>
					</g>
				</g>
			</g>
			<g>
				<g>
					<g>
						<path fill="#5FB894" d="M622.983,331.587l-19.797,1.025l-0.042-56.813l-20.476-32.187l14.532-47.668
							c2.996,1.178,25.549,57.814,31.292,73.192c0.829,2.22,1.191,4.579,1.069,6.945L622.983,331.587z"/>
					</g>
				</g>
			</g>
			<g>
				<g>
					<g>
						<path fill="#263238" d="M511.245,210.752c0.207,0.021-0.775,11.669-2.193,26.016c-1.417,14.352-2.732,25.966-2.939,25.946
							c-0.205-0.021,0.776-11.668,2.194-26.02C509.724,222.349,511.039,210.732,511.245,210.752z"/>
					</g>
				</g>
			</g>
			<g>
				<g>
					<g>
						<path fill="#263238" d="M543.254,172.972c0.192,0.08-1.42,4.415-3.6,9.683c-0.136,0.329-0.271,0.654-0.405,0.975
							c-0.142,0.326-0.292,0.701-0.658,1.003c-0.38,0.335-0.999,0.274-1.312,0.085c-0.349-0.178-0.578-0.361-0.844-0.528
							c-0.956-0.648-1.862-1.262-2.718-1.841c-1.534-1.066-2.456-1.77-2.401-1.856c0.057-0.087,1.079,0.458,2.688,1.411
							c0.882,0.536,1.817,1.105,2.805,1.705c0.538,0.335,1.08,0.733,1.325,0.448c0.324-0.271,0.54-1.061,0.827-1.688
							C541.142,177.101,543.063,172.894,543.254,172.972z"/>
					</g>
				</g>
			</g>
			<g>
				<g>
					<g>
						<path fill="#263238" d="M567.299,180.351c0.033,0.097-1.733,0.802-4.617,1.86c-2.883,1.058-6.882,2.471-11.313,3.988
							c-0.829,0.282-1.643,0.559-2.422,0.824l-0.33,0.112l-0.132-0.32c-1.562-3.774-2.907-7.116-3.841-9.523
							c-0.936-2.407-1.457-3.881-1.37-3.917c0.086-0.036,0.767,1.37,1.821,3.728c1.057,2.356,2.486,5.663,4.073,9.426l-0.462-0.208
							c0.777-0.268,1.591-0.547,2.419-0.833c4.432-1.517,8.459-2.85,11.386-3.78C565.438,180.779,567.265,180.253,567.299,180.351z"
							/>
					</g>
				</g>
			</g>
			<g>
				<g>
					<g>
						<path fill="#263238" d="M594.094,197.647c0.058,0.22-4.199,1.373-9.134,3.583c-4.95,2.185-8.656,4.573-8.78,4.384
							c-0.054-0.081,0.806-0.783,2.311-1.758c1.502-0.975,3.663-2.197,6.164-3.311c2.502-1.111,4.857-1.897,6.588-2.36
							C592.973,197.721,594.069,197.553,594.094,197.647z"/>
					</g>
				</g>
			</g>
			<g>
				<g>
					<g>
						<path fill="#263238" d="M543.254,172.972c0.014,0,0.028,0.122,0.042,0.36c0.014,0.283,0.029,0.63,0.049,1.058
							c0.028,0.93,0.081,2.302,0.101,4.069c0.038,3.534,0.017,8.651-0.23,14.968c-0.453,12.636-2.032,30.046-4.553,49.161
							c-1.227,9.566-2.576,18.651-3.485,26.944c-0.92,8.292-1.321,15.801-1.198,22.104c0.086,6.305,0.661,11.388,1.175,14.875
							c0.214,1.752,0.495,3.094,0.63,4.016c0.063,0.422,0.117,0.767,0.159,1.045c0.032,0.236,0.042,0.359,0.028,0.362
							c-0.012,0.003-0.047-0.114-0.104-0.348c-0.063-0.274-0.138-0.615-0.232-1.032c-0.182-0.912-0.51-2.248-0.77-3.998
							c-0.604-3.482-1.262-8.578-1.417-14.908c-0.192-6.33,0.157-13.874,1.041-22.19c0.875-8.318,2.204-17.409,3.43-26.967
							c2.519-19.104,4.178-36.476,4.766-49.089c0.314-6.304,0.417-11.413,0.469-14.944c0.017-1.718,0.03-3.077,0.04-4.066
							c0.011-0.429,0.02-0.776,0.027-1.059C543.23,173.095,543.242,172.972,543.254,172.972z"/>
					</g>
				</g>
			</g>
			<g>
				<g>
					<g>
						
							<ellipse transform="matrix(0.9988 0.049 -0.049 0.9988 16.5284 -29.6695)" fill="#263238" cx="613.581" cy="322.378" rx="10.486" ry="0.375"/>
					</g>
				</g>
			</g>
			<g>
				<g>
					<g>
						<path fill="#263238" d="M606.492,325.106c0.066,0.082-0.034,0.281,0.063,0.535c0.113,0.281,0.316,0.414,0.582,0.207
							c0.258-0.215,0.171-0.441-0.079-0.611c-0.229-0.148-0.445-0.094-0.513-0.174c-0.082-0.053,0.13-0.41,0.667-0.332
							c0.243,0.043,0.562,0.189,0.728,0.566c0.173,0.387-0.003,0.885-0.332,1.135c-0.314,0.27-0.839,0.336-1.18,0.084
							c-0.333-0.24-0.41-0.584-0.401-0.828C606.064,325.144,606.458,325.013,606.492,325.106z"/>
					</g>
				</g>
			</g>
			<g opacity="0.2">
				<g>
					<g>
						<path d="M582.96,243.462c-2.152-3.887-4.303-7.773-6.454-11.66c-2.571,20.504-1.116,41.505,4.258,61.458
							c0.664-16.516,1.327-33.032,1.992-49.548"/>
					</g>
				</g>
			</g>
			<g>
				<g>
					<g>
						<path fill="#263238" d="M550.197,222.05c-0.023-0.025,0.381-0.05,1.166-0.077c0.9-0.023,2.044-0.052,3.442-0.086
							c2.985-0.061,7.302-0.132,12.493-0.163l0.352-0.002l-0.026,0.354c-0.334,4.545-0.721,9.813-1.134,15.428l-0.015,0.206
							l-0.185,0.097c-0.242,0.128-0.504,0.266-0.768,0.405c-2.908,1.528-5.715,3.003-8.362,4.395l-0.212,0.111l-0.182-0.149
							c-2.821-2.306-5.432-4.441-7.762-6.346l-0.125-0.103l0.013-0.156c0.363-4.173,0.667-7.65,0.891-10.219
							c0.111-1.117,0.203-2.034,0.277-2.769C550.13,222.347,550.176,222.027,550.197,222.05c0.021,0.023,0.018,0.388-0.006,1.051
							c-0.033,0.755-0.076,1.698-0.126,2.845c-0.142,2.529-0.334,5.953-0.565,10.06l-0.111-0.258c2.351,1.878,4.984,3.985,7.83,6.26
							l-0.393-0.038c2.643-1.399,5.444-2.884,8.348-4.421c0.264-0.139,0.525-0.277,0.768-0.405l-0.197,0.302
							c0.446-5.611,0.866-10.877,1.229-15.42l0.326,0.352c-5.054-0.032-9.288-0.103-12.292-0.164
							c-1.428-0.035-2.595-0.063-3.513-0.086C550.672,222.101,550.222,222.076,550.197,222.05z"/>
					</g>
				</g>
			</g>
			<g>
				<g>
					<g>
						<path fill="#263238" d="M513.881,311.315c-0.015,0.206-1.551-0.071-2.541-1.562c-1.007-1.479-0.688-3.006-0.491-2.941
							c0.216,0.01,0.26,1.291,1.114,2.523C512.781,310.59,513.952,311.113,513.881,311.315z"/>
					</g>
				</g>
			</g>
			<g>
				<g>
					<g>
						<path fill="#263238" d="M515.796,310.52c-0.129,0.146-1.521-1.181-2.073-3.406c-0.573-2.223,0.023-4.053,0.205-3.985
							c0.218,0.038-0.008,1.774,0.521,3.802C514.946,308.963,515.972,310.384,515.796,310.52z"/>
					</g>
				</g>
			</g>
			<g>
				<g>
					<g>
						<path fill="#263238" d="M571.235,302.239c0.185-0.03,0.364,2.892-1.146,6.063c-1.48,3.188-3.847,4.912-3.94,4.75
							c-0.161-0.163,1.865-2.047,3.262-5.068C570.846,304.982,571.006,302.221,571.235,302.239z"/>
					</g>
				</g>
			</g>
		</g>
	</g>
	<g>
		<path fill="#FFBE9D" d="M446.001,219.416c0,0-22.368-16.946-25.503-18.081c-5.2-1.883-6.453-1.381-6.453-1.381l12.27,13.217
			c0,0-12.97,4.376-13.905,4.889c-1.044,0.572-1.397,3.372,1.756,3.372c2.595,0,15.033,0.29,15.033,0.29l10.259,7.491
			L446.001,219.416z"/>
	</g>
</g>
<g>
	<path fill-rule="evenodd" clip-rule="evenodd" fill="#E0E0E0" d="M285.55,134.052c-5.396-0.045-9.757-3.609-10.851-8.792
		c-0.353-1.67-0.292-3.338,0.149-4.987c0.264-0.986,1.251-1.556,2.225-1.304c0.964,0.248,1.558,1.207,1.313,2.192
		c-0.493,1.996-0.269,3.889,0.778,5.662c2.396,4.059,8.001,4.801,11.372,1.505c1.495-1.463,2.961-2.954,4.443-4.43
		c0.518-0.516,1.144-0.681,1.838-0.479c0.665,0.195,1.103,0.651,1.251,1.335c0.131,0.603,0.031,1.182-0.416,1.628
		c-1.657,1.662-3.257,3.383-5.001,4.952C290.61,133.172,288.163,134.022,285.55,134.052z"/>
	<path fill-rule="evenodd" clip-rule="evenodd" fill="#E0E0E0" d="M276.863,111.729c0.575,0.003,1.005,0.193,1.366,0.554
		c0.781,0.781,1.568,1.555,2.339,2.345c0.168,0.171,0.254,0.188,0.438,0.006c3.331-3.343,6.672-6.676,10.01-10.011
		c0.708-0.705,1.776-0.776,2.507-0.172c0.852,0.702,0.905,1.929,0.109,2.728c-1.558,1.564-3.121,3.123-4.684,4.683
		c-2.259,2.258-4.54,4.499-6.774,6.783c-0.97,0.992-2.441,0.786-3.033-0.264c-0.043-0.077-0.117-0.138-0.18-0.202
		c-1.106-1.106-2.216-2.21-3.32-3.319c-0.512-0.516-0.683-1.137-0.471-1.836c0.208-0.69,0.688-1.104,1.388-1.261
		C276.677,111.735,276.803,111.735,276.863,111.729z"/>
	<path fill-rule="evenodd" clip-rule="evenodd" fill="#E0E0E0" d="M285.839,121.828c-0.65-0.03-1.22-0.376-1.546-1.076
		c-0.313-0.672-0.189-1.467,0.333-1.993c1.745-1.758,3.496-3.513,5.26-5.253c0.7-0.691,1.849-0.647,2.54,0.05
		c0.702,0.709,0.719,1.835,0.007,2.558c-1.313,1.331-2.642,2.646-3.964,3.966c-0.402,0.401-0.804,0.803-1.207,1.203
		C286.902,121.644,286.467,121.826,285.839,121.828z"/>
	<path fill-rule="evenodd" clip-rule="evenodd" fill="#E0E0E0" d="M288.012,123.877c-0.004-0.503,0.173-0.936,0.526-1.29
		c1.303-1.305,2.604-2.614,3.919-3.907c0.712-0.7,1.86-0.667,2.557,0.042c0.691,0.702,0.712,1.833,0.016,2.54
		c-1.301,1.32-2.61,2.631-3.934,3.928c-0.566,0.554-1.258,0.652-1.989,0.361C288.437,125.283,288.011,124.61,288.012,123.877z"/>
</g>
<path fill="#F5F5F5" d="M265.359,171.878c0,8.881-6.104,16.08-13.633,16.08H150.988c-7.53,0-13.633-7.199-13.633-16.08v-24.18
	c0-8.881,6.104-16.08,13.633-16.08h100.738c7.53,0,13.633,7.199,13.633,16.08V171.878z"/>
<path fill="#EBEBEB" d="M257.62,168.832c0,6.627-5.373,12-12,12h-88.67c-6.627,0-12-5.373-12-12v-18.045c0-6.627,5.373-12,12-12
	h88.67c6.627,0,12,5.373,12,12V168.832z"/>
<g>
	<path fill-rule="evenodd" clip-rule="evenodd" fill="#5FB894" d="M180.585,170.246c-1.194,0-2.389,0.006-3.583-0.002
		c-0.882-0.006-1.584-0.604-1.743-1.461c-0.149-0.813,0.326-1.644,1.112-1.945c0.243-0.094,0.495-0.121,0.753-0.121
		c2.196,0.002,4.393,0.002,6.589,0c1.257,0,2.163-0.897,2.18-2.158c0.014-1.105-0.039-2.213,0.025-3.316
		c0.145-2.449,2.036-4.596,4.44-5.057c3.059-0.586,5.882,1.289,6.508,4.322c0.066,0.323,0.096,0.65,0.099,0.979
		c0.005,1.065,0.011,2.132-0.001,3.198c-0.008,0.89-0.655,1.634-1.49,1.742c-0.912,0.118-1.713-0.389-1.969-1.246
		c-0.055-0.186-0.077-0.375-0.076-0.568c0.002-1.002,0.002-2.004,0-3.006c-0.002-1.129-0.838-1.998-1.925-2.006
		c-1.119-0.009-2.057,0.891-2.069,2.003c-0.012,0.97-0.003,1.939-0.004,2.909c-0.004,2.82-1.878,5.1-4.644,5.645
		c-0.363,0.072-0.731,0.088-1.101,0.088C182.654,170.246,181.619,170.246,180.585,170.246z"/>
	<path fill-rule="evenodd" clip-rule="evenodd" fill="#F7B521" d="M232.96,170.254c-5.252-0.043-9.495-3.512-10.561-8.557
		c-0.343-1.625-0.284-3.249,0.146-4.854c0.257-0.96,1.218-1.514,2.164-1.27c0.939,0.242,1.517,1.175,1.28,2.133
		c-0.48,1.942-0.263,3.787,0.756,5.512c2.331,3.949,7.786,4.672,11.066,1.464c1.455-1.424,2.883-2.875,4.324-4.312
		c0.504-0.501,1.114-0.662,1.789-0.465c0.647,0.189,1.073,0.633,1.218,1.299c0.127,0.587,0.029,1.15-0.404,1.586
		c-1.613,1.616-3.171,3.293-4.868,4.819C237.885,169.396,235.503,170.225,232.96,170.254z"/>
	<path fill-rule="evenodd" clip-rule="evenodd" fill="#5FB894" d="M224.507,148.527c0.559,0.004,0.978,0.188,1.329,0.54
		c0.759,0.761,1.524,1.513,2.275,2.282c0.164,0.167,0.247,0.184,0.425,0.006c3.243-3.253,6.493-6.498,9.743-9.743
		c0.688-0.687,1.729-0.755,2.44-0.167c0.827,0.684,0.88,1.877,0.104,2.655c-1.516,1.522-3.037,3.038-4.557,4.557
		c-2.201,2.198-4.419,4.378-6.594,6.602c-0.944,0.966-2.375,0.765-2.951-0.257c-0.042-0.074-0.113-0.135-0.175-0.196
		c-1.076-1.077-2.157-2.151-3.23-3.231c-0.499-0.502-0.666-1.105-0.46-1.787c0.202-0.671,0.671-1.073,1.352-1.227
		C224.326,148.534,224.447,148.533,224.507,148.527z"/>
	<path fill-rule="evenodd" clip-rule="evenodd" fill="#5FB894" d="M204.496,161.425c0,1.13,0.016,2.261-0.004,3.39
		c-0.046,2.705-2.097,5-4.779,5.376c-0.248,0.034-0.495,0.053-0.743,0.054c-1.258,0.004-2.516,0.008-3.774,0
		c-0.896-0.006-1.584-0.604-1.739-1.488c-0.142-0.803,0.333-1.622,1.112-1.919c0.234-0.089,0.479-0.121,0.729-0.12
		c1.154,0.002,2.31-0.031,3.462,0.01c1.201,0.043,2.241-0.889,2.222-2.234c-0.033-2.203-0.012-4.407-0.008-6.611
		c0.002-0.887,0.536-1.563,1.375-1.762c1.059-0.251,2.122,0.54,2.143,1.627C204.513,158.973,204.496,160.199,204.496,161.425z"/>
	<path fill-rule="evenodd" clip-rule="evenodd" fill="#5FB894" d="M212.71,163.158c-0.025,1.518-0.547,2.834-1.611,3.92
		c-0.87,0.887-1.753,1.761-2.636,2.635c-0.721,0.711-1.83,0.713-2.523,0.014c-0.686-0.691-0.683-1.788,0.022-2.504
		c0.839-0.851,1.689-1.689,2.533-2.533c0.909-0.911,0.909-2.143,0.002-3.053c-0.851-0.85-1.704-1.696-2.549-2.551
		c-0.487-0.493-0.632-1.094-0.441-1.75c0.191-0.66,0.649-1.078,1.325-1.219c0.594-0.125,1.138,0.014,1.574,0.442
		c0.932,0.915,1.864,1.831,2.771,2.771C212.201,160.395,212.684,161.689,212.71,163.158z"/>
	<path fill-rule="evenodd" clip-rule="evenodd" fill="#5FB894" d="M218.96,161.378c0,1.073,0.001,2.147-0.001,3.222
		c-0.002,2.906-2.083,5.264-4.963,5.613c-0.356,0.043-0.719,0.072-1.075-0.021c-0.865-0.229-1.407-1.023-1.312-1.927
		c0.089-0.839,0.83-1.514,1.697-1.545c1.296-0.046,2.112-0.887,2.112-2.178c0.002-2.204,0-4.409,0.002-6.613
		c0-0.897,0.521-1.595,1.335-1.8c1.112-0.279,2.192,0.543,2.201,1.689C218.967,159.005,218.959,160.191,218.96,161.378z"/>
	<path fill-rule="evenodd" clip-rule="evenodd" fill="#5FB894" d="M163.251,170.232c-1.193,0-2.389,0.039-3.581-0.008
		c-2.457-0.094-4.641-2.015-5.108-4.432c-0.096-0.492-0.159-0.992-0.071-1.48c0.229-1.284,1.8-1.852,2.819-1.035
		c0.431,0.345,0.657,0.798,0.67,1.352c0.031,1.229,0.907,2.088,2.133,2.088c2.243,0.002,4.487-0.002,6.731,0.003
		c0.945,0.002,1.66,0.642,1.784,1.578c0.124,0.929-0.597,1.86-1.531,1.927c-0.598,0.043-1.201,0.019-1.802,0.021
		c-0.681,0.003-1.362,0.001-2.044,0.001C163.251,170.242,163.251,170.236,163.251,170.232z"/>
	<path fill-rule="evenodd" clip-rule="evenodd" fill="#5FB894" d="M173.477,162.107c0,2.115,0.006,4.23-0.002,6.346
		c-0.005,1.384-1.429,2.24-2.614,1.574c-0.581-0.326-0.905-0.838-0.906-1.51c-0.006-4.271-0.006-8.543-0.001-12.813
		c0.001-0.963,0.791-1.732,1.753-1.734c0.978-0.002,1.763,0.756,1.768,1.742C173.484,157.844,173.477,159.977,173.477,162.107z"/>
	<path fill-rule="evenodd" clip-rule="evenodd" fill="#F7B521" d="M233.243,158.356c-0.634-0.029-1.188-0.366-1.506-1.047
		c-0.306-0.655-0.184-1.428,0.324-1.939c1.7-1.712,3.403-3.419,5.12-5.112c0.681-0.672,1.8-0.631,2.472,0.049
		c0.685,0.69,0.7,1.785,0.006,2.488c-1.276,1.295-2.57,2.574-3.856,3.859c-0.392,0.392-0.782,0.782-1.174,1.172
		C234.276,158.178,233.852,158.355,233.243,158.356z"/>
	<path fill-rule="evenodd" clip-rule="evenodd" fill="#5FB894" d="M197.918,176.311c-1.076,0.002-2.465-0.465-3.731-1.289
		c-0.787-0.514-0.984-1.59-0.479-2.385c0.505-0.797,1.534-1.061,2.36-0.588c0.523,0.299,1.056,0.57,1.655,0.68
		c1,0.182,1.901-0.094,2.748-0.605c0.308-0.186,0.632-0.307,0.995-0.307c0.783-0.003,1.472,0.501,1.701,1.242
		c0.232,0.754-0.054,1.574-0.726,1.997C201.199,175.839,199.853,176.302,197.918,176.311z"/>
	<path fill-rule="evenodd" clip-rule="evenodd" fill="#5FB894" d="M163.806,174.369c-1.01,0-2.019,0.004-3.028-0.001
		c-0.944-0.005-1.664-0.668-1.768-1.62c-0.094-0.859,0.527-1.68,1.419-1.868c0.102-0.021,0.206-0.03,0.311-0.03
		c2.059-0.002,4.117-0.006,6.177,0.001c0.726,0.003,1.348,0.453,1.606,1.13c0.254,0.664,0.09,1.41-0.424,1.899
		c-0.34,0.322-0.745,0.489-1.216,0.489C165.858,174.369,164.832,174.369,163.806,174.369z"/>
	<path fill-rule="evenodd" clip-rule="evenodd" fill="#F7B521" d="M235.356,160.351c-0.003-0.489,0.169-0.911,0.513-1.255
		c1.269-1.27,2.533-2.543,3.813-3.802c0.692-0.681,1.811-0.649,2.49,0.04c0.672,0.684,0.692,1.784,0.014,2.473
		c-1.266,1.283-2.54,2.561-3.828,3.822c-0.551,0.539-1.225,0.635-1.935,0.35C235.77,161.719,235.355,161.064,235.356,160.351z"/>
	<path fill-rule="evenodd" clip-rule="evenodd" fill="#5FB894" d="M191.412,155.182c-1.183,0.003-2.123-0.931-2.125-2.109
		c-0.002-1.174,0.948-2.125,2.119-2.124c1.16,0.003,2.111,0.948,2.116,2.105C193.528,154.232,192.589,155.178,191.412,155.182z"/>
	<path fill-rule="evenodd" clip-rule="evenodd" fill="#5FB894" d="M164.75,174.551c1.179-0.004,2.126,0.937,2.127,2.11
		c0.001,1.177-0.94,2.11-2.125,2.108c-1.179-0.004-2.107-0.924-2.11-2.094C162.637,175.493,163.57,174.553,164.75,174.551z"/>
</g>
<text transform="matrix(0.6792 0.734 -0.734 0.6792 319.2578 162.5674)" fill="#FFFFFF" font-family="'ANegaar'" font-size="34"></text>
</svg>
